<?xml version="1.0" encoding="UTF-8"?>
<svg id="katman_2" data-name="katman 2" xmlns="http://www.w3.org/2000/svg" xmlns:xlink="http://www.w3.org/1999/xlink" viewBox="0 0 144.57 59.4">
  <defs>
    <linearGradient id="Adsız_degrade" data-name="Adsız degrade" x1="37" y1="278.79" x2="37.38" y2="278.79" gradientTransform="translate(4.72 309.25) rotate(29.26) scale(1.15 -.87) skewX(-23.09)" gradientUnits="userSpaceOnUse">
      <stop offset="0" stop-color="#574dfd"/>
      <stop offset=".09" stop-color="#686bfd"/>
      <stop offset=".21" stop-color="#7e91fd"/>
      <stop offset=".32" stop-color="#8eacfd"/>
      <stop offset=".42" stop-color="#97bdfd"/>
      <stop offset=".5" stop-color="#9bc3fd"/>
      <stop offset=".57" stop-color="#97bdfd"/>
      <stop offset=".67" stop-color="#8eacfd"/>
      <stop offset=".78" stop-color="#7e91fd"/>
      <stop offset=".9" stop-color="#686bfd"/>
      <stop offset=".99" stop-color="#574dfd"/>
    </linearGradient>
    <linearGradient id="Adsız_degrade_2" data-name="Adsız degrade 2" x1="35.83" y1="277.53" x2="36.38" y2="277.53" gradientTransform="translate(4.72 309.25) rotate(29.26) scale(1.15 -.87) skewX(-23.09)" gradientUnits="userSpaceOnUse">
      <stop offset="0" stop-color="#574dfd"/>
      <stop offset=".09" stop-color="#686bfd"/>
      <stop offset=".21" stop-color="#7e91fd"/>
      <stop offset=".32" stop-color="#8eacfd"/>
      <stop offset=".42" stop-color="#97bdfd"/>
      <stop offset=".5" stop-color="#9bc3fd"/>
      <stop offset=".57" stop-color="#97bdfd"/>
      <stop offset=".67" stop-color="#8eacfd"/>
      <stop offset=".78" stop-color="#7e91fd"/>
      <stop offset=".9" stop-color="#686bfd"/>
      <stop offset=".99" stop-color="#574dfd"/>
    </linearGradient>
    <linearGradient id="Adsız_degrade_3" data-name="Adsız degrade 3" x1="36.4" y1="278.21" x2="36.88" y2="278.21" gradientTransform="translate(4.72 309.25) rotate(29.26) scale(1.15 -.87) skewX(-23.09)" gradientUnits="userSpaceOnUse">
      <stop offset="0" stop-color="#574dfd"/>
      <stop offset=".09" stop-color="#686bfd"/>
      <stop offset=".21" stop-color="#7e91fd"/>
      <stop offset=".32" stop-color="#8eacfd"/>
      <stop offset=".42" stop-color="#97bdfd"/>
      <stop offset=".5" stop-color="#9bc3fd"/>
      <stop offset=".57" stop-color="#97bdfd"/>
      <stop offset=".67" stop-color="#8eacfd"/>
      <stop offset=".78" stop-color="#7e91fd"/>
      <stop offset=".9" stop-color="#686bfd"/>
      <stop offset=".99" stop-color="#574dfd"/>
    </linearGradient>
    <linearGradient id="Adsız_degrade_4" data-name="Adsız degrade 4" x1="38.14" y1="279.64" x2="38.69" y2="279.64" gradientTransform="translate(4.72 309.25) rotate(29.26) scale(1.15 -.87) skewX(-23.09)" gradientUnits="userSpaceOnUse">
      <stop offset="0" stop-color="#574dfd"/>
      <stop offset=".09" stop-color="#686bfd"/>
      <stop offset=".21" stop-color="#7e91fd"/>
      <stop offset=".32" stop-color="#8eacfd"/>
      <stop offset=".42" stop-color="#97bdfd"/>
      <stop offset=".5" stop-color="#9bc3fd"/>
      <stop offset=".57" stop-color="#97bdfd"/>
      <stop offset=".67" stop-color="#8eacfd"/>
      <stop offset=".78" stop-color="#7e91fd"/>
      <stop offset=".9" stop-color="#686bfd"/>
      <stop offset=".99" stop-color="#574dfd"/>
    </linearGradient>
    <linearGradient id="Adsız_degrade_5" data-name="Adsız degrade 5" x1="39.23" y1="279.87" x2="39.7" y2="279.87" gradientTransform="translate(4.72 309.25) rotate(29.26) scale(1.15 -.87) skewX(-23.09)" gradientUnits="userSpaceOnUse">
      <stop offset="0" stop-color="#574dfd"/>
      <stop offset=".09" stop-color="#686bfd"/>
      <stop offset=".21" stop-color="#7e91fd"/>
      <stop offset=".32" stop-color="#8eacfd"/>
      <stop offset=".42" stop-color="#97bdfd"/>
      <stop offset=".5" stop-color="#9bc3fd"/>
      <stop offset=".57" stop-color="#97bdfd"/>
      <stop offset=".67" stop-color="#8eacfd"/>
      <stop offset=".78" stop-color="#7e91fd"/>
      <stop offset=".9" stop-color="#686bfd"/>
      <stop offset=".99" stop-color="#574dfd"/>
    </linearGradient>
    <linearGradient id="Adsız_degrade_6" data-name="Adsız degrade 6" x1="38.74" y1="279.85" x2="39.21" y2="279.85" gradientTransform="translate(4.72 309.25) rotate(29.26) scale(1.15 -.87) skewX(-23.09)" gradientUnits="userSpaceOnUse">
      <stop offset="0" stop-color="#574dfd"/>
      <stop offset=".09" stop-color="#686bfd"/>
      <stop offset=".21" stop-color="#7e91fd"/>
      <stop offset=".32" stop-color="#8eacfd"/>
      <stop offset=".42" stop-color="#97bdfd"/>
      <stop offset=".5" stop-color="#9bc3fd"/>
      <stop offset=".57" stop-color="#97bdfd"/>
      <stop offset=".67" stop-color="#8eacfd"/>
      <stop offset=".78" stop-color="#7e91fd"/>
      <stop offset=".9" stop-color="#686bfd"/>
      <stop offset=".99" stop-color="#574dfd"/>
    </linearGradient>
    <linearGradient id="Adsız_degrade_7" data-name="Adsız degrade 7" x1="37.57" y1="279.34" x2="38.14" y2="279.34" gradientTransform="translate(4.72 309.25) rotate(29.26) scale(1.15 -.87) skewX(-23.09)" gradientUnits="userSpaceOnUse">
      <stop offset="0" stop-color="#574dfd"/>
      <stop offset=".09" stop-color="#686bfd"/>
      <stop offset=".21" stop-color="#7e91fd"/>
      <stop offset=".32" stop-color="#8eacfd"/>
      <stop offset=".42" stop-color="#97bdfd"/>
      <stop offset=".5" stop-color="#9bc3fd"/>
      <stop offset=".57" stop-color="#97bdfd"/>
      <stop offset=".67" stop-color="#8eacfd"/>
      <stop offset=".78" stop-color="#7e91fd"/>
      <stop offset=".9" stop-color="#686bfd"/>
      <stop offset=".99" stop-color="#574dfd"/>
    </linearGradient>
    <linearGradient id="Adsız_degrade_8" data-name="Adsız degrade 8" x1="34.5" y1="274.09" x2="34.66" y2="274.09" gradientTransform="translate(4.72 309.25) rotate(29.26) scale(1.15 -.87) skewX(-23.09)" gradientUnits="userSpaceOnUse">
      <stop offset="0" stop-color="#574dfd"/>
      <stop offset=".09" stop-color="#686bfd"/>
      <stop offset=".21" stop-color="#7e91fd"/>
      <stop offset=".32" stop-color="#8eacfd"/>
      <stop offset=".42" stop-color="#97bdfd"/>
      <stop offset=".5" stop-color="#9bc3fd"/>
      <stop offset=".57" stop-color="#97bdfd"/>
      <stop offset=".67" stop-color="#8eacfd"/>
      <stop offset=".78" stop-color="#7e91fd"/>
      <stop offset=".9" stop-color="#686bfd"/>
      <stop offset=".99" stop-color="#574dfd"/>
    </linearGradient>
    <linearGradient id="Adsız_degrade_9" data-name="Adsız degrade 9" x1="34.95" y1="275.84" x2="35.32" y2="275.84" gradientTransform="translate(4.72 309.25) rotate(29.26) scale(1.15 -.87) skewX(-23.09)" gradientUnits="userSpaceOnUse">
      <stop offset="0" stop-color="#574dfd"/>
      <stop offset=".09" stop-color="#686bfd"/>
      <stop offset=".21" stop-color="#7e91fd"/>
      <stop offset=".32" stop-color="#8eacfd"/>
      <stop offset=".42" stop-color="#97bdfd"/>
      <stop offset=".5" stop-color="#9bc3fd"/>
      <stop offset=".57" stop-color="#97bdfd"/>
      <stop offset=".67" stop-color="#8eacfd"/>
      <stop offset=".78" stop-color="#7e91fd"/>
      <stop offset=".9" stop-color="#686bfd"/>
      <stop offset=".99" stop-color="#574dfd"/>
    </linearGradient>
    <linearGradient id="Adsız_degrade_10" data-name="Adsız degrade 10" x1="35.35" y1="276.72" x2="35.83" y2="276.72" gradientTransform="translate(4.72 309.25) rotate(29.26) scale(1.15 -.87) skewX(-23.09)" gradientUnits="userSpaceOnUse">
      <stop offset="0" stop-color="#574dfd"/>
      <stop offset=".09" stop-color="#686bfd"/>
      <stop offset=".21" stop-color="#7e91fd"/>
      <stop offset=".32" stop-color="#8eacfd"/>
      <stop offset=".42" stop-color="#97bdfd"/>
      <stop offset=".5" stop-color="#9bc3fd"/>
      <stop offset=".57" stop-color="#97bdfd"/>
      <stop offset=".67" stop-color="#8eacfd"/>
      <stop offset=".78" stop-color="#7e91fd"/>
      <stop offset=".9" stop-color="#686bfd"/>
      <stop offset=".99" stop-color="#574dfd"/>
    </linearGradient>
    <linearGradient id="Adsız_degrade_11" data-name="Adsız degrade 11" x1="34.68" y1="275.01" x2="34.94" y2="275.01" gradientTransform="translate(4.72 309.25) rotate(29.26) scale(1.15 -.87) skewX(-23.09)" gradientUnits="userSpaceOnUse">
      <stop offset="0" stop-color="#574dfd"/>
      <stop offset=".09" stop-color="#686bfd"/>
      <stop offset=".21" stop-color="#7e91fd"/>
      <stop offset=".32" stop-color="#8eacfd"/>
      <stop offset=".42" stop-color="#97bdfd"/>
      <stop offset=".5" stop-color="#9bc3fd"/>
      <stop offset=".57" stop-color="#97bdfd"/>
      <stop offset=".67" stop-color="#8eacfd"/>
      <stop offset=".78" stop-color="#7e91fd"/>
      <stop offset=".9" stop-color="#686bfd"/>
      <stop offset=".99" stop-color="#574dfd"/>
    </linearGradient>
    <linearGradient id="Adsız_degrade_12" data-name="Adsız degrade 12" x1="68.62" y1="295.7" x2="80.34" y2="310.08" gradientTransform="translate(4.72 309.25) rotate(29.26) scale(1.15 -.87) skewX(-23.09)" gradientUnits="userSpaceOnUse">
      <stop offset="0" stop-color="#574dfd"/>
      <stop offset=".19" stop-color="#6a6ffd"/>
      <stop offset=".45" stop-color="#8196fd"/>
      <stop offset=".58" stop-color="#8aa6fd"/>
      <stop offset=".64" stop-color="#8dacfd"/>
      <stop offset=".84" stop-color="#97bdfd"/>
      <stop offset="1" stop-color="#9bc3fd"/>
    </linearGradient>
    <linearGradient id="Adsız_degrade_13" data-name="Adsız degrade 13" x1="62.88" y1="290.2" x2="68.07" y2="285.69" gradientTransform="translate(4.72 309.25) rotate(29.26) scale(1.15 -.87) skewX(-23.09)" gradientUnits="userSpaceOnUse">
      <stop offset="0" stop-color="#574dfd"/>
      <stop offset=".19" stop-color="#6a6ffd"/>
      <stop offset=".45" stop-color="#8196fd"/>
      <stop offset=".58" stop-color="#8aa6fd"/>
      <stop offset=".64" stop-color="#8dacfd"/>
      <stop offset=".84" stop-color="#97bdfd"/>
      <stop offset="1" stop-color="#9bc3fd"/>
    </linearGradient>
    <linearGradient id="Adsız_degrade_14" data-name="Adsız degrade 14" x1="60.96" y1="299.46" x2="77.84" y2="323.52" gradientTransform="translate(4.72 309.25) rotate(29.26) scale(1.15 -.87) skewX(-23.09)" gradientUnits="userSpaceOnUse">
      <stop offset="0" stop-color="#574dfd"/>
      <stop offset=".19" stop-color="#6a6ffd"/>
      <stop offset=".45" stop-color="#8196fd"/>
      <stop offset=".58" stop-color="#8aa6fd"/>
      <stop offset=".64" stop-color="#8dacfd"/>
      <stop offset=".84" stop-color="#97bdfd"/>
      <stop offset="1" stop-color="#9bc3fd"/>
    </linearGradient>
    <linearGradient id="Adsız_degrade_15" data-name="Adsız degrade 15" x1="56.86" y1="304.37" x2="82.49" y2="332.34" gradientTransform="translate(4.72 309.25) rotate(29.26) scale(1.15 -.87) skewX(-23.09)" gradientUnits="userSpaceOnUse">
      <stop offset="0" stop-color="#574dfd"/>
      <stop offset=".19" stop-color="#6a6ffd"/>
      <stop offset=".45" stop-color="#8196fd"/>
      <stop offset=".58" stop-color="#8aa6fd"/>
      <stop offset=".64" stop-color="#8dacfd"/>
      <stop offset=".84" stop-color="#97bdfd"/>
      <stop offset="1" stop-color="#9bc3fd"/>
    </linearGradient>
    <linearGradient id="Adsız_degrade_16" data-name="Adsız degrade 16" x1="20.5" y1="269.97" x2="36" y2="296.78" gradientTransform="translate(4.72 309.25) rotate(29.26) scale(1.15 -.87) skewX(-23.09)" gradientUnits="userSpaceOnUse">
      <stop offset="0" stop-color="#574dfd"/>
      <stop offset=".17" stop-color="#686bfd"/>
      <stop offset=".42" stop-color="#7e91fd"/>
      <stop offset=".65" stop-color="#8eacfd"/>
      <stop offset=".85" stop-color="#97bdfd"/>
      <stop offset="1" stop-color="#9bc3fd"/>
    </linearGradient>
    <linearGradient id="Adsız_degrade_17" data-name="Adsız degrade 17" x1="11.49" y1="277.83" x2="35.38" y2="319.17" gradientTransform="translate(4.72 309.25) rotate(29.26) scale(1.15 -.87) skewX(-23.09)" gradientUnits="userSpaceOnUse">
      <stop offset="0" stop-color="#574dfd"/>
      <stop offset=".19" stop-color="#6a6ffd"/>
      <stop offset=".45" stop-color="#8196fd"/>
      <stop offset=".58" stop-color="#8aa6fd"/>
      <stop offset=".64" stop-color="#8dacfd"/>
      <stop offset=".84" stop-color="#97bdfd"/>
      <stop offset="1" stop-color="#9bc3fd"/>
    </linearGradient>
    <linearGradient id="Adsız_degrade_18" data-name="Adsız degrade 18" x1="-2.18" y1="277.42" x2="36.09" y2="331.75" gradientTransform="translate(4.72 309.25) rotate(29.26) scale(1.15 -.87) skewX(-23.09)" gradientUnits="userSpaceOnUse">
      <stop offset="0" stop-color="#574dfd"/>
      <stop offset=".17" stop-color="#686bfd"/>
      <stop offset=".42" stop-color="#7e91fd"/>
      <stop offset=".65" stop-color="#8eacfd"/>
      <stop offset=".85" stop-color="#97bdfd"/>
      <stop offset="1" stop-color="#9bc3fd"/>
    </linearGradient>
    <linearGradient id="Adsız_degrade_19" data-name="Adsız degrade 19" x1="86.78" y1="293.73" x2="78.97" y2="315.6" gradientTransform="translate(4.72 291.63) rotate(29.26) scale(1.15 -.87) skewX(-23.09)" gradientUnits="userSpaceOnUse">
      <stop offset="0" stop-color="#058ba0"/>
      <stop offset=".41" stop-color="#1da8bd"/>
      <stop offset="1" stop-color="#47daf0"/>
    </linearGradient>
    <linearGradient id="Adsız_degrade_20" data-name="Adsız degrade 20" x1="69.83" y1="266.97" x2="130.66" y2="250.55" gradientTransform="translate(41.04 274.58) rotate(27.81) scale(1.15 -.87) skewX(-23.09)" gradientUnits="userSpaceOnUse">
      <stop offset="0" stop-color="#574dfd"/>
      <stop offset=".09" stop-color="#686bfd"/>
      <stop offset=".21" stop-color="#7e91fd"/>
      <stop offset=".32" stop-color="#8eacfd"/>
      <stop offset=".42" stop-color="#97bdfd"/>
      <stop offset=".5" stop-color="#9bc3fd"/>
      <stop offset=".57" stop-color="#97bdfd"/>
      <stop offset=".67" stop-color="#8eacfd"/>
      <stop offset=".78" stop-color="#7e91fd"/>
      <stop offset=".9" stop-color="#686bfd"/>
      <stop offset=".99" stop-color="#574dfd"/>
    </linearGradient>
    <linearGradient id="Adsız_degrade_21" data-name="Adsız degrade 21" x1="93.44" y1="284.1" x2="143.33" y2="279.23" gradientTransform="translate(41.04 274.58) rotate(27.81) scale(1.15 -.87) skewX(-23.09)" gradientUnits="userSpaceOnUse">
      <stop offset="0" stop-color="#574dfd"/>
      <stop offset=".09" stop-color="#686bfd"/>
      <stop offset=".21" stop-color="#7e91fd"/>
      <stop offset=".32" stop-color="#8eacfd"/>
      <stop offset=".42" stop-color="#97bdfd"/>
      <stop offset=".5" stop-color="#9bc3fd"/>
      <stop offset=".57" stop-color="#97bdfd"/>
      <stop offset=".67" stop-color="#8eacfd"/>
      <stop offset=".78" stop-color="#7e91fd"/>
      <stop offset=".9" stop-color="#686bfd"/>
      <stop offset=".99" stop-color="#574dfd"/>
    </linearGradient>
    <linearGradient id="Adsız_degrade_22" data-name="Adsız degrade 22" x1="95.6" y1="296.51" x2="121.45" y2="280.99" gradientTransform="translate(41.04 274.58) rotate(27.81) scale(1.15 -.87) skewX(-23.09)" gradientUnits="userSpaceOnUse">
      <stop offset="0" stop-color="#574dfd"/>
      <stop offset=".09" stop-color="#686bfd"/>
      <stop offset=".21" stop-color="#7e91fd"/>
      <stop offset=".32" stop-color="#8eacfd"/>
      <stop offset=".42" stop-color="#97bdfd"/>
      <stop offset=".5" stop-color="#9bc3fd"/>
      <stop offset=".57" stop-color="#97bdfd"/>
      <stop offset=".67" stop-color="#8eacfd"/>
      <stop offset=".78" stop-color="#7e91fd"/>
      <stop offset=".9" stop-color="#686bfd"/>
      <stop offset=".99" stop-color="#574dfd"/>
    </linearGradient>
    <linearGradient id="Adsız_degrade_23" data-name="Adsız degrade 23" x1="69.39" y1="299.35" x2="130.23" y2="282.92" gradientTransform="translate(41.04 274.58) rotate(27.81) scale(1.15 -.87) skewX(-23.09)" gradientUnits="userSpaceOnUse">
      <stop offset="0" stop-color="#574dfd"/>
      <stop offset=".09" stop-color="#686bfd"/>
      <stop offset=".21" stop-color="#7e91fd"/>
      <stop offset=".32" stop-color="#8eacfd"/>
      <stop offset=".42" stop-color="#97bdfd"/>
      <stop offset=".5" stop-color="#9bc3fd"/>
      <stop offset=".57" stop-color="#97bdfd"/>
      <stop offset=".67" stop-color="#8eacfd"/>
      <stop offset=".78" stop-color="#7e91fd"/>
      <stop offset=".9" stop-color="#686bfd"/>
      <stop offset=".99" stop-color="#574dfd"/>
    </linearGradient>
  </defs>
  <g id="_1.DERECEDEN_DENKLEM_SEMBOL" data-name=" 1.DERECEDEN DENKLEM SEMBOL">
    <path d="M40.87,51.65c.13-.06,.25-.1,.38-.14-.1,.03-.21,.05-.31,.1-.03,0-.05,.03-.08,.04h.01Z" fill="url(#Adsız_degrade)"/>
    <path d="M39.95,52.25c-.08,.07-.16,.14-.24,.22,.18-.18,.36-.33,.55-.46h0c-.1,.07-.2,.15-.3,.24h0Z" fill="url(#Adsız_degrade_2)"/>
    <path d="M40.27,52c.16-.11,.32-.2,.48-.28-.06,.03-.13,.06-.19,.09-.1,.06-.19,.12-.29,.19Z" fill="url(#Adsız_degrade_3)"/>
    <path d="M42.39,51.41c-.13-.02-.26-.03-.39-.02,.19,0,.37,.02,.55,.06h-.06s-.07-.02-.11-.02v-.02Z" fill="url(#Adsız_degrade_4)"/>
    <path d="M43.51,51.9s-.04-.03-.06-.05c-.05-.04-.11-.08-.16-.11-.06-.04-.11-.07-.17-.1h0c.16,.08,.32,.19,.47,.31,0,0-.02-.02-.03-.02,0,0-.02-.02-.03-.02h-.01Z" fill="url(#Adsız_degrade_5)"/>
    <path d="M43.03,51.6s-.08-.04-.11-.05c-.07-.03-.15-.06-.22-.08-.03,0-.06,0-.09-.02,.16,.04,.32,.1,.48,.17h-.02s-.02,0-.03,0h0Z" fill="url(#Adsız_degrade_6)"/>
    <path d="M42.01,51.38c-.19,0-.38,.03-.57,.07,.19-.04,.38-.07,.57-.07Z" fill="url(#Adsız_degrade_7)"/>
    <path d="M38.37,55.17c.04-.25,.09-.49,.16-.72-.02,.07-.05,.15-.06,.22-.04,.16-.07,.33-.1,.5Z" fill="url(#Adsız_degrade_8)"/>
    <path d="M38.94,53.46c-.04,.07-.08,.14-.12,.22,.11-.21,.23-.42,.37-.61-.04,.05-.07,.1-.11,.16-.05,.08-.1,.15-.14,.23Z" fill="url(#Adsız_degrade_9)"/>
    <path d="M39.43,52.77c-.06,.07-.12,.15-.18,.23,0,0-.02,.03-.03,.04,.15-.2,.31-.38,.49-.56l-.05,.05c-.08,.08-.15,.16-.22,.24h-.01Z" fill="url(#Adsız_degrade_10)"/>
    <path d="M38.68,53.98c-.04,.1-.08,.21-.11,.31,0,.02,0,.05-.02,.07,.07-.23,.16-.46,.27-.67h0c-.04,.1-.08,.19-.12,.28h-.02Z" fill="url(#Adsız_degrade_11)"/>
    <g>
      <polygon points="74.19 47.93 73.63 52.67 78.27 52.59 74.19 47.93" fill="url(#Adsız_degrade_12)"/>
      <path d="M68.17,56.19s-.02,.02-.04,.04c-.02,0-.02,.02-.04,.04-.22,.21-.48,.42-.78,.63l1.22,1.39,.18-1.4v-.07c.03-.21,.05-.43,.05-.63,0-.18,0-.36,.03-.54,0-.06,.02-.11,.03-.17-.01,.02-.06,.07-.09,.11-.1,.14-.29,.33-.57,.61h0Z" fill="url(#Adsız_degrade_13)"/>
      <path d="M64.35,37.19c.04,.64,.06,1.31-.03,2.02-.01,.12-.03,.25-.04,.37-.06,.35-.12,.68-.2,1.01-.01,.06-.03,.13-.04,.19-.01,.05-.03,.12-.06,.16-.03,.16-.07,.3-.12,.43-.07,.24-.16,.47-.25,.68-.04,.14-.1,.25-.16,.36-.03,.09-.07,.15-.1,.24-.1,.19-.2,.38-.31,.56-.1,.18-.2,.34-.31,.52,0,.02-.04,.05-.06,.08,0,.02-.03,.03-.04,.05-.07,.11-.15,.21-.22,.32-.12,.15-.23,.29-.35,.43-.13,.15-.26,.29-.39,.44-.03,0-.04,.03-.07,.05-.15,.17-.31,.33-.48,.46-.18,.15-.37,.29-.56,.43,0,0-.03,0-.03,.04-.03,0-.06,.03-.09,.04-.19,.13-.38,.25-.57,.38-.22,.13-.44,.24-.67,.35l-.28,.12c-.23,.1-.5,.16-.76,.23-.15,.05-.29,.11-.45,.14-.47,.12-.95,.17-1.45,.18-.37,0-.72-.02-1.05-.06,0,.08,0,.14,.03,.21l2.24,2.56-2.24-2.55c.03,.3,.05,.6,.12,.88,.06,.24,.16,.47,.23,.7,.05,.16,.09,.32,.16,.47,.07,.16,.15,.32,.23,.47,.08,.16,.18,.31,.27,.46,.06,.1,.12,.22,.19,.32,.04,.05,.06,.12,.1,.17,.04,.05,.09,.1,.13,.15,.08,.1,.16,.2,.24,.29,.02,.02,.05,.04,.07,.06,.09,.1,.19,.17,.28,.26,.15,.14,.29,.29,.45,.41h0s.1,.07,.15,.11c.05,.03,.1,.05,.15,.08,.11,.07,.23,.13,.35,.2,.14,.08,.27,.17,.42,.23,.02,0,.04,.02,.06,.02,.03,0,.07,.03,.1,.04,.13,.05,.28,.08,.41,.12,.19,.06,.37,.12,.57,.16,.05,0,.11,.03,.16,.03h.11c.39,.06,.8,.1,1.22,.09,.51,0,.99-.07,1.46-.18,.15-.04,.29-.1,.45-.14,.25-.08,.5-.16,.75-.25,.09-.05,.19-.07,.29-.11,.22-.11,.42-.25,.64-.37,.19-.13,.41-.22,.6-.35,0,0,.03-.03,.05-.04,.01,0,.02,0,.03-.02,.01,0,.03,0,.03-.03,.19-.14,.37-.31,.54-.46,.18-.15,.35-.27,.5-.44,.03,0,.06-.03,.07-.05,.13-.15,.25-.31,.38-.46,.12-.14,.23-.28,.35-.43,.07-.09,.16-.19,.23-.29,.01-.02,.03-.04,.04-.06,.03,0,.04-.05,.06-.08,.1-.16,.19-.35,.29-.52,.1-.19,.22-.36,.31-.56,.04-.06,.09-.14,.13-.2,.06-.13,.09-.26,.13-.39,.09-.21,.18-.44,.25-.68,.04-.14,.1-.26,.15-.4v-.02s.01-.03,.02-.05h0v0s.03-.07,.03-.1c.01-.08,.03-.13,.04-.19,.07-.35,.13-.69,.19-1.03,.01-.11,.04-.22,.06-.35,.28-2.33-.15-4.27-1.3-5.76-.94-1.24-2.21-1.94-3.82-2.14h0Z" fill="url(#Adsız_degrade_14)"/>
      <path d="M70.91,25.99l-4.2,.07s-.01,.11-.02,.16c-.07,.51-.16,1.01-.27,1.53-.1,.49-.19,.95-.26,1.41l-.61-.7h0s-.08-.07-.12-.11c-.12-.13-.25-.25-.39-.38-.03-.03-.05-.06-.09-.09-.03-.02-.06-.05-.09-.07-.09-.07-.19-.14-.29-.21-.15-.11-.29-.23-.46-.34-.08-.05-.18-.1-.26-.16-.22-.14-.45-.28-.7-.41-.04-.02-.08-.05-.13-.07,0,0-.02,0-.02-.01-.37-.19-.76-.37-1.18-.55h0c-.2-.08-.4-.15-.61-.21h-.02c-.28-.08-.57-.14-.86-.19h-.07s-.08,0-.13-.02c-.4-.05-.81-.08-1.25-.08-.4,0-.8,.04-1.19,.09-.13,.02-.26,.04-.38,.06-.26,.04-.53,.09-.79,.15-.15,.03-.29,.08-.44,.12-.24,.07-.48,.14-.71,.22-.15,.05-.3,.11-.45,.17-.1,.04-.2,.09-.3,.13-.22,.09-.44,.18-.66,.28-.35,.17-.67,.4-1.01,.6-.41,.24-.84,.45-1.22,.73,0,0-.02,.01-.03,.02h0c-.35,.26-.65,.57-.98,.85-.31,.27-.63,.51-.92,.8-.03,.03-.06,.05-.09,.07-.23,.23-.41,.5-.62,.75-.24,.28-.48,.55-.7,.85-.11,.14-.23,.26-.33,.4-.04,.06-.08,.12-.12,.17-.07,.1-.12,.21-.18,.31-.2,.31-.38,.64-.57,.97s-.4,.63-.57,.97c0,.02-.02,.03-.03,.05-.17,.35-.32,.7-.46,1.05-.02,.04-.04,.08-.05,.12-.06,.16-.12,.32-.17,.47-.07,.19-.14,.38-.2,.58-.02,.06-.04,.12-.06,.18-.07,.21-.12,.42-.18,.63-.04,.16-.09,.32-.13,.48,0,.06-.03,.11-.04,.17-.08,.36-.15,.71-.21,1.07-.02,.12-.04,.23-.06,.35,0,.06-.02,.11-.03,.17-.24,1.87-.13,3.65,.32,5.29,.45,1.65,1.14,3.1,2.08,4.35,.15,.19,.3,.38,.46,.56l5.15,5.88c-.16-.18-.31-.37-.46-.56-.94-1.25-1.62-2.7-2.08-4.35-.45-1.65-.56-3.42-.32-5.29,0-.06,.02-.11,.02-.17,.02-.12,.05-.23,.07-.34,.06-.36,.12-.72,.2-1.07,0-.06,.02-.12,.04-.18,.04-.16,.09-.32,.14-.47,.06-.21,.11-.42,.18-.63,.02-.06,.03-.13,.06-.19,.06-.19,.14-.38,.21-.57,.06-.16,.11-.32,.17-.47,.02-.04,.03-.09,.05-.13,.14-.35,.3-.7,.47-1.05,0-.02,.02-.04,.03-.06,.17-.34,.35-.68,.54-1.01,.19-.32,.38-.64,.59-.95,.06-.1,.14-.19,.2-.28,.04-.06,.08-.12,.12-.17,.1-.14,.2-.29,.31-.43,.22-.29,.45-.58,.69-.85,.21-.24,.43-.48,.65-.71l.08-.08c.29-.29,.59-.57,.89-.83,.33-.28,.67-.55,1.01-.8h0s.02,0,.03-.02c.38-.28,.78-.54,1.18-.78,.34-.2,.69-.39,1.04-.56,.21-.11,.43-.21,.65-.3,.1-.04,.21-.07,.31-.12,.15-.06,.3-.12,.45-.17,.24-.08,.47-.15,.71-.22,.15-.04,.29-.08,.44-.12,.26-.06,.52-.11,.79-.15,.13-.02,.25-.05,.38-.06,.39-.05,.79-.08,1.19-.09,.43,0,.85,.02,1.25,.08h.12s.05,.01,.08,.02c.3,.05,.59,.11,.86,.19h.02c.21,.06,.42,.13,.61,.21h.01c.42,.17,.81,.35,1.18,.54,0,0,.02,0,.03,.02,.04,.02,.08,.05,.13,.07,.23,.12,.46,.25,.67,.38,.1,.06,.2,.13,.29,.19,.15,.1,.29,.2,.42,.29,0,0,.01,0,.02,0l.04,.05c.12,.09,.25,.18,.35,.26,0,0,.02,.02,.03,.03,.25,.21,.46,.41,.63,.62,.35,.41,.52,.7,.52,.84,.08-.52,.18-1.06,.3-1.62,.11-.52,.2-1.03,.27-1.53,0-.05,.02-.11,.03-.16l4.2-.07-5.15-5.88h-.03Z" fill="url(#Adsız_degrade_15)"/>
    </g>
    <path d="M44.03,52.4c-.14-.17-.29-.32-.44-.44,0,0,0,0-.02,0-.15-.12-.31-.23-.47-.31h0c-.15-.08-.31-.13-.48-.17-.02,0-.03,0-.05,0-.18-.04-.36-.06-.55-.06s-.38,.03-.57,.07c-.06,0-.12,.04-.18,.06-.13,.04-.26,.08-.38,.14-.04,.02-.08,.04-.12,.06-.16,.08-.32,.17-.48,.28,0,0-.02,0-.02,0-.18,.13-.37,.29-.55,.46s-.34,.36-.49,.56c0,0-.02,.02-.02,.03-.14,.19-.26,.39-.37,.61v.02c-.11,.21-.19,.44-.27,.67,0,.03-.02,.05-.02,.08-.07,.23-.12,.47-.16,.72-.12,1.08,.11,1.95,.68,2.62s1.26,.99,2.08,.97c.77,0,1.52-.36,2.25-1.05s1.15-1.58,1.27-2.66c.16-1.08-.04-1.97-.61-2.66h-.02Z" fill="#9bc3fd"/>
    <path d="M38.8,46.44h0s-.06-.05-.08-.08c-.06-.07-.13-.13-.2-.19-.05-.04-.09-.09-.14-.13,0,0-.02-.02-.03-.02,0,0-.03-.02-.04-.03-.05-.04-.1-.06-.15-.09-.06-.04-.13-.09-.19-.12-.02,0-.04-.03-.06-.04,0,0-.02,0-.03,0-.03,0-.07-.02-.1-.03-.07-.03-.15-.05-.22-.08-.04,0-.08-.03-.12-.04-.03,0-.06,0-.09-.02h-.1c-.13-.02-.26-.04-.4-.04-.19,0-.38,.03-.57,.07-.06,0-.12,.04-.18,.06-.1,.03-.2,.06-.3,.11-.03,0-.06,.02-.09,.03-.04,.02-.08,.04-.12,.06-.06,.03-.12,.07-.18,.11-.1,.06-.2,.11-.3,.18,0,0-.02,0-.02,0h0c-.1,.07-.19,.16-.29,.25-.08,.07-.17,.13-.25,.21-.02,.02-.03,.04-.05,.05-.08,.08-.15,.17-.22,.25-.06,.07-.13,.14-.19,.22,0,0-.02,.02-.03,.04,0,0,0,.02-.02,.03-.04,.05-.07,.11-.1,.17-.05,.08-.1,.16-.14,.24-.04,.07-.09,.13-.13,.21h0v.03c-.04,.09-.07,.19-.11,.28-.03,.07-.06,.14-.09,.22v.11l-.07,.44-.06,.53-.1,.85c.07,.64,.29,1.19,.67,1.64,0,0,.02,.02,.03,.03l5.15,5.88s-.02-.02-.02-.03c-.57-.67-.8-1.54-.68-2.62,.02-.17,.06-.34,.1-.5,.02-.08,.04-.15,.06-.22,0-.03,0-.05,.02-.08,0-.02,0-.05,.02-.07,.03-.11,.07-.21,.11-.31,.04-.09,.08-.18,.12-.27h0v-.03c.04-.07,.07-.15,.12-.22,.05-.08,.09-.16,.14-.23,.03-.05,.07-.1,.11-.16,0,0,.02-.02,.02-.03s.02-.03,.03-.04c.06-.08,.12-.15,.18-.23,.07-.08,.15-.16,.22-.24l.05-.05c.08-.08,.16-.15,.24-.22,.1-.08,.2-.16,.3-.24h0s.02,0,.02,0c.1-.07,.19-.13,.29-.19,.06-.04,.13-.06,.19-.09,.04-.02,.08-.04,.12-.06,.03,0,.05-.03,.08-.04,.1-.04,.2-.07,.31-.1,.06-.02,.12-.04,.18-.06,.19-.04,.38-.07,.57-.07,.13,0,.26,0,.39,.02,.04,0,.07,.02,.11,.02h.06s.03,0,.05,0c.03,0,.06,0,.09,.02,.08,.02,.15,.05,.22,.08,.04,.02,.08,.03,.11,.05,0,0,.02,0,.03,0h.04c.06,.03,.12,.06,.17,.1,.06,.03,.11,.07,.16,.11,.02,0,.04,.03,.06,.05,0,0,.02,.02,.03,.02,0,0,.02,.02,.03,.02,0,0,0,0,.02,0,0,0,.02,0,.02,.02,.05,.05,.11,.1,.16,.15,.06,.06,.11,.11,.17,.18l.02,.02-5.15-5.88h.02Z" fill="#574dfd"/>
    <g>
      <path d="M28.5,40.81h-.31c-.64,.98-1.32,1.95-2.02,2.91-.84,1.14-1.72,2.27-2.65,3.4-.14,.17-.29,.34-.43,.51-1.63,1.95-3.29,3.89-5.01,5.86l9.99-.17,.78-6.54,4.81-.08-5.15-5.88h-.01Z" fill="url(#Adsız_degrade_16)"/>
      <path d="M18.84,44.93s.06-.07,.1-.11c.61-.7,1.19-1.39,1.76-2.08,.56-.68,1.09-1.35,1.59-2.02,.02-.03,.04-.06,.06-.09,.41-.54,.8-1.08,1.18-1.61,.1-.15,.2-.29,.3-.44,.21-.3,.41-.6,.6-.9,.05-.08,.11-.16,.16-.24,.49-.75,.95-1.49,1.37-2.23h0c.28-.49,.52-.97,.76-1.45,.03-.06,.07-.13,.1-.2,.07-.15,.13-.3,.2-.44,.11-.23,.19-.46,.29-.7,.07-.17,.14-.33,.21-.5,.06-.15,.12-.3,.17-.45,.04-.11,.06-.21,.1-.32,.12-.36,.23-.71,.32-1.06,.02-.06,.04-.12,.05-.18v-.04c.12-.49,.21-.98,.27-1.46,0-.05,.02-.1,.03-.15,.2-1.73,.12-3.21-.23-4.41-.35-1.21-.85-2.2-1.5-2.98-.65-.78-1.4-1.36-2.23-1.72-.43-.18-.85-.31-1.25-.4,.19,1.05,.22,2.26,.06,3.64,0,.05-.01,.1-.02,.16-.07,.48-.16,.96-.28,1.45,0,.01,0,.02-.01,.04-.01,.06-.04,.12-.05,.18-.09,.36-.19,.72-.31,1.08-.03,.1-.08,.2-.11,.3-.05,.15-.11,.3-.17,.45-.07,.17-.12,.34-.19,.52-.09,.22-.2,.45-.31,.68-.07,.15-.13,.29-.2,.44-.03,.07-.06,.14-.09,.21-.23,.48-.49,.96-.77,1.44h0c-.42,.73-.89,1.48-1.37,2.23-.06,.08-.1,.17-.16,.25-.2,.3-.41,.59-.61,.89-.1,.15-.2,.29-.3,.44-.38,.53-.77,1.07-1.18,1.61-.02,.03-.04,.06-.07,.08-.51,.67-1.04,1.34-1.59,2.02-.57,.69-1.16,1.38-1.76,2.08-.03,.04-.06,.07-.09,.11-.09,.1-.19,.21-.28,.31-.63,.73-1.29,1.46-1.96,2.2-.21,.23-.43,.47-.65,.7-.81,.87-1.63,1.75-2.49,2.64-2.69,2.79-5.46,5.65-8.29,8.59l5.15,5.88c2.83-2.94,5.6-5.8,8.29-8.59,.4-.41,.78-.82,1.17-1.23,.45-.47,.89-.94,1.32-1.41,.22-.24,.43-.47,.65-.7,.67-.74,1.33-1.47,1.96-2.2,.09-.1,.19-.21,.28-.32h.02Z" fill="url(#Adsız_degrade_17)"/>
      <path d="M3.76,27.53c.26,1.01,.62,1.92,1.07,2.79,.29,.55,.61,1.03,.97,1.44l5.15,5.88s-.06-.08-.09-.11c-.11-.14-.22-.28-.33-.43-.05-.06-.09-.13-.14-.19-.14-.22-.29-.45-.42-.7-.45-.86-.81-1.78-1.07-2.79-.27-1.01-.44-2.02-.53-3.08-.04-.52-.06-1.02-.05-1.51,0-.16,.03-.3,.03-.46,.02-.32,.03-.65,.07-.95,.02-.18,.06-.35,.09-.53,.07-.48,.17-.96,.27-1.43l.12-.51c.08-.31,.17-.62,.27-.93,.06-.18,.11-.36,.17-.54,.08-.25,.18-.49,.27-.73,.09-.25,.18-.5,.29-.75,.16-.37,.34-.73,.52-1.08,.06-.12,.12-.23,.18-.34,.17-.31,.35-.62,.54-.91,.03-.05,.06-.1,.1-.16,.22-.34,.46-.67,.71-.99,.07-.09,.15-.18,.22-.27,.24-.29,.48-.58,.74-.86,.62-.66,1.3-1.26,2.02-1.79l.02-.02c.73-.53,1.51-1,2.33-1.4,.22-.1,.45-.18,.67-.27,.69-.28,1.4-.51,2.15-.66,.09-.02,.18-.03,.27-.05,.8-.15,1.63-.25,2.5-.26,.42,0,.82,.01,1.21,.05,.11,0,.22,.02,.33,.03,.24,.03,.47,.07,.7,.11,.24,.04,.48,.09,.71,.15,.23,.06,.46,.12,.68,.2,.11,.04,.23,.08,.34,.12,.34,.13,.68,.28,1.01,.45s.64,.37,.94,.57c.06,.04,.12,.08,.18,.12,.28,.2,.55,.41,.81,.63,.04,.04,.08,.07,.12,.11,.25,.23,.49,.46,.72,.71l.06,.06,.03,.03s.04,.04,.05,.06l-5.15-5.88h0c-.14-.16-.3-.32-.45-.47-.05-.05-.09-.1-.14-.15-.05-.05-.11-.1-.16-.15-.08-.07-.16-.14-.25-.21-.07-.06-.15-.13-.22-.19-.08-.06-.15-.12-.23-.18-.05-.04-.1-.07-.14-.1-.11-.08-.21-.16-.32-.23-.09-.06-.17-.12-.26-.17-.03-.02-.06-.03-.09-.05-.21-.13-.42-.26-.64-.38-.03-.02-.06-.03-.09-.04-.23-.12-.47-.22-.71-.32-.07-.03-.13-.06-.2-.09-.11-.04-.23-.08-.34-.12-.12-.04-.25-.07-.37-.11-.1-.03-.2-.06-.31-.09-.23-.06-.47-.11-.71-.15-.1-.02-.21-.03-.32-.05-.13-.02-.25-.05-.39-.06-.11-.01-.22-.02-.33-.03-.4-.03-.8-.05-1.21-.05-.87,.01-1.7,.11-2.5,.26-.09,.02-.18,.03-.27,.05-.75,.16-1.47,.38-2.15,.66-.06,.03-.13,.05-.19,.08-.16,.07-.33,.12-.48,.2-.37,.18-.7,.43-1.06,.63-.42,.25-.87,.47-1.26,.76,0,0-.01,0-.02,.01l-.02,.02c-.32,.23-.59,.52-.88,.78-.28,.24-.57,.47-.83,.74-.1,.1-.21,.17-.31,.27-.14,.15-.26,.31-.4,.46-.11,.13-.23,.26-.34,.4-.07,.09-.15,.18-.22,.27-.03,.04-.06,.09-.1,.13-.2,.27-.4,.54-.59,.82,0,.01-.02,.03-.03,.04-.03,.05-.07,.11-.1,.16-.14,.22-.27,.44-.39,.66-.05,.08-.1,.16-.14,.24-.06,.11-.12,.23-.18,.35-.06,.11-.11,.23-.16,.34-.12,.24-.25,.48-.35,.74-.04,.09-.07,.18-.1,.26-.07,.16-.12,.32-.19,.48-.09,.24-.19,.49-.27,.73-.02,.05-.03,.11-.05,.16-.04,.13-.08,.26-.12,.39-.09,.31-.18,.61-.26,.92l-.06,.24c-.02,.09-.04,.18-.06,.26-.11,.47-.2,.95-.27,1.43,0,.09-.03,.18-.04,.27s-.03,.17-.04,.26v.04c-.04,.29-.05,.6-.07,.91,0,.15-.03,.3-.03,.46,0,.48,0,.98,.05,1.51,.09,1.05,.26,2.07,.53,3.08h-.02Z" fill="url(#Adsız_degrade_18)"/>
    </g>
    <path d="M33.39,48.87l.05-.44v-.11l.21-1.64-4.81,.08-.78,6.54-9.99,.17c1.71-1.97,3.37-3.92,5.01-5.86,.14-.17,.29-.34,.43-.51,.94-1.12,1.82-2.25,2.65-3.4,.71-.96,1.38-1.93,2.02-2.9,.03-.04,.06-.08,.09-.12,1.41-2.17,2.6-4.37,3.58-6.55,.97-2.19,1.58-4.46,1.87-6.79,.24-1.97,.15-3.83-.26-5.57-.42-1.75-1.09-3.27-2.03-4.59-.23-.32-.48-.63-.74-.92l-.06-.06c-.23-.25-.47-.49-.72-.71-.04-.04-.08-.07-.12-.11-.26-.22-.53-.43-.81-.63-.06-.04-.12-.08-.18-.12-.3-.2-.61-.4-.94-.57-.32-.17-.66-.32-1.01-.45-.11-.04-.23-.08-.34-.12-.22-.08-.45-.14-.68-.2-.23-.06-.47-.11-.71-.15-.23-.04-.46-.08-.7-.11-.11-.01-.22-.02-.33-.03-.4-.03-.8-.05-1.21-.05-.87,.01-1.7,.11-2.5,.26-.09,.02-.18,.03-.27,.05-.75,.16-1.47,.38-2.15,.66-.22,.09-.45,.17-.67,.27-.83,.4-1.61,.87-2.33,1.4l-.02,.02c-.72,.53-1.4,1.13-2.02,1.79-.26,.28-.5,.57-.74,.86-.07,.09-.15,.18-.22,.27-.25,.32-.49,.65-.71,.99-.03,.05-.06,.1-.1,.16-.19,.3-.37,.6-.54,.91-.06,.11-.12,.23-.18,.34-.18,.35-.36,.71-.52,1.08-.1,.25-.19,.5-.29,.75-.09,.24-.19,.49-.27,.73-.06,.18-.11,.36-.17,.54-.09,.31-.19,.62-.27,.93l-.12,.51c-.11,.47-.2,.95-.27,1.43-.03,.18-.06,.35-.09,.53-.04,.3-.06,.63-.07,.95,0,.15-.03,.3-.03,.46,0,.48,0,.98,.05,1.51,.09,1.05,.26,2.07,.53,3.08,.26,1.01,.62,1.92,1.07,2.79,.13,.25,.27,.48,.42,.7,.04,.07,.09,.13,.14,.19,.11,.15,.22,.3,.33,.43,.22,.26,.45,.51,.7,.71l3.53-3.63c-1.39-1.85-1.91-4.27-1.54-7.27,.07-.74,.29-1.62,.63-2.6,.34-.99,.84-1.94,1.51-2.83,.67-.9,1.53-1.66,2.58-2.29,1.05-.62,2.36-.95,3.9-.98,.35,0,.72,.04,1.09,.12,.4,.09,.82,.22,1.25,.4,.83,.36,1.58,.94,2.23,1.72,.66,.78,1.15,1.78,1.5,2.98s.43,2.68,.23,4.41c0,.05-.02,.1-.03,.15-.07,.48-.16,.97-.27,1.46v.04c-.01,.06-.04,.12-.05,.18-.09,.35-.21,.71-.32,1.06-.04,.11-.06,.21-.1,.32-.05,.15-.11,.3-.17,.45-.06,.16-.14,.33-.21,.5-.09,.23-.18,.46-.29,.7-.07,.15-.13,.29-.2,.44-.03,.06-.07,.13-.1,.2-.24,.48-.48,.96-.76,1.45h0c-.42,.73-.89,1.48-1.37,2.23-.05,.08-.11,.16-.16,.24-.2,.3-.4,.6-.6,.9-.1,.15-.2,.29-.3,.44-.38,.53-.77,1.07-1.18,1.61-.02,.03-.04,.06-.06,.09-.51,.67-1.04,1.34-1.59,2.02-.57,.69-1.16,1.38-1.76,2.08-.03,.04-.06,.07-.1,.11-.09,.1-.19,.21-.28,.32-.63,.73-1.29,1.46-1.96,2.2-.21,.23-.43,.47-.65,.7-.43,.47-.87,.94-1.32,1.41-.39,.41-.77,.82-1.17,1.23-2.69,2.79-5.46,5.65-8.29,8.59l26.99-.46,1.05-8.65,.1-.85,.07-.53v-.04Z" fill="#9bc3fd"/>
    <path d="M74.19,47.93l1.88-16.06-4.2,.07s-.02,.11-.03,.16c-.07,.51-.16,1.02-.27,1.53-.12,.56-.22,1.1-.3,1.62,0-.14-.17-.43-.52-.84-.17-.2-.38-.41-.63-.62,0,0-.02-.02-.03-.03-.1-.09-.24-.18-.35-.26-.16-.12-.3-.24-.49-.36-.3-.2-.62-.39-.96-.57-.04-.02-.08-.05-.13-.07-.37-.19-.78-.38-1.21-.56-.21-.08-.43-.16-.65-.22-.28-.08-.57-.14-.86-.19-.06-.01-.13-.02-.2-.02-.4-.05-.81-.08-1.25-.08-.4,0-.8,.04-1.19,.09-.13,.02-.26,.04-.38,.06-.26,.04-.53,.09-.79,.15-.15,.03-.29,.08-.44,.12-.24,.07-.48,.14-.71,.22-.15,.05-.3,.11-.45,.17-.32,.13-.64,.26-.96,.41-.78,.38-1.52,.83-2.23,1.33,0,0-.02,0-.03,.02-.71,.51-1.37,1.09-2,1.73-.6,.62-1.15,1.29-1.65,2-.04,.06-.08,.12-.12,.17-.5,.72-.95,1.48-1.35,2.3-.19,.39-.36,.78-.52,1.18-.06,.16-.12,.32-.17,.47-.09,.25-.18,.51-.26,.76-.07,.21-.12,.42-.18,.63-.06,.22-.12,.44-.17,.66-.08,.35-.15,.71-.2,1.07-.03,.17-.07,.34-.09,.52-.24,1.87-.13,3.65,.32,5.29,.45,1.65,1.14,3.1,2.08,4.35,.94,1.24,2.12,2.21,3.55,2.92,1.42,.7,2.98,1.03,4.69,1.01,1.18-.02,2.25-.19,3.23-.51,.97-.33,1.8-.69,2.49-1.1,.32-.19,.6-.37,.86-.56,.3-.21,.57-.43,.78-.63t.04-.04s.02-.02,.04-.04c.29-.27,.47-.47,.57-.61,.02-.03,.07-.08,.09-.11-.05,.24-.06,.47-.06,.71,0,.2-.02,.42-.05,.63v.07l-.18,1.4,9.08-.16,.66-5.55-4.63,.08,.55-4.73-.02,.02Zm-14.07,5.35h-.06c-.41-.07-.79-.17-1.15-.31-.03,0-.07-.03-.1-.04-.02,0-.04-.02-.06-.02-.33-.14-.63-.31-.92-.51-.05-.03-.1-.07-.15-.11h0c-.28-.21-.55-.45-.8-.73-.08-.09-.16-.19-.24-.29-.04-.05-.09-.1-.13-.15-.04-.05-.06-.12-.1-.17-.07-.1-.12-.21-.19-.32-.09-.15-.19-.3-.27-.46s-.16-.31-.23-.47c-.06-.15-.1-.31-.16-.47-.08-.23-.18-.46-.23-.7-.06-.28-.08-.59-.12-.88,0-.07-.02-.14-.03-.21-.06-.66-.07-1.35,.02-2.08,.12-1.17,.4-2.25,.87-3.24,.47-.99,1.07-1.86,1.8-2.59,.73-.74,1.55-1.32,2.46-1.73s1.89-.62,2.96-.64c.37,0,.71,.02,1.05,.06,1.61,.19,2.89,.89,3.82,2.14,1.14,1.5,1.58,3.42,1.3,5.76-.01,.12-.05,.23-.06,.34-.05,.35-.11,.69-.19,1.02-.02,.07-.02,.13-.04,.2,0,.04-.02,.07-.03,.11,0,.02-.02,.04-.02,.06-.04,.14-.1,.27-.15,.4-.08,.23-.15,.46-.25,.68-.05,.13-.08,.26-.14,.38-.04,.08-.08,.14-.12,.22-.1,.19-.21,.37-.31,.55-.1,.17-.19,.36-.29,.52-.02,.03-.03,.06-.05,.09-.01,.02-.03,.04-.04,.06-.07,.11-.17,.19-.24,.29-.11,.15-.23,.29-.35,.42-.13,.15-.24,.32-.38,.46-.02,.02-.05,.04-.07,.06-.16,.16-.33,.29-.5,.43-.18,.16-.35,.33-.54,.46-.01,0-.02,.02-.04,.03-.02,.02-.05,.03-.08,.05-.19,.13-.4,.24-.6,.35-.21,.13-.42,.27-.64,.38-.09,.05-.2,.06-.29,.1-.24,.1-.49,.19-.75,.26-.15,.04-.3,.11-.45,.14-.47,.1-.95,.17-1.46,.18-.45,0-.87-.03-1.27-.09h0Z" fill="#9bc3fd"/>
    <polygon points="93.61 46.41 90.4 46.46 90.43 54.19 93.65 57.87 93.61 46.41" fill="url(#Adsız_degrade_19)"/>
    <polygon points="104.9 43.98 101.68 40.3 95.54 40.41 95.56 44.14 104.9 43.98" fill="#198391"/>
    <polygon points="84.27 44.33 93.61 44.17 90.39 40.5 81.05 40.66 84.27 44.33" fill="#198391"/>
    <polygon points="81.05 40.66 81.05 42.89 84.27 46.57 84.27 44.33 81.05 40.66" fill="#146772"/>
    <polygon points="95.52 31.62 92.3 27.94 90.35 27.98 93.57 31.65 95.52 31.62" fill="#146772"/>
    <polygon points="93.57 31.65 90.35 27.98 90.39 40.5 93.61 44.17 93.57 31.65" fill="#198391"/>
    <path d="M95.59,57.81v-3.71l-.03-7.73,9.35-.16v-2.24l-9.35,.16v-3.73l-.04-8.79-1.95,.03,.04,12.52-9.34,.16v2.24l6.14-.11,3.21-.05,.03,11.46,1.95-.03v-.02h0Z" fill="#146772"/>
    <g>
      <polygon points="115.58 52 110.42 46.4 109.92 51.83 115.08 57.42 115.58 52" fill="url(#Adsız_degrade_20)"/>
      <g>
        <path d="M138.14,37.97c-.94-1.18-2.21-1.84-3.77-1.99,.06,.62,.07,1.26,0,1.96,0,.13,0,.25-.03,.38-.03,.33-.08,.67-.16,1,0,.05-.03,.11-.04,.18,0,.05-.04,.11-.05,.15-.02,.14-.06,.27-.1,.42-.07,.22-.13,.44-.23,.64-.04,.13-.09,.26-.15,.37-.04,.09-.07,.18-.11,.25-.08,.18-.18,.36-.27,.53-.08,.17-.18,.33-.27,.49-.03,.04-.06,.07-.07,.1,0,.02-.04,.05-.06,.07-.05,.1-.12,.19-.19,.29-.11,.15-.22,.29-.35,.44-.11,.15-.23,.3-.37,.42,0,.03-.03,.06-.06,.07-.15,.16-.31,.3-.46,.45-.17,.16-.35,.31-.53,.45,0,0-.03,0-.04,.02,0,.02-.04,.03-.07,.05-.18,.14-.36,.27-.55,.4-.21,.11-.42,.24-.65,.35-.08,.05-.17,.09-.27,.13-.24,.11-.49,.17-.73,.26-.14,.05-.28,.12-.44,.15-.45,.11-.92,.19-1.4,.21-.37,0-.7,0-1.03-.04,0,.06,.02,.14,.03,.2l4.11,4.46-4.11-4.46c.04,.29,.07,.59,.14,.86,.06,.24,.16,.45,.24,.67,.06,.15,.1,.31,.16,.45,.07,.16,.16,.3,.24,.45,.08,.15,.18,.29,.27,.44,.07,.1,.12,.21,.19,.3,.04,.05,.06,.11,.1,.15,.05,.06,.11,.12,.16,.18,.07,.09,.14,.17,.22,.25,.02,.02,.05,.04,.07,.06,.09,.09,.18,.16,.27,.24,.06,.05,.12,.1,.18,.16,.09,.07,.17,.16,.27,.23,.05,.03,.1,.07,.15,.1,.05,.03,.1,.05,.15,.08,.11,.07,.23,.12,.35,.18,.14,.07,.27,.16,.42,.22,.02,0,.04,0,.05,.02,.04,0,.07,.03,.11,.04,.12,.04,.26,.06,.39,.1,.19,.05,.37,.11,.57,.15,.05,0,.1,.02,.15,.03h.11c.39,.05,.77,.07,1.2,.06,.48-.03,.95-.1,1.4-.21,.16-.04,.3-.1,.44-.15,.25-.08,.49-.16,.72-.28,.1-.03,.2-.05,.3-.1,.21-.11,.41-.26,.6-.4,.2-.11,.41-.21,.59-.35,0-.02,.04-.03,.07-.05,0,0,0-.02,.03-.03,.18-.14,.35-.31,.51-.47,.15-.14,.32-.28,.47-.42,.03-.03,.04-.05,.07-.06,.12-.13,.23-.3,.34-.45,.12-.14,.23-.28,.35-.44,.07-.1,.15-.17,.22-.26,0-.04,.03-.06,.04-.08,.03-.03,.04-.08,.05-.11,.11-.15,.19-.33,.27-.5,.1-.17,.19-.35,.27-.53,.04-.08,.1-.13,.12-.23,.07-.12,.09-.26,.15-.39,.08-.21,.15-.43,.21-.65,.04-.13,.09-.26,.13-.39,0-.05,.03-.11,.04-.16,0-.06,0-.13,.02-.2,.08-.32,.13-.66,.16-1,.03-.11,.05-.23,.06-.35,.21-2.29-.26-4.15-1.41-5.57h.04Z" fill="url(#Adsız_degrade_21)"/>
        <path d="M136.39,27.92h0c-.14-.15-.29-.29-.43-.43-.07-.06-.13-.13-.19-.19-.05-.05-.11-.1-.16-.14-.07-.06-.14-.11-.21-.17-.1-.08-.2-.17-.31-.25-.06-.05-.13-.1-.19-.14-.03-.02-.06-.04-.09-.06-.2-.14-.41-.28-.63-.41h0c-.23-.14-.47-.26-.72-.38-.05-.02-.09-.05-.14-.07-.2-.09-.41-.16-.62-.24-.09-.04-.18-.08-.28-.11-.12-.04-.24-.08-.36-.12-.08-.02-.17-.04-.26-.06-.1-.03-.21-.05-.31-.08-.23-.05-.47-.1-.71-.13-.08-.01-.17-.02-.26-.03-.13-.02-.25-.04-.38-.05-.1,0-.2-.02-.3-.02-.36-.02-.72-.03-1.09-.01-.43,.02-.84,.08-1.24,.15l-.3,3.23-.21,2.26-.16,1.76s-.02,.05-.03,.07c-.11,.27-.21,.53-.3,.79-.03,.07-.06,.15-.08,.22-.07,.21-.16,.42-.25,.64-.03,.09-.07,.17-.1,.26-.01,.03-.03,.07-.04,.1,0,.02-.01,.03-.02,.05v.02s.05-.08,.09-.12h0s.06-.08,.09-.12c.02-.03,.04-.05,.07-.08,.04-.05,.1-.1,.15-.15,.03-.03,.05-.05,.08-.08,.09-.09,.19-.18,.3-.29,.21-.19,.45-.39,.71-.59,.31-.24,.65-.47,1.03-.71,.05-.03,.11-.06,.16-.09,.38-.23,.8-.45,1.25-.66,.33-.15,.66-.31,1.02-.45,.92-.35,1.89-.55,2.92-.59,.37-.02,.73,0,1.09,.01,.1,0,.2,.02,.3,.02,.22,.02,.43,.05,.64,.08,.24,.04,.47,.08,.7,.13,.19,.04,.38,.09,.57,.14,.12,.04,.24,.07,.36,.12,.3,.1,.6,.22,.89,.35,.33,.15,.64,.32,.94,.5,.06,.03,.11,.07,.16,.1,.25,.16,.49,.32,.72,.5,.04,.03,.09,.06,.13,.1,.02,.02,.05,.04,.07,.05,.09,.07,.18,.15,.26,.23,.05,.05,.11,.09,.16,.14,.03,.03,.06,.05,.09,.08,.05,.05,.09,.1,.14,.14,.05,.05,.1,.1,.15,.15,.07,.07,.13,.13,.2,.2,.02,.02,.04,.04,.05,.06l-5.16-5.6,.05-.03Z" fill="url(#Adsız_degrade_22)"/>
        <polygon points="120.46 5.97 129.29 5.6 124.13 0 115.3 .37 114.8 5.79 118.34 9.63 114.92 46.21 110.42 46.4 115.58 52 120.08 51.81 123.87 11.22 119.96 11.38 120.46 5.97" fill="url(#Adsız_degrade_23)"/>
      </g>
      <path d="M119.96,11.38l3.91-.17-3.79,40.59-4.5,.19-.5,5.42,8.83-.37,.13-1.38c.04-.23,.05-.45,.04-.68,0-.19,0-.38,.03-.57v-.11c.02,.06,.08,.15,.16,.27,.03,.04,.07,.08,.1,.12,.08,.1,.17,.2,.29,.33,.33,.35,.79,.71,1.39,1.07s1.36,.68,2.25,.93c.9,.26,1.92,.36,3.06,.31,1.65-.07,3.25-.48,4.77-1.26,1.52-.77,2.87-1.8,4.04-3.07,1.16-1.27,2.13-2.75,2.89-4.43s1.24-3.42,1.43-5.25c.19-1.83,.05-3.54-.41-5.13-.46-1.6-1.18-3-2.14-4.18-.22-.27-.45-.51-.68-.75-.05-.05-.1-.1-.15-.15-.23-.23-.48-.44-.73-.64-.04-.03-.09-.06-.13-.1-.23-.18-.47-.34-.72-.5-.05-.03-.11-.07-.16-.1-.3-.18-.62-.35-.94-.5-.29-.14-.59-.25-.89-.35-.12-.04-.24-.08-.36-.12-.19-.06-.38-.1-.57-.14-.23-.05-.47-.1-.71-.13-.21-.03-.42-.06-.64-.08-.1,0-.2-.02-.3-.02-.36-.02-.72-.03-1.09-.01-1.04,.04-2,.24-2.92,.59-.36,.14-.69,.3-1.02,.45-.45,.21-.87,.43-1.25,.66-.05,.03-.11,.06-.16,.09-.38,.24-.72,.48-1.03,.71-.26,.2-.5,.39-.71,.59-.11,.11-.21,.2-.3,.29-.03,.03-.05,.06-.08,.08-.05,.05-.11,.11-.15,.15-.03,.03-.05,.05-.07,.08-.03,.04-.07,.08-.09,.11h0c-.04,.06-.07,.1-.09,.13v-.02s.01-.03,.02-.05c.01-.03,.03-.07,.04-.1,.03-.09,.07-.17,.1-.26,.08-.21,.17-.43,.25-.64,.03-.07,.06-.15,.08-.22,.1-.25,.19-.51,.3-.79,0-.02,.02-.05,.03-.07l.16-1.76,.21-2.26,.3-3.23,1.79-19.36-8.83,.37-.5,5.41h.01Zm6.49,29.58c.43-.97,.99-1.82,1.68-2.56,.69-.73,1.47-1.31,2.35-1.73s1.83-.66,2.85-.71c.36-.02,.7,0,1.03,.03,1.56,.15,2.82,.81,3.77,1.98,1.15,1.43,1.62,3.29,1.4,5.57,0,.12-.04,.23-.06,.35-.04,.34-.09,.67-.16,1,0,.06-.02,.13-.03,.19,0,.06-.03,.11-.04,.16-.03,.13-.09,.26-.13,.39-.07,.22-.14,.44-.22,.65-.05,.13-.08,.27-.13,.4-.04,.08-.09,.15-.12,.23-.08,.18-.18,.35-.28,.52-.09,.17-.17,.35-.27,.5-.02,.04-.04,.08-.06,.11,0,.02-.03,.04-.05,.07-.06,.1-.14,.18-.21,.27-.11,.15-.23,.3-.35,.44-.12,.15-.22,.31-.35,.45-.02,.02-.04,.04-.06,.06-.15,.16-.32,.29-.48,.43-.17,.16-.33,.33-.51,.46,0,0-.02,.02-.03,.03-.02,.02-.05,.03-.07,.05-.18,.13-.38,.24-.58,.36-.21,.13-.4,.27-.62,.38-.09,.05-.19,.07-.28,.11-.23,.11-.48,.19-.72,.27-.15,.05-.29,.11-.44,.15-.45,.11-.92,.19-1.41,.21-.43,.02-.84,0-1.23-.06h-.07c-.39-.06-.76-.15-1.12-.27-.04,0-.08-.03-.11-.04-.02,0-.03,0-.05-.02-.32-.13-.62-.28-.91-.47-.05-.03-.1-.07-.15-.1-.28-.2-.55-.43-.79-.69-.08-.08-.15-.17-.22-.25-.05-.06-.11-.12-.16-.18-.04-.05-.06-.1-.1-.15-.07-.1-.12-.2-.19-.3-.09-.14-.19-.29-.27-.44-.08-.15-.17-.3-.24-.45-.07-.14-.11-.3-.16-.45-.08-.22-.18-.44-.24-.67-.07-.27-.1-.57-.14-.86,0-.07-.02-.14-.03-.21-.07-.64-.1-1.31-.03-2.03,.09-1.14,.34-2.2,.77-3.17h.02Z" fill="#9bc3fd"/>
    </g>
  </g>
</svg>