<?xml version="1.0" encoding="UTF-8"?>
<svg id="katman_2" data-name="katman 2" xmlns="http://www.w3.org/2000/svg" viewBox="0 0 98.94 118">
  <g id="_üst_arka" data-name=" üst arka">
    <g id="katman_47" data-name="katman 47">
      <g>
        <g>
          <path d="M48.94,98.99c5.02,.03,9.66-1.46,13.96-4.3,.22-.14,.45-.27,.67-.4,0,7.15,.02,14.3,0,21.45,0,1.66-1.57,2.72-2.94,2.06-.19-.09-.37-.21-.55-.34-3.72-2.78-7.44-5.55-11.15-8.33v-10.14h0Z" fill="#fcbd11"/>
          <path d="M48.94,99.01c-.68-.04-1.37-.08-2.05-.15-2.04-.21-4.03-.68-5.97-1.43-2.07-.8-4.02-1.9-5.88-3.22,0,3.45,0,6.89,0,10.34v10.88c0,1.31,.64,2.27,1.64,2.51,.75,.18,1.36-.2,1.95-.65,3.44-2.65,6.88-5.29,10.32-7.94,0,0,0-10.34,0-10.34Z" fill="#ffcc01"/>
        </g>
        <path d="M49.44,0c-.21,0-.42,0-.63,.02V98.98c.21,0,.42,.02,.63,.02,27.34,0,49.5-22.16,49.5-49.5S76.78,0,49.44,0Z" fill="#6562f6"/>
      </g>
    </g>
    <g id="katman_53" data-name="katman 53">
      <path d="M48.94,.02C21.86,.31,0,22.35,0,49.5s21.86,49.19,48.94,49.48V.02Z" fill="#9292f7"/>
    </g>
    <g id="katman_51" data-name="katman 51">
      <path d="M48.86,23.41c1.65-.13,2.63,.72,3.32,2.03,1.66,3.17,3.48,6.28,4.95,9.53,.82,1.83,2.09,2.32,3.97,2.53,4.05,.44,8.08,1,12.1,1.68,2.57,.43,3.46,3.46,1.63,5.23-3.08,2.98-6.29,5.84-9.55,8.64-.67,.58-1,1.1-.79,2.1,.86,3.96,1.56,7.95,2.28,11.93,.25,1.37-.3,2.5-1.46,3.35-1.05,.78-2.23,.85-3.37,.3-3.43-1.63-6.84-3.32-10.25-5-.92-.46-1.8-1-2.81-1.28h0V23.42h-.02Z" fill="#fcbd11"/>
      <path d="M48.86,23.42v41.03c-1.7,.63-3.28,1.49-4.9,2.3-2.71,1.35-5.46,2.61-8.2,3.91-1.22,.58-2.39,.49-3.44-.32-1.12-.87-1.57-1.96-1.29-3.38,.82-4.11,1.56-8.23,2.34-12.34,.11-.58-.22-.93-.61-1.28-3.13-2.82-6.25-5.66-9.39-8.47-1.08-.96-1.72-2.1-1.31-3.49,.46-1.55,1.8-2.19,3.37-2.4,4.4-.6,8.8-1.17,13.21-1.72,.75-.09,.97-.56,1.24-1.07,1.89-3.57,3.78-7.14,5.65-10.73,.69-1.32,1.7-2.11,3.32-2.04h0Z" fill="#ffcc01"/>
    </g>
  </g>
</svg>