<svg width="227" height="170" viewBox="0 0 227 170" fill="none" xmlns="http://www.w3.org/2000/svg">
<path d="M153.742 100.425L141.519 144.891C141.519 144.891 131.886 147.158 132.073 147.758C132.26 148.359 147.282 150.399 147.282 150.399L162.514 104.318" fill="white"/>
<path d="M147.282 150.688H147.248C132.067 148.637 131.875 148.064 131.801 147.855C131.787 147.807 131.782 147.756 131.788 147.707C131.794 147.657 131.81 147.609 131.835 147.566C132.232 146.852 138.448 145.327 141.287 144.664L153.47 100.362C153.49 100.29 153.538 100.229 153.602 100.192C153.667 100.155 153.744 100.145 153.816 100.164C153.852 100.174 153.886 100.191 153.916 100.214C153.945 100.237 153.97 100.266 153.989 100.298C154.007 100.331 154.019 100.367 154.023 100.404C154.028 100.441 154.025 100.479 154.014 100.515L141.791 144.976C141.778 145.026 141.752 145.071 141.715 145.107C141.678 145.143 141.632 145.168 141.582 145.18C137.757 146.07 133.648 147.186 132.56 147.707C134.198 148.234 142.007 149.407 147.09 150.099L162.242 104.238C162.267 104.168 162.318 104.11 162.384 104.076C162.451 104.042 162.528 104.035 162.599 104.057C162.635 104.069 162.669 104.087 162.697 104.112C162.726 104.136 162.75 104.166 162.766 104.2C162.783 104.234 162.793 104.271 162.796 104.308C162.798 104.346 162.793 104.384 162.781 104.42L147.554 150.501C147.534 150.557 147.497 150.605 147.448 150.638C147.4 150.672 147.342 150.689 147.282 150.688Z" fill="#323D4B"/>
<path d="M179.849 98.566L183.033 150.41C183.033 150.41 167.954 153.68 167.898 153.289C167.841 152.898 176.024 147.084 176.024 147.084L169.864 99.2063" fill="white"/>
<path d="M167.988 153.567C167.796 153.567 167.756 153.567 167.728 153.521C167.663 153.471 167.618 153.398 167.603 153.317C167.569 153.108 167.518 152.751 175.701 146.937L169.569 99.2233C169.56 99.1482 169.58 99.0722 169.626 99.0122C169.672 98.9522 169.741 98.9129 169.816 98.9032C169.891 98.8934 169.967 98.9139 170.027 98.9601C170.087 99.0063 170.126 99.0745 170.136 99.1497L176.296 147.027C176.302 147.079 176.294 147.132 176.273 147.179C176.252 147.227 176.219 147.269 176.177 147.299C173.661 149.084 169.807 151.901 168.544 152.966C170.669 152.688 177.928 151.192 182.71 150.133L179.565 98.6C179.563 98.5628 179.568 98.5255 179.58 98.4902C179.592 98.455 179.611 98.4224 179.636 98.3945C179.661 98.3666 179.691 98.3439 179.724 98.3276C179.758 98.3113 179.794 98.3018 179.832 98.2997C179.906 98.2965 179.98 98.3225 180.036 98.3722C180.092 98.4219 180.126 98.4914 180.132 98.566L183.3 150.41C183.305 150.478 183.286 150.545 183.245 150.6C183.204 150.654 183.145 150.691 183.079 150.705C171.434 153.21 168.691 153.567 167.988 153.567Z" fill="#323D4B"/>
<path d="M155.448 55.3237C154.677 55.5673 153.901 55.7997 153.119 56.0037C146.918 57.7117 140.505 58.5283 134.073 58.429C131.926 58.3723 129.058 58.429 127.092 57.511C125.562 56.7857 124.123 55.5163 122.712 54.5813C122.349 54.3433 121.765 54.145 121.578 54.5247C121.42 54.8137 121.658 55.1537 121.884 55.386C122.701 56.2191 123.591 56.9776 124.542 57.6527C122.707 57.3367 120.85 57.17 118.989 57.154C118.906 57.1444 118.822 57.1623 118.751 57.205C118.541 57.3637 118.813 57.6697 119.057 57.7717C119.622 58.0081 120.206 58.1976 120.802 58.3383C120.25 58.1683 119.679 58.0693 119.102 58.0437C118.841 58.0437 118.535 58.0437 118.416 58.2987C118.263 58.633 118.666 58.9447 119.011 59.0807C119.567 59.3012 120.135 59.4904 120.711 59.6473C120.041 59.6357 119.373 59.7216 118.728 59.9023C118.615 59.9214 118.511 59.9772 118.433 60.061C118.381 60.1477 118.359 60.2494 118.371 60.35C118.435 60.6173 118.577 60.8596 118.779 61.0462C118.98 61.2328 119.233 61.3554 119.504 61.3983C120.051 61.4681 120.594 61.5664 121.131 61.693C120.632 61.727 120.139 61.5457 119.646 61.5797C119.153 61.6137 118.598 62.016 118.705 62.5033C118.813 62.9907 119.272 63.07 119.725 63.1947C128.061 65.0667 136.614 65.7874 145.146 65.3367C149.41 65.1163 153.654 64.6108 157.851 63.8237C161.642 63.1097 165.523 62.4977 168.09 59.33C168.292 59.0929 168.482 58.8451 168.657 58.5877C169.282 57.7687 169.561 56.7371 169.433 55.7147C168.804 52.649 164.707 52.921 162.373 53.3687C160.029 53.8881 157.717 54.5409 155.448 55.3237Z" fill="white"/>
<path d="M140.171 65.7333C133.262 65.7445 126.374 64.9842 119.635 63.4667C119.164 63.359 118.501 63.1493 118.399 62.5543C118.373 62.428 118.375 62.2974 118.406 62.1719C118.436 62.0465 118.494 61.9294 118.575 61.829C118.674 61.6955 118.799 61.5836 118.943 61.5003C118.708 61.4056 118.502 61.2512 118.345 61.0525C118.188 60.8537 118.086 60.6175 118.048 60.367C118.024 60.1961 118.064 60.0223 118.161 59.8797C118.277 59.744 118.434 59.6504 118.609 59.6133C118.813 59.5567 119.023 59.5113 119.232 59.4717L118.87 59.33C118.544 59.2147 118.274 58.9824 118.11 58.6783C118.075 58.5979 118.057 58.5111 118.057 58.4233C118.057 58.3356 118.075 58.2488 118.11 58.1683C118.154 58.0759 118.218 57.9944 118.298 57.9297C118.377 57.865 118.47 57.8188 118.569 57.7943C118.461 57.6918 118.389 57.5564 118.365 57.409C118.354 57.3275 118.364 57.2444 118.396 57.1685C118.428 57.0926 118.48 57.0269 118.547 56.9783C118.668 56.8997 118.811 56.862 118.955 56.8707C120.456 56.8839 121.955 56.9937 123.443 57.1993C122.812 56.6915 122.212 56.1465 121.646 55.5673C121.114 55.0007 121.159 54.6153 121.295 54.3717C121.339 54.2878 121.401 54.2144 121.476 54.1567C121.552 54.099 121.639 54.0583 121.731 54.0373C122.132 53.9864 122.537 54.0897 122.865 54.3263C123.352 54.6493 123.845 55.012 124.321 55.369C125.228 56.0787 126.197 56.7046 127.217 57.239C128.888 58.0267 131.331 58.072 133.286 58.1117H134.079C140.484 58.2162 146.871 57.4032 153.045 55.6977C153.725 55.5163 154.439 55.3067 155.363 55.0233L156.689 54.604C158.53 53.9745 160.407 53.4579 162.31 53.057C164.299 52.6717 168.997 52.1617 169.677 55.624C169.87 56.5533 169.581 57.596 168.821 58.718C168.645 58.9805 168.456 59.2339 168.255 59.4773C165.727 62.5997 161.965 63.3023 158.321 64.0107L157.851 64.1013C153.641 64.8923 149.384 65.3997 145.106 65.62C143.467 65.6956 141.822 65.7333 140.171 65.7333ZM119.742 61.8517H119.635C119.517 61.8602 119.402 61.8921 119.297 61.9456C119.192 61.9992 119.099 62.0732 119.023 62.1633C118.991 62.1991 118.968 62.2419 118.956 62.2883C118.945 62.3346 118.944 62.3831 118.955 62.4297C119 62.6393 119.261 62.798 119.759 62.9113C128.071 64.7785 136.6 65.4954 145.106 65.042C149.357 64.823 153.588 64.3195 157.771 63.5347L158.247 63.444C161.789 62.781 165.45 62.0953 167.847 59.1373C168.034 58.9107 168.209 58.667 168.374 58.4233C168.673 58.0518 168.896 57.6247 169.029 57.1666C169.162 56.7084 169.203 56.2284 169.15 55.7543C168.544 52.7907 164.237 53.278 162.418 53.6293C160.537 54.026 158.683 54.537 156.865 55.1593L155.533 55.5787C154.604 55.8677 153.878 56.0773 153.193 56.2587C146.967 57.9821 140.526 58.8027 134.068 58.6953H133.274C131.263 58.6557 128.741 58.6103 126.973 57.766C125.918 57.2214 124.918 56.5762 123.987 55.8393C123.494 55.4767 123.023 55.131 122.553 54.8193C122.363 54.6693 122.126 54.5928 121.884 54.604C121.868 54.6073 121.852 54.6141 121.839 54.6238C121.825 54.6336 121.813 54.6462 121.805 54.6607C121.754 54.7627 121.856 54.9667 122.071 55.1933C122.876 56.0241 123.752 56.7825 124.689 57.46C124.741 57.4972 124.779 57.5508 124.796 57.6121C124.814 57.6735 124.81 57.7389 124.786 57.7979C124.762 57.8569 124.718 57.906 124.663 57.9372C124.607 57.9685 124.543 57.98 124.48 57.97C122.68 57.6645 120.859 57.4996 119.034 57.477C119.068 57.505 119.106 57.5279 119.147 57.545C119.518 57.6978 119.896 57.832 120.281 57.9473C120.473 57.9927 120.66 58.0437 120.847 58.1003C120.918 58.1202 120.977 58.167 121.014 58.2307C121.05 58.2944 121.059 58.3697 121.04 58.4403C121.02 58.5113 120.974 58.5719 120.91 58.6098C120.847 58.6478 120.772 58.6601 120.7 58.6443C120.513 58.599 120.326 58.5537 120.133 58.497C119.76 58.4186 119.381 58.3694 119 58.3497C118.773 58.3497 118.615 58.3497 118.581 58.446C118.575 58.4664 118.575 58.488 118.581 58.5083C118.688 58.6649 118.843 58.7822 119.023 58.8427C119.564 59.0645 120.119 59.2538 120.683 59.4093C120.749 59.429 120.806 59.4719 120.844 59.5301C120.881 59.5884 120.897 59.6581 120.887 59.7267C120.876 59.7937 120.842 59.8546 120.79 59.8983C120.737 59.942 120.672 59.9655 120.604 59.9647C119.962 59.9517 119.323 60.0338 118.705 60.2083C118.653 60.2175 118.603 60.2367 118.558 60.265C118.551 60.2948 118.551 60.3259 118.558 60.3557C118.598 60.7637 119.057 61.0527 119.487 61.1547C119.704 61.2029 119.924 61.2389 120.145 61.2623C120.485 61.2904 120.822 61.357 121.148 61.4607C121.209 61.4832 121.26 61.5256 121.294 61.5812C121.328 61.6367 121.342 61.7021 121.335 61.7667C121.324 61.8311 121.291 61.89 121.243 61.9341C121.195 61.9782 121.133 62.005 121.068 62.0103C120.799 62.0175 120.529 61.9985 120.264 61.9537C120.092 61.9141 119.918 61.8857 119.742 61.8687V61.8517Z" fill="#323D4B"/>
<path d="M138.329 144.704L140.369 147.809L148.302 148.75L147.526 151.793C147.526 151.793 130.027 149.606 129.625 148.002C129.223 146.398 138.329 144.704 138.329 144.704Z" fill="#323D4B"/>
<path d="M159.732 50.7053C159.732 50.7053 154.235 52.0143 152.581 55.4143C150.926 58.8143 152.904 77.0497 152.904 77.0497L177.27 78.0924C177.27 78.0924 179.769 64.6623 178.545 58.905C177.321 53.1477 172.465 45.475 159.732 50.7053Z" fill="#CBD2D9"/>
<path d="M160.446 47.6L158.882 52.7C158.882 52.7 158.916 55.7147 162.254 55.369C163.24 55.2561 164.188 54.9249 165.03 54.3995C165.872 53.8741 166.586 53.1677 167.121 52.3317L168.311 43.2083C167.792 42.7803 167.451 42.1743 167.354 41.5083C167.266 41.0059 167.266 40.4921 167.354 39.9897C167.388 39.797 167.603 38.6693 167.824 38.6297C167.191 38.7309 166.542 38.6771 165.934 38.4728C165.326 38.2685 164.777 37.9198 164.333 37.4567C163.869 36.9106 163.488 36.2997 163.2 35.6433C162.936 35.2446 162.833 34.7607 162.911 34.289C161.864 34.9539 160.85 35.6679 159.868 36.431C159.325 36.8265 158.832 37.287 158.4 37.8023C157.692 38.7203 157.499 39.984 157.335 41.1003C157.118 42.4261 157.025 43.7693 157.057 45.1123C157.131 47.668 160.446 47.6 160.446 47.6Z" fill="white"/>
<path d="M161.732 55.6863C160.962 55.7229 160.207 55.4657 159.619 54.9667C159.012 54.3789 158.656 53.5785 158.627 52.734C158.621 52.7078 158.621 52.6808 158.627 52.6547L160.089 47.872C158.803 47.787 156.842 47.1467 156.768 45.1237C156.737 43.7654 156.832 42.4071 157.052 41.0663C157.21 39.9783 157.409 38.624 158.185 37.6663C158.628 37.1325 159.136 36.6565 159.698 36.2497C160.684 35.4847 161.715 34.7593 162.764 34.0907C162.807 34.0617 162.859 34.0462 162.911 34.0462C162.963 34.0462 163.015 34.0617 163.058 34.0907C163.101 34.123 163.132 34.1675 163.148 34.2181C163.164 34.2688 163.165 34.3232 163.149 34.374C163.095 34.7832 163.192 35.1982 163.421 35.5413C163.71 36.1777 164.092 36.7678 164.554 37.2923C164.97 37.7227 165.483 38.0475 166.05 38.2397C166.616 38.4319 167.221 38.486 167.813 38.3973C167.847 38.3917 167.881 38.3927 167.915 38.4005C167.948 38.4083 167.98 38.4226 168.008 38.4426C168.035 38.4626 168.059 38.4879 168.077 38.5171C168.095 38.5463 168.107 38.5788 168.113 38.6127C168.121 38.6686 168.111 38.7256 168.085 38.7756C168.058 38.8255 168.016 38.8657 167.966 38.8903C167.807 39.2635 167.698 39.656 167.643 40.0577C167.56 40.5301 167.56 41.0132 167.643 41.4857C167.727 42.0913 168.029 42.6454 168.493 43.044C168.531 43.0707 168.562 43.1077 168.581 43.1507C168.6 43.1937 168.607 43.2411 168.6 43.2877L167.416 52.411C167.411 52.4449 167.399 52.4776 167.382 52.5073C166.829 53.3822 166.086 54.1209 165.208 54.6684C164.33 55.2159 163.339 55.5581 162.31 55.6693C162.067 55.675 161.908 55.6863 161.732 55.6863ZM159.143 52.7623C159.182 53.451 159.475 54.1008 159.964 54.587C160.28 54.8372 160.646 55.0171 161.037 55.1149C161.427 55.2126 161.835 55.2258 162.231 55.1537C163.165 55.0487 164.065 54.7406 164.868 54.2512C165.671 53.7618 166.356 53.1028 166.878 52.3203L168.011 43.3897C167.503 42.9198 167.173 42.2894 167.076 41.6047C166.982 41.0723 166.982 40.5277 167.076 39.9953C167.129 39.6535 167.209 39.3163 167.314 38.9867C166.719 39.0047 166.127 38.8975 165.577 38.6719C165.026 38.4464 164.529 38.1077 164.118 37.6777C163.63 37.1139 163.228 36.4821 162.922 35.802C162.753 35.4969 162.636 35.1655 162.577 34.8217C161.689 35.4034 160.824 36.0211 159.981 36.6747C159.466 37.0474 158.998 37.4812 158.587 37.9667C157.913 38.8393 157.732 40.0633 157.573 41.1457C157.361 42.4568 157.268 43.7844 157.295 45.1123C157.375 47.379 160.327 47.379 160.44 47.379C160.481 47.3781 160.521 47.3869 160.558 47.4046C160.594 47.4224 160.626 47.4486 160.65 47.481C160.675 47.5136 160.692 47.5516 160.7 47.5919C160.708 47.6322 160.706 47.6737 160.695 47.7133L159.143 52.7623Z" fill="#323D4B"/>
<path d="M166.515 42.5C166.663 42.1248 166.93 41.8084 167.274 41.599C167.601 41.4155 167.958 41.2927 168.328 41.2363C168.528 41.1882 168.735 41.1882 168.935 41.2363C169.073 41.2759 169.203 41.3434 169.314 41.4347C169.592 41.6276 169.793 41.9126 169.881 42.2393C169.921 42.5111 169.897 42.7883 169.813 43.0497C169.738 43.3387 169.625 43.6168 169.479 43.877C169.167 44.3907 168.665 44.7598 168.081 44.9033C167.498 45.0467 166.882 44.9527 166.368 44.642" fill="white"/>
<path d="M167.569 45.1407C167.111 45.1421 166.662 45.0165 166.271 44.778C166.22 44.7463 166.184 44.6962 166.169 44.6381C166.154 44.58 166.162 44.5185 166.192 44.4663C166.207 44.4405 166.227 44.4179 166.251 44.4001C166.275 44.3823 166.303 44.3696 166.332 44.3627C166.361 44.3558 166.391 44.3549 166.421 44.36C166.45 44.3652 166.479 44.3763 166.504 44.3927C166.733 44.5324 166.987 44.6255 167.252 44.6664C167.517 44.7073 167.787 44.6952 168.048 44.6309C168.308 44.5666 168.553 44.4514 168.768 44.2918C168.984 44.1323 169.166 43.9316 169.303 43.7013C169.438 43.4586 169.54 43.1996 169.609 42.9307C169.69 42.7058 169.714 42.4642 169.677 42.228C169.595 41.9534 169.418 41.7166 169.178 41.5593C169.091 41.4846 168.988 41.4287 168.878 41.395C168.709 41.3706 168.538 41.3822 168.374 41.429C168.028 41.482 167.694 41.5951 167.388 41.7633C167.088 41.9481 166.856 42.2242 166.725 42.551C166.715 42.5788 166.699 42.6043 166.679 42.626C166.659 42.6477 166.635 42.6651 166.608 42.6773C166.581 42.6894 166.552 42.696 166.522 42.6967C166.493 42.6974 166.463 42.6922 166.436 42.6813C166.408 42.6707 166.382 42.6546 166.36 42.634C166.339 42.6133 166.321 42.5886 166.309 42.5612C166.297 42.5338 166.29 42.5043 166.29 42.4743C166.289 42.4444 166.294 42.4146 166.305 42.3867C166.471 41.9604 166.774 41.6015 167.167 41.3667C167.519 41.1718 167.902 41.0395 168.3 40.9757C168.533 40.9188 168.776 40.9188 169.008 40.9757C169.175 41.0256 169.331 41.1063 169.467 41.2137C169.795 41.4351 170.033 41.7669 170.136 42.1487C170.184 42.4562 170.159 42.7708 170.062 43.0667C169.983 43.3758 169.863 43.673 169.705 43.9507C169.537 44.2308 169.316 44.4751 169.053 44.6695C168.791 44.864 168.492 45.0048 168.175 45.084C167.976 45.1265 167.773 45.1455 167.569 45.1407Z" fill="#323D4B"/>
<path d="M159.664 49.9857C160.252 50.1336 160.865 50.1535 161.461 50.044C162.058 49.9345 162.624 49.6982 163.121 49.351C163.57 49.0545 163.95 48.6646 164.234 48.2079C164.519 47.7512 164.701 47.2384 164.77 46.7047C164.77 46.7047 162.242 48.3083 160.18 47.5943L159.664 49.9857Z" fill="#323D4B"/>
<path d="M160.718 50.3653C160.336 50.3693 159.954 50.3217 159.585 50.2237C159.524 50.2052 159.473 50.1645 159.442 50.1098C159.41 50.0551 159.4 49.9905 159.415 49.929L159.93 47.5433C159.939 47.5089 159.954 47.4766 159.976 47.4483C159.997 47.4201 160.024 47.3965 160.055 47.379C160.087 47.365 160.122 47.3577 160.157 47.3577C160.192 47.3577 160.227 47.365 160.259 47.379C162.18 48.042 164.605 46.529 164.628 46.512C164.666 46.4885 164.71 46.476 164.755 46.476C164.8 46.476 164.845 46.4885 164.883 46.512C164.923 46.5331 164.957 46.5649 164.98 46.604C165.003 46.643 165.014 46.6877 165.013 46.733C164.944 47.304 164.752 47.8531 164.45 48.3424C164.147 48.8316 163.742 49.2492 163.262 49.5663C162.522 50.0988 161.63 50.3789 160.718 50.3653ZM159.959 49.7987C160.478 49.8969 161.012 49.8903 161.528 49.7794C162.045 49.6684 162.534 49.4554 162.968 49.1527C163.66 48.6791 164.173 47.9865 164.424 47.1863C163.619 47.6057 161.925 48.3197 160.367 47.9173L159.959 49.7987Z" fill="#323D4B"/>
<path d="M162.48 38.862C162.48 38.862 160.367 41.089 160.695 41.5933C161.024 42.0977 162.191 42.0013 162.191 42.0013" fill="white"/>
<path d="M161.948 42.262C161.54 42.262 160.78 42.194 160.486 41.7293C160.123 41.1627 161.273 39.7687 162.299 38.6863C162.345 38.6382 162.408 38.6103 162.474 38.6087C162.541 38.6071 162.605 38.632 162.653 38.6778C162.701 38.7237 162.729 38.7867 162.731 38.8532C162.732 38.9196 162.708 38.9839 162.662 39.032C161.676 40.0747 160.854 41.2137 160.911 41.4743C161.086 41.7407 161.834 41.7803 162.169 41.752C162.201 41.7494 162.234 41.7533 162.266 41.7634C162.297 41.7735 162.326 41.7897 162.351 41.811C162.376 41.8323 162.396 41.8583 162.411 41.8876C162.426 41.9168 162.435 41.9488 162.438 41.9815C162.44 42.0142 162.437 42.0472 162.426 42.0784C162.416 42.1097 162.4 42.1386 162.379 42.1636C162.358 42.1886 162.332 42.2092 162.302 42.2241C162.273 42.239 162.241 42.2481 162.208 42.2507C162.122 42.2601 162.035 42.2639 161.948 42.262Z" fill="#323D4B"/>
<path d="M165.65 39.6241C165.773 39.3193 165.695 39.0011 165.478 38.9135C165.26 38.8259 164.984 39.002 164.861 39.3068C164.739 39.6117 164.816 39.9299 165.033 40.0175C165.251 40.1051 165.527 39.929 165.65 39.6241Z" fill="#323D4B"/>
<path d="M160.403 39.3331C160.526 39.0283 160.448 38.7101 160.231 38.6225C160.013 38.5349 159.737 38.711 159.614 39.0158C159.492 39.3207 159.569 39.6388 159.786 39.7265C160.004 39.8141 160.28 39.638 160.403 39.3331Z" fill="#323D4B"/>
<path d="M159.29 43.3217L163.472 43.1573C163.472 43.1573 163.359 45.9907 160.922 46.2173C158.485 46.444 159.29 43.3217 159.29 43.3217Z" fill="#323D4B"/>
<path d="M174.834 77.86C174.834 77.86 180.716 84.4107 182.359 91.63C185.81 106.817 185.912 130.05 185.912 130.05L141.236 126.86L151.867 76.653L174.834 77.86Z" fill="#323D4B"/>
<path d="M183.033 74.4317C182.141 74.4344 181.254 74.2889 180.41 74.001C180.372 73.9884 180.338 73.9685 180.309 73.9426C180.279 73.9166 180.255 73.8852 180.238 73.8499C180.22 73.8147 180.21 73.7763 180.207 73.7371C180.205 73.6979 180.21 73.6586 180.223 73.6213C180.235 73.5841 180.255 73.5498 180.281 73.5202C180.307 73.4907 180.338 73.4666 180.374 73.4492C180.409 73.4319 180.447 73.4216 180.487 73.419C180.526 73.4165 180.565 73.4217 180.602 73.4343C182.204 73.9328 183.918 73.9413 185.524 73.4586C187.131 72.976 188.556 72.0243 189.618 70.7257C190.637 69.3842 191.29 67.8014 191.515 66.1318C191.739 64.4622 191.527 62.763 190.899 61.2C189.618 58.0267 186.87 55.7147 184.212 53.4763C183.747 53.0853 183.277 52.6887 182.824 52.292C179.497 49.419 177.724 46.5913 176.823 42.84C176.001 39.3267 175.038 35.6773 173.128 33.014C171.541 30.804 167.66 28.2483 164.792 29.427C163.902 29.84 163.081 30.3865 162.356 31.0477C162.323 31.0729 162.286 31.0915 162.246 31.1022C162.206 31.1129 162.164 31.1155 162.123 31.11C160.57 30.8428 158.983 30.8313 157.426 31.076C155.891 31.325 154.51 32.1523 153.567 33.388C152.763 34.6867 152.414 36.2157 152.575 37.7343C152.603 38.1763 152.756 38.709 153.096 38.7487C153.173 38.7586 153.242 38.7979 153.29 38.8583C153.337 38.9186 153.359 38.9952 153.351 39.0717C153.347 39.1103 153.335 39.1476 153.316 39.1815C153.297 39.2154 153.272 39.2452 153.241 39.269C153.21 39.2928 153.175 39.3102 153.138 39.3201C153.1 39.33 153.061 39.3322 153.023 39.3267C152.456 39.2587 152.054 38.675 151.991 37.7683C151.813 36.1176 152.201 34.4555 153.091 33.0537C154.116 31.6987 155.624 30.7898 157.301 30.515C158.879 30.2564 160.489 30.2564 162.067 30.515C162.81 29.8493 163.651 29.3009 164.56 28.8887C167.745 27.5797 171.853 30.2487 173.593 32.674C175.565 35.4223 176.545 39.134 177.384 42.704C178.222 46.274 179.968 49.062 183.192 51.85C183.645 52.2467 184.11 52.6377 184.58 53.0287C187.289 55.2953 190.094 57.6753 191.431 60.962C192.111 62.6199 192.343 64.4277 192.102 66.2034C191.861 67.9791 191.157 69.66 190.06 71.077C189.206 72.1167 188.134 72.956 186.92 73.5357C185.705 74.1154 184.379 74.4213 183.033 74.4317Z" fill="#323D4B"/>
<path d="M184.422 151.113L183.963 147.985L174.754 150.524L172.964 148.161C172.964 148.161 166.22 153.051 167.167 154.133C168.113 155.216 178.035 153.238 184.422 151.113Z" fill="#323D4B"/>
<path d="M140.533 100.804C140.488 100.805 140.443 100.795 140.402 100.774C140.362 100.753 140.327 100.723 140.301 100.685L131.92 88.604C131.878 88.5413 131.862 88.4648 131.876 88.3907C131.89 88.3166 131.932 88.2508 131.994 88.2073C132.024 88.186 132.058 88.171 132.095 88.1631C132.131 88.1553 132.168 88.1548 132.205 88.1617C132.241 88.1685 132.276 88.1826 132.307 88.2031C132.338 88.2236 132.364 88.2501 132.385 88.281L140.777 100.362C140.798 100.393 140.813 100.427 140.821 100.463C140.829 100.499 140.83 100.537 140.823 100.573C140.816 100.61 140.802 100.645 140.781 100.675C140.761 100.706 140.734 100.733 140.703 100.753C140.654 100.789 140.594 100.807 140.533 100.804Z" fill="#E4E7EB"/>
<path d="M140.783 31.5577C140.729 31.56 140.676 31.5467 140.63 31.5195C140.584 31.4923 140.546 31.4524 140.522 31.4044C140.499 31.3565 140.489 31.3027 140.495 31.2494C140.501 31.1962 140.522 31.1458 140.556 31.1043L149.623 19.3573C149.644 19.3253 149.672 19.2981 149.705 19.2773C149.738 19.2566 149.774 19.2427 149.812 19.2366C149.851 19.2305 149.89 19.2322 149.927 19.2418C149.965 19.2513 150 19.2685 150.03 19.2921C150.061 19.3157 150.086 19.3454 150.105 19.3792C150.124 19.4131 150.135 19.4504 150.139 19.4889C150.143 19.5274 150.139 19.5663 150.127 19.6031C150.115 19.6399 150.096 19.6739 150.07 19.703L141.004 31.45C140.977 31.4831 140.943 31.5099 140.905 31.5285C140.867 31.5471 140.825 31.5571 140.783 31.5577Z" fill="#E4E7EB"/>
<path d="M70.7371 84.4107L85.2607 145.82L72.6467 148.841L58.7691 99.229L54.7401 150.133L41.6501 149.458L41.2024 78.37L70.7371 84.4107Z" fill="#323D4B"/>
<path d="M66.793 52.8077C66.708 53.142 92.293 56.831 92.293 56.831L90.4456 64.974C90.4456 64.974 73.6666 63.1267 64.7756 61.6987L66.793 52.8077Z" fill="white"/>
<path d="M90.4513 65.2573H90.423C90.253 65.2573 73.5306 63.393 64.736 61.982C64.6972 61.9772 64.6599 61.964 64.6266 61.9435C64.5934 61.923 64.565 61.8955 64.5433 61.863C64.5014 61.7975 64.4872 61.718 64.5036 61.642L66.5153 52.751C66.5328 52.6782 66.5784 52.6153 66.6421 52.5761C66.7058 52.5368 66.7824 52.5243 66.8553 52.5413C66.8966 52.5521 66.9352 52.5714 66.9686 52.598C68.0113 52.972 82.637 55.165 92.3326 56.5647C92.3711 56.5705 92.408 56.5841 92.4411 56.6045C92.4742 56.625 92.5028 56.6519 92.5253 56.6837C92.5479 56.7153 92.5636 56.7513 92.5714 56.7894C92.5792 56.8274 92.5789 56.8667 92.5706 56.9047L90.7233 65.0477C90.7072 65.1076 90.6718 65.1605 90.6227 65.1984C90.5735 65.2363 90.5133 65.257 90.4513 65.2573ZM65.1213 61.4663C73.3776 62.7753 88.1279 64.43 90.2303 64.6623L91.9303 57.069C72.9413 54.3263 68.204 53.4707 66.997 53.1533L65.1213 61.4663Z" fill="#323D4B"/>
<path d="M52.1333 49.5323C52.2353 49.215 67.7393 52.5243 67.7393 52.5243L67.1727 64.158L56.5477 60.3557C56.5477 60.3557 51.442 51.6573 52.1333 49.5323Z" fill="#CBD2D9"/>
<path d="M62.3333 56.4967C62.101 55.8677 59.1656 49.3737 50.609 49.164C42.0523 48.9543 38.505 48.5973 36.72 59.364C34.8216 70.7483 40.7433 90.6837 40.7433 90.6837L73.372 83.317C73.372 83.317 64.6 62.611 62.3333 56.4967Z" fill="#CBD2D9"/>
<path d="M113.673 40.885L125.692 41.412C124.361 45.9453 125.398 49.6853 128.656 52.1333C130.328 53.3594 132.327 54.0591 134.398 54.1429C136.47 54.2266 138.519 53.6907 140.284 52.6037C143.684 50.473 145.016 46.8067 144.103 42.2167L153.737 42.636L151.991 82.6427L111.939 80.8973C111.939 80.5857 111.939 80.2683 111.985 79.9567C112.149 76.075 112.33 72.1933 112.472 68.3117C112.499 67.7194 112.407 67.1277 112.2 66.572C112.121 66.3559 111.997 66.1595 111.834 65.9968C111.672 65.8341 111.475 65.7089 111.259 65.6301C111.043 65.5512 110.813 65.5206 110.584 65.5404C110.355 65.5602 110.133 65.6299 109.933 65.7447C108.575 66.3426 107.055 66.4678 105.616 66.1C104.178 65.7322 102.905 64.8928 102 63.716C101.078 62.5254 100.583 61.0592 100.596 59.5534C100.608 58.0476 101.127 56.5897 102.068 55.4143C102.973 54.2565 104.249 53.4462 105.682 53.12C107.115 52.7938 108.616 52.9717 109.933 53.6237C111.815 54.5473 113.101 53.8163 113.214 51.7083C113.39 48.3083 113.515 44.9593 113.668 41.5877C113.651 41.3667 113.662 41.1797 113.673 40.885Z" fill="white"/>
<path d="M151.98 82.926L111.928 81.1807C111.852 81.1749 111.781 81.1404 111.73 81.0843C111.705 81.0568 111.685 81.0247 111.673 80.9897C111.66 80.9547 111.654 80.9175 111.656 80.8803L111.826 77.1007C111.951 74.171 112.081 71.2357 112.189 68.3003C112.214 67.7466 112.128 67.1934 111.934 66.674C111.876 66.5055 111.783 66.351 111.662 66.2202C111.541 66.0895 111.395 65.9854 111.231 65.9147C111.037 65.8468 110.832 65.8193 110.627 65.8339C110.423 65.8485 110.223 65.9049 110.041 65.9997C108.629 66.6177 107.051 66.746 105.559 66.364C104.066 65.982 102.743 65.1118 101.802 63.8917C100.843 62.6496 100.329 61.1215 100.342 59.5524C100.356 57.9834 100.896 56.4643 101.875 55.2387C102.818 54.0395 104.144 53.1998 105.631 52.8596C107.118 52.5193 108.676 52.699 110.047 53.3687C110.885 53.7767 111.594 53.8447 112.092 53.55C112.591 53.2553 112.869 52.6207 112.92 51.6913C113.044 49.3283 113.146 46.92 113.243 44.5967C113.282 43.588 113.328 42.5793 113.373 41.5763V40.8737C113.377 40.7984 113.409 40.7274 113.464 40.6753C113.52 40.6262 113.593 40.6 113.668 40.6017L125.687 41.1287C125.73 41.1288 125.774 41.1397 125.812 41.1605C125.851 41.1813 125.883 41.2112 125.908 41.2477C125.932 41.2827 125.949 41.3228 125.955 41.365C125.962 41.4072 125.96 41.4504 125.947 41.4913C124.667 45.9 125.658 49.521 128.826 51.9067C130.455 53.1019 132.404 53.7836 134.423 53.8643C136.443 53.9451 138.44 53.4213 140.159 52.36C143.423 50.303 144.732 46.6933 143.848 42.2677C143.839 42.2259 143.84 42.1825 143.85 42.141C143.861 42.0996 143.882 42.0614 143.911 42.0297C143.937 41.9954 143.972 41.9685 144.011 41.9516C144.051 41.9347 144.094 41.9284 144.137 41.9333L153.771 42.3527C153.808 42.3533 153.845 42.3617 153.879 42.3773C153.914 42.3929 153.944 42.4154 153.969 42.4433C153.994 42.4707 154.014 42.5028 154.027 42.5378C154.039 42.5729 154.045 42.6101 154.043 42.6473L152.297 82.654C152.297 82.6915 152.288 82.7285 152.273 82.7627C152.257 82.7968 152.235 82.8273 152.207 82.8523C152.176 82.88 152.14 82.9009 152.101 82.9136C152.062 82.9263 152.021 82.9305 151.98 82.926ZM112.2 80.6253L151.691 82.3253L153.391 42.8797L144.443 42.5C145.242 47.0333 143.826 50.6883 140.437 52.8303C138.622 53.945 136.516 54.4944 134.388 54.4086C132.26 54.3228 130.205 53.6058 128.486 52.3487C125.194 49.8667 124.1 46.1947 125.324 41.6783L113.945 41.1797V41.599C113.906 42.6077 113.86 43.6107 113.821 44.6193C113.724 46.9483 113.622 49.3567 113.498 51.7197C113.435 52.853 113.056 53.652 112.364 54.043C111.673 54.434 110.806 54.3773 109.786 53.873C108.533 53.2582 107.107 53.0916 105.746 53.401C104.384 53.7103 103.17 54.477 102.306 55.573C101.408 56.697 100.914 58.0896 100.902 59.5279C100.889 60.9663 101.36 62.3671 102.238 63.5063C103.1 64.6266 104.311 65.4269 105.68 65.7801C107.048 66.1332 108.495 66.0191 109.792 65.4557C110.043 65.3259 110.318 65.2498 110.6 65.2322C110.882 65.2147 111.164 65.256 111.429 65.3537C111.666 65.452 111.879 65.5993 112.055 65.7858C112.231 65.9724 112.365 66.1939 112.449 66.436C112.671 67.0276 112.771 67.6578 112.744 68.289C112.636 71.2243 112.506 74.1597 112.376 77.095L112.2 80.6253Z" fill="#323D4B"/>
<path d="M104.635 41.1683L105.865 51C101.229 50.3767 97.5063 52.0823 95.5853 55.6977C94.6277 57.5192 94.2435 59.5879 94.4832 61.6318C94.7229 63.6758 95.5753 65.5994 96.9283 67.15C99.7616 70.3063 103.808 71.1167 108.16 69.4167L109.639 81.2543L65.8466 86.7L60.8486 46.6367L74.7093 44.9367C75.1416 44.8863 75.5581 44.7441 75.9309 44.5196C76.3037 44.2951 76.6243 43.9936 76.8711 43.6352C77.1179 43.2767 77.2853 42.8697 77.362 42.4413C77.4388 42.013 77.4231 41.5731 77.316 41.1513C77.1503 40.544 76.9224 39.9553 76.636 39.3947C75.9308 38.1379 75.6505 36.6869 75.8369 35.2579C76.0233 33.8289 76.6664 32.4984 77.6703 31.4645C78.6742 30.4307 79.9853 29.7488 81.4082 29.5205C82.8311 29.2922 84.2897 29.5297 85.5666 30.1977C86.8595 30.8644 87.9044 31.9282 88.548 33.2327C89.1916 34.5372 89.3999 36.0137 89.1423 37.4453C89.046 38.012 88.9156 38.5787 88.8306 39.1453C88.536 41.0437 90.2133 43.2197 92.514 42.7437C94.8146 42.2677 102.266 41.463 104.635 41.1683Z" fill="white"/>
<path d="M65.8467 86.972C65.7851 86.9743 65.7247 86.9542 65.6767 86.9153C65.646 86.8928 65.6206 86.8639 65.602 86.8307C65.5834 86.7974 65.5722 86.7606 65.569 86.7227L60.5654 46.665C60.5606 46.6278 60.5633 46.5899 60.5734 46.5537C60.5834 46.5175 60.6005 46.4837 60.6237 46.4542C60.6469 46.4246 60.6757 46.4 60.7085 46.3817C60.7413 46.3635 60.7774 46.3519 60.8147 46.3477L61.7837 46.223L74.6754 44.6137C75.0744 44.5634 75.4581 44.4287 75.8011 44.2187C76.144 44.0086 76.4383 43.7279 76.6644 43.3953C76.8822 43.0756 77.0284 42.7126 77.0929 42.3312C77.1575 41.9498 77.1389 41.5589 77.0384 41.1853C76.8801 40.597 76.6597 40.0271 76.381 39.4853C75.6658 38.1761 75.3895 36.6719 75.5927 35.194C75.796 33.716 76.4681 32.3422 77.5103 31.2747C78.5524 30.2072 79.9096 29.5022 81.3823 29.2635C82.8549 29.0247 84.3653 29.2648 85.6914 29.9483C87.0362 30.6444 88.1231 31.7526 88.793 33.1107C89.4629 34.4688 89.6806 36.0056 89.4144 37.4963C89.3747 37.7457 89.3237 37.9893 89.2784 38.233C89.2331 38.4767 89.1537 38.8563 89.1027 39.1737C89.0456 39.647 89.0999 40.1271 89.2612 40.5758C89.4226 41.0244 89.6866 41.4291 90.0321 41.7577C90.3466 42.0643 90.7323 42.288 91.1547 42.4086C91.577 42.5293 92.0227 42.5432 92.4517 42.449C94.1517 42.0977 98.6851 41.5763 102 41.1967L104.601 40.8907C104.675 40.8825 104.75 40.9033 104.809 40.9487C104.868 40.9941 104.907 41.0606 104.918 41.1343L106.142 50.966C106.149 51.0092 106.146 51.0534 106.132 51.095C106.119 51.1366 106.095 51.1744 106.064 51.2054C106.033 51.2363 105.996 51.2595 105.954 51.273C105.912 51.2866 105.868 51.2901 105.825 51.2833C101.331 50.6827 97.6934 52.3373 95.8404 55.8167C94.9151 57.5888 94.5441 59.5982 94.7755 61.5839C95.0069 63.5696 95.8301 65.4398 97.1381 66.9517C99.8637 70.0003 103.847 70.788 108.058 69.1107C108.098 69.0936 108.141 69.0861 108.185 69.0889C108.228 69.0917 108.27 69.1046 108.308 69.1267C108.345 69.1487 108.377 69.1793 108.4 69.2159C108.424 69.2525 108.439 69.2941 108.443 69.3373L109.916 81.1807C109.921 81.2176 109.919 81.2552 109.909 81.2911C109.899 81.3271 109.882 81.3608 109.86 81.3903C109.837 81.419 109.809 81.4429 109.777 81.4604C109.744 81.4779 109.709 81.4888 109.673 81.4923L65.8807 86.9607L65.8467 86.972ZM61.166 46.8747L66.096 86.3713L109.321 80.9767L107.922 69.7793C103.604 71.3773 99.535 70.499 96.713 67.337C95.3297 65.7384 94.4587 63.7609 94.2132 61.6612C93.9676 59.5614 94.3588 57.4363 95.3361 55.5617C97.2571 51.9407 100.963 50.1727 105.536 50.6713L104.403 41.48L102.079 41.752C98.9571 42.109 94.2367 42.653 92.5821 42.9987C92.0629 43.113 91.5235 43.0968 91.0122 42.9514C90.5009 42.806 90.0337 42.536 89.6524 42.1657C89.2382 41.7788 88.9216 41.2992 88.7286 40.7663C88.5355 40.2335 88.4715 39.6624 88.5417 39.1C88.5927 38.777 88.6551 38.454 88.7231 38.131L88.859 37.4113C89.1034 36.0391 88.9025 34.6247 88.2856 33.3747C87.6688 32.1248 86.6685 31.1049 85.4307 30.464C84.2111 29.835 82.8216 29.6145 81.4671 29.8349C80.1126 30.0553 78.8648 30.7051 77.9075 31.6884C76.9503 32.6717 76.3342 33.9365 76.1502 35.2964C75.9662 36.6563 76.2239 38.0393 76.8854 39.2417C77.1839 39.8192 77.4195 40.4271 77.588 41.055C77.7083 41.5073 77.7301 41.9801 77.6519 42.4416C77.5737 42.903 77.3973 43.3423 77.1347 43.7297C76.8635 44.1287 76.5106 44.4654 76.0992 44.7175C75.6879 44.9695 75.2277 45.1312 74.7491 45.1917L61.8574 46.8067L61.166 46.8747Z" fill="#323D4B"/>
<path d="M54.621 53.55V49.7363C54.621 49.7363 60.129 50.8697 59.4263 44.6363C58.7236 38.403 56.355 35.8927 55.947 36.0173L48.2346 38.3237L47.4923 52.9097C47.4923 52.9097 51.3173 58.871 54.621 53.55Z" fill="white"/>
<path d="M51.5667 56.0433C49.2151 56.0433 47.3564 53.1817 47.2771 53.0627C47.2431 53.0128 47.2271 52.9528 47.2317 52.8927L47.9514 38.3067C47.9549 38.2483 47.9764 38.1925 48.013 38.1468C48.0495 38.1012 48.0992 38.0679 48.1554 38.0517L55.8621 35.7453C55.9448 35.7275 56.0305 35.7284 56.1129 35.748C56.1953 35.7676 56.2722 35.8054 56.3381 35.8587C57.3297 36.516 59.1261 39.474 59.7381 44.608C59.9647 46.648 59.5681 48.1553 58.5537 49.0847C57.3524 50.1897 55.6524 50.1443 54.9327 50.065V53.55C54.9343 53.6037 54.9205 53.6568 54.8931 53.703C53.9354 55.2443 52.8247 56.032 51.5951 56.0433H51.5667ZM47.8041 52.8247C48.0817 53.2667 49.6967 55.4767 51.5667 55.4767C52.5754 55.4767 53.5047 54.791 54.3434 53.4707V49.7363C54.3432 49.6945 54.3528 49.6532 54.3715 49.6158C54.3902 49.5784 54.4175 49.5459 54.4511 49.521C54.483 49.4945 54.5203 49.4753 54.5604 49.4645C54.6005 49.4538 54.6425 49.4518 54.6834 49.4587C54.6834 49.4587 56.8424 49.8723 58.1514 48.6653C59.0241 47.8607 59.3584 46.5177 59.1487 44.6987C58.5141 39.083 56.5024 36.5387 55.9811 36.329L48.5067 38.5333L47.8041 52.8247Z" fill="#323D4B"/>
<path d="M48.5577 42.3923C48.297 41.2137 46.5403 40.8 45.6733 41.6387C45.4762 41.8635 45.3265 42.1258 45.2332 42.4098C45.1399 42.6939 45.1049 42.9938 45.1303 43.2917C45.1557 43.5896 45.241 43.8793 45.3811 44.1435C45.5211 44.4076 45.713 44.6408 45.9453 44.829C46.4397 45.1875 47.0347 45.3806 47.6453 45.3806C48.256 45.3806 48.851 45.1875 49.3453 44.829" fill="white"/>
<path d="M47.5546 45.645C46.9126 45.6639 46.2832 45.4641 45.7696 45.0783C45.4905 44.8466 45.2632 44.559 45.1021 44.2339C44.9411 43.9089 44.8499 43.5538 44.8346 43.1913C44.8183 42.8791 44.8668 42.5669 44.977 42.2744C45.0872 41.9818 45.2567 41.7152 45.4749 41.4913C45.7484 41.2488 46.0808 41.0824 46.4388 41.0088C46.7969 40.9352 47.168 40.957 47.5149 41.072C47.8321 41.1526 48.1216 41.3173 48.3529 41.5487C48.5843 41.7801 48.749 42.0696 48.8296 42.3867C48.8378 42.4239 48.8386 42.4623 48.8319 42.4998C48.8252 42.5374 48.8112 42.5732 48.7907 42.6053C48.7702 42.6374 48.7435 42.6651 48.7123 42.6869C48.6811 42.7087 48.6458 42.7242 48.6086 42.7323C48.5714 42.7405 48.533 42.7413 48.4954 42.7346C48.4579 42.728 48.4221 42.714 48.39 42.6934C48.3579 42.6729 48.3302 42.6463 48.3084 42.615C48.2866 42.5838 48.2711 42.5485 48.2629 42.5113C48.2015 42.2924 48.0831 42.0937 47.9199 41.9354C47.7566 41.7772 47.5543 41.665 47.3336 41.6103C47.0833 41.5257 46.8151 41.5078 46.5557 41.5585C46.2964 41.6091 46.0547 41.7266 45.8546 41.8993C45.6882 42.0684 45.56 42.2713 45.4789 42.4942C45.3977 42.7171 45.3655 42.9549 45.3843 43.1913C45.3945 43.4728 45.4638 43.7489 45.5878 44.0018C45.7118 44.2547 45.8877 44.4786 46.1039 44.659C46.5506 44.9707 47.0835 45.1349 47.6281 45.1288C48.1727 45.1227 48.7017 44.9466 49.1413 44.625C49.1709 44.5974 49.2061 44.5764 49.2445 44.5635C49.2829 44.5506 49.3236 44.546 49.3639 44.5502C49.4042 44.5544 49.4431 44.5671 49.478 44.5876C49.513 44.6081 49.5431 44.6359 49.5664 44.669C49.5897 44.7021 49.6057 44.7398 49.6132 44.7797C49.6207 44.8195 49.6195 44.8604 49.6098 44.8997C49.6002 44.9391 49.5822 44.9759 49.557 45.0077C49.5319 45.0395 49.5003 45.0655 49.4643 45.084C48.8991 45.4599 48.2333 45.6555 47.5546 45.645Z" fill="#323D4B"/>
<path d="M53.6747 40.9587C54.1363 41.5522 54.5675 42.1688 54.9667 42.806C55.0814 42.9425 55.1643 43.1028 55.2094 43.2753C55.2545 43.4478 55.2606 43.6282 55.2273 43.8033C55.156 43.944 55.0518 44.0653 54.9235 44.157C54.7953 44.2488 54.6468 44.3082 54.4907 44.3303C54.3663 44.3752 54.2311 44.3807 54.1034 44.3463C53.9757 44.3118 53.8617 44.239 53.7767 44.1377" fill="white"/>
<path d="M54.2754 44.608C54.1404 44.617 54.0055 44.5903 53.8842 44.5306C53.7628 44.4709 53.6593 44.3804 53.584 44.268C53.5508 44.21 53.5417 44.1413 53.5587 44.0766C53.5756 44.012 53.6173 43.9566 53.6747 43.9223C53.7327 43.8891 53.8014 43.88 53.8661 43.897C53.9307 43.9139 53.9861 43.9556 54.0204 44.013C54.077 44.115 54.2924 44.1207 54.4624 44.081C54.6324 44.0413 54.9214 43.9563 55.029 43.7183C55.1367 43.4803 54.9554 43.197 54.7967 42.942C54.3939 42.3099 53.9589 41.699 53.4934 41.1117C53.4729 41.086 53.4577 41.0565 53.4486 41.025C53.4395 40.9934 53.4367 40.9604 53.4404 40.9278C53.4441 40.8952 53.4542 40.8636 53.4701 40.8349C53.486 40.8061 53.5073 40.7808 53.533 40.7603C53.5587 40.7399 53.5881 40.7247 53.6197 40.7156C53.6512 40.7065 53.6843 40.7037 53.7169 40.7074C53.7495 40.7111 53.7811 40.7212 53.8098 40.737C53.8386 40.7529 53.8639 40.7743 53.8844 40.8C54.3612 41.4011 54.8058 42.0272 55.216 42.6757C55.3553 42.8424 55.4535 43.0395 55.5027 43.2511C55.5519 43.4627 55.5507 43.6829 55.4994 43.894C55.4158 44.0742 55.2886 44.2308 55.1293 44.3495C54.97 44.4682 54.7836 44.5454 54.587 44.574C54.4848 44.5971 54.3802 44.6085 54.2754 44.608Z" fill="#323D4B"/>
<path d="M51.9893 41.0175C52.1708 41.0173 52.3178 40.8092 52.3175 40.5525C52.3172 40.2959 52.1699 40.088 51.9883 40.0882C51.8068 40.0884 51.6599 40.2966 51.6602 40.5532C51.6604 40.8098 51.8078 41.0177 51.9893 41.0175Z" fill="#323D4B"/>
<path d="M55.7043 40.6867C55.8851 40.6706 56.0133 40.4504 55.9906 40.1948C55.9678 39.9391 55.8029 39.7449 55.6221 39.761C55.4412 39.7771 55.3131 39.9973 55.3358 40.253C55.3585 40.5086 55.5235 40.7028 55.7043 40.6867Z" fill="#323D4B"/>
<path d="M43.9507 43.2027C43.5653 43.2027 43.0553 42.976 42.551 42.0693C41.994 41.2031 41.5985 40.2432 41.3837 39.236C41.2834 38.7129 41.3033 38.1738 41.4417 37.6594C41.5801 37.1451 41.8334 36.6689 42.1827 36.2667C42.5007 35.9383 42.9055 35.7069 43.3499 35.5996C43.7943 35.4922 44.2601 35.5133 44.693 35.6603C44.6245 34.2571 45.0948 32.8806 46.0077 31.8127C47.0473 30.6546 48.3097 29.718 49.7193 29.0587C51.384 28.2047 53.1258 27.5103 54.9213 26.9847C56.0604 26.5588 57.2984 26.4722 58.4857 26.7353C60.4917 27.336 61.5173 29.5687 61.6193 31.331C61.6871 32.6448 61.4087 33.9533 60.812 35.1258C60.2153 36.2982 59.3213 37.2935 58.2193 38.012C58.1537 38.0525 58.0749 38.0657 57.9997 38.0488C57.9244 38.0318 57.8589 37.9861 57.817 37.9213C57.7962 37.8891 57.782 37.853 57.7753 37.8152C57.7686 37.7774 57.7695 37.7386 57.7779 37.7011C57.7864 37.6637 57.8022 37.6283 57.8245 37.597C57.8467 37.5657 57.875 37.5392 57.9077 37.519C58.9181 36.8515 59.7387 35.9341 60.2898 34.8558C60.8409 33.7774 61.1037 32.5749 61.0527 31.365C60.962 29.767 60.0723 27.812 58.3383 27.2963C57.2581 27.0694 56.1354 27.1559 55.1027 27.5457C53.3419 28.0602 51.6341 28.7414 50.0027 29.58C48.6641 30.1955 47.462 31.0721 46.4667 32.1583C45.9943 32.6927 45.6499 33.3276 45.4594 34.0149C45.2689 34.7021 45.2374 35.4237 45.3673 36.125C45.3833 36.1849 45.3792 36.2483 45.3556 36.3056C45.3321 36.363 45.2904 36.411 45.237 36.4423C45.1871 36.4796 45.1265 36.4997 45.0642 36.4997C45.0019 36.4997 44.9413 36.4796 44.8913 36.4423C44.5473 36.2049 44.1297 36.0984 43.714 36.1421C43.2983 36.1857 42.9119 36.3767 42.6247 36.6803C42.3306 37.0216 42.1198 37.4265 42.0087 37.863C41.8976 38.2996 41.8892 38.756 41.9843 39.1963C42.1903 40.1217 42.5566 41.0039 43.0667 41.803C43.3047 42.2167 43.673 42.6927 44.0583 42.6077C44.1342 42.5907 44.2137 42.6044 44.2795 42.6458C44.3453 42.6872 44.3921 42.7529 44.4097 42.8287C44.4179 42.8663 44.4186 42.9052 44.4116 42.943C44.4047 42.9809 44.3902 43.017 44.3691 43.0492C44.348 43.0814 44.3206 43.1091 44.2887 43.1306C44.2567 43.152 44.2208 43.1669 44.183 43.1743C44.1071 43.1938 44.029 43.2033 43.9507 43.2027Z" fill="#323D4B"/>
<path d="M54.621 49.7363C53.2638 49.396 51.957 48.8797 50.7336 48.2007C50.7336 48.2007 50.66 50.7507 54.5756 51.969L54.621 49.7363Z" fill="#323D4B"/>
<path d="M54.5757 52.2184H54.5021C50.4504 50.9604 50.4844 48.3197 50.4844 48.2063C50.4866 48.1625 50.5003 48.1201 50.5242 48.0832C50.5481 48.0464 50.5813 48.0166 50.6204 47.9967C50.6581 47.9742 50.7012 47.9624 50.7451 47.9624C50.7889 47.9624 50.832 47.9742 50.8697 47.9967C52.0712 48.6602 53.3529 49.1668 54.6834 49.504C54.7378 49.517 54.7861 49.5483 54.8201 49.5927C54.8542 49.637 54.8719 49.6918 54.8704 49.7477L54.8251 51.9804C54.8231 52.0186 54.8124 52.0558 54.7937 52.0892C54.775 52.1227 54.7489 52.1513 54.7174 52.173C54.677 52.2045 54.6268 52.2205 54.5757 52.2184ZM51.0511 48.6767C51.2267 49.3907 51.8841 50.7733 54.3321 51.6234L54.3661 49.9233C53.22 49.6263 52.1088 49.2085 51.0511 48.6767Z" fill="#323D4B"/>
<path d="M44.4493 68.3003C44.4493 68.3003 57.9813 83.8497 66.3737 79.9907C74.766 76.1317 87.1817 60.86 87.1817 60.86C87.1817 60.86 91.0973 56.7743 90.3153 56.5533C89.5333 56.3323 86.955 58.82 86.955 58.82C86.955 58.82 89.8677 55.352 88.7457 55.352C87.6237 55.352 85.5043 57.9247 85.5043 57.9247C85.5043 57.9247 88.9723 54.009 87.516 54.23C86.0597 54.451 84.2747 56.5817 84.2747 56.5817C84.2747 56.5817 87.7427 53.227 86.3997 53.3403C85.0567 53.4537 81.4753 56.8027 81.4753 56.8027C81.4753 56.8027 82.9317 53.448 81.8097 53.5613C80.6877 53.6747 80.4667 56.6667 78.7667 58.2307C77.0667 59.7947 66.2377 70.1987 64.226 70.091C62.2143 69.9833 53.2667 60.3557 53.2667 60.3557" fill="white"/>
<path d="M63.4044 80.8973C60.2821 80.8973 56.4967 79.1973 52.0711 75.7973C49.2416 73.5899 46.6116 71.1382 44.2114 68.4703C44.1591 68.4164 44.1299 68.3443 44.1299 68.2692C44.1299 68.1941 44.1591 68.1219 44.2114 68.068C44.2372 68.0416 44.2681 68.0207 44.3022 68.0063C44.3362 67.992 44.3728 67.9847 44.4097 67.9847C44.4467 67.9847 44.4832 67.992 44.5173 68.0063C44.5513 68.0207 44.5822 68.0416 44.6081 68.068C44.7441 68.221 58.1004 83.4133 66.2037 79.6847C74.4374 75.8993 86.7851 60.7863 86.9097 60.6333C88.3264 59.16 89.8281 57.375 90.0547 56.78C89.5334 56.882 88.1791 57.9133 87.1024 58.9503C87.05 58.9994 86.9809 59.0267 86.9091 59.0268C86.8374 59.0269 86.7682 58.9997 86.7157 58.9508C86.6632 58.9018 86.6312 58.8348 86.6262 58.7632C86.6212 58.6916 86.6435 58.6208 86.6887 58.565C87.7597 57.2843 88.6267 55.964 88.6721 55.5673C88.0317 55.6183 86.9041 56.6553 86.0994 57.5393L85.6631 58.038C85.6101 58.0899 85.5389 58.119 85.4647 58.119C85.3906 58.119 85.3194 58.0899 85.2664 58.038C85.211 57.9888 85.1765 57.9203 85.1702 57.8465C85.1639 57.7726 85.1861 57.6992 85.2324 57.6413C85.2834 57.579 85.4194 57.4147 85.6177 57.1993C86.5811 56.066 87.4707 54.8193 87.5387 54.4057C86.7653 54.6206 86.0618 55.0348 85.4987 55.607C85.1587 55.9753 84.7961 56.338 84.4447 56.678C84.3923 56.727 84.3232 56.7544 84.2515 56.7545C84.1797 56.7545 84.1105 56.7274 84.058 56.6784C84.0055 56.6295 83.9735 56.5625 83.9685 56.4909C83.9635 56.4193 83.9859 56.3484 84.0311 56.2927C84.3477 55.9321 84.6825 55.5879 85.0341 55.2613C85.5622 54.7447 86.0161 54.1574 86.3827 53.516C85.3514 53.6237 82.6201 55.9923 81.6454 56.916C81.5979 56.9597 81.5368 56.9858 81.4725 56.99C81.4081 56.9943 81.3441 56.9765 81.2913 56.9395C81.2384 56.9024 81.1997 56.8485 81.1817 56.7865C81.1637 56.7245 81.1673 56.6583 81.1921 56.5987C81.6907 55.4653 82.0817 54.0373 81.8777 53.7653C81.8777 53.7653 81.8777 53.7653 81.8154 53.7653C81.4187 53.805 81.0844 54.5927 80.7331 55.4313C80.3535 56.5297 79.7494 57.5371 78.9594 58.3893L78.3927 58.956C70.0684 66.8043 65.5861 70.4253 64.2261 70.3517C62.1577 70.2327 54.0261 61.523 53.0741 60.5257C53.0477 60.4998 53.0267 60.469 53.0124 60.4349C52.9981 60.4008 52.9907 60.3643 52.9907 60.3273C52.9907 60.2904 52.9981 60.2538 53.0124 60.2198C53.0267 60.1857 53.0477 60.1549 53.0741 60.129C53.1004 60.1024 53.1317 60.0814 53.1663 60.067C53.2008 60.0526 53.2378 60.0452 53.2752 60.0452C53.3126 60.0452 53.3497 60.0526 53.3842 60.067C53.4187 60.0814 53.4501 60.1024 53.4764 60.129C57.0407 63.9653 62.8547 69.6943 64.2431 69.7623C65.0421 69.802 68.0567 67.8867 78.0017 58.5197L78.5684 57.9813C79.3003 57.1832 79.858 56.2414 80.2061 55.216C80.6594 54.1337 81.0221 53.278 81.7531 53.2043C81.8601 53.1911 81.9687 53.2061 82.0681 53.2478C82.1675 53.2896 82.2543 53.3566 82.3197 53.4423C82.6371 53.8787 82.4047 54.893 82.1214 55.709C83.3057 54.6777 85.3231 53.0457 86.3374 52.9607C86.448 52.9357 86.5638 52.9484 86.6664 52.9966C86.769 53.0449 86.8527 53.1259 86.9041 53.227C86.9947 53.4253 86.9041 53.7313 86.6831 54.094C86.9206 53.9815 87.1722 53.9015 87.4311 53.856C87.5457 53.8191 87.6695 53.8226 87.7819 53.8659C87.8943 53.9092 87.9885 53.9897 88.0487 54.094C88.1847 54.3433 88.0487 54.7853 87.7371 55.3123C88.0238 55.1185 88.3555 55.0014 88.7004 54.9723C88.8008 54.9648 88.9012 54.9871 88.9889 55.0365C89.0767 55.0859 89.1478 55.1602 89.1934 55.25C89.3464 55.5843 89.0574 56.2247 88.6267 56.916C89.2897 56.4457 89.9527 56.1 90.3267 56.2133C90.3978 56.2314 90.4627 56.2684 90.5145 56.3202C90.5664 56.3721 90.6033 56.4369 90.6214 56.508C90.8141 57.2163 88.6381 59.619 87.3234 60.9903C86.8304 61.5967 74.7831 76.3357 66.4304 80.1777C65.4856 80.6336 64.4532 80.8791 63.4044 80.8973Z" fill="#323D4B"/>
<path d="M56.2926 46.8293C56.2396 46.9208 56.1769 47.0063 56.1056 47.0843C54.553 48.9033 52.751 47.2147 51.731 45.8603C51.833 46.002 53.9126 45.3957 54.1223 45.356L56.6836 44.7893C56.7624 45.138 56.7684 45.4991 56.7011 45.8502C56.6338 46.2012 56.4948 46.5345 56.2926 46.8293Z" fill="#323D4B"/>
<path d="M72.6467 148.342L73.0661 153.096C73.0661 153.096 95.1321 149.991 94.2084 149.067C93.2847 148.144 85.2607 145.82 85.2607 145.82" fill="white"/>
<path d="M73.066 153.38C73.0022 153.379 72.9404 153.357 72.8903 153.317C72.83 153.268 72.7914 153.197 72.7827 153.119L72.3633 148.365C72.3566 148.29 72.3799 148.215 72.4283 148.157C72.4766 148.099 72.546 148.063 72.6212 148.056C72.6963 148.049 72.7711 148.072 72.829 148.121C72.8869 148.169 72.9232 148.239 72.93 148.314L73.321 152.773C80.6877 151.731 92.1117 149.912 93.8117 149.118C92.6783 148.404 88.145 146.954 85.1813 146.092C85.1458 146.083 85.1126 146.066 85.0837 146.043C85.0547 146.02 85.0306 145.992 85.0126 145.96C84.9947 145.928 84.9833 145.892 84.9792 145.856C84.9751 145.819 84.9783 145.782 84.9887 145.747C85.0098 145.674 85.0584 145.613 85.124 145.576C85.1896 145.539 85.2671 145.529 85.34 145.548C86.1673 145.792 93.4603 147.917 94.4067 148.869C94.4559 148.916 94.4907 148.976 94.5067 149.043C94.5228 149.109 94.5195 149.179 94.4973 149.243C94.1517 150.269 80.9427 152.269 73.1 153.374L73.066 153.38Z" fill="#323D4B"/>
<path d="M54.74 150.133V153.992L34.7707 154.133C34.7707 154.133 38.2954 150.779 41.65 149.436" fill="white"/>
<path d="M34.7707 154.439C34.7145 154.439 34.6599 154.421 34.6137 154.389C34.5675 154.357 34.5318 154.312 34.5111 154.26C34.4905 154.208 34.4858 154.151 34.4977 154.096C34.5096 154.041 34.5376 153.991 34.578 153.952C34.7197 153.816 38.1763 150.552 41.548 149.198C41.5826 149.184 41.6196 149.177 41.6568 149.178C41.6941 149.178 41.7309 149.186 41.7651 149.201C41.7993 149.215 41.8303 149.237 41.8562 149.263C41.8822 149.29 41.9026 149.322 41.9163 149.356C41.9427 149.426 41.9409 149.504 41.9113 149.572C41.8817 149.641 41.8266 149.696 41.7577 149.725C39.2587 150.722 36.6237 152.892 35.5243 153.867L54.468 153.708V150.133C54.468 150.058 54.4979 149.985 54.551 149.932C54.6041 149.879 54.6762 149.849 54.7513 149.849C54.8265 149.849 54.8986 149.879 54.9517 149.932C55.0048 149.985 55.0347 150.058 55.0347 150.133V153.992C55.0332 154.066 55.0029 154.138 54.9501 154.19C54.8973 154.243 54.826 154.274 54.7513 154.275L34.7877 154.439H34.7707Z" fill="#323D4B"/>
<path d="M56.2984 98.8947C54.8024 98.8947 53.8447 98.8437 53.8277 98.8437C53.7536 98.8365 53.6849 98.8016 53.6355 98.7459C53.5861 98.6902 53.5596 98.6178 53.5614 98.5433C53.5635 98.5061 53.573 98.4697 53.5893 98.4361C53.6056 98.4026 53.6283 98.3726 53.6562 98.3478C53.6841 98.3231 53.7166 98.3041 53.7519 98.2919C53.7872 98.2798 53.8245 98.2747 53.8617 98.277C56.608 98.3963 59.3594 98.3225 62.0954 98.056C62.132 98.0513 62.1692 98.0541 62.2047 98.0642C62.2402 98.0743 62.2733 98.0916 62.3019 98.1149C62.3306 98.1382 62.3542 98.1672 62.3713 98.1999C62.3883 98.2326 62.3986 98.2685 62.4014 98.3053C62.4093 98.3797 62.3876 98.4542 62.3409 98.5125C62.2942 98.5709 62.2263 98.6085 62.152 98.617C59.908 98.838 57.8 98.8947 56.2984 98.8947Z" fill="white"/>
<path d="M84.575 100.045C84.5108 100.046 84.4484 100.024 84.3993 99.9827C84.3413 99.9359 84.3036 99.8685 84.2941 99.7946C84.2846 99.7207 84.304 99.6459 84.3483 99.586L90.0546 92.2193C90.1022 92.1625 90.1695 92.1257 90.243 92.1162C90.3165 92.1068 90.3909 92.1254 90.4513 92.1683C90.5109 92.2153 90.5497 92.2838 90.5592 92.3591C90.5688 92.4343 90.5483 92.5103 90.5023 92.5707L84.8016 99.9373C84.7744 99.9712 84.7398 99.9984 84.7006 100.017C84.6614 100.036 84.6184 100.045 84.575 100.045Z" fill="#E4E7EB"/>
<path d="M114.699 123.318C114.627 123.318 114.558 123.29 114.507 123.241C114.455 123.191 114.424 123.123 114.421 123.052L112.721 93.1827C112.718 93.1069 112.745 93.033 112.796 92.9768C112.847 92.9207 112.918 92.8867 112.993 92.8823C113.03 92.88 113.067 92.8852 113.102 92.8974C113.137 92.9096 113.169 92.9287 113.197 92.9535C113.224 92.9783 113.246 93.0083 113.262 93.0419C113.278 93.0754 113.287 93.1117 113.288 93.1487L114.988 123.018C114.99 123.055 114.985 123.092 114.973 123.127C114.961 123.163 114.942 123.195 114.917 123.223C114.892 123.251 114.862 123.274 114.829 123.29C114.795 123.306 114.759 123.316 114.722 123.318H114.699Z" fill="#E4E7EB"/>
<path d="M168.266 54.4623C167.936 55.0101 167.641 55.5779 167.382 56.1623C164.9 61.3813 161.687 67.8073 155.267 68.7367C150.762 69.3883 146.126 68.5157 141.876 67.0367C140.554 66.5958 139.304 65.9639 138.165 65.161C136.816 64.1353 135.677 62.594 134.487 61.3813C134.187 61.0697 133.66 60.758 133.354 61.0867C133.048 61.4153 133.297 61.7157 133.473 61.9933C134.096 62.9833 134.805 63.9163 135.592 64.7813C134.634 64.396 133.654 64.056 132.662 63.7557C131.803 63.4423 130.92 63.1979 130.022 63.0247C129.855 63.0258 129.692 63.0793 129.557 63.1777C129.492 63.2298 129.447 63.3028 129.429 63.3844C129.412 63.4659 129.423 63.551 129.461 63.6253C129.506 63.6909 129.567 63.7451 129.636 63.784C130.308 64.2257 131.044 64.5603 131.818 64.7757C131.152 64.4441 130.425 64.2513 129.682 64.209C129.359 64.209 128.956 64.2543 128.849 64.5603C128.741 64.8663 129.058 65.1893 129.353 65.3707C130.014 65.7787 130.724 66.1006 131.467 66.3283C130.885 66.0365 130.283 65.7884 129.665 65.586C129.279 65.4613 128.781 65.382 128.531 65.7107C128.46 65.8194 128.423 65.9464 128.423 66.0762C128.423 66.206 128.46 66.333 128.531 66.4417C128.679 66.6524 128.873 66.8268 129.098 66.9517C129.692 67.3209 130.33 67.614 130.996 67.8243L129.2 67.201C129.071 67.1349 128.928 67.1004 128.784 67.1004C128.639 67.1004 128.496 67.1349 128.367 67.201C128.078 67.4333 128.191 67.9093 128.412 68.2153C128.874 68.7072 129.445 69.0837 130.078 69.3147C130.911 69.7119 131.764 70.0656 132.634 70.3743C138.42 72.641 143.469 75.854 149.815 76.381C156.825 76.9477 164.69 75.0663 169.915 70.1477C173.077 67.1727 176.347 62.0443 175.78 57.4487C175.593 55.947 175.361 53.873 174.04 52.9153C172.629 51.867 170.074 52.3827 168.94 53.5783C168.688 53.8508 168.462 54.1468 168.266 54.4623Z" fill="white"/>
<path d="M152.382 76.7833C151.532 76.7833 150.682 76.7493 149.804 76.6757C145.231 76.2903 141.406 74.562 137.337 72.709C135.779 72.0007 134.164 71.2697 132.515 70.6293L131.948 70.4253C131.256 70.1737 130.577 69.8862 129.914 69.564L129.58 69.3997C129.025 69.1828 128.534 68.8301 128.152 68.374C127.976 68.1835 127.878 67.9336 127.878 67.6742C127.878 67.4148 127.976 67.1649 128.152 66.9743C128.257 66.8917 128.382 66.8371 128.514 66.8157C128.429 66.7375 128.354 66.6479 128.293 66.5493C128.189 66.3943 128.134 66.2119 128.134 66.0252C128.134 65.8385 128.189 65.656 128.293 65.501C128.403 65.353 128.558 65.2454 128.735 65.195C128.642 65.094 128.576 64.9702 128.545 64.836C128.515 64.7017 128.52 64.5618 128.56 64.43C128.622 64.2759 128.729 64.1434 128.866 64.0488C129.003 63.9542 129.164 63.9016 129.33 63.8973C129.257 63.8395 129.198 63.7659 129.158 63.682C129.117 63.5981 129.096 63.5061 129.096 63.4128C129.096 63.3196 129.117 63.2276 129.158 63.1437C129.198 63.0598 129.257 62.9862 129.33 62.9283C129.512 62.7875 129.735 62.7117 129.965 62.713C130.741 62.806 131.503 62.9964 132.232 63.2797L132.702 63.427C133.342 63.6197 133.977 63.8293 134.612 64.0617C134.099 63.4348 133.625 62.7761 133.195 62.0897C132.787 61.4437 132.917 61.0583 133.099 60.8487C133.159 60.7746 133.235 60.7148 133.321 60.6737C133.408 60.6325 133.502 60.611 133.597 60.6107C133.995 60.6427 134.365 60.8275 134.629 61.1263C135.037 61.54 135.445 62.0047 135.836 62.4467C136.57 63.3336 137.385 64.1495 138.272 64.8833C139.389 65.6655 140.612 66.282 141.905 66.7137C146.744 68.4137 151.204 68.9803 155.165 68.4137C161.625 67.4787 164.894 60.5597 167.065 55.981C167.328 55.3953 167.629 54.8274 167.966 54.281C168.174 53.9446 168.415 53.6295 168.685 53.3403C169.887 52.0767 172.601 51.4873 174.165 52.6433C175.559 53.6803 175.82 55.777 176.007 57.3127V57.3977C176.573 61.931 173.423 67.1727 170.051 70.3403C165.773 74.4657 159.279 76.7833 152.382 76.7833ZM128.73 67.388C128.67 67.3868 128.611 67.4025 128.56 67.4333C128.429 67.541 128.509 67.847 128.662 68.0567C128.989 68.4379 129.408 68.7287 129.88 68.901L130.226 69.0767C130.87 69.3877 131.53 69.6658 132.203 69.9097L132.77 70.1193C134.43 70.7653 136.051 71.502 137.615 72.2103C141.616 74.0237 145.39 75.735 149.872 76.109C157.545 76.7493 164.979 74.4543 169.756 69.9607C173.02 66.8893 176.069 61.846 175.531 57.494V57.409C175.349 55.981 175.111 54.009 173.91 53.1307C172.607 52.1617 170.221 52.666 169.178 53.7597C168.936 54.0225 168.718 54.3071 168.527 54.6097C168.203 55.1425 167.914 55.6951 167.66 56.2643C165.444 60.9507 162.095 68.034 155.335 69.0143C151.283 69.581 146.733 69.0143 141.808 67.2803C140.461 66.8226 139.185 66.1778 138.017 65.365C137.101 64.6115 136.259 63.7729 135.501 62.8603C135.093 62.3957 134.708 61.965 134.311 61.557C134.154 61.3763 133.941 61.2544 133.705 61.2113C133.688 61.2107 133.671 61.2139 133.655 61.2208C133.639 61.2276 133.626 61.238 133.614 61.251C133.541 61.336 133.614 61.557 133.767 61.8177C134.373 62.8031 135.063 63.734 135.83 64.6C135.874 64.6468 135.9 64.7069 135.905 64.7707C135.911 64.8345 135.894 64.8982 135.858 64.9513C135.822 65.0045 135.768 65.0436 135.706 65.0622C135.645 65.0807 135.578 65.0776 135.518 65.0533C134.566 64.6737 133.586 64.3337 132.606 64.039L132.124 63.886C131.455 63.6399 130.767 63.4504 130.067 63.3193C129.963 63.3201 129.861 63.3495 129.772 63.4043C129.759 63.4152 129.748 63.4291 129.742 63.4448C129.735 63.4606 129.732 63.4778 129.733 63.495C129.758 63.5198 129.787 63.5408 129.818 63.5573C130.122 63.7601 130.442 63.9382 130.775 64.09C131.191 64.1959 131.593 64.346 131.977 64.5377C132.039 64.5684 132.088 64.6216 132.113 64.6868C132.139 64.7519 132.138 64.8241 132.113 64.889C132.086 64.954 132.037 65.0073 131.975 65.0396C131.913 65.0718 131.841 65.0807 131.773 65.0647C131.367 64.9515 130.971 64.8056 130.588 64.6283C130.294 64.5596 129.995 64.516 129.693 64.498C129.455 64.498 129.194 64.532 129.126 64.6567C129.058 64.7813 129.285 64.9967 129.512 65.1383C129.642 65.2233 129.784 65.3027 129.92 65.3763C130.501 65.5732 131.069 65.808 131.62 66.079C131.682 66.1118 131.73 66.1661 131.755 66.2318C131.78 66.2976 131.78 66.3701 131.756 66.436C131.728 66.5011 131.678 66.5541 131.615 66.5853C131.551 66.6165 131.478 66.6239 131.41 66.606C130.822 66.4254 130.253 66.1881 129.71 65.8977L129.597 65.858C129.404 65.7957 128.945 65.6767 128.792 65.858C128.758 65.9232 128.744 65.9966 128.75 66.0697C128.756 66.1429 128.782 66.2129 128.826 66.2717C128.952 66.4471 129.117 66.5907 129.308 66.691C129.858 67.034 130.448 67.3098 131.064 67.5127L131.144 67.541C131.209 67.5681 131.262 67.6188 131.292 67.6831C131.322 67.7474 131.327 67.8205 131.305 67.8881C131.284 67.9557 131.238 68.0129 131.177 68.0483C131.115 68.0837 131.043 68.0948 130.974 68.0793H130.889L129.121 67.5127C128.997 67.4536 128.865 67.4116 128.73 67.388Z" fill="#323D4B"/>
<path d="M110.285 33.4333C110.21 33.4333 110.137 33.4035 110.084 33.3504C110.031 33.2972 110.001 33.2251 110.001 33.15V15.5833C110.001 15.5082 110.031 15.4361 110.084 15.383C110.137 15.3299 110.21 15.3 110.285 15.3C110.36 15.3 110.432 15.3299 110.485 15.383C110.538 15.4361 110.568 15.5082 110.568 15.5833V33.15C110.568 33.2251 110.538 33.2972 110.485 33.3504C110.432 33.4035 110.36 33.4333 110.285 33.4333Z" fill="#E4E7EB"/>
<path d="M75.8201 30.5603C75.7762 30.5599 75.7329 30.5495 75.6937 30.5298C75.6544 30.5102 75.6201 30.4819 75.5934 30.447L70.4934 23.426C70.4714 23.3959 70.4556 23.3617 70.4469 23.3255C70.4381 23.2892 70.4366 23.2516 70.4424 23.2148C70.4541 23.1404 70.4949 23.0737 70.5557 23.0293C70.6166 22.985 70.6926 22.9667 70.767 22.9784C70.8414 22.99 70.9081 23.0308 70.9524 23.0917L76.0524 30.1127C76.0955 30.174 76.113 30.2496 76.1014 30.3236C76.0897 30.3976 76.0498 30.4642 75.9901 30.5093C75.9398 30.5431 75.8806 30.5609 75.8201 30.5603Z" fill="#E4E7EB"/>
<path d="M43.0667 67.116C43.0228 67.1156 42.9796 67.1051 42.9403 67.0855C42.901 67.0659 42.8667 67.0375 42.84 67.0027C40.6697 64.1183 38.93 61.4097 38.913 61.3813C38.8933 61.3497 38.8799 61.3145 38.8738 61.2777C38.8676 61.241 38.8688 61.2033 38.8772 61.167C38.8856 61.1307 38.9011 61.0964 38.9228 61.0661C38.9445 61.0357 38.972 61.01 39.0037 60.9903C39.0351 60.9698 39.0703 60.9558 39.1072 60.9492C39.1442 60.9427 39.182 60.9436 39.2186 60.9521C39.2551 60.9606 39.2896 60.9764 39.3198 60.9985C39.3501 61.0207 39.3756 61.0487 39.3947 61.081C39.3947 61.081 41.1344 63.7953 43.2934 66.6627C43.3157 66.6924 43.3319 66.7263 43.3412 66.7623C43.3504 66.7984 43.3524 66.8359 43.3472 66.8727C43.3419 66.9096 43.3295 66.945 43.3105 66.977C43.2915 67.009 43.2665 67.037 43.2367 67.0593C43.1883 67.0973 43.1282 67.1173 43.0667 67.116Z" fill="#323D4B"/>
<path d="M181.231 119.697C181.162 119.696 181.095 119.671 181.043 119.625C180.991 119.579 180.958 119.516 180.948 119.448C180.948 119.238 178.387 98.5547 177.338 93.517C177.323 93.4419 177.339 93.3638 177.381 93.3001C177.424 93.2363 177.49 93.192 177.565 93.177C177.64 93.162 177.718 93.1774 177.782 93.2199C177.846 93.2624 177.89 93.3285 177.905 93.4037C178.959 98.464 181.503 119.17 181.526 119.38C181.531 119.416 181.528 119.453 181.519 119.489C181.509 119.524 181.492 119.557 181.469 119.586C181.447 119.615 181.419 119.64 181.386 119.658C181.354 119.676 181.319 119.687 181.282 119.691L181.231 119.697Z" fill="white"/>
</svg>
