<?xml version="1.0" encoding="iso-8859-1"?>
<!-- Generator: Adobe Illustrator 26.4.1, SVG Export Plug-In . SVG Version: 6.00 Build 0)  -->
<svg version="1.1" id="katman_2_00000146481771897695306450000004862076095638654370_"
	 xmlns="http://www.w3.org/2000/svg" xmlns:xlink="http://www.w3.org/1999/xlink" x="0px" y="0px" viewBox="0 0 199.4 289.85"
	 style="enable-background:new 0 0 199.4 289.85;" xml:space="preserve">
<g id="KES&#x130;RL&#x130;_SAYILAR_&#x130;KS&#x130;R">
	<g>
		<g>
			<path style="fill:#D3D3D3;" d="M150.75,252.28c0,0,2.89,15.09,0.96,20.71s-17.29,16.86-52.23,16.86h0.44
				c-34.94,0-50.3-11.24-52.23-16.86s0.96-20.71,0.96-20.71h102.09H150.75z"/>
			<path style="fill:#A0A0A0;" d="M147.06,260.43c0,0,0.92,9.15,0.2,12.88s-15.05,9.63-29.14,11.32c0,0,11.68-9.75-18.3-9.75h-0.24
				c-29.98,0-18.3,9.75-18.3,9.75c-14.09-1.69-28.41-7.58-29.14-11.32c-0.72-3.73,0.2-12.88,0.2-12.88h94.71H147.06z"/>
			<path style="opacity:0.21;fill:#D3D3D3;enable-background:new    ;" d="M125.06,94.38c0,0,63.25,46.26,72.88,93.33
				s-29.01,83.67-98.46,83.67h0.44c-69.45,0-108.09-36.6-98.46-83.67s72.88-93.33,72.88-93.33h50.73L125.06,94.38z"/>
			<path style="fill:#B0ACE5;" d="M74.34,94.38c0,0-1.23,0.9-3.36,2.56c4.69,3.47,14.59,9.26,28.49,9.26s24.1-5.84,28.9-9.3
				c-2.1-1.64-3.31-2.52-3.31-2.52H74.33H74.34z"/>
			<path style="fill:#A0A0A0;" d="M184.22,224.63c0,23-37.63,41.64-84.06,41.64S16.1,247.63,16.1,224.63s37.41-3.24,83.83-3.24
				s84.28-19.76,84.28,3.24L184.22,224.63z"/>
			<path style="fill:#B0ACE5;" d="M61.33,40.81l0.22,25.4c0,4.83,17.08,11.27,38.15,11.27s38.15-6.45,38.15-11.27l0.22-25.4
				L61.33,40.81L61.33,40.81z"/>
			<path style="fill:#8473F1;" d="M138.07,40.81c0,4.83-15.67,10.17-38.37,10.17s-38.37-5.34-38.37-10.17S77,32.07,99.7,32.07
				S138.07,35.98,138.07,40.81z"/>
			<path style="fill:#312B77;" d="M131.41,35.76c-6.65-2.23-17.87-3.69-31.71-3.69s-25.59,1.52-32.18,3.84l8.41,4.9h47.54l7.94-5.06
				V35.76z"/>
			<g>
				<path style="fill:#FFD2AB;" d="M99.7,101.69c21.91,0,31.78-7.28,31.78-7.28s2.17-1.81,2.17-5.72s-2.4-5.55-2.4-5.55
					s-15.9,5.55-31.55,5.55s-31.55-5.55-31.55-5.55s-2.4,1.63-2.4,5.55s2.17,5.72,2.17,5.72S77.79,101.69,99.7,101.69z"/>
				<path style="fill:#EB9C78;" d="M99.7,88.71c-15.65,0-31.55-5.55-31.55-5.55s-0.2,0.15-0.48,0.42
					c2.38,2.84,10.91,11.43,32.08,11.43c18.01,0,28.21-6.78,32.73-10.48c-0.61-0.94-1.24-1.37-1.24-1.37s-15.9,5.55-31.55,5.55H99.7
					z"/>
				<path style="fill:#FFD2AB;" d="M99.7,90.49c21.91,0,31.78-7.28,31.78-7.28s2.17-1.81,2.17-5.72s-2.4-5.55-2.4-5.55
					s-15.9,5.55-31.55,5.55s-31.55-5.55-31.55-5.55s-2.4,1.63-2.4,5.55s2.17,5.72,2.17,5.72S77.79,90.49,99.7,90.49z"/>
			</g>
			<path style="fill:#8473F1;" d="M64.18,58.29v11.47c5.56,3.94,19.36,7.73,35.52,7.73s30.15-3.84,35.64-7.82V58.29
				c0,0-13.24,8.49-35.64,8.49S64.18,58.29,64.18,58.29z"/>
			<path style="fill:#FFFFFF;" d="M99.64,59.97c-20.12,0-28.7-3.97-32.28-6.85c-0.95-0.77-0.2-2.29,1-2.01
				c5,1.16,15.44,3.01,31.29,3.01h0.12c15.84,0,26.28-1.84,31.29-3.01c1.19-0.28,1.95,1.25,1,2.01c-3.58,2.88-12.16,6.85-32.28,6.85
				h-0.12H99.64z"/>
			<path style="fill:#EB9C78;" d="M99.76,82.13c18.01,0,28.21-5.12,32.73-8.82c-0.61-0.94-1.24-1.37-1.24-1.37
				s-15.9,5.55-31.55,5.55s-31.55-5.55-31.55-5.55s-0.2,0.15-0.48,0.42c2.38,2.84,10.91,9.76,32.08,9.76L99.76,82.13z"/>
			<g>
				<polygon style="fill:#FFE6D1;" points="118.79,81.5 116.52,82.13 116.94,86.34 119.21,85.72 				"/>
				<path style="fill:#FFE6D1;" d="M96.65,83.81c0,0-0.41,2.73-0.25,4.54c7.18,0.9,13.54,0.24,19.31-1.53l-0.44-4.45
					C108.65,83.98,96.65,83.81,96.65,83.81z"/>
			</g>
			<g>
				<polygon style="fill:#FFE6D1;" points="117.77,94.38 115.94,94.89 116.28,98.27 118.1,97.77 				"/>
				<path style="fill:#FFE6D1;" d="M99.93,96.33c0,0-0.33,2.2-0.2,3.65c5.77,0.72,10.89,0.19,15.53-1.23l-0.36-3.58
					C109.58,96.46,99.93,96.33,99.93,96.33z"/>
			</g>
		</g>
		<g>
			<g>
				<path style="opacity:0.14;fill:#AFABEF;enable-background:new    ;" d="M138.62,145.59c13.54,16.63-15.25,36.07-27.72,27.52
					c-5.46-3.75-13.86-37.99-6.35-44.81c7.63,0.16,14.02,0.93,18.5,2.09c4.87,3.38,10.15,8.54,15.57,15.21V145.59z"/>
				<path style="opacity:0.14;fill:#AFABEF;enable-background:new    ;" d="M67.99,155.35c7.05,4.89,20.45,8.99,23.59,4.62
					c3.15-4.39,8.19-23.4,4.74-31.6c-6.08,0.24-11.27,0.88-15.17,1.79c-5.84,5-12.13,12.23-14.92,16.71
					c-1.77,2.84-0.98,6.57,1.77,8.48L67.99,155.35z"/>
			</g>
			<path style="opacity:0.14;fill:#AFABEF;enable-background:new    ;" d="M61.32,157.54c-0.51,2.23,5.66,6.7,6.91,6.97
				s1.98-2.37,2.27-3.9c0.28-1.53-3.74-3.34-6.51-4.49c0,0-2.15-0.81-2.66,1.42H61.32z"/>
			<path style="fill:#8473F1;" d="M177.64,232.31c2.59-3.18,4.71-6.59,6.38-10.17c-2.81-18.97-39.48-0.75-84.09-0.75
				s-82.77-19.18-83.79,2.34c1.54,3,3.4,5.87,5.6,8.58c14.56,17.85,42.97,28.12,77.95,28.16c34.97-0.04,63.38-10.32,77.94-28.16
				H177.64z"/>
			<path style="opacity:0.15;fill:#AFABEF;enable-background:new    ;" d="M140.04,122.41c0,5.08-16.48,10.7-40.33,10.7
				s-40.33-5.62-40.33-10.7c0-0.63,0.26-1.26,0.75-1.86c0.04-0.04,0.07-0.08,0.12-0.12c0.3-0.27,0.6-0.55,0.9-0.82
				c4.84-3.71,19.29-6.4,38.56-6.4s33.46,2.63,38.44,6.3c0.38,0.34,0.76,0.7,1.15,1.04c0.26,0.227,0.263,0.23,0.01,0.01
				c0.48,0.6,0.74,1.21,0.74,1.84L140.04,122.41z"/>
		</g>
		<g>
			<path style="fill:#D1502C;" d="M87.9,0.21l-0.38,3.21c0,0,2.48,0.08,2.53,0.08L87.9,0.22V0.21z"/>
			<polygon style="fill:#D1502C;" points="123.87,3.21 122.71,5.84 127.27,6.33 127.27,2.37 			"/>
			<path style="fill:#FF9436;" d="M66.95,5.15c0,0,6.59,30.89,8.55,34.67c0,2.84,10.83,5.99,24.2,5.99s24.2-3.14,24.2-5.99
				c1.96-3.78,8.55-34.67,8.55-34.67S66.95,5.15,66.95,5.15z"/>
			<g>
				<path style="fill:#D1502C;" d="M113.3,39.98c-0.73-3.28-1.74-6.66-4.29-9.01c-2.71-2.51-6.5-1.93-9.47-0.24
					c-2.71,1.54-4.69,3.88-6.01,6.69c-1.15,2.45-1.79,5.24-1.8,8.01c0.28,0.03,0.54,0.06,0.82,0.08c0.06-3.1,0.6-6.11,2.3-8.87
					c1.86-3.03,5.94-6.77,9.82-5.89c1.93,0.44,3.43,2.09,4.6,3.59c1.15,1.48,2.25,3.05,2.92,4.8c0.66,1.74,1.27,3.58,1.43,5.44
					c0.17-0.03,0.33-0.07,0.49-0.1c-0.31-1.5-0.48-3.01-0.82-4.51L113.3,39.98z"/>
				<path style="fill:#D1502C;" d="M82.94,23.94c1.26-0.78,2.45-1.93,3.43-3.03c2.28-2.55,3.34-5.95,4.05-9.23
					c0.41-1.92,0.52-3.87,0.71-5.81c0.02-0.24,0.05-0.48,0.07-0.72h-1.91c0,0.05-0.01,0.11-0.02,0.16
					c-0.19,1.98-0.22,3.98-0.27,5.98c-0.1,4.35-1.28,9.17-5.61,11.25c-3.13,1.5-6.82,1.91-9.56,4.17c-0.59,0.49-1.14,1.03-1.63,1.62
					c0.08,0.32,0.16,0.64,0.24,0.96c1.41-1.73,3.32-3.01,5.67-3.67c1.64-0.46,3.35-0.76,4.82-1.67L82.94,23.94z"/>
				<path style="fill:#D1502C;" d="M108.28,43.66c-0.3-1.78-0.85-3.53-1.95-4.98c-0.52-0.69-1.14-1.3-2.01-1.49
					c-0.91-0.2-1.88,0.03-2.71,0.42c-1.59,0.74-2.79,2.14-3.48,3.73c-0.63,1.44-0.8,2.92-0.76,4.43c0.31,0,0.62,0,0.93,0.01
					c0.29-1.65,0.62-3.33,1.37-4.81c0.66-1.31,2.38-3.5,4.03-2.33c0.79,0.56,1.28,1.54,1.69,2.39c0.4,0.83,0.69,1.71,0.89,2.6
					c0.14,0.62,0.23,1.25,0.31,1.88c0.62-0.05,1.23-0.11,1.83-0.18c-0.01-0.56-0.06-1.13-0.15-1.68L108.28,43.66z"/>
				<path style="fill:#D1502C;" d="M121.57,22.94c-4.29-4.3-9.37-9.64-6.99-16.25c0.09-0.25-0.4-0.06-0.48,0.07
					c-2.93,5.4,0.92,11.07,4.47,15.04c2.17,2.43,4.48,4.73,6.02,7.64c0.58,1.09,1.06,2.23,1.46,3.4c0.25-0.97,0.51-2,0.78-3.08
					c-1.29-2.61-3.23-4.77-5.27-6.82H121.57z"/>
				<path style="fill:#D1502C;" d="M70.61,21.59c0.97-0.34,1.92-0.72,2.83-1.18c1.83-0.93,3.57-2.13,4.81-3.79
					c1.33-1.79,1.59-3.71,1.52-5.89c-0.06-1.77-0.27-3.84-0.93-5.58H78c0.1,1.93,0.64,3.83,0.55,5.79c-0.1,2.19-0.97,4.6-2.44,6.26
					c-1.35,1.52-3.2,2.44-5.03,3.22c-0.16,0.07-0.41,0.16-0.68,0.25C70.47,20.98,70.54,21.28,70.61,21.59z"/>
				<path style="fill:#D1502C;" d="M129.15,18.52c-1.4-1.92-3.4-3.25-5.02-4.97c-1.01-1.06-1.8-2.27-2.11-3.72
					c-0.35-1.6-0.07-3.11,0.19-4.69h-0.44c-1.01,2.42-1.26,5.28,0.11,7.61c1.24,2.12,3.32,3.57,4.89,5.4c0.86,1,1.53,2.11,2.05,3.29
					c0.2-0.85,0.39-1.69,0.58-2.53c-0.09-0.13-0.15-0.27-0.25-0.4V18.52z"/>
				<path style="fill:#D1502C;" d="M113.32,25.49c-2.85-2.77-5.86-5.36-7.06-9.29c-0.64-2.09-0.79-4.29-0.8-6.46
					c0-1.6,0.09-3.07-0.2-4.6h-0.91c-1.21,3.36-1.18,7.2-0.44,10.66c0.84,3.93,3.18,6.72,6.12,9.31c3.03,2.66,5.77,5.36,7.66,8.99
					c1.4,2.7,2.24,5.62,2.7,8.61c0.37-0.15,0.71-0.3,1.02-0.46c-0.34-6.35-3.52-12.33-8.08-16.76H113.32z"/>
				<path style="fill:#D1502C;" d="M84.71,35.32c0.91-3.74,3.61-6.37,6.31-8.91c2.33-2.19,3.92-4.58,4.68-7.72
					c0.41-1.69,0.58-3.42,0.72-5.15c0.17-2.13,0.68-4.47,0.4-6.59c-0.02-0.18-0.38-0.02-0.41,0.09c-1.12,3.98-0.52,8.3-1.72,12.32
					c-1.21,4.06-4.55,6.09-7.68,8.57c-2.71,2.15-3.9,4.72-4.16,8.14c-0.19,2.55-0.09,5.37,0.49,8c0.44,0.11,0.89,0.21,1.36,0.31
					c-0.41-3.02-0.73-6.02,0-9.05L84.71,35.32z"/>
			</g>
			<path style="fill:#FFD15C;" d="M132.45,5.14c0,0,0,0.07-0.01,0.1c-0.01,0.05-0.04,0.14-0.05,0.23l0,0
				c-0.56,1.41-4.46,2.84-10.44,3.9c-0.33,0.07-0.65,0.12-1,0.18c-2.1,0.35-4.43,0.65-6.96,0.9c-0.3,0.04-0.6,0.07-0.91,0.1
				c-2.39,0.22-4.93,0.38-7.59,0.48c-0.68,0.03-1.39,0.05-2.1,0.05c-1.2,0.04-2.44,0.05-3.68,0.05c-1.02,0-2.03-0.01-3.02-0.04
				c-0.33,0-0.63,0-0.94-0.01c-1.77-0.04-3.51-0.11-5.19-0.22c-0.52-0.03-1.04-0.07-1.54-0.1c-3.4-0.25-6.54-0.59-9.31-1.01
				c-0.41-0.07-0.81-0.12-1.19-0.19c-6.58-1.09-10.92-2.61-11.5-4.08l0,0c-0.01-0.11-0.04-0.19-0.05-0.25
				c-0.01-0.03-0.01-0.07-0.01-0.1c0-2.02,7.38-3.77,18.13-4.6c1.47,1.17,4.19,2.44,4.19,2.44L87.9,0.2
				c3.45-0.19,7.91-0.21,11.8-0.21c11.57,0,21.74,0.94,27.56,2.37c-1.12,0.68-2.39,1.5-2.1,1.5s3.18-0.3,5.23-0.52
				c1.34,0.55,2.06,1.16,2.06,1.79L132.45,5.14z"/>
			<path style="fill:#FFD2AB;" d="M121.95,8.59c-0.33,0.07-0.65,0.12-1,0.18c-2.1,0.35-4.43,0.65-6.96,0.9
				c-0.3,0.04-0.6,0.07-0.91,0.1c-2.39,0.22-4.93,0.38-7.59,0.48c-0.68,0.03-1.39,0.05-2.1,0.05c-1.2,0.04-2.44,0.05-3.68,0.05
				c-1.02,0-2.03-0.01-3.02-0.04c-0.33,0-0.63,0-0.94-0.01c-1.77-0.04-3.51-0.11-5.19-0.22c-0.52-0.03-1.04-0.07-1.54-0.1
				c-3.4-0.25-6.54-0.59-9.31-1.01C79.3,8.9,78.9,8.85,78.52,8.78c-6.5-1.08-10.81-2.57-11.47-4.03c-0.06,0.13-0.1,0.26-0.1,0.39
				c0,0.03,0,0.07,0.01,0.1c0.01,0.05,0.04,0.14,0.05,0.23l0,0c0.59,1.49,4.93,3,11.5,4.09c0.38,0.07,0.78,0.12,1.19,0.19
				c2.77,0.42,5.91,0.76,9.31,1.01c0.5,0.03,1.02,0.07,1.54,0.1c1.68,0.11,3.41,0.18,5.19,0.22c0.31,0.01,0.61,0.01,0.94,0.01
				c0.98,0.03,1.99,0.04,3.02,0.04c1.24,0,2.48-0.01,3.68-0.05c0.71,0,1.42-0.03,2.1-0.05c2.66-0.1,5.2-0.26,7.59-0.48
				c0.31-0.03,0.61-0.05,0.91-0.1c2.52-0.25,4.86-0.55,6.96-0.9c0.34-0.05,0.67-0.11,1-0.18c5.98-1.06,9.88-2.5,10.44-3.89l0,0
				c0.01-0.11,0.04-0.19,0.05-0.25c0.01-0.03,0.01-0.07,0.01-0.1c0-0.12-0.05-0.25-0.11-0.37c-0.66,1.37-4.52,2.77-10.4,3.82
				L121.95,8.59z"/>
			<path style="fill:#FF9436;" d="M111.99,7.18c-0.04-0.07-0.12-0.1-0.19-0.1c-0.03,0-0.07,0-0.1,0s-0.05-0.01-0.07-0.02
				c-0.05-0.03-0.09-0.06-0.13-0.1c0,0.01,0.02,0.02,0.03,0.03c-0.01-0.03-0.03-0.05-0.06-0.05c-0.03-0.02-0.06-0.03-0.1-0.02
				c-0.04,0-0.09,0-0.13,0.01c-0.05,0-0.1,0.02-0.14,0.05c-0.08,0.04-0.17,0.09-0.22,0.17c-0.01,0.02-0.02,0.04-0.04,0.06
				c-0.02,0.04-0.02,0.08,0,0.11c0.01,0.04,0.03,0.08,0.05,0.11c0.03,0.05,0.07,0.09,0.12,0.13s0.1,0.06,0.16,0.08
				c0.03,0.01,0.07,0.02,0.11,0.02c0.01,0,0.02,0,0.03,0c0.05,0,0.11,0,0.16,0c0.06,0,0.11-0.02,0.17-0.05
				c0.06-0.02,0.11-0.05,0.16-0.08c0.07-0.05,0.13-0.1,0.18-0.18c0.02-0.02,0.03-0.05,0.03-0.07c0.01-0.03,0.01-0.07,0-0.1
				L111.99,7.18z"/>
			<g>
				<path style="fill:#FF9436;" d="M79.96,3.55c-0.18-0.17-0.48-0.18-0.71-0.15c-0.39,0.06-0.77,0.25-1.06,0.53c0,0-0.01,0-0.02,0
					l0,0c0,0,0,0-0.01,0c-0.37,0.09-0.74,0.21-1.08,0.39c-0.08,0.04-0.25,0.14-0.2,0.26c0.05,0.11,0.25,0.04,0.32,0.01
					c0.21-0.09,0.43-0.13,0.65-0.17c0,0.09,0.02,0.16,0.08,0.21c0.05,0.08,0.12,0.12,0.21,0.14c0.3,0.09,0.61,0.02,0.91-0.06
					c0.32-0.1,0.67-0.29,0.87-0.56c0.08-0.1,0.13-0.21,0.14-0.34c0-0.11-0.04-0.2-0.12-0.27L79.96,3.55z"/>
				<path style="fill:#FFD2AB;" d="M81.77,3.14c0,0-0.01-0.04-0.02-0.06c-0.01-0.03-0.03-0.05-0.05-0.07
					c-0.03-0.02-0.06-0.03-0.09-0.04c-0.07-0.03-0.14-0.04-0.21-0.05c-0.06,0-0.11,0-0.16,0.02C81.18,2.95,81.12,2.97,81.06,3
					C81,3.02,80.95,3.06,80.9,3.1c-0.05,0.03-0.08,0.07-0.12,0.11c-0.02,0.03-0.03,0.05-0.05,0.08c-0.02,0.05-0.02,0.09,0,0.14
					c0.01,0.02,0.03,0.04,0.04,0.05c0.05,0.03,0.1,0.05,0.16,0.05c0.04,0,0.07,0,0.11,0c0.03,0,0.06,0.01,0.09,0.01s0.07,0,0.1,0
					s0.06,0,0.09,0s0.06-0.01,0.09-0.02c0.08-0.02,0.16-0.07,0.23-0.12c0.03-0.02,0.05-0.04,0.07-0.06s0.04-0.04,0.05-0.06
					c0.02-0.02,0.02-0.04,0.03-0.06c0.01-0.03,0.01-0.06,0-0.09L81.77,3.14z"/>
				<path style="fill:#FF9436;" d="M81.75,4.81c0,0-0.06-0.07-0.1-0.08c-0.11-0.04-0.22-0.04-0.34-0.03c-0.09,0-0.18,0.03-0.27,0.06
					c-0.21,0.08-0.43,0.2-0.52,0.41c-0.01,0.03-0.01,0.07,0,0.1c0.02,0.03,0.07,0.04,0.1,0.04c0.1,0,0.19-0.04,0.27-0.09l0,0l0,0
					l0,0l0,0c0,0,0,0,0.01,0c0.02,0,0.03,0,0.05,0.01c0.03,0.01,0.06,0.02,0.09,0.03c0.04,0.01,0.09,0.02,0.13,0.01
					c0.05,0,0.1,0,0.15-0.03c0.1-0.03,0.22-0.09,0.3-0.16c0.05-0.05,0.13-0.13,0.12-0.21c0-0.02,0-0.04-0.01-0.06H81.75z"/>
				<path style="fill:#FFD2AB;" d="M83.92,3.93c0,0-0.02-0.05-0.03-0.08c0-0.01-0.01-0.02-0.02-0.03c0,0,0,0,0-0.01
					c-0.01-0.02-0.02-0.03-0.04-0.05c-0.03-0.02-0.06-0.03-0.09-0.03c-0.08-0.01-0.14,0-0.22,0c-0.07,0-0.13,0.02-0.19,0.04
					c-0.05,0.01-0.1,0.03-0.14,0.06c-0.04,0.02-0.08,0.05-0.12,0.08c-0.02,0.02-0.04,0.04-0.06,0.06C82.99,4,82.97,4.03,82.97,4.06
					c0,0.02,0,0.04,0,0.06c0,0.03,0.01,0.05,0.04,0.07l0.06,0.03c0.05,0.01,0.1,0.02,0.15,0l0,0c0.03,0,0.05,0,0.08,0
					c0,0,0.01,0,0.02,0c0.07,0,0.13-0.01,0.19-0.03l-0.09,0.02c0,0,0.07-0.01,0.11-0.02c0.01,0,0.03,0,0.04,0
					c0.1,0,0.19-0.03,0.26-0.09c0.03-0.02,0.06-0.05,0.08-0.08c0-0.01,0.02-0.03,0.02-0.04c0-0.02,0-0.04,0-0.06L83.92,3.93z"/>
				<path style="fill:#FF9436;" d="M111.95,2.18c-0.11-0.1-0.24-0.13-0.38-0.15c-0.15-0.03-0.31-0.05-0.47-0.06
					c-0.16,0-0.33,0.02-0.48,0.04c-0.26,0.05-0.51,0.13-0.73,0.29c-0.09,0.07-0.18,0.14-0.24,0.24c-0.04,0.07-0.07,0.15-0.04,0.23
					c0,0.02,0.01,0.03,0.02,0.05c0.06,0.09,0.15,0.13,0.25,0.15c0.08,0.02,0.15,0.05,0.23,0.07s0.17,0.04,0.25,0.07
					c0.04,0.02,0.09,0.03,0.13,0.05c0.1,0.04,0.2,0.03,0.31,0.04c0.06,0,0.13,0,0.19-0.01c0.11-0.01,0.22-0.04,0.32-0.09
					c0.17-0.07,0.35-0.16,0.48-0.29c0.16-0.16,0.38-0.44,0.15-0.64L111.95,2.18z"/>
				<path style="fill:#FFD2AB;" d="M114.71,2.59c-0.05-0.04-0.11-0.08-0.18-0.1c-0.05,0-0.09-0.01-0.14-0.02c0,0,0,0-0.01,0
					s-0.02,0-0.03,0c-0.02,0-0.04,0-0.06,0c-0.08,0-0.16,0-0.24,0.01c-0.02,0-0.04,0-0.05,0c-0.16,0.02-0.31,0.09-0.44,0.17
					c0.04-0.02,0.07-0.03,0.11-0.05h0.02l0,0c0.04-0.02,0.09-0.04,0.13-0.06c-0.03,0-0.05,0.01-0.08,0.02
					c-0.04,0.01-0.07,0.03-0.1,0.05c-0.01,0-0.02,0-0.03,0c-0.08,0.01-0.15,0.05-0.21,0.1c-0.03,0.03-0.07,0.08-0.06,0.13
					c0,0.01,0,0.03,0,0.04c-0.02,0.05-0.04,0.1-0.05,0.15c0,0.03,0.01,0.06,0.02,0.09c0,0.01,0,0.02,0,0.03
					c0-0.03-0.01-0.06-0.02-0.09c0,0.04,0,0.1,0.03,0.13c0,0.02,0.02,0.03,0.02,0.05c0,0,0,0.01,0.01,0.02
					c0.04,0.08,0.11,0.11,0.19,0.14c0.02,0,0.05,0.02,0.07,0.03c0.07,0.02,0.15,0.03,0.22,0.02c0.09,0,0.17-0.02,0.26-0.04
					c0.06-0.02,0.12-0.05,0.19-0.07c0.09-0.04,0.17-0.09,0.25-0.15c0.05-0.03,0.09-0.07,0.13-0.11c0.06-0.05,0.1-0.11,0.13-0.18
					c0-0.04,0.02-0.08,0.03-0.12c0-0.08-0.03-0.14-0.09-0.19L114.71,2.59z"/>
				<path style="fill:#FF9436;" d="M112.84,3.8c0,0-0.02-0.03-0.03-0.04c-0.03-0.03-0.08-0.03-0.12-0.03c-0.06,0-0.12,0-0.17,0
					c-0.03,0-0.06,0-0.09,0s-0.06,0.02-0.09,0.03s-0.06,0.03-0.08,0.05c-0.02,0.02-0.05,0.04-0.06,0.06
					c-0.02,0.03-0.05,0.08-0.03,0.12c0.02,0.04,0.07,0.05,0.11,0.05c0.06,0,0.11,0,0.17,0s0.12,0,0.18-0.03
					c0.02,0,0.04-0.02,0.06-0.03c0.04-0.02,0.07-0.04,0.1-0.05c0.02-0.01,0.05-0.04,0.06-0.06c0.01-0.02,0.02-0.04,0-0.06
					c0-0.01-0.01-0.02-0.02-0.03L112.84,3.8z"/>
				<path style="fill:#FF9436;" d="M101.17,1.76c0,0-0.06-0.03-0.09-0.05c-0.05-0.02-0.11-0.04-0.16-0.05
					c-0.13-0.02-0.26-0.02-0.4,0c-0.08,0.01-0.16,0.05-0.23,0.09c-0.05,0.03-0.12,0.09-0.14,0.15c-0.02,0.04-0.02,0.1,0.02,0.13
					c0.05,0.03,0.12,0.04,0.18,0.03c0.02,0,0.03,0,0.05,0c0.05,0,0.1,0,0.15,0c0.06,0,0.11,0.01,0.17,0.02
					c0.03,0,0.06,0.01,0.08,0.01c0.03,0,0.06,0,0.1,0c0.09,0,0.19-0.04,0.25-0.09c0.03-0.02,0.05-0.05,0.07-0.08
					c0.01-0.02,0.03-0.07,0.02-0.09c-0.02-0.02-0.04-0.05-0.06-0.07L101.17,1.76z"/>
				<path style="fill:#FF9436;" d="M99.63,6.75L99.57,6.7c0,0-0.04-0.04-0.07-0.05c-0.02-0.02-0.04-0.03-0.06-0.05
					c-0.05-0.03-0.11-0.05-0.16-0.08c-0.06-0.03-0.11-0.06-0.17-0.08c-0.02-0.02-0.05-0.02-0.07-0.03c-0.03,0-0.06,0-0.1,0
					c-0.07,0-0.16,0.04-0.22,0.09c-0.05,0.04-0.11,0.08-0.14,0.14c-0.01,0.04-0.02,0.1,0.02,0.13c0.1,0.06,0.19,0.13,0.29,0.18
					c0.06,0.04,0.14,0.06,0.21,0.08l0.08,0.03c0,0,0.03,0.01,0.05,0.02c0.08,0.03,0.18,0,0.25-0.04c0.1-0.04,0.28-0.18,0.14-0.3
					L99.63,6.75z"/>
				<path style="fill:#FFD2AB;" d="M121.53,4.66c0,0,0.02,0.02,0.02,0.03c-0.01-0.01-0.02-0.03-0.03-0.04
					c-0.02-0.02-0.03-0.05-0.06-0.07c-0.03-0.03-0.07-0.03-0.1-0.04c-0.02,0-0.05-0.02-0.07-0.03c-0.05-0.02-0.12-0.02-0.17-0.03
					h0.09c0,0-0.1,0-0.15-0.02c-0.07-0.02-0.13-0.04-0.21-0.05c-0.07,0-0.14-0.02-0.22,0c-0.02,0-0.05,0-0.07,0.01
					c-0.08,0.01-0.18,0.05-0.23,0.12c-0.02,0.04-0.05,0.08-0.07,0.11c-0.02,0.04-0.01,0.09,0,0.13c0,0.02,0,0.05,0.02,0.07
					c0.01,0.02,0.03,0.04,0.05,0.06c0.01,0.01,0.02,0.03,0.03,0.04c0.02,0.02,0.05,0.05,0.07,0.07s0.05,0.04,0.07,0.05
					c0.05,0.04,0.11,0.05,0.17,0.06c0.04,0,0.09,0.02,0.14,0.02c0.07,0,0.14-0.01,0.21-0.03c0.06-0.01,0.11-0.03,0.17-0.04
					c0.12-0.04,0.25-0.11,0.33-0.21c0.03-0.04,0.05-0.08,0.05-0.13c0-0.04-0.01-0.07-0.05-0.1L121.53,4.66z"/>
				<path style="fill:#FFD2AB;" d="M120.39,5.73c-0.12-0.03-0.24-0.07-0.37-0.05c-0.12,0.02-0.23,0.06-0.34,0.1
					c-0.13,0.05-0.27,0.11-0.35,0.23c-0.05,0.07-0.1,0.18,0,0.24c0.06,0.04,0.12,0.08,0.19,0.1c0.03,0.01,0.08,0.01,0.12,0.02
					c0.04,0,0.09,0,0.13,0c0.02,0,0.04,0,0.06-0.01c0.04,0,0.08-0.02,0.13-0.02c0.11-0.02,0.2-0.05,0.3-0.1
					c0.08-0.05,0.17-0.1,0.23-0.18c0.03-0.05,0.06-0.1,0.07-0.16c0-0.08-0.06-0.14-0.13-0.16L120.39,5.73z"/>
				<path style="fill:#FF9436;" d="M124.86,5.7c0,0-0.09-0.06-0.14-0.09c-0.02-0.02-0.04-0.03-0.07-0.04
					c-0.03,0-0.06-0.01-0.09-0.01c-0.04,0-0.1,0-0.14,0s-0.08,0-0.13,0.01c-0.03,0-0.06,0.01-0.09,0.02l-0.09,0.03
					c-0.07,0.03-0.13,0.07-0.18,0.13c-0.03,0.03-0.06,0.07-0.07,0.12c-0.01,0.04,0,0.09,0.04,0.12c0.02,0.02,0.05,0.03,0.07,0.05
					c0.02,0.01,0.04,0.02,0.06,0.03c0.07,0.04,0.16,0.03,0.24,0.02c0.08,0,0.16-0.01,0.24-0.02c0.12-0.02,0.24-0.08,0.33-0.17
					c0.05-0.06,0.11-0.15,0.03-0.21L124.86,5.7z"/>
				<path style="fill:#FF9436;" d="M87.66,6.83c0,0-0.02-0.03-0.03-0.05c0-0.03,0.01-0.05,0-0.08c-0.03-0.06-0.09-0.1-0.16-0.12
					c-0.01,0-0.03-0.01-0.04-0.02c-0.02,0-0.03-0.02-0.05-0.03c-0.04-0.03-0.09-0.05-0.14-0.07c-0.02,0-0.05-0.01-0.07-0.02
					c-0.04-0.01-0.08-0.03-0.12-0.04c-0.05-0.02-0.1,0-0.15,0c-0.04-0.01-0.08-0.03-0.11-0.05c-0.02,0-0.03-0.02-0.05-0.02
					c-0.07-0.04-0.13-0.04-0.21-0.03c0.1,0,0.04,0,0.02,0c-0.03,0-0.06,0-0.1,0c-0.09,0-0.19,0.04-0.25,0.11
					c-0.06,0.08-0.14,0.17-0.13,0.28c0,0.05,0.02,0.09,0.03,0.14c-0.03,0.06-0.04,0.13-0.01,0.2c0,0.02,0.02,0.04,0.03,0.06
					c0.03,0.06,0.08,0.14,0.14,0.17c0.07,0.04,0.15,0.08,0.23,0.1c0.2,0.07,0.42,0.04,0.61-0.04c0.14-0.03,0.28-0.08,0.39-0.17
					c0.09-0.07,0.21-0.2,0.14-0.32L87.66,6.83z"/>
				<path style="fill:#FF9436;" d="M90.75,5.83c0,0,0,0,0-0.01c0,0-0.01-0.02-0.02-0.02c0,0-0.01-0.01-0.02-0.02
					c-0.02-0.02-0.04-0.03-0.07-0.03c-0.06-0.01-0.12-0.02-0.17-0.03c-0.03,0-0.05-0.01-0.08,0c-0.03,0-0.06,0-0.1,0.02
					c-0.04,0.01-0.07,0.02-0.1,0.04s-0.06,0.03-0.09,0.06c-0.01,0.01-0.03,0.03-0.04,0.04c-0.02,0.03-0.03,0.05-0.04,0.09
					c0,0.01,0,0.03,0,0.04c0.01,0.03,0.04,0.04,0.06,0.05c0.05,0.02,0.1,0.04,0.15,0.05c0.06,0.02,0.13,0.01,0.19,0
					c0.05,0,0.09,0,0.14-0.02s0.11-0.04,0.15-0.08c0.01-0.01,0.02-0.02,0.03-0.04c0.02-0.02,0.03-0.04,0.03-0.07s0-0.04-0.03-0.06
					L90.75,5.83z"/>
				<path style="fill:#FF9436;" d="M74.04,4.89c0,0-0.06-0.06-0.09-0.09c0-0.05-0.03-0.09-0.1-0.12c-0.02,0-0.04-0.02-0.06-0.03
					c-0.08-0.04-0.15-0.08-0.22-0.13c-0.08-0.06-0.18-0.09-0.28-0.13c-0.01,0-0.03-0.01-0.04-0.02c-0.12-0.06-0.26-0.02-0.37,0.04
					c-0.05,0.03-0.11,0.07-0.15,0.12c-0.03,0.04-0.06,0.1-0.04,0.15c0.03,0.06,0.07,0.11,0.1,0.16c0.03,0.04,0.05,0.08,0.09,0.11
					c0.03,0.02,0.06,0.04,0.09,0.06c0.07,0.04,0.15,0.08,0.23,0.12c0.03,0.01,0.06,0.03,0.09,0.04c0.07,0.02,0.15,0.01,0.22,0
					c0.06,0,0.13,0,0.19,0c0.12,0,0.25-0.01,0.34-0.1c0.03-0.02,0.05-0.06,0.05-0.1c0-0.05-0.04-0.07-0.07-0.09L74.04,4.89z"/>
				<path style="fill:#FFD2AB;" d="M101.87,6.29c-0.02-0.05-0.07-0.1-0.11-0.14c-0.02-0.02-0.03-0.04-0.05-0.06
					c-0.02-0.02-0.03-0.04-0.05-0.06c-0.04-0.04-0.11-0.06-0.17-0.09c-0.03-0.01-0.05-0.02-0.08-0.03c-0.04-0.01-0.06-0.02-0.1-0.02
					c-0.07-0.02-0.14-0.02-0.22,0c-0.07,0.01-0.13,0.03-0.19,0.04c0.04,0,0.08-0.01,0.12-0.02c-0.13,0.01-0.25,0.04-0.36,0.1
					c-0.1,0.06-0.17,0.14-0.24,0.23c0.02-0.03,0.04-0.05,0.06-0.08c-0.03,0.02-0.04,0.06-0.07,0.08c-0.02,0.02-0.05,0.03-0.06,0.06
					c0,0.02-0.02,0.03-0.02,0.05c-0.01,0.02-0.03,0.03-0.04,0.05c-0.03,0.06-0.03,0.08-0.02,0.13c0,0.02,0,0.05,0,0.07
					c0,0.01,0,0.02,0,0.04s0,0.05,0.01,0.07c0,0.06,0.03,0.11,0.08,0.14c0.02,0.02,0.03,0.04,0.05,0.06
					c0.02,0.02,0.03,0.04,0.05,0.06c0.02,0.02,0.03,0.04,0.05,0.06c0.05,0.03,0.12,0.06,0.18,0.08c0.03,0.01,0.05,0.02,0.08,0.02
					s0.06,0.01,0.08,0.01c0.15,0,0.29-0.03,0.42-0.08l0.12-0.05c0.08-0.03,0.14-0.08,0.21-0.13c0.09-0.1,0.17-0.2,0.26-0.3
					c0.03-0.04,0.03-0.08,0.03-0.13s-0.01-0.14-0.03-0.17L101.87,6.29z"/>
				<path style="fill:#FF9436;" d="M95.55,1.74c0,0-0.02-0.02-0.03-0.02l0,0c-0.02-0.03-0.03-0.07-0.06-0.07
					c-0.09-0.02-0.17-0.04-0.25-0.08c-0.03-0.01-0.05-0.03-0.08-0.04c-0.05-0.03-0.1-0.05-0.15-0.07c-0.05-0.03-0.1-0.05-0.15-0.08
					c-0.03-0.01-0.05-0.02-0.07-0.03c0.02,0,0,0,0,0c-0.01,0-0.03-0.02-0.04-0.02c-0.07-0.04-0.16-0.02-0.22,0.01
					c-0.03,0.02-0.06,0.04-0.09,0.06c-0.02,0.02-0.06,0.07-0.06,0.1c0,0.05,0.01,0.09,0.02,0.14c0,0.04,0.01,0.07,0.04,0.11
					c0.05,0.07,0.1,0.15,0.17,0.19c0.08,0.04,0.17,0.08,0.25,0.11c0.04,0.01,0.08,0.02,0.12,0.03c0.04,0,0.08,0.02,0.12,0.02
					c0.08,0,0.17-0.02,0.24-0.06c0.01,0,0.03,0,0.04-0.01c0.08-0.02,0.15-0.07,0.2-0.13c0.03-0.04,0.05-0.1,0-0.14V1.74z"/>
			</g>
		</g>
	</g>
</g>
</svg>
