<svg width="227" height="170" viewBox="0 0 227 170" fill="none" xmlns="http://www.w3.org/2000/svg">
<path d="M170 132.033C170 132.033 166.787 125.613 166.6 121.51C166.413 117.408 163.568 95.5967 161.251 88.281C158.933 80.9653 149.657 70.9297 140.919 64.9173C139.003 63.6027 130.214 58.684 130.214 58.684L128.786 84.541C128.786 84.541 141.451 99.5237 142.165 105.944C142.879 112.364 139.145 123.771 141.599 128.044C145.928 135.66 143.367 131.841 148.557 139.377L170 132.033Z" fill="white"/>
<path d="M148.563 139.666C148.517 139.666 148.472 139.655 148.431 139.633C148.391 139.612 148.356 139.58 148.331 139.542L147.333 138.057C144.772 134.334 144.772 134.334 143.848 132.623C143.395 131.79 142.715 130.526 141.383 128.18C139.927 125.613 140.573 120.813 141.264 115.713C141.74 112.223 142.228 108.613 141.933 105.95C141.236 99.688 128.747 84.847 128.622 84.6997C128.578 84.643 128.554 84.5732 128.554 84.5013L129.982 58.6387C129.985 58.5906 130 58.5441 130.026 58.5034C130.051 58.4628 130.087 58.4294 130.129 58.4063C130.17 58.3813 130.217 58.368 130.265 58.368C130.313 58.368 130.36 58.3813 130.401 58.4063C130.764 58.6103 139.23 63.359 141.128 64.6397C149.181 70.176 159.08 80.2967 161.568 88.1507C163.908 95.5173 166.747 117.204 166.934 121.454C167.11 125.449 170.261 131.801 170.295 131.863C170.312 131.9 170.32 131.939 170.32 131.979C170.32 132.02 170.312 132.059 170.295 132.096C170.281 132.134 170.258 132.169 170.229 132.197C170.199 132.226 170.164 132.247 170.125 132.26L148.676 139.627C148.643 139.65 148.604 139.663 148.563 139.666ZM129.098 84.4333C130.231 85.7877 141.774 99.654 142.471 105.904C142.772 108.636 142.279 112.279 141.797 115.804C141.151 120.575 140.482 125.505 141.848 127.908C143.214 130.311 143.865 131.523 144.319 132.362C145.225 134.062 145.225 134.062 147.775 137.74L148.676 139.049L169.615 131.863C168.98 130.549 166.498 125.182 166.339 121.516C166.158 117.408 163.279 95.54 161.001 88.366C158.848 81.566 150.155 71.5927 140.777 65.1327C139.134 63.9993 132.232 60.1063 130.498 59.126L129.098 84.4333Z" fill="#323D4B"/>
<path d="M56.6667 132.033C56.6667 132.033 59.8797 125.613 60.0667 121.51C60.2537 117.408 63.0984 95.5967 65.4161 88.281C67.7337 80.9653 77.0101 70.9297 85.7481 64.9173C87.6634 63.6027 96.4524 58.684 96.4524 58.684L97.8804 84.541C97.8804 84.541 85.2154 99.5237 84.5014 105.944C83.7874 112.364 87.5217 123.771 85.0681 128.044C80.7387 135.66 83.3001 131.841 78.1094 139.377L56.6667 132.033Z" fill="white"/>
<path d="M78.1037 139.666C78.0738 139.672 78.043 139.672 78.0131 139.666L56.5647 132.3C56.5259 132.287 56.4904 132.265 56.4609 132.237C56.4315 132.208 56.4089 132.174 56.3947 132.135C56.3779 132.099 56.3693 132.059 56.3693 132.019C56.3693 131.979 56.3779 131.939 56.3947 131.903C56.4287 131.841 59.5794 125.488 59.7551 121.493C59.9421 117.243 62.7811 95.574 65.1214 88.1903C67.6091 80.3363 77.5087 70.2157 85.5611 64.6793C87.4594 63.376 95.9254 58.6273 96.2881 58.446C96.329 58.421 96.3761 58.4077 96.4241 58.4077C96.4721 58.4077 96.5191 58.421 96.5601 58.446C96.6023 58.469 96.638 58.5024 96.6638 58.5431C96.6896 58.5837 96.7046 58.6303 96.7074 58.6783L98.1354 84.541C98.1354 84.6128 98.1115 84.6826 98.0674 84.7393C97.9427 84.8867 85.4534 99.7276 84.7564 105.989C84.4617 108.653 84.9491 112.262 85.4251 115.753C86.1164 120.853 86.7624 125.641 85.3061 128.22C83.9744 130.566 83.2944 131.829 82.8411 132.662C81.9174 134.362 81.9174 134.362 79.3561 138.097L78.3304 139.581C78.3015 139.612 78.2661 139.635 78.2268 139.65C78.1876 139.665 78.1455 139.67 78.1037 139.666ZM57.0521 131.858L77.9904 139.043L78.8914 137.734C81.4414 134.039 81.4414 134.039 82.3481 132.356C82.8014 131.518 83.4814 130.248 84.8187 127.902C86.1561 125.556 85.5157 120.57 84.8697 115.798C84.3881 112.274 83.8951 108.63 84.1954 105.899C84.8924 99.6653 96.4297 85.782 97.5687 84.4277L96.1691 59.1317C94.4351 60.112 87.5331 64.0107 85.8897 65.1383C76.5114 71.587 67.8187 81.5717 65.6654 88.3717C63.3987 95.5457 60.5087 117.413 60.3274 121.522C60.1687 125.177 57.6867 130.543 57.0521 131.858Z" fill="#323D4B"/>
<path d="M133.767 21.5673H92.8937C91.2444 21.5673 89.9073 22.9043 89.9073 24.5537V111.968C89.9073 113.617 91.2444 114.954 92.8937 114.954H133.767C135.417 114.954 136.754 113.617 136.754 111.968V24.5537C136.754 22.9043 135.417 21.5673 133.767 21.5673Z" fill="white"/>
<path d="M133.773 115.237H92.8937C92.027 115.236 91.1962 114.891 90.5833 114.278C89.9705 113.665 89.6255 112.834 89.624 111.968V24.5537C89.6255 23.687 89.9705 22.8562 90.5833 22.2433C91.1962 21.6305 92.027 21.2855 92.8937 21.284H133.773C134.64 21.2855 135.471 21.6305 136.083 22.2433C136.696 22.8562 137.041 23.687 137.043 24.5537V111.968C137.041 112.834 136.696 113.665 136.083 114.278C135.471 114.891 134.64 115.236 133.773 115.237ZM92.8937 21.8507C92.1773 21.8522 91.4906 22.1374 90.984 22.644C90.4774 23.1506 90.1922 23.8372 90.1907 24.5537V111.968C90.1922 112.684 90.4774 113.371 90.984 113.877C91.4906 114.384 92.1773 114.669 92.8937 114.671H133.773C134.489 114.669 135.176 114.384 135.683 113.877C136.189 113.371 136.475 112.684 136.476 111.968V24.5537C136.475 23.8372 136.189 23.1506 135.683 22.644C135.176 22.1374 134.489 21.8522 133.773 21.8507H92.8937Z" fill="#323D4B"/>
<path d="M134.294 30.0163H92.3667V101.887H134.294V30.0163Z" fill="white"/>
<path d="M134.3 102.17H92.3667C92.292 102.169 92.2208 102.138 92.168 102.085C92.1151 102.033 92.0848 101.961 92.0834 101.887V30.0333C92.0834 29.9582 92.1132 29.8861 92.1664 29.833C92.2195 29.7799 92.2916 29.75 92.3667 29.75H134.3C134.375 29.75 134.447 29.7799 134.5 29.833C134.554 29.8861 134.583 29.9582 134.583 30.0333V101.887C134.582 101.961 134.552 102.033 134.499 102.085C134.446 102.138 134.375 102.169 134.3 102.17ZM92.65 101.603H134.017V30.2997H92.65V101.603Z" fill="#323D4B"/>
<path d="M117.317 105.377H109.344C108.33 105.377 107.508 106.199 107.508 107.213V110.262C107.508 111.276 108.33 112.098 109.344 112.098H117.317C118.331 112.098 119.153 111.276 119.153 110.262V107.213C119.153 106.199 118.331 105.377 117.317 105.377Z" fill="white"/>
<path d="M117.3 112.387H109.367C108.805 112.386 108.267 112.162 107.87 111.765C107.473 111.367 107.249 110.829 107.247 110.268V107.219C107.247 106.656 107.471 106.117 107.868 105.718C108.265 105.32 108.804 105.095 109.367 105.094H117.3C117.863 105.095 118.402 105.32 118.799 105.718C119.196 106.117 119.419 106.656 119.419 107.219V110.268C119.418 110.829 119.194 111.367 118.797 111.765C118.4 112.162 117.862 112.386 117.3 112.387ZM109.367 105.661C108.954 105.662 108.56 105.827 108.269 106.119C107.978 106.411 107.814 106.807 107.814 107.219V110.268C107.814 110.472 107.854 110.673 107.932 110.862C108.01 111.05 108.125 111.221 108.269 111.366C108.413 111.51 108.584 111.624 108.773 111.702C108.961 111.78 109.163 111.82 109.367 111.82H117.3C117.504 111.82 117.706 111.78 117.894 111.702C118.083 111.624 118.254 111.51 118.398 111.366C118.542 111.221 118.657 111.05 118.735 110.862C118.813 110.673 118.853 110.472 118.853 110.268V107.219C118.853 106.807 118.689 106.411 118.398 106.119C118.107 105.827 117.712 105.662 117.3 105.661H109.367Z" fill="#CBD2D9"/>
<path d="M117.566 25.8967H105.627C105.552 25.8952 105.481 25.8649 105.428 25.8121C105.375 25.7593 105.345 25.688 105.343 25.6133C105.343 25.5382 105.373 25.4661 105.426 25.413C105.48 25.3599 105.552 25.33 105.627 25.33H117.566C117.642 25.33 117.714 25.3599 117.767 25.413C117.82 25.4661 117.85 25.5382 117.85 25.6133C117.85 25.6885 117.82 25.7605 117.767 25.8137C117.714 25.8668 117.642 25.8967 117.566 25.8967Z" fill="#CBD2D9"/>
<path d="M120.842 25.8967H119.244C119.169 25.8967 119.096 25.8668 119.043 25.8137C118.99 25.7605 118.96 25.6885 118.96 25.6133C118.96 25.5382 118.99 25.4661 119.043 25.413C119.096 25.3599 119.169 25.33 119.244 25.33H120.842C120.917 25.33 120.989 25.3599 121.042 25.413C121.095 25.4661 121.125 25.5382 121.125 25.6133C121.125 25.6885 121.095 25.7605 121.042 25.8137C120.989 25.8668 120.917 25.8967 120.842 25.8967Z" fill="#CBD2D9"/>
<path d="M134.3 34.357H92.3667C92.292 34.3555 92.2208 34.3252 92.168 34.2724C92.1151 34.2196 92.0848 34.1484 92.0834 34.0737C92.0834 33.9985 92.1132 33.9265 92.1664 33.8733C92.2195 33.8202 92.2916 33.7903 92.3667 33.7903H134.3C134.375 33.7903 134.447 33.8202 134.5 33.8733C134.554 33.9265 134.583 33.9985 134.583 34.0737C134.582 34.1484 134.552 34.2196 134.499 34.2724C134.446 34.3252 134.375 34.3555 134.3 34.357Z" fill="#323D4B"/>
<path d="M132.453 37.2697H130.135H130.033H113.254C112.972 37.2785 112.705 37.3962 112.509 37.5981C112.312 37.7999 112.201 38.0702 112.2 38.352V42.5907C112.202 42.8772 112.316 43.1517 112.519 43.3543C112.721 43.557 112.996 43.6715 113.282 43.673H130.061C130.348 43.673 130.624 43.559 130.827 43.356C131.03 43.153 131.144 42.8777 131.144 42.5907V38.624L132.453 37.2697Z" fill="#CBD2D9"/>
<path d="M96.5657 58.2703H98.8833H98.9853H115.764C116.051 58.2703 116.327 58.3844 116.53 58.5873C116.733 58.7903 116.847 59.0656 116.847 59.3527V65.9487C116.847 66.091 116.82 66.2321 116.766 66.3637C116.712 66.4954 116.632 66.615 116.531 66.7157C116.431 66.8163 116.311 66.896 116.179 66.9501C116.048 67.0043 115.907 67.0318 115.764 67.031H98.9853C98.6983 67.031 98.423 66.917 98.22 66.714C98.017 66.511 97.903 66.2357 97.903 65.9487V59.6077L96.5657 58.2703Z" fill="#CBD2D9"/>
<path d="M96.5657 79.5543H98.8833H98.9853H118.762C119.048 79.5558 119.322 79.6705 119.524 79.8733C119.725 80.0762 119.839 80.3506 119.839 80.6367V89.777C119.839 90.0631 119.725 90.3375 119.524 90.5403C119.322 90.7431 119.048 90.8578 118.762 90.8593H98.9853C98.6987 90.8578 98.4243 90.7433 98.2217 90.5407C98.019 90.338 97.9045 90.0636 97.903 89.777V80.8917L96.5657 79.5543Z" fill="#CBD2D9"/>
<path d="M132.453 69.7283H130.135H130.033H113.254C112.968 69.7358 112.697 69.8562 112.499 70.0633C112.301 70.2703 112.194 70.5472 112.2 70.8333V75.0663C112.2 75.3534 112.314 75.6287 112.517 75.8317C112.72 76.0346 112.995 76.1487 113.282 76.1487H130.061C130.204 76.1494 130.345 76.1219 130.476 76.0678C130.608 76.0137 130.728 75.934 130.828 75.8333C130.929 75.7327 131.009 75.6131 131.063 75.4814C131.117 75.3498 131.144 75.2087 131.144 75.0663V71.0997L132.453 69.7283Z" fill="#CBD2D9"/>
<path d="M129.619 45.1577H108.981C108.155 45.1577 107.485 45.8275 107.485 46.6537V53.652C107.485 54.4782 108.155 55.148 108.981 55.148H129.619C130.446 55.148 131.115 54.4782 131.115 53.652V46.6537C131.115 45.8275 130.446 45.1577 129.619 45.1577Z" fill="#CBD2D9"/>
<path d="M129.585 94.5143H97.0814C95.7826 94.5143 94.7297 95.5672 94.7297 96.866C94.7297 98.1648 95.7826 99.2177 97.0814 99.2177H129.585C130.884 99.2177 131.937 98.1648 131.937 96.866C131.937 95.5672 130.884 94.5143 129.585 94.5143Z" fill="white"/>
<path d="M129.585 99.501H97.0814C96.3826 99.501 95.7123 99.2234 95.2182 98.7292C94.724 98.2351 94.4464 97.5648 94.4464 96.866C94.4464 96.1671 94.724 95.4969 95.2182 95.0028C95.7123 94.5086 96.3826 94.231 97.0814 94.231H129.585C130.284 94.231 130.954 94.5086 131.449 95.0028C131.943 95.4969 132.22 96.1671 132.22 96.866C132.22 97.5648 131.943 98.2351 131.449 98.7292C130.954 99.2234 130.284 99.501 129.585 99.501ZM97.0814 94.7977C96.5329 94.7977 96.0068 95.0156 95.6189 95.4035C95.231 95.7913 95.0131 96.3174 95.0131 96.866C95.0131 97.4146 95.231 97.9406 95.6189 98.3285C96.0068 98.7164 96.5329 98.9343 97.0814 98.9343H129.585C130.134 98.9343 130.66 98.7164 131.048 98.3285C131.436 97.9406 131.654 97.4146 131.654 96.866C131.654 96.3174 131.436 95.7913 131.048 95.4035C130.66 95.0156 130.134 94.7977 129.585 94.7977H97.0814Z" fill="#CBD2D9"/>
<path d="M80.9257 135.275C80.9257 135.275 90.1851 127.647 90.8991 118.904C91.6131 110.16 90.185 101.116 91.256 99.1497C92.327 97.1833 99.7901 86.4903 101.433 83.6343C103.575 79.8887 100.362 76.5 98.0334 77.928C95.7044 79.356 86.6207 84.524 81.804 91.4827C79.6244 94.0025 77.8225 96.8257 76.4547 99.8637" fill="white"/>
<path d="M80.9257 135.558C80.8833 135.557 80.8416 135.547 80.8034 135.528C80.7653 135.51 80.7316 135.483 80.7047 135.45C80.6577 135.392 80.6355 135.318 80.643 135.244C80.6504 135.17 80.6868 135.101 80.7444 135.054C80.835 134.98 89.9244 127.398 90.6157 118.881C90.8742 114.845 90.8931 110.798 90.6724 106.76C90.525 102.884 90.423 100.09 91.0067 99.0137C91.528 98.0617 93.534 95.081 95.6534 91.9303C97.954 88.5303 100.34 84.966 101.178 83.4927C102.312 81.4697 101.83 79.577 100.816 78.5967C100.494 78.2317 100.055 77.9895 99.5751 77.911C99.0948 77.8325 98.6021 77.9226 98.1807 78.166L97.563 78.5457C94.5257 80.3817 86.462 85.2493 82.0364 91.6413C79.8718 94.1533 78.078 96.9622 76.7097 99.9827C76.6777 100.05 76.6209 100.102 76.5512 100.129C76.4815 100.155 76.4043 100.153 76.3357 100.124C76.268 100.091 76.2156 100.033 76.1892 99.9627C76.1629 99.8921 76.1646 99.8141 76.194 99.7447C77.5775 96.6797 79.3984 93.8318 81.6 91.29C86.0654 84.83 94.2027 79.9113 97.2684 78.064L97.886 77.6843C98.4139 77.3764 99.0312 77.2585 99.6354 77.3503C100.24 77.442 100.794 77.7379 101.207 78.1887C102.38 79.322 102.975 81.4867 101.671 83.776C100.821 85.2663 98.43 88.8137 96.1237 92.2477C94.01 95.387 92.0154 98.3563 91.5054 99.2857C90.9954 100.215 91.103 103.099 91.239 106.737C91.4598 110.798 91.4408 114.868 91.1824 118.926C90.4684 127.687 81.1977 135.416 81.107 135.49C81.0562 135.533 80.9922 135.557 80.9257 135.558Z" fill="#323D4B"/>
<path d="M83.2604 148.433C83.555 147.164 83.7239 145.87 83.7647 144.568C83.7647 142.925 82.0647 140.567 82.0647 140.567L83.0961 135.275C83.0961 135.275 56.4627 124.888 55.3917 126.316C54.3207 127.744 52.1787 135.275 52.1787 135.275C52.1787 135.275 48.7787 137.286 47.7191 139.383C47.1014 140.59 46.0191 144.953 45.1974 148.45L83.2604 148.433Z" fill="#323D4B"/>
<path d="M145.741 135.275C145.741 135.275 136.482 127.647 135.768 118.904C135.054 110.16 136.482 101.116 135.411 99.1497C134.34 97.1833 126.877 86.4903 125.233 83.6343C123.091 79.8887 126.304 76.5 128.633 77.928C130.962 79.356 140.046 84.524 144.863 91.4827C147.042 94.0025 148.844 96.8257 150.212 99.8637" fill="white"/>
<path d="M145.741 135.558C145.675 135.557 145.611 135.533 145.56 135.49C145.469 135.416 136.198 127.687 135.484 118.926C135.226 114.868 135.207 110.798 135.428 106.737C135.564 103.099 135.671 100.226 135.161 99.2857C134.651 98.345 132.657 95.387 130.543 92.2477C128.237 88.8137 125.845 85.2663 124.995 83.776C123.692 81.5093 124.287 79.322 125.46 78.1887C125.873 77.7379 126.427 77.442 127.031 77.3503C127.635 77.2585 128.253 77.3764 128.781 77.6843L129.398 78.064C132.464 79.9113 140.601 84.83 145.095 91.324C147.281 93.8553 149.092 96.6873 150.473 99.7333C150.502 99.8027 150.504 99.8808 150.477 99.9514C150.451 100.022 150.399 100.08 150.331 100.113C150.262 100.142 150.185 100.144 150.116 100.117C150.046 100.091 149.989 100.039 149.957 99.9713C148.596 96.9639 146.812 94.1665 144.659 91.664C140.205 85.238 132.141 80.3703 129.104 78.5343L128.486 78.1547C128.065 77.9112 127.572 77.8211 127.092 77.8996C126.611 77.9781 126.173 78.2204 125.851 78.5853C124.837 79.5657 124.332 81.4583 125.488 83.4813C126.327 84.9547 128.713 88.4963 131.013 91.919C133.133 95.0697 135.139 98.0503 135.66 99.0023C136.227 100.079 136.142 102.873 135.994 106.749C135.774 110.787 135.793 114.834 136.051 118.87C136.742 127.37 145.832 134.969 145.922 135.042C145.98 135.09 146.016 135.158 146.024 135.233C146.031 135.307 146.009 135.381 145.962 135.439C145.936 135.474 145.903 135.503 145.865 135.523C145.827 135.544 145.784 135.556 145.741 135.558Z" fill="#323D4B"/>
<path d="M79.3334 142.891H79.2484L54.9951 135.552C54.959 135.543 54.9252 135.526 54.8957 135.503C54.8663 135.479 54.8419 135.451 54.8239 135.418C54.8059 135.385 54.7947 135.349 54.791 135.312C54.7873 135.274 54.7912 135.237 54.8024 135.201C54.8259 135.129 54.8763 135.07 54.943 135.035C55.0096 135 55.0873 134.993 55.1594 135.014L79.4128 142.347C79.4485 142.357 79.4818 142.374 79.5108 142.398C79.5398 142.421 79.564 142.45 79.5819 142.482C79.5998 142.515 79.611 142.551 79.6151 142.588C79.6191 142.625 79.6159 142.662 79.6054 142.698C79.5855 142.754 79.5487 142.803 79.5 142.838C79.4513 142.872 79.3931 142.891 79.3334 142.891Z" fill="#323D4B"/>
<path d="M143.406 148.433H181.452C180.636 144.953 179.548 140.59 178.931 139.366C177.86 137.269 174.471 135.258 174.471 135.258C174.471 135.258 172.329 127.727 171.258 126.299C170.187 124.871 143.554 135.258 143.554 135.258L144.585 140.55C144.585 140.55 142.885 142.908 142.885 144.551C142.93 145.859 143.105 147.159 143.406 148.433Z" fill="#323D4B"/>
<path d="M170 136L148.138 142.613L170 136Z" fill="white"/>
<path d="M148.149 142.891C148.088 142.89 148.029 142.87 147.98 142.833C147.931 142.796 147.895 142.745 147.877 142.687C147.856 142.615 147.865 142.537 147.901 142.471C147.937 142.405 147.998 142.356 148.07 142.335L169.932 135.722C170.007 135.701 170.088 135.711 170.156 135.749C170.224 135.787 170.274 135.851 170.295 135.926C170.316 136.001 170.306 136.082 170.268 136.15C170.23 136.218 170.166 136.268 170.091 136.289L148.229 142.902L148.149 142.891Z" fill="#323D4B"/>
<path d="M95.8177 36.0513H58.446C56.1019 36.0513 54.2017 37.9516 54.2017 40.2957V57.392C54.2017 59.7361 56.1019 61.6363 58.446 61.6363H95.8177C98.1617 61.6363 100.062 59.7361 100.062 57.392V40.2957C100.062 37.9516 98.1617 36.0513 95.8177 36.0513Z" fill="#323D4B"/>
<path d="M66.0564 55.8337C70.4816 55.8337 74.069 52.2463 74.069 47.821C74.069 43.3957 70.4816 39.8083 66.0564 39.8083C61.6311 39.8083 58.0437 43.3957 58.0437 47.821C58.0437 52.2463 61.6311 55.8337 66.0564 55.8337Z" fill="white"/>
<path d="M62.7415 43.5483C62.6464 44.6488 62.7834 45.7569 63.1438 46.801C63.2336 47.1057 63.3904 47.3864 63.6028 47.6227C63.8781 47.8537 64.2149 47.9995 64.5718 48.042C65.1432 48.1524 65.7238 48.2093 66.3058 48.212C66.9081 48.2649 67.5098 48.1044 68.0058 47.7587C68.5724 47.2827 68.5101 46.6877 68.7651 46.0587C68.9634 45.577 69.4961 45.424 69.6831 44.897C69.7664 44.6237 69.7877 44.3352 69.7454 44.0527C69.6798 43.2836 69.3677 42.5563 68.8558 41.9787C68.5125 41.662 68.1099 41.4164 67.6713 41.2559C67.2327 41.0954 66.7667 41.0233 66.3001 41.0437C65.4274 41.0437 64.4698 40.817 64.3791 41.9107C64.2204 41.8666 64.0536 41.8606 63.8921 41.8931C63.7306 41.9256 63.5791 41.9957 63.4498 42.0977C63.0387 42.4743 62.7856 42.9926 62.7415 43.5483Z" fill="white"/>
<path d="M66.3737 48.5067H66.3001C65.7008 48.4999 65.1034 48.4392 64.5151 48.3253C64.096 48.28 63.7006 48.108 63.3817 47.8323C63.1309 47.5663 62.9482 47.2436 62.8491 46.8917C62.4717 45.8005 62.3307 44.6415 62.4354 43.4917C62.4872 42.8613 62.7794 42.275 63.2514 41.854C63.4999 41.6634 63.8052 41.5616 64.1184 41.565C64.3564 40.6583 65.2517 40.6923 65.9317 40.7263H66.2888C66.797 40.6984 67.3057 40.7739 67.7839 40.9483C68.2621 41.1226 68.7 41.3922 69.0711 41.7407C69.6294 42.3718 69.9675 43.1673 70.0344 44.0073C70.0831 44.3336 70.0579 44.6667 69.9608 44.982C69.8389 45.271 69.6435 45.523 69.3941 45.713C69.2435 45.831 69.1199 45.9797 69.0314 46.1493C68.9642 46.3344 68.9093 46.5237 68.8671 46.716C68.7974 47.2061 68.5565 47.6558 68.1871 47.9853C67.66 48.3612 67.02 48.5452 66.3737 48.5067ZM63.0361 43.588C62.941 44.6425 63.0723 45.7051 63.4214 46.7047C63.4945 46.9669 63.6263 47.2091 63.8067 47.413C64.0399 47.6033 64.3235 47.7215 64.6227 47.753C65.1831 47.8613 65.7521 47.9182 66.3227 47.923C66.862 47.9661 67.4003 47.8286 67.8527 47.532C68.1232 47.2834 68.2943 46.9451 68.3344 46.58C68.3828 46.3621 68.4472 46.1481 68.5271 45.9397C68.6436 45.6839 68.8206 45.4602 69.0427 45.288C69.2167 45.1597 69.3535 44.9877 69.4394 44.7893C69.5094 44.5581 69.5268 44.3142 69.4904 44.0753C69.4312 43.3686 69.1472 42.6994 68.6801 42.1657C68.0201 41.6013 67.1669 41.3149 66.3001 41.3667H65.9204C65.0364 41.327 64.7191 41.3667 64.6681 41.973C64.6655 42.0169 64.6529 42.0596 64.6313 42.0979C64.6097 42.1362 64.5796 42.1691 64.5434 42.194C64.5072 42.2183 64.4662 42.2345 64.4231 42.2413C64.3801 42.2482 64.336 42.2456 64.2941 42.2337C64.182 42.2019 64.064 42.1971 63.9497 42.2198C63.8355 42.2424 63.7282 42.2919 63.6367 42.364C63.2815 42.6923 63.0664 43.1449 63.0361 43.6277V43.588Z" fill="#323D4B"/>
<path d="M65.4613 57.9643L64.328 49.6513L68.2947 50.184L69.7 57.9643L73.1 57.6583C73.0093 53.652 71.5473 50.2577 70.5047 49.4757C69.2523 48.5463 64.4413 48.6993 64.4413 48.6993C64.4413 48.6993 60.6107 50.3257 59.619 52.156C59.1883 52.9493 58.9277 55.182 59.0523 57.9643H65.4613Z" fill="#323D4B"/>
<path d="M68.3117 47.8267L68.7027 49.98C68.5581 50.3715 68.2877 50.704 67.934 50.9255C67.5802 51.147 67.163 51.2449 66.7477 51.204C66.3257 51.1472 65.9215 50.9979 65.5639 50.7667C65.2064 50.5355 64.9043 50.2282 64.6794 49.8667L64.2714 45.9C64.2714 45.9 65.2574 45.237 64.7077 43.01C65.9081 43.3814 67.1863 43.4225 68.408 43.129C68.408 43.129 69.3034 45.509 69.2467 46.614C69.2574 46.8936 69.1696 47.1681 68.9988 47.3897C68.828 47.6112 68.5848 47.7659 68.3117 47.8267Z" fill="white"/>
<path d="M67.0027 51.5157C66.9046 51.5209 66.8062 51.5209 66.7081 51.5157C66.2412 51.4466 65.7956 51.2745 65.4035 51.0119C65.0115 50.7492 64.6828 50.4025 64.4414 49.997C64.4234 49.9639 64.4137 49.927 64.4131 49.8893L64.0051 45.9227C64.0001 45.8706 64.0096 45.8181 64.0326 45.7711C64.0556 45.7241 64.0912 45.6843 64.1354 45.6563C64.1354 45.6563 64.9287 45.0387 64.4471 43.0723C64.4357 43.0213 64.4381 42.9682 64.454 42.9184C64.47 42.8686 64.4989 42.8239 64.5377 42.789C64.5766 42.7529 64.6249 42.7285 64.677 42.7184C64.7291 42.7084 64.7829 42.7132 64.8324 42.7323C65.9792 43.0785 67.197 43.1157 68.3627 42.84C68.4318 42.8244 68.5041 42.8341 68.5665 42.8674C68.6289 42.9007 68.6773 42.9553 68.7027 43.0213C68.7424 43.1233 69.6208 45.4693 69.5641 46.6253C69.5688 46.923 69.4867 47.2155 69.3276 47.4671C69.1686 47.7188 68.9396 47.9186 68.6687 48.042L69.0144 49.946C69.0255 49.9964 69.0255 50.0486 69.0144 50.099C68.8619 50.511 68.5879 50.867 68.2287 51.1199C67.8695 51.3729 67.442 51.5109 67.0027 51.5157ZM64.9627 49.742C65.1631 50.0586 65.4302 50.3276 65.7454 50.5302C66.0606 50.7328 66.4162 50.8641 66.7874 50.915C67.1247 50.9515 67.4646 50.8765 67.7552 50.7015C68.0459 50.5265 68.2712 50.2611 68.3967 49.946L68.0001 47.8777C67.9884 47.7984 68.0066 47.7176 68.0511 47.651C68.0979 47.5894 68.1671 47.5487 68.2437 47.5377C68.455 47.488 68.6412 47.3638 68.7682 47.1879C68.8952 47.012 68.9545 46.7961 68.9351 46.58C68.9747 45.7413 68.4137 44.064 68.1984 43.4463C67.1643 43.6532 66.0981 43.6378 65.0704 43.401C65.3311 44.965 64.8211 45.7187 64.5547 45.9963L64.9627 49.742Z" fill="#323D4B"/>
<path d="M66.725 44.642C66.725 44.642 67.5127 45.7753 67.3314 46.0077C67.15 46.24 66.623 46.0813 66.623 46.0813" fill="white"/>
<path d="M66.963 46.4043C66.8255 46.4025 66.6887 46.3854 66.555 46.3533C66.5191 46.3447 66.4853 46.329 66.4555 46.3072C66.4257 46.2854 66.4006 46.2578 66.3816 46.2262C66.3626 46.1945 66.3501 46.1594 66.3449 46.1228C66.3396 46.0863 66.3417 46.0491 66.351 46.0133C66.3698 45.9413 66.4156 45.8794 66.479 45.8403C66.5423 45.8012 66.6182 45.7881 66.691 45.8037C66.8129 45.8249 66.9375 45.8249 67.0593 45.8037C66.9087 45.4402 66.7187 45.0943 66.4927 44.7723C66.4713 44.742 66.4563 44.7077 66.4485 44.6714C66.4406 44.6352 66.4401 44.5977 66.447 44.5613C66.4539 44.5248 66.468 44.4901 66.4885 44.4592C66.509 44.4283 66.5354 44.4018 66.5663 44.3813C66.5971 44.3599 66.6319 44.3447 66.6686 44.3368C66.7053 44.3289 66.7432 44.3284 66.7801 44.3352C66.817 44.3421 66.8522 44.3562 66.8836 44.3767C66.915 44.3973 66.942 44.4239 66.963 44.455C67.8753 45.798 67.6373 46.0587 67.5297 46.155C67.4568 46.2324 67.369 46.2944 67.2717 46.3372C67.1743 46.38 67.0693 46.4029 66.963 46.4043Z" fill="#323D4B"/>
<path d="M65.9887 44.7534C66.0638 44.7511 66.1203 44.6072 66.1149 44.432C66.1095 44.2568 66.0443 44.1167 65.9692 44.119C65.8941 44.1213 65.8376 44.2652 65.843 44.4404C65.8484 44.6155 65.9136 44.7557 65.9887 44.7534Z" fill="#323D4B"/>
<path d="M67.8145 44.635C67.8896 44.6327 67.9461 44.4889 67.9407 44.3137C67.9353 44.1385 67.8701 43.9984 67.795 44.0007C67.7199 44.003 67.6634 44.1469 67.6688 44.322C67.6742 44.4972 67.7394 44.6374 67.8145 44.635Z" fill="#323D4B"/>
<path d="M65.1213 45.2087C64.9665 45.0073 64.7741 44.8379 64.5547 44.71C64.447 44.6287 64.3156 44.5849 64.1807 44.5853C64.0711 44.595 63.9668 44.6364 63.8803 44.7043C63.7502 44.7996 63.6413 44.9208 63.5603 45.0602C63.4794 45.1997 63.4282 45.3544 63.41 45.5147C63.3931 45.6649 63.4146 45.817 63.4723 45.9567C63.572 46.1703 63.7449 46.3412 63.9597 46.4383C64.1723 46.5388 64.3971 46.6112 64.6283 46.6537" fill="white"/>
<path d="M64.6567 46.9483H64.5887C64.3355 46.9018 64.0897 46.8218 63.8577 46.7103C63.5801 46.5817 63.3573 46.3588 63.2287 46.0813C63.1558 45.9019 63.1286 45.7072 63.1493 45.5147C63.1684 45.3148 63.2285 45.121 63.326 44.9454C63.4236 44.7699 63.5563 44.6164 63.716 44.4947C63.8576 44.3816 64.0334 44.3199 64.2147 44.3199C64.3959 44.3199 64.5717 44.3816 64.7133 44.4947C64.9533 44.6426 65.1629 44.835 65.331 45.0613C65.3533 45.0922 65.3693 45.1272 65.3782 45.1643C65.387 45.2013 65.3884 45.2398 65.3823 45.2774C65.3763 45.315 65.3629 45.3511 65.3429 45.3835C65.3229 45.416 65.2967 45.4442 65.2658 45.4665C65.2349 45.4888 65.2 45.5048 65.1629 45.5137C65.1258 45.5225 65.0874 45.5239 65.0498 45.5178C65.0121 45.5118 64.9761 45.4984 64.9436 45.4784C64.9112 45.4584 64.883 45.4322 64.8607 45.4013C64.7354 45.2344 64.582 45.0906 64.4073 44.9763C64.3474 44.9325 64.2771 44.9052 64.2033 44.897C64.1489 44.9057 64.0979 44.9292 64.056 44.965C63.9597 45.0355 63.8792 45.1253 63.8196 45.2288C63.7601 45.3322 63.7229 45.447 63.7103 45.5657C63.6975 45.6671 63.7092 45.77 63.7443 45.866C63.8196 46.0145 63.9437 46.1325 64.0957 46.2003C64.2901 46.2865 64.4935 46.3511 64.702 46.393C64.7629 46.4167 64.8142 46.46 64.8478 46.5161C64.8814 46.5721 64.8954 46.6378 64.8876 46.7027C64.8799 46.7676 64.8507 46.8281 64.8048 46.8746C64.7589 46.9211 64.6988 46.951 64.634 46.9597L64.6567 46.9483Z" fill="#323D4B"/>
<path d="M68.0397 46.7047L66.13 46.8917C66.2268 47.0419 66.3591 47.166 66.5153 47.253C66.6714 47.34 66.8466 47.3872 67.0253 47.3903C67.4396 47.3021 67.8034 47.0562 68.0397 46.7047Z" fill="#323D4B"/>
<path d="M95.5514 44.2283H76.9647C76.8896 44.2283 76.8175 44.1985 76.7644 44.1453C76.7112 44.0922 76.6814 44.0201 76.6814 43.945C76.6814 43.8699 76.7112 43.7978 76.7644 43.7447C76.8175 43.6915 76.8896 43.6617 76.9647 43.6617H95.5514C95.6265 43.6617 95.6986 43.6915 95.7517 43.7447C95.8049 43.7978 95.8347 43.8699 95.8347 43.945C95.8347 44.0201 95.8049 44.0922 95.7517 44.1453C95.6986 44.1985 95.6265 44.2283 95.5514 44.2283Z" fill="white"/>
<path d="M95.5514 49.1243H76.9647C76.8896 49.1243 76.8175 49.0945 76.7644 49.0413C76.7112 48.9882 76.6814 48.9161 76.6814 48.841C76.6814 48.7659 76.7112 48.6938 76.7644 48.6407C76.8175 48.5875 76.8896 48.5577 76.9647 48.5577H95.5514C95.6265 48.5577 95.6986 48.5875 95.7517 48.6407C95.8049 48.6938 95.8347 48.7659 95.8347 48.841C95.8347 48.9161 95.8049 48.9882 95.7517 49.0413C95.6986 49.0945 95.6265 49.1243 95.5514 49.1243Z" fill="white"/>
<path d="M91.1031 54.026H76.9364C76.8613 54.026 76.7892 53.9961 76.7361 53.943C76.6829 53.8899 76.6531 53.8178 76.6531 53.7427C76.6531 53.6675 76.6829 53.5954 76.7361 53.5423C76.7892 53.4892 76.8613 53.4593 76.9364 53.4593H91.1031C91.1782 53.4593 91.2503 53.4892 91.3034 53.5423C91.3566 53.5954 91.3864 53.6675 91.3864 53.7427C91.3864 53.8178 91.3566 53.8899 91.3034 53.943C91.2503 53.9961 91.1782 54.026 91.1031 54.026Z" fill="white"/>
<path d="M95.8177 61.6363C95.8177 61.6363 104.573 61.7667 104.442 61.6363C104.312 61.506 97.5178 55.403 97.5178 55.403L95.8177 61.6363Z" fill="#323D4B"/>
<path d="M130.152 50.7337L167.524 50.7337C169.868 50.7337 171.768 48.8334 171.768 46.4893V29.393C171.768 27.0489 169.868 25.1487 167.524 25.1487L130.152 25.1487C127.808 25.1487 125.908 27.0489 125.908 29.393V46.4893C125.908 48.8334 127.808 50.7337 130.152 50.7337Z" fill="#323D4B"/>
<path d="M138.136 44.9253C142.562 44.9253 146.149 41.3379 146.149 36.9127C146.149 32.4874 142.562 28.9 138.136 28.9C133.711 28.9 130.124 32.4874 130.124 36.9127C130.124 41.3379 133.711 44.9253 138.136 44.9253Z" fill="white"/>
<path d="M167.631 33.32H149.033C148.958 33.32 148.886 33.2901 148.833 33.237C148.78 33.1839 148.75 33.1118 148.75 33.0367C148.75 32.9615 148.78 32.8894 148.833 32.8363C148.886 32.7832 148.958 32.7533 149.033 32.7533H167.62C167.695 32.7533 167.767 32.7832 167.82 32.8363C167.873 32.8894 167.903 32.9615 167.903 33.0367C167.903 33.1118 167.873 33.1839 167.82 33.237C167.767 33.2901 167.695 33.32 167.62 33.32H167.631Z" fill="white"/>
<path d="M167.631 38.2217H149.033C148.958 38.2217 148.886 38.1918 148.833 38.1387C148.78 38.0855 148.75 38.0135 148.75 37.9383C148.75 37.8632 148.78 37.7911 148.833 37.738C148.886 37.6848 148.958 37.655 149.033 37.655H167.62C167.695 37.655 167.767 37.6848 167.82 37.738C167.873 37.7911 167.903 37.8632 167.903 37.9383C167.903 38.0116 167.875 38.082 167.824 38.1348C167.774 38.1876 167.704 38.2187 167.631 38.2217Z" fill="white"/>
<path d="M163.2 43.1233H149.033C148.958 43.1233 148.886 43.0935 148.833 43.0404C148.78 42.9872 148.75 42.9151 148.75 42.84C148.75 42.7649 148.78 42.6928 148.833 42.6397C148.886 42.5865 148.958 42.5567 149.033 42.5567H163.2C163.275 42.5567 163.347 42.5865 163.4 42.6397C163.453 42.6928 163.483 42.7649 163.483 42.84C163.483 42.9151 163.453 42.9872 163.4 43.0404C163.347 43.0935 163.275 43.1233 163.2 43.1233Z" fill="white"/>
<path d="M130.152 50.728C130.152 50.728 121.403 50.8583 121.527 50.728C121.652 50.5977 128.452 44.4947 128.452 44.4947L130.152 50.728Z" fill="#323D4B"/>
<path d="M136.567 30.3167H136.782C137.12 30.3889 137.449 30.4991 137.762 30.6453C138.034 30.4929 138.337 30.4063 138.648 30.3925C138.959 30.3787 139.269 30.4382 139.553 30.566C141.451 31.246 144.653 35.3317 142.84 37.366C142.41 37.7263 141.875 37.9371 141.315 37.9667C139.736 38.2325 138.131 38.318 136.533 38.2217C135.945 38.2226 135.364 38.0929 134.833 37.842C133.263 36.9863 134.187 33.6147 134.782 32.3113C135.037 31.6979 135.381 31.1251 135.802 30.6113C136.018 30.433 136.287 30.3296 136.567 30.3167Z" fill="white"/>
<path d="M137.813 38.5333C137.383 38.5333 136.946 38.5333 136.516 38.4937C135.896 38.4866 135.285 38.3455 134.725 38.08C132.997 37.1393 133.875 33.7223 134.566 32.215C134.825 31.576 135.185 30.9829 135.632 30.4583C135.888 30.2284 136.212 30.0891 136.555 30.0617H136.799C137.132 30.1253 137.456 30.2241 137.768 30.3563C138.067 30.2259 138.389 30.1586 138.714 30.1586C139.04 30.1586 139.362 30.2259 139.661 30.3563C141.049 30.855 143.061 32.9913 143.548 35.0087C143.688 35.4393 143.716 35.8985 143.629 36.3428C143.541 36.7871 143.342 37.2017 143.049 37.5473C142.581 37.9744 141.982 38.2318 141.349 38.2783C140.18 38.4622 138.997 38.5475 137.813 38.5333ZM136.612 30.6C136.387 30.6134 136.173 30.6988 136 30.8437C135.6 31.3284 135.275 31.871 135.037 32.453C134.368 33.9093 133.66 36.9297 134.974 37.6493C135.475 37.871 136.019 37.9793 136.567 37.9667C138.146 38.0681 139.733 37.9844 141.293 37.7173C141.807 37.6858 142.296 37.4868 142.687 37.1507C142.924 36.8696 143.084 36.5315 143.15 36.1697C143.217 35.808 143.188 35.4351 143.066 35.088C142.613 33.2577 140.749 31.2403 139.508 30.7983C139.261 30.6911 138.993 30.6395 138.724 30.6474C138.454 30.6552 138.19 30.7222 137.949 30.8437C137.905 30.8781 137.85 30.8968 137.794 30.8968C137.737 30.8968 137.682 30.8781 137.638 30.8437C137.366 30.7367 137.088 30.6459 136.805 30.5717H136.635L136.612 30.6Z" fill="#323D4B"/>
<path d="M135.394 45.39C135.626 42.8797 135.802 39.7233 135.802 39.6667L139.309 39.8083L139.06 45.39L145.82 44.2C145.261 42.9724 144.569 41.8095 143.758 40.732C142.177 38.607 138.714 38.59 138.624 38.59C138.714 38.59 140.278 38.59 135.79 38.335C130.934 38.0573 129.489 43.843 129.489 43.843L130.18 44.2L135.394 45.39Z" fill="#323D4B"/>
<path d="M136.3 37.6833L135.904 39.8593C135.9 40.0311 135.935 40.2015 136.006 40.3577C136.078 40.5139 136.184 40.6518 136.316 40.761C136.449 40.8701 136.605 40.9477 136.772 40.9879C136.939 41.028 137.113 41.0296 137.281 40.9927C137.695 40.9556 138.096 40.8278 138.456 40.6182C138.815 40.4086 139.124 40.1224 139.36 39.78L139.802 37.0827C140.023 36.0744 140.187 35.0547 140.295 34.0283C139.241 34.3683 137.944 33.0367 137.615 32.1753C137.532 32.4419 137.52 32.7253 137.578 32.9983C137.637 33.2712 137.765 33.5244 137.949 33.7337C137.656 33.6309 137.392 33.4611 137.176 33.2377C136.961 33.0144 136.8 32.7437 136.708 32.4473C136.395 32.6824 136.104 32.944 135.836 33.2293C135.603 33.5574 135.425 33.921 135.309 34.306C135.105 34.9747 134.929 36.006 135.269 36.6407C135.463 37.1099 135.833 37.4843 136.3 37.6833Z" fill="white"/>
<path d="M137.133 41.2817C136.753 41.2992 136.381 41.167 136.096 40.9133C135.82 40.6293 135.664 40.2498 135.66 39.8537C135.66 39.8197 135.926 38.3803 136.028 37.8363C135.609 37.5901 135.272 37.2254 135.059 36.788C134.634 35.9663 134.929 34.748 135.059 34.2607C135.186 33.855 135.378 33.4723 135.626 33.1273C135.626 33.1273 136.465 32.198 136.759 32.2433C136.808 32.2501 136.854 32.2708 136.891 32.303C136.928 32.3352 136.955 32.3774 136.969 32.4247C137.039 32.6602 137.161 32.8771 137.326 33.0593C137.268 32.7553 137.288 32.4415 137.383 32.147C137.399 32.096 137.43 32.0512 137.473 32.0188C137.516 31.9863 137.567 31.9678 137.621 31.9657C137.675 31.9654 137.727 31.9816 137.772 32.0119C137.816 32.0423 137.851 32.0854 137.87 32.1357C138.153 32.8837 139.349 34.119 140.227 33.8357C140.267 33.8221 140.31 33.8186 140.351 33.8256C140.393 33.8325 140.432 33.8496 140.465 33.8753C140.498 33.9005 140.525 33.9332 140.542 33.9707C140.56 34.0081 140.569 34.0492 140.567 34.0907C140.51 34.8072 140.404 35.519 140.25 36.2213C140.188 36.5443 140.125 36.8617 140.074 37.179L139.627 39.8707C139.621 39.9046 139.61 39.9373 139.593 39.967C139.338 40.3443 139.003 40.6598 138.611 40.8902C138.218 41.1207 137.779 41.2602 137.326 41.2987L137.133 41.2817ZM136.176 39.9047C136.192 40.142 136.29 40.3664 136.453 40.5393C136.568 40.6314 136.701 40.6986 136.844 40.7366C136.986 40.7746 137.135 40.7827 137.281 40.7603C137.646 40.7309 138.001 40.6217 138.32 40.4407C138.639 40.2596 138.915 40.0109 139.128 39.712L139.564 37.0713C139.621 36.754 139.683 36.4253 139.746 36.1023C139.859 35.5357 139.972 34.9407 140.029 34.3683C139.604 34.3299 139.192 34.1989 138.823 33.9845C138.454 33.7701 138.137 33.4776 137.893 33.1273C137.95 33.2983 138.04 33.4563 138.159 33.592C138.194 33.6362 138.214 33.6912 138.214 33.7478C138.214 33.8045 138.194 33.8594 138.159 33.9037C138.129 33.9531 138.082 33.9907 138.028 34.0103C137.973 34.0298 137.914 34.0302 137.859 34.0113C137.307 33.8092 136.853 33.4038 136.589 32.878C136.374 33.0707 136.091 33.3427 136.023 33.405C135.811 33.7081 135.648 34.0428 135.541 34.3967C135.268 35.0811 135.247 35.8407 135.484 36.5387C135.653 36.9329 135.965 37.2486 136.357 37.4227C136.419 37.44 136.472 37.4799 136.505 37.5345C136.539 37.5891 136.551 37.6544 136.538 37.7173C136.538 37.757 136.153 39.8083 136.142 39.8933L136.176 39.9047Z" fill="#323D4B"/>
<path d="M139.717 35.5527C139.782 35.3976 139.898 35.2695 140.046 35.19C140.184 35.1176 140.334 35.0697 140.488 35.0483C140.572 35.029 140.659 35.029 140.743 35.0483C140.802 35.0672 140.856 35.098 140.902 35.139C141.019 35.2192 141.102 35.3405 141.134 35.479C141.149 35.5939 141.136 35.7107 141.094 35.819C141.062 35.9406 141.012 36.057 140.947 36.1647C140.818 36.3701 140.615 36.5181 140.38 36.5783C140.133 36.63 139.875 36.5832 139.661 36.448" fill="white"/>
<path d="M140.154 36.8333C139.926 36.8333 139.703 36.7663 139.513 36.6407C139.485 36.6263 139.46 36.6061 139.44 36.5816C139.42 36.557 139.406 36.5285 139.398 36.498C139.389 36.4674 139.388 36.4355 139.392 36.4042C139.397 36.3729 139.409 36.343 139.426 36.3164C139.443 36.2897 139.465 36.267 139.492 36.2495C139.518 36.2321 139.548 36.2204 139.579 36.2152C139.61 36.21 139.642 36.2114 139.673 36.2193C139.704 36.2271 139.732 36.2414 139.757 36.261C139.836 36.3133 139.925 36.3493 140.019 36.3668C140.112 36.3843 140.208 36.383 140.301 36.363C140.394 36.3429 140.482 36.3045 140.56 36.25C140.638 36.1955 140.704 36.1261 140.754 36.0457C140.812 35.9572 140.854 35.8595 140.879 35.7567C140.909 35.6851 140.921 35.6072 140.913 35.53C140.89 35.4434 140.836 35.3686 140.76 35.3203C140.738 35.2987 140.711 35.2831 140.681 35.275C140.63 35.2639 140.578 35.2639 140.528 35.275C140.398 35.2923 140.271 35.3306 140.154 35.3883C140.051 35.4486 139.969 35.5398 139.921 35.649C139.913 35.6801 139.898 35.709 139.877 35.7338C139.856 35.7586 139.83 35.7786 139.801 35.7927C139.772 35.8067 139.741 35.8143 139.708 35.8151C139.676 35.8159 139.644 35.8098 139.614 35.7972C139.585 35.7845 139.558 35.7657 139.536 35.742C139.514 35.7182 139.498 35.6901 139.488 35.6594C139.478 35.6287 139.474 35.5963 139.478 35.5642C139.481 35.5321 139.491 35.5011 139.508 35.4733C139.595 35.2733 139.744 35.1065 139.933 34.9973C140.093 34.9113 140.268 34.8556 140.448 34.833C140.566 34.8046 140.688 34.8046 140.805 34.833C140.89 34.8602 140.968 34.9025 141.038 34.9577C141.199 35.075 141.313 35.2457 141.361 35.4393C141.38 35.5905 141.362 35.744 141.31 35.887C141.273 36.027 141.216 36.1607 141.14 36.2837C141.035 36.4526 140.891 36.5928 140.718 36.6917C140.546 36.7907 140.352 36.8452 140.154 36.8503V36.8333Z" fill="#323D4B"/>
<path d="M136.952 34.4307C136.952 34.4307 136.04 35.3203 136.17 35.564C136.3 35.8077 136.788 35.7453 136.788 35.7453" fill="white"/>
<path d="M136.72 35.972C136.577 35.9846 136.434 35.9634 136.301 35.9103C136.168 35.8571 136.049 35.7734 135.955 35.666C135.887 35.5527 135.717 35.2807 136.776 34.2493C136.8 34.2255 136.827 34.2066 136.858 34.1937C136.889 34.1807 136.922 34.1741 136.955 34.1741C136.988 34.1741 137.021 34.1807 137.052 34.1937C137.082 34.2066 137.11 34.2255 137.133 34.2493C137.18 34.297 137.206 34.3611 137.206 34.4278C137.206 34.4946 137.18 34.5587 137.133 34.6063C136.869 34.8495 136.635 35.1234 136.436 35.4223C136.549 35.4546 136.665 35.468 136.782 35.462C136.842 35.4711 136.898 35.5015 136.937 35.5478C136.977 35.5941 136.999 35.6531 136.999 35.7142C136.999 35.7752 136.977 35.8343 136.937 35.8805C136.898 35.9268 136.842 35.9573 136.782 35.9663L136.72 35.972Z" fill="#323D4B"/>
<path d="M138.273 34.7945C138.329 34.6724 138.304 34.5404 138.216 34.4997C138.127 34.459 138.01 34.525 137.954 34.6472C137.897 34.7693 137.923 34.9014 138.011 34.9421C138.099 34.9828 138.216 34.9167 138.273 34.7945Z" fill="#323D4B"/>
<path d="M136.343 34.4567C136.4 34.3346 136.374 34.2025 136.286 34.1618C136.198 34.1211 136.081 34.1872 136.024 34.3094C135.968 34.4315 135.994 34.5635 136.082 34.6042C136.17 34.6449 136.287 34.5789 136.343 34.4567Z" fill="#323D4B"/>
<path d="M136 36.142L137.57 36.2383C137.57 36.3421 137.546 36.4446 137.501 36.5381C137.456 36.6317 137.391 36.7139 137.31 36.7787C137.229 36.8434 137.134 36.8891 137.033 36.9123C136.932 36.9355 136.827 36.9356 136.725 36.9127C136.531 36.896 136.349 36.8081 136.215 36.666C136.082 36.5238 136.005 36.3372 136 36.142Z" fill="#323D4B"/>
</svg>
