<svg width="223" height="170" viewBox="0 0 223 170" fill="none" xmlns="http://www.w3.org/2000/svg">
<path d="M36.3936 49.8222C44.207 49.8222 50.541 43.4941 50.541 35.6879C50.541 27.8817 44.207 21.5535 36.3936 21.5535C28.5801 21.5535 22.2461 27.8817 22.2461 35.6879C22.2461 43.4941 28.5801 49.8222 36.3936 49.8222Z" fill="white"/>
<path d="M36.3939 50.1803C33.5246 50.1817 30.7194 49.3329 28.333 47.7413C25.9466 46.1498 24.0862 43.8869 22.9872 41.2388C21.8882 38.5908 21.5999 35.6767 22.1588 32.865C22.7177 30.0533 24.0987 27.4703 26.127 25.4428C28.1554 23.4153 30.7401 22.0343 33.5542 21.4745C36.3682 20.9148 39.2852 21.2013 41.9362 22.298C44.5872 23.3947 46.8532 25.2522 48.4474 27.6356C50.0416 30.019 50.8926 32.8213 50.8926 35.6879C50.8888 39.5291 49.3603 43.212 46.6423 45.9288C43.9243 48.6456 40.2387 50.1746 36.3939 50.1803V50.1803ZM36.3939 21.9187C33.6661 21.9173 30.9991 22.7243 28.7304 24.2375C26.4617 25.7507 24.6932 27.9022 23.6486 30.4198C22.6041 32.9374 22.3304 35.7079 22.8622 38.3809C23.3941 41.0539 24.7075 43.5093 26.6364 45.4364C28.5652 47.3635 31.0229 48.6757 33.6984 49.207C36.3739 49.7384 39.147 49.4649 41.6669 48.4214C44.1869 47.3778 46.3404 45.6109 47.855 43.3443C49.3696 41.0777 50.1773 38.4132 50.1759 35.6879C50.1702 32.0378 48.7163 28.5389 46.133 25.9579C43.5496 23.3769 40.0474 21.9244 36.3939 21.9187V21.9187Z" fill="#7B8794"/>
<path d="M135.469 64.9448L182.348 81.349L157.729 87.6572L128.89 73.4154L135.469 64.9448Z" fill="#323D4B"/>
<path d="M157.751 87.9722C157.706 87.9828 157.659 87.9828 157.615 87.9722L128.775 73.7304C128.732 73.7095 128.695 73.6794 128.665 73.6423C128.635 73.6051 128.614 73.5619 128.603 73.5156C128.593 73.4699 128.593 73.4226 128.603 73.3768C128.612 73.3311 128.632 73.288 128.66 73.2507L135.218 64.7443C135.26 64.6922 135.317 64.6541 135.381 64.6349C135.445 64.6157 135.513 64.6164 135.576 64.6369L182.455 81.041C182.519 81.0641 182.574 81.1073 182.612 81.164C182.649 81.2208 182.667 81.2882 182.663 81.3561C182.66 81.423 182.636 81.4872 182.593 81.5389C182.55 81.5906 182.492 81.627 182.427 81.6425L157.808 87.9579L157.751 87.9722ZM129.377 73.3366L157.751 87.3206L181.244 81.2988L135.584 65.3171L129.377 73.3366Z" fill="#323D4B"/>
<path d="M80.5493 119.52C80.5493 119.52 55.6944 127.046 43.3172 119.52C43.3172 119.52 52.7775 131.32 65.6493 130.003C78.521 128.685 80.5493 119.52 80.5493 119.52Z" fill="#7B8794"/>
<path d="M89.2137 112.997C89.2137 112.997 70.2716 131.335 48.7637 126.509C18.8992 119.85 -4.10656 84.3705 15.8891 39.8695C15.8891 39.8695 -4.89492 70.0285 5.85544 103.667C20.5906 149.715 56.1815 147.81 92.4173 138.409" fill="#7B8794"/>
<path d="M140.715 30.153C140.715 30.153 135.304 54.7628 135.469 64.9447C135.469 65.4459 137.082 66.699 137.118 67.0928C137.899 76.1792 108.565 68.5249 108.565 68.5249C108.565 68.5249 107.475 49.2566 109.661 42.3613C111.847 35.466 114.191 33.9551 114.191 33.9551C114.191 33.9551 133.814 26.2507 137.261 27.3319C140.708 28.4131 140.715 30.153 140.715 30.153Z" fill="#CBD2D9"/>
<path d="M130.187 40.6572L167.505 21.1025L164.531 11.5221L124.626 31.7284L130.187 40.6572Z" fill="#CBD2D9"/>
<path d="M77.0018 119.8C77.0018 119.8 76.45 123.788 79.6464 131.8C82.8428 139.812 85.9891 142.319 85.9891 142.319L97.3558 140.886L86.2113 112.961L77.0018 119.8Z" fill="#323D4B"/>
<path d="M85.9887 142.634C85.9188 142.634 85.8508 142.611 85.7952 142.569C85.6662 142.462 82.5414 139.913 79.345 131.915C76.1486 123.917 76.6574 119.921 76.6789 119.742C76.6851 119.701 76.6997 119.661 76.7219 119.625C76.7441 119.589 76.7734 119.559 76.8079 119.535L86.0174 112.732C86.0557 112.703 86.1003 112.684 86.1476 112.675C86.1949 112.666 86.2436 112.669 86.2897 112.682C86.3368 112.694 86.3804 112.717 86.4166 112.75C86.4528 112.782 86.4805 112.823 86.4976 112.868L97.6421 140.793C97.6631 140.837 97.674 140.885 97.674 140.933C97.674 140.981 97.6631 141.029 97.6421 141.073C97.6177 141.113 97.5844 141.148 97.5447 141.174C97.5049 141.2 97.4599 141.217 97.4128 141.223L86.046 142.619L85.9887 142.634ZM77.3024 119.971C77.2451 120.687 77.1232 124.64 79.9398 131.678C82.7564 138.717 85.5444 141.495 86.089 141.989L96.9111 140.664L86.0819 113.491L77.3024 119.971Z" fill="#323D4B"/>
<path d="M133.57 138.409C133.57 138.409 130.402 147.524 120.268 156.073C110.134 164.623 84.6127 169.678 84.6127 169.678L98.6025 140.457L133.57 138.409Z" fill="white"/>
<path d="M84.6486 170C84.5947 170 84.5414 169.988 84.4929 169.965C84.4445 169.941 84.4021 169.907 84.3691 169.864C84.3275 169.811 84.3015 169.747 84.2939 169.68C84.2864 169.613 84.2975 169.546 84.3261 169.484L98.2657 140.271C98.2936 140.214 98.3361 140.165 98.389 140.13C98.4419 140.094 98.5032 140.074 98.5667 140.07L133.534 138.051C133.593 138.046 133.653 138.057 133.707 138.082C133.761 138.107 133.808 138.146 133.842 138.194C133.877 138.241 133.901 138.295 133.911 138.352C133.921 138.409 133.917 138.468 133.9 138.524C133.864 138.617 130.581 147.832 120.483 156.345C110.385 164.859 84.9281 169.95 84.6486 170ZM98.8749 140.765L85.2578 169.148C89.4361 168.26 111.059 163.42 120.046 155.794C128.646 148.548 132.23 140.815 133.04 138.788L98.8749 140.765Z" fill="#323D4B"/>
<path d="M114.219 89.9269C114.219 89.9269 105.662 86.891 92.4175 87.6571C79.1731 88.4233 57.1779 100.918 57.1779 100.918L87.458 112.503L114.219 89.9269Z" fill="white"/>
<path d="M87.4578 112.861C87.415 112.868 87.3715 112.868 87.3288 112.861L57.0486 101.261C56.986 101.236 56.9315 101.194 56.8911 101.139C56.8507 101.085 56.8259 101.021 56.8192 100.954C56.8143 100.886 56.8286 100.819 56.8603 100.76C56.892 100.7 56.9399 100.651 56.9984 100.617C57.2206 100.488 79.2158 88.0651 92.3958 87.3061C105.576 86.5471 114.255 89.5616 114.334 89.5902C114.394 89.6105 114.449 89.6466 114.491 89.6948C114.533 89.743 114.561 89.8015 114.573 89.8644C114.584 89.9272 114.579 89.9921 114.557 90.0521C114.535 90.1122 114.498 90.1654 114.448 90.206L87.6871 112.782C87.6209 112.832 87.5406 112.86 87.4578 112.861V112.861ZM58.0233 100.86L87.4076 112.088L113.509 90.07C111.359 89.4184 103.476 87.3706 92.4603 88.015C80.7065 88.6952 61.8002 98.784 58.0233 100.86Z" fill="#323D4B"/>
<path d="M80.5707 110.19C91.7009 99.2926 109.654 88.0725 131.191 79.4873C163.829 66.4843 188.003 77.7044 196.008 82.4302C196.878 82.944 197.554 83.7315 197.928 84.6694C198.303 85.6073 198.356 86.6429 198.079 87.6142C195.528 96.5502 185.709 121.303 153.071 134.306C131.535 142.899 110.786 147.094 95.2055 146.837C95.2055 146.837 90.1887 142.404 85.0787 129.652C79.9687 116.9 80.5707 110.19 80.5707 110.19Z" fill="white"/>
<path d="M96.5451 147.209H95.1977C95.1111 147.21 95.0271 147.179 94.9612 147.123C94.7534 146.937 89.8154 142.483 84.7484 129.781C79.6814 117.079 80.1902 110.448 80.2117 110.169C80.2207 110.085 80.2587 110.006 80.3192 109.947C91.8723 98.6338 110.363 87.4137 131.061 79.1579C163.463 66.2695 187.4 76.9311 196.194 82.1223C197.13 82.6768 197.857 83.5254 198.26 84.5357C198.663 85.5459 198.72 86.6611 198.423 87.7073C195.62 97.524 185.608 121.733 153.207 134.643C133.082 142.662 112.534 147.209 96.5451 147.209ZM95.3482 146.493C111.388 146.708 132.394 142.197 152.942 133.984C185.049 121.189 194.961 97.2304 197.735 87.5211C197.988 86.6264 197.939 85.6731 197.594 84.8094C197.249 83.9456 196.629 83.22 195.828 82.7452C187.128 77.6113 163.427 67.0356 131.326 79.831C110.779 88.0152 92.417 99.1637 80.9213 110.355C80.8783 111.336 80.7923 117.931 85.4149 129.509C90.0376 141.087 94.6387 145.798 95.3482 146.486V146.493Z" fill="#323D4B"/>
<path d="M198.079 87.6141C194.735 98.6617 188.65 108.686 180.391 116.756C180.391 116.756 173.432 112.002 167.383 96.8366C161.335 81.6711 163.083 73.444 163.083 73.444C174.634 73.6171 185.954 76.7085 195.987 82.4301C196.861 82.9407 197.541 83.7268 197.919 84.665C198.298 85.6032 198.354 86.6405 198.079 87.6141V87.6141Z" fill="white"/>
<path d="M180.392 117.114C180.32 117.113 180.25 117.091 180.191 117.05C179.904 116.849 173.074 112.038 167.047 97.0012C161.019 81.9647 162.682 73.7376 162.747 73.3724C162.764 73.2921 162.809 73.2202 162.872 73.1682C162.936 73.1162 163.015 73.0873 163.098 73.086C174.714 73.2486 186.097 76.358 196.18 82.1222C197.117 82.6767 197.843 83.5253 198.246 84.5356C198.65 85.5459 198.707 86.661 198.409 87.7072V87.7072C195.079 98.8175 188.981 108.901 180.685 117.014C180.647 117.051 180.6 117.08 180.55 117.097C180.499 117.114 180.445 117.12 180.392 117.114ZM163.406 73.8092C163.177 75.3916 162.403 83.3967 167.706 96.722C173.01 110.047 179.094 115.339 180.356 116.298C188.47 108.316 194.445 98.4223 197.728 87.5282V87.5282C197.982 86.6335 197.933 85.6802 197.588 84.8164C197.243 83.9527 196.622 83.227 195.822 82.7523C185.941 77.0968 174.792 74.021 163.406 73.8092V73.8092Z" fill="#323D4B"/>
<path d="M85.5514 108.658C85.5001 108.658 85.4494 108.647 85.4025 108.626C85.3557 108.605 85.3137 108.574 85.2791 108.536C85.2484 108.501 85.2251 108.46 85.2105 108.415C85.196 108.37 85.1906 108.323 85.1946 108.277C85.1987 108.23 85.212 108.185 85.2339 108.143C85.2558 108.102 85.2858 108.065 85.3221 108.035C93.3773 101.451 101.826 95.3636 110.621 89.8051C110.703 89.7565 110.799 89.7413 110.892 89.7627C110.984 89.784 111.064 89.8403 111.116 89.9197C111.141 89.9591 111.157 90.003 111.165 90.0489C111.173 90.0949 111.171 90.1418 111.161 90.1872C111.15 90.2325 111.13 90.2752 111.103 90.3129C111.076 90.3506 111.041 90.3824 111.001 90.4066C102.238 95.9488 93.8156 102.013 85.7808 108.565C85.7182 108.623 85.6367 108.656 85.5514 108.658V108.658Z" fill="white"/>
<path d="M113.044 145.863C112.954 145.863 112.867 145.83 112.8 145.77C112.7 145.677 103.017 136.461 98.2085 124.403C93.3995 112.346 94.0732 98.9988 94.0804 98.87C94.0812 98.822 94.0918 98.7747 94.1117 98.731C94.1315 98.6873 94.1601 98.6481 94.1957 98.6159C94.2313 98.5837 94.2732 98.5591 94.3187 98.5437C94.3642 98.5283 94.4123 98.5223 94.4602 98.5263C94.5546 98.5336 94.6425 98.5773 94.7053 98.648C94.7682 98.7188 94.801 98.8112 94.797 98.9058C94.797 99.0346 94.1305 112.245 98.875 124.138C103.62 136.032 113.209 145.154 113.295 145.247C113.328 145.28 113.355 145.32 113.373 145.363C113.391 145.407 113.401 145.454 113.401 145.501C113.401 145.548 113.391 145.595 113.373 145.639C113.355 145.682 113.328 145.722 113.295 145.755C113.228 145.822 113.138 145.861 113.044 145.863Z" fill="#323D4B"/>
<path d="M195.019 81.5422C195.019 81.5422 208.794 77.9621 209.611 80.0099C210.428 82.0578 197.972 88.9316 197.972 88.9316" fill="#323D4B"/>
<path d="M197.972 89.2467C197.903 89.2449 197.837 89.2208 197.784 89.1781C197.73 89.1354 197.692 89.0763 197.675 89.0099C197.658 88.9435 197.663 88.8734 197.689 88.8102C197.716 88.747 197.762 88.6941 197.821 88.6596C203.698 85.4088 209.769 81.2272 209.288 80.1245C208.808 79.0219 201.563 80.1603 195.069 81.8502C195.029 81.8605 194.987 81.8628 194.945 81.8569C194.904 81.851 194.864 81.837 194.828 81.8157C194.792 81.7944 194.761 81.7663 194.736 81.7329C194.711 81.6995 194.693 81.6615 194.682 81.621C194.672 81.5806 194.67 81.5385 194.676 81.4972C194.681 81.4559 194.696 81.4162 194.717 81.3803C194.738 81.3444 194.766 81.313 194.8 81.288C194.833 81.2629 194.871 81.2447 194.912 81.2344C198.208 80.3823 209.023 77.7617 209.876 79.8954C210.729 82.0292 201.075 87.5641 198.094 89.2038C198.056 89.2248 198.015 89.2393 197.972 89.2467V89.2467Z" fill="#323D4B"/>
<path d="M196.245 90.2276C194.358 87.7839 193.192 84.8628 192.876 81.7928C192.857 81.3095 193.02 80.8363 193.333 80.4675C193.646 80.0987 194.087 79.8612 194.568 79.8023C194.773 79.7554 194.985 79.7505 195.192 79.7879C195.399 79.8254 195.596 79.9044 195.772 80.0202C195.947 80.136 196.098 80.2862 196.213 80.4616C196.329 80.6371 196.408 80.8342 196.445 81.041C196.712 83.6847 197.707 86.2028 199.319 88.3158C199.436 88.4908 199.516 88.6878 199.554 88.8948C199.592 89.1017 199.588 89.3142 199.541 89.5193C199.494 89.7244 199.406 89.9178 199.281 90.0876C199.157 90.2574 198.999 90.4001 198.818 90.5069C198.431 90.7891 197.953 90.9168 197.477 90.8652C197.001 90.8135 196.562 90.5861 196.245 90.2276Z" fill="white"/>
<path d="M197.67 91.2373C197.342 91.2429 197.018 91.1736 196.721 91.0346C196.424 90.8956 196.163 90.6906 195.957 90.4353C194.04 87.9425 192.85 84.969 192.517 81.843C192.484 81.2648 192.673 80.6959 193.046 80.2526C193.419 79.8093 193.948 79.5253 194.524 79.4587C194.809 79.4143 195.099 79.4276 195.379 79.4977C195.658 79.5678 195.921 79.6933 196.151 79.8668C196.332 80.0043 196.484 80.1775 196.596 80.3758C196.708 80.574 196.779 80.7931 196.803 81.0196C197.074 83.6003 198.054 86.056 199.634 88.1154C199.773 88.2956 199.873 88.5024 199.928 88.7228C199.984 88.9433 199.993 89.1728 199.956 89.3971C199.911 89.6844 199.807 89.9595 199.652 90.2057C199.497 90.4519 199.293 90.664 199.053 90.8291C198.647 91.1075 198.163 91.2504 197.67 91.2373V91.2373ZM194.854 80.1317H194.617C194.228 80.1781 193.87 80.3684 193.614 80.6652C193.358 80.9621 193.222 81.3439 193.234 81.7356C193.55 84.7372 194.689 87.5937 196.523 89.9914V89.9914C196.785 90.2825 197.147 90.4652 197.537 90.5036C197.927 90.542 198.317 90.4334 198.631 90.199C198.791 90.0922 198.929 89.954 199.034 89.7929C199.14 89.6317 199.213 89.4508 199.247 89.261C199.266 89.1358 199.26 89.008 199.229 88.8851C199.198 88.7622 199.143 88.6466 199.068 88.545C197.406 86.3795 196.374 83.7977 196.086 81.084C196.071 80.9539 196.031 80.828 195.967 80.7137C195.903 80.5994 195.817 80.4989 195.714 80.4181C195.466 80.2314 195.163 80.1331 194.854 80.1389V80.1317Z" fill="#323D4B"/>
<path d="M115.889 139.791C115.794 139.797 115.7 139.764 115.629 139.701C115.558 139.638 115.515 139.549 115.509 139.454C115.503 139.359 115.536 139.266 115.599 139.195C115.662 139.124 115.751 139.081 115.846 139.075C116.168 139.039 148.133 135.208 173.582 114.608C173.656 114.549 173.75 114.521 173.844 114.53C173.938 114.54 174.024 114.586 174.084 114.658C174.142 114.734 174.169 114.828 174.16 114.923C174.151 115.017 174.106 115.104 174.034 115.167C148.419 135.932 116.254 139.748 115.932 139.784L115.889 139.791Z" fill="#7B8794"/>
<path d="M130.746 25.7066C131.383 25.4374 131.894 24.939 132.18 24.3103C133.363 22.4904 134.004 20.3724 134.029 18.2026C133.966 15.0243 132.665 11.9957 130.404 9.75925C128.143 7.52281 125.098 6.25454 121.917 6.22351L124.454 8.28567C122.28 8.20022 120.118 8.64984 118.158 9.59499C116.199 10.5401 114.501 11.9519 113.216 13.706C114.075 13.4554 114.993 13.4982 115.825 13.8277C114.528 14.1649 113.253 14.5785 112.005 15.0664C111.807 15.1203 111.631 15.2356 111.503 15.3958C111.399 15.6205 111.384 15.8763 111.46 16.1118C112.378 20.3722 115.574 24.3032 119.838 25.2053C120.555 25.3557 121.272 25.4202 122.039 25.5132C123.665 25.7209 125.271 26.0646 126.912 26.1505C127.942 26.2237 128.978 26.1489 129.987 25.9285C130.244 25.8703 130.498 25.7962 130.746 25.7066V25.7066Z" fill="white"/>
<path d="M127.65 26.5157H126.848C125.776 26.4395 124.709 26.3081 123.651 26.1218C123.085 26.0359 122.519 25.95 121.953 25.8784L121.422 25.814C120.863 25.7424 120.29 25.6779 119.724 25.5562C115.574 24.6826 112.113 20.9307 111.124 16.2479C111.07 16.0872 111.049 15.9172 111.064 15.7484C111.079 15.5796 111.129 15.4157 111.21 15.2669C111.372 15.0496 111.601 14.8912 111.862 14.8158C112.707 14.4793 113.568 14.1857 114.435 13.9208C114.047 13.9098 113.66 13.9605 113.288 14.0711C113.223 14.0901 113.154 14.0885 113.09 14.0668C113.025 14.045 112.97 14.004 112.93 13.9494C112.891 13.8924 112.87 13.825 112.87 13.7561C112.87 13.6871 112.891 13.6198 112.93 13.5628C114.157 11.8978 115.745 10.5322 117.576 9.56858C119.407 8.60499 121.433 8.06844 123.501 7.99924L121.688 6.52423C121.636 6.48044 121.599 6.4222 121.581 6.35708C121.563 6.29195 121.565 6.22295 121.587 6.15906C121.612 6.09559 121.655 6.04108 121.712 6.00273C121.768 5.96437 121.834 5.94398 121.903 5.94425C125.164 5.97663 128.286 7.27279 130.609 9.55954C132.933 11.8463 134.277 14.945 134.359 18.2026C134.343 20.4435 133.683 22.6328 132.459 24.5108C132.138 25.2013 131.571 25.7476 130.868 26.0431V26.0431C130.604 26.1503 130.331 26.2341 130.051 26.2937C129.263 26.4615 128.457 26.536 127.65 26.5157V26.5157ZM114.334 13.1904C114.882 13.1922 115.424 13.2966 115.933 13.4983C115.997 13.5258 116.051 13.572 116.088 13.6308C116.125 13.6896 116.143 13.7582 116.14 13.8277C116.134 13.8955 116.108 13.9599 116.064 14.0123C116.021 14.0647 115.962 14.1027 115.897 14.1213C114.609 14.4528 113.342 14.8641 112.105 15.3528C112.024 15.3554 111.944 15.3806 111.875 15.4256C111.807 15.4706 111.752 15.5336 111.717 15.6077C111.683 15.6818 111.669 15.7641 111.678 15.8455C111.687 15.9269 111.718 16.0042 111.769 16.0688C112.729 20.5368 115.99 24.0883 119.889 24.9118C120.426 25.0263 120.985 25.0908 121.523 25.1552L122.067 25.2197C122.634 25.2913 123.207 25.3843 123.78 25.4703C124.817 25.6533 125.862 25.7823 126.912 25.8569C127.912 25.9321 128.917 25.8573 129.894 25.6349C130.138 25.5808 130.378 25.5066 130.61 25.413V25.413C131.181 25.1751 131.638 24.7262 131.886 24.1599C133.045 22.3863 133.676 20.3205 133.707 18.2026C133.645 15.2795 132.508 12.4813 130.514 10.3418C128.519 8.20242 125.806 6.8715 122.892 6.60299L124.648 8.03504C124.7 8.07935 124.738 8.13883 124.756 8.20543C124.774 8.27202 124.771 8.34252 124.748 8.40737C124.727 8.47406 124.683 8.53129 124.624 8.56919C124.565 8.60709 124.495 8.6233 124.425 8.61502C122.449 8.54641 120.482 8.92634 118.673 9.72625C116.865 10.5262 115.261 11.7253 113.983 13.2334L114.334 13.1904Z" fill="#323D4B"/>
<path d="M122.01 32.1364C122.01 32.1364 122.139 39.626 125.665 39.8623C129.191 40.0986 129.249 33.239 129.249 33.239" fill="#323D4B"/>
<path d="M125.837 40.1846H125.643C121.866 39.934 121.694 32.4658 121.687 32.1508C121.68 32.1049 121.683 32.0581 121.696 32.0136C121.709 31.969 121.732 31.9278 121.762 31.8927C121.792 31.8575 121.83 31.8293 121.872 31.81C121.914 31.7907 121.96 31.7807 122.006 31.7807C122.053 31.7807 122.098 31.7907 122.141 31.81C122.183 31.8293 122.22 31.8575 122.251 31.8927C122.281 31.9278 122.303 31.969 122.316 32.0136C122.329 32.0581 122.332 32.1049 122.325 32.1508C122.325 32.2224 122.49 39.3468 125.686 39.5616C125.964 39.587 126.244 39.5514 126.506 39.4574C126.769 39.3634 127.008 39.2133 127.206 39.0175C128.883 37.4709 128.962 33.2893 128.962 33.2463C128.967 33.1651 129.002 33.0888 129.06 33.0319C129.119 32.9751 129.196 32.9418 129.277 32.9384C129.361 32.9384 129.441 32.9716 129.5 33.0307C129.559 33.0898 129.592 33.1699 129.592 33.2535C129.592 33.4396 129.514 37.7501 127.636 39.4829C127.149 39.9393 126.505 40.1907 125.837 40.1846Z" fill="#323D4B"/>
<path d="M128.948 28.5132L129.277 33.239C129.277 33.239 128.969 35.9026 126.038 35.2797C125.175 35.0877 124.366 34.7059 123.669 34.1622C122.972 33.6184 122.406 32.9264 122.01 32.1363C122.01 32.1363 121.293 20.8231 121.028 17.8158C123.134 17.5648 125.163 16.8744 126.984 15.7895C127.254 15.5823 127.551 15.4114 127.866 15.2811C128.453 15.1952 128.382 15.5245 128.64 15.9971C129.11 16.9015 129.866 17.6261 130.79 18.0593C130.908 18.0984 131.012 18.1704 131.091 18.2669C131.135 18.3458 131.16 18.4342 131.162 18.5247C131.463 21.2241 132.015 23.9092 131.628 26.6229C131.313 28.9428 128.948 28.5132 128.948 28.5132Z" fill="white"/>
<path d="M126.876 35.7023C126.573 35.7028 126.27 35.6692 125.973 35.602C125.057 35.4038 124.198 35.0014 123.46 34.4248C122.721 33.8483 122.123 33.1125 121.709 32.2725C121.702 32.2346 121.702 32.1958 121.709 32.1579C121.709 32.0434 120.992 20.8161 120.734 17.8374C120.728 17.7492 120.757 17.662 120.813 17.594C120.84 17.5614 120.874 17.535 120.913 17.5165C120.951 17.498 120.993 17.4878 121.035 17.4866C123.093 17.238 125.076 16.5598 126.855 15.496L127.099 15.3385C127.307 15.1597 127.551 15.0278 127.815 14.9518C127.921 14.9243 128.031 14.9186 128.139 14.935C128.246 14.9514 128.35 14.9896 128.442 15.0472C128.535 15.1049 128.615 15.1807 128.677 15.2702C128.739 15.3597 128.782 15.4609 128.804 15.5676C128.839 15.6712 128.882 15.7718 128.933 15.8683C129.364 16.7105 130.066 17.3837 130.926 17.7801C131.104 17.8448 131.259 17.9621 131.37 18.1167C131.439 18.2371 131.478 18.372 131.485 18.5105C131.549 19.0905 131.628 19.6704 131.7 20.2433C132.081 22.3694 132.166 24.5382 131.951 26.6875C131.921 27.0154 131.823 27.3336 131.664 27.622C131.505 27.9103 131.288 28.1626 131.026 28.363C130.514 28.6987 129.911 28.8687 129.299 28.8499L129.6 33.189C129.554 33.5836 129.43 33.9652 129.236 34.3118C129.041 34.6584 128.78 34.963 128.467 35.2082C128.004 35.5389 127.446 35.7121 126.876 35.7023ZM122.333 32.0577C122.713 32.7872 123.248 33.4252 123.9 33.9272C124.553 34.4292 125.306 34.7833 126.11 34.9647C126.414 35.0749 126.74 35.1148 127.062 35.0815C127.384 35.0482 127.695 34.9426 127.971 34.7725C128.246 34.6024 128.48 34.3723 128.654 34.0994C128.828 33.8264 128.938 33.5176 128.976 33.1962L128.647 28.542C128.643 28.4932 128.649 28.444 128.667 28.3982C128.684 28.3524 128.712 28.311 128.747 28.2771C128.784 28.2427 128.828 28.2171 128.877 28.2022C128.925 28.1873 128.976 28.1836 129.026 28.1911C129.594 28.2752 130.173 28.156 130.66 27.8546C130.85 27.7041 131.007 27.5166 131.121 27.3037C131.236 27.0907 131.306 26.8567 131.327 26.6159C131.523 24.5256 131.439 22.4186 131.076 20.3507C130.997 19.7707 130.926 19.1907 130.861 18.6036C130.861 18.6036 130.861 18.5033 130.861 18.4818L130.711 18.4031C129.703 17.9497 128.877 17.1703 128.367 16.1906C128.306 16.0719 128.251 15.95 128.202 15.8254C128.178 15.7512 128.146 15.6793 128.109 15.6106V15.6106C128.05 15.6042 127.989 15.6042 127.93 15.6106C127.759 15.6801 127.6 15.7742 127.457 15.8898C127.342 15.9614 127.242 16.0402 127.156 16.0832C125.396 17.1276 123.448 17.8184 121.422 18.1167C121.637 21.3674 122.275 31.1698 122.333 32.0577V32.0577Z" fill="#323D4B"/>
<path d="M129.083 30.8404C127.92 30.9325 126.766 30.5764 125.858 29.8452C125.486 29.5416 125.185 29.1609 124.974 28.7294C124.764 28.298 124.65 27.826 124.64 27.3462C125.955 28.0825 127.432 28.4833 128.94 28.5134L129.083 30.8404Z" fill="#323D4B"/>
<path d="M128.725 31.1697C127.594 31.1922 126.494 30.8028 125.629 30.0742C125.222 29.7391 124.894 29.3196 124.666 28.8447C124.438 28.3699 124.317 27.8512 124.31 27.3246C124.316 27.2711 124.335 27.2197 124.365 27.1748C124.395 27.13 124.435 27.0929 124.482 27.0669C124.529 27.0405 124.582 27.0267 124.636 27.0267C124.69 27.0267 124.743 27.0405 124.79 27.0669C126.055 27.7872 127.478 28.1856 128.933 28.2268C129.016 28.2265 129.095 28.2573 129.156 28.313C129.217 28.3687 129.255 28.4453 129.263 28.5276L129.384 30.8475C129.39 30.9281 129.364 31.0077 129.312 31.0693C129.26 31.131 129.185 31.1696 129.105 31.1769C128.978 31.1854 128.851 31.183 128.725 31.1697V31.1697ZM124.998 27.8903C125.165 28.5572 125.533 29.1569 126.052 29.6088C126.807 30.2298 127.761 30.5578 128.739 30.5324L128.646 28.8355C127.378 28.775 126.136 28.4532 124.998 27.8903V27.8903Z" fill="#323D4B"/>
<path d="M128.223 20.1286C128.223 20.1286 129.886 22.2767 129.549 22.7206C129.212 23.1646 128.187 22.9426 128.187 22.9426" fill="white"/>
<path d="M128.71 23.3078C128.515 23.3097 128.321 23.2905 128.13 23.2506C128.089 23.243 128.05 23.2275 128.015 23.2049C127.98 23.1823 127.95 23.1531 127.926 23.1188C127.903 23.0846 127.886 23.046 127.877 23.0054C127.869 22.9647 127.868 22.9227 127.876 22.8818C127.883 22.8409 127.899 22.8019 127.921 22.767C127.944 22.7321 127.973 22.7019 128.007 22.6783C128.042 22.6547 128.08 22.6381 128.121 22.6294C128.162 22.6207 128.204 22.6201 128.245 22.6276C128.596 22.6992 129.162 22.6992 129.305 22.5202C128.973 21.7342 128.523 21.0027 127.972 20.3507C127.947 20.3178 127.928 20.2802 127.917 20.2401C127.906 20.1999 127.903 20.158 127.908 20.1167C127.914 20.0755 127.927 20.0357 127.948 19.9996C127.969 19.9636 127.997 19.932 128.03 19.9067C128.063 19.8815 128.101 19.8632 128.141 19.8528C128.182 19.8424 128.224 19.8401 128.265 19.8461C128.307 19.8521 128.346 19.8662 128.382 19.8877C128.418 19.9092 128.449 19.9375 128.474 19.9712C129.678 21.5393 130.122 22.5417 129.8 22.9498C129.653 23.0812 129.48 23.1808 129.293 23.2424C129.105 23.304 128.907 23.3263 128.71 23.3078V23.3078Z" fill="#323D4B"/>
<path d="M128.015 25.7638H127.886C126.303 25.6779 125.113 24.1456 125.063 24.0812C125.037 24.0482 125.019 24.0107 125.008 23.9705C124.997 23.9304 124.994 23.8885 124.999 23.8473C125.005 23.8061 125.018 23.7663 125.039 23.7303C125.06 23.6942 125.087 23.6626 125.12 23.6372C125.153 23.6118 125.191 23.5932 125.231 23.5823C125.271 23.5715 125.313 23.5686 125.354 23.5739C125.395 23.5792 125.435 23.5926 125.471 23.6133C125.507 23.634 125.539 23.6616 125.564 23.6945C125.564 23.6945 126.632 25.0621 127.915 25.1265C128.254 25.1308 128.588 25.0575 128.894 24.9123C129.2 24.767 129.468 24.5538 129.678 24.2888C129.738 24.2319 129.818 24.2002 129.9 24.2002C129.983 24.2002 130.063 24.2319 130.123 24.2888C130.153 24.3182 130.177 24.3532 130.193 24.392C130.209 24.4307 130.218 24.4723 130.218 24.5143C130.218 24.5564 130.209 24.598 130.193 24.6367C130.177 24.6755 130.153 24.7105 130.123 24.7399C129.863 25.0492 129.542 25.3003 129.179 25.4767C128.815 25.6532 128.419 25.751 128.015 25.7638Z" fill="#323D4B"/>
<path d="M130.366 92.347L125.127 113.642C125.127 113.642 151.222 104.913 152.161 102.063C153.1 99.2136 138.666 102.493 138.666 102.493L139.69 96.4068L130.366 92.347Z" fill="white"/>
<path d="M125.127 114C125.073 113.999 125.02 113.986 124.972 113.962C124.923 113.938 124.881 113.903 124.848 113.861C124.815 113.818 124.792 113.768 124.781 113.716C124.769 113.663 124.77 113.608 124.783 113.556L130.015 92.261C130.027 92.2099 130.051 92.1621 130.084 92.121C130.117 92.08 130.158 92.0466 130.205 92.0234C130.252 92.0001 130.304 91.9876 130.357 91.9866C130.409 91.9856 130.462 91.9962 130.51 92.0176L139.827 96.0775C139.899 96.1105 139.959 96.1658 139.998 96.2354C140.037 96.305 140.052 96.3852 140.042 96.4641L139.117 102.028C141.984 101.398 150.885 99.5931 152.326 101.183C152.448 101.313 152.53 101.475 152.562 101.65C152.593 101.826 152.574 102.006 152.505 102.171C151.537 105.114 127.937 113.083 125.271 113.978C125.225 113.997 125.176 114.004 125.127 114ZM130.61 92.8482L125.636 113.09C135.67 109.703 151.186 103.861 151.824 101.949C151.874 101.777 151.824 101.713 151.788 101.662C150.806 100.581 143.267 101.813 138.744 102.844C138.687 102.856 138.628 102.854 138.572 102.837C138.515 102.821 138.464 102.791 138.422 102.751C138.379 102.71 138.346 102.659 138.328 102.603C138.309 102.547 138.304 102.487 138.314 102.429L139.296 96.6216L130.61 92.8482Z" fill="#323D4B"/>
<path d="M108.565 68.5321C108.565 68.5321 104.946 83.5686 112.091 85.6093C119.236 87.65 131.191 79.4873 131.191 79.4873L127.321 93.4569C127.321 93.4569 124.726 99.7651 128.489 99.4859C131.879 95.0966 136.509 93.9367 139.691 96.407C144.672 90.8864 153.415 73.5443 147.768 67.5941C142.12 61.6439 108.565 68.5321 108.565 68.5321Z" fill="#323D4B"/>
<path d="M128.252 99.8295C127.934 99.8511 127.616 99.7938 127.326 99.6626C127.036 99.5314 126.783 99.3305 126.589 99.0777C125.378 97.4165 126.962 93.5285 127.026 93.3495L130.66 80.2319C127.958 81.9575 118.283 87.7215 112.026 85.9601C104.673 83.8621 108.127 69.1263 108.278 68.5034C108.292 68.4449 108.322 68.3916 108.365 68.3497C108.408 68.3078 108.462 68.2792 108.521 68.2671C109.905 67.9807 142.321 61.4076 148.018 67.4222C153.716 73.4368 145.152 90.915 139.948 96.6575C139.896 96.718 139.822 96.7562 139.742 96.7642C139.662 96.7721 139.582 96.7494 139.518 96.7005C138.915 96.2303 138.224 95.8855 137.486 95.6863C136.747 95.487 135.976 95.4375 135.218 95.5405C132.925 95.8341 130.646 97.3163 128.768 99.7221C128.742 99.7573 128.709 99.7864 128.67 99.8075C128.632 99.8285 128.589 99.8409 128.546 99.8438L128.252 99.8295ZM131.19 79.1936C131.258 79.1942 131.323 79.2168 131.377 79.2581C131.43 79.2945 131.47 79.3465 131.492 79.4069C131.513 79.4672 131.516 79.5328 131.499 79.5946L127.65 93.5428C127.22 94.6097 126.295 97.5382 127.134 98.691C127.278 98.8697 127.466 99.0084 127.679 99.0936C127.893 99.1789 128.124 99.2079 128.352 99.1779C130.302 96.7076 132.695 95.1825 135.118 94.8818C136.722 94.6533 138.354 95.0479 139.676 95.9845C144.621 90.3064 152.899 73.444 147.56 67.816C142.22 62.1881 111.632 68.2528 108.858 68.8113C108.471 70.5655 105.863 83.5041 112.205 85.2799C119.114 87.2489 130.925 79.2796 131.04 79.2008C131.087 79.1796 131.139 79.1698 131.19 79.1722V79.1936Z" fill="#323D4B"/>
<path d="M125.127 113.642C125.127 113.642 127.994 116.448 136.164 113.642C144.335 110.835 154.655 103.309 152.161 102.064C149.667 100.818 127.894 109.711 125.127 113.642Z" fill="#323D4B"/>
<path d="M129.664 115.21C126.346 115.21 124.991 113.942 124.913 113.864C124.858 113.812 124.823 113.742 124.815 113.668C124.808 113.593 124.827 113.517 124.87 113.456C127.593 109.596 149.388 100.316 152.304 101.777C152.482 101.858 152.63 101.991 152.729 102.159C152.828 102.327 152.872 102.521 152.856 102.715C152.684 105.193 143.389 111.486 136.272 113.942C134.154 114.725 131.922 115.153 129.664 115.21V115.21ZM125.579 113.584C126.389 114.121 129.449 115.618 136.064 113.341C143.231 110.871 152.089 104.691 152.226 102.672C152.233 102.602 152.216 102.531 152.179 102.472C152.141 102.412 152.084 102.366 152.018 102.343C149.868 101.262 128.983 109.596 125.579 113.584V113.584Z" fill="#323D4B"/>
<path d="M139.834 101.14C137.948 101.84 136.12 102.685 134.365 103.667L134.659 100.374C134.659 100.374 138.895 98.3187 139.834 98.4405V101.14Z" fill="white"/>
<path d="M134.38 104.025C134.317 104.026 134.255 104.009 134.201 103.975C134.142 103.941 134.094 103.89 134.064 103.829C134.033 103.768 134.021 103.699 134.029 103.632L134.323 100.345C134.327 100.285 134.347 100.226 134.381 100.176C134.415 100.125 134.461 100.085 134.516 100.059C135.233 99.7078 138.909 97.9679 139.898 98.0824C139.985 98.0931 140.065 98.1357 140.122 98.2019C140.179 98.2681 140.209 98.3532 140.207 98.4404V101.14C140.206 101.212 140.184 101.283 140.143 101.343C140.102 101.403 140.045 101.449 139.977 101.476C138.117 102.168 136.313 103.001 134.581 103.968C134.52 104.005 134.451 104.025 134.38 104.025V104.025ZM135.018 100.61L134.803 102.994C136.324 102.207 137.889 101.507 139.49 100.896V98.8199C137.95 99.2861 136.454 99.8851 135.018 100.61V100.61Z" fill="#323D4B"/>
<path d="M117.351 32.7666C117.351 32.7666 91.4714 43.2635 89.2783 46.2136C87.0853 49.1636 83.3226 67.0499 83.3226 67.0499L91.1417 65.9258C91.1417 65.9258 98.2155 54.8274 100.409 52.4788C102.602 50.1302 114.993 46.8437 114.993 46.8437L117.351 32.7666Z" fill="#CBD2D9"/>
<path d="M95.399 60.8635L90.1385 69.8567C90.1385 69.8567 94.6107 73.4369 93.5213 74.024C92.4319 74.6112 91.3712 75.0766 91.3712 75.0766C91.3712 75.0766 91.2565 78.0194 89.9378 78.3703C88.6191 78.7211 81.2587 78.0696 81.5884 75.5491C82.7351 66.8566 84.1613 56.9683 84.0681 58.0996L95.399 60.8635Z" fill="white"/>
<path d="M88.9058 78.8142C86.9349 78.8142 83.3945 78.3201 81.954 77.0599C81.7147 76.8814 81.5266 76.6433 81.4084 76.3694C81.2902 76.0954 81.246 75.7953 81.2803 75.499C81.7604 71.8114 82.3553 67.4867 82.9 63.6416C83.3802 60.2834 83.6167 58.7941 83.7528 58.1425C83.7492 58.1164 83.7492 58.0899 83.7528 58.0638C83.7489 58.0802 83.7489 58.0974 83.7528 58.1139C83.8747 57.627 83.9678 57.6341 84.1398 57.6556C84.1907 57.6594 84.2401 57.6741 84.2846 57.6988C84.3292 57.7236 84.3678 57.7577 84.3979 57.7988L95.4707 60.5126C95.5243 60.5269 95.5739 60.553 95.616 60.5889C95.6582 60.6248 95.6918 60.6697 95.7144 60.7202C95.7391 60.7703 95.7519 60.8255 95.7519 60.8813C95.7519 60.9372 95.7391 60.9923 95.7144 61.0424L90.5972 69.7565C91.6723 70.6372 94.1305 72.7638 94.0374 73.7877C94.0274 73.9 93.9894 74.0081 93.9268 74.1019C93.8642 74.1957 93.779 74.2723 93.679 74.3247C92.8763 74.7543 92.0951 75.1338 91.7368 75.2985C91.6794 76.0646 91.3999 78.3416 90.0812 78.6996C89.6952 78.7833 89.3008 78.8218 88.9058 78.8142V78.8142ZM84.3764 58.5363C84.0753 60.4195 82.943 68.1597 81.9898 75.5921C81.9755 75.7718 82.0083 75.9521 82.0849 76.1153C82.1616 76.2786 82.2795 76.419 82.427 76.5229C84.018 77.912 88.8772 78.2915 89.8877 78.0194C90.7406 77.7903 91.0058 75.7567 91.0344 75.0622C91.0376 74.9968 91.0586 74.9335 91.0953 74.8792C91.1319 74.8249 91.1827 74.7817 91.2423 74.7543C91.2423 74.7543 92.2743 74.2817 93.3422 73.7089C93.3852 73.3294 91.7869 71.6396 89.9092 70.1288C89.8412 70.0762 89.7949 70.0005 89.779 69.916C89.7631 69.8315 89.7789 69.7442 89.8232 69.6705L94.84 61.0782L84.3764 58.5363Z" fill="#323D4B"/>
<path d="M165.14 23.8882C165.14 23.5302 161.607 11.5224 161.607 11.5224L169.254 8.84448C169.254 8.84448 169.139 6.02334 170.78 4.96362C172.421 3.9039 174.665 4.96362 174.665 4.96362C174.665 4.96362 181.366 -0.671503 182.19 0.502779C183.014 1.67706 180.541 4.26191 176.779 6.94701C176.779 6.94701 178.778 12.5893 176.542 14.3507C175.234 15.3976 173.646 16.0375 171.977 16.1909L165.14 23.8882Z" fill="white"/>
<path d="M165.14 24.2459C165.097 24.2527 165.054 24.2527 165.011 24.2459C164.946 24.2219 164.89 24.1791 164.849 24.1231C164.808 24.067 164.785 24.0001 164.782 23.9308C164.703 23.4296 162.632 16.3195 161.263 11.6438C161.239 11.5546 161.25 11.4597 161.292 11.3777C161.334 11.2957 161.406 11.2323 161.492 11.1999L168.896 8.60786C168.896 7.84172 169.089 5.65068 170.587 4.68405C172.085 3.71741 173.97 4.31887 174.6 4.56948C175.883 3.5026 180.427 -0.199249 181.954 0.00839852C182.059 0.0196348 182.16 0.0528588 182.252 0.105907C182.343 0.158956 182.422 0.23064 182.484 0.31629C183.674 2.01327 179.789 5.24254 177.202 7.11853C177.575 8.28565 178.915 12.9756 176.765 14.6654C175.437 15.7234 173.837 16.386 172.149 16.5772L165.405 24.1456C165.37 24.1795 165.329 24.2058 165.283 24.2231C165.237 24.2403 165.189 24.2481 165.14 24.2459ZM162.051 11.7584C163.148 15.5104 164.789 21.1311 165.319 23.1575L171.712 15.9972C171.777 15.9264 171.867 15.8829 171.963 15.8755C173.556 15.7222 175.069 15.1103 176.321 14.1141C177.99 12.7966 176.973 8.61502 176.442 7.11137C176.417 7.03853 176.416 6.95946 176.439 6.88592C176.462 6.81238 176.509 6.74831 176.571 6.70324C180.943 3.56704 182.391 1.44045 181.896 0.731584C181.388 0.423693 178.127 2.55029 174.894 5.27119C174.842 5.31424 174.778 5.3412 174.711 5.34883C174.643 5.35645 174.575 5.34441 174.514 5.31415C174.514 5.31415 172.429 4.36183 170.974 5.31415C169.519 6.26646 169.612 8.85131 169.612 8.89427C169.615 8.97115 169.592 9.04678 169.549 9.10997C169.505 9.17316 169.442 9.22056 169.369 9.24513L162.051 11.7584Z" fill="#323D4B"/>
<path d="M135.785 59.3454H135.72C135.635 59.3281 135.56 59.2778 135.511 59.2053C135.463 59.1328 135.445 59.0442 135.462 58.9588C137.562 48.6337 139.554 30.0671 139.454 29.1649C139.443 29.1245 139.441 29.0823 139.447 29.0409C139.452 28.9994 139.466 28.9596 139.488 28.9236C139.509 28.8876 139.537 28.8562 139.571 28.8312C139.605 28.8063 139.643 28.7883 139.683 28.7783C139.77 28.7566 139.862 28.77 139.938 28.8157C140.015 28.8613 140.07 28.9354 140.092 29.0217C140.271 29.6876 138.207 48.7554 136.107 59.0948C136.088 59.1661 136.047 59.2293 135.988 59.2745C135.93 59.3198 135.859 59.3447 135.785 59.3454V59.3454Z" fill="#323D4B"/>
<path d="M102.738 50.7817C102.661 50.7795 102.588 50.751 102.53 50.7009C102.473 50.6509 102.434 50.5824 102.422 50.5072C102.409 50.432 102.423 50.3547 102.461 50.2885C102.499 50.2224 102.559 50.1714 102.63 50.1444L117.243 45.347C117.324 45.3272 117.409 45.3384 117.481 45.3784C117.554 45.4183 117.609 45.4841 117.635 45.5627C117.661 45.6412 117.657 45.7268 117.623 45.8022C117.589 45.8777 117.528 45.9376 117.451 45.97L102.838 50.7674C102.806 50.7787 102.772 50.7836 102.738 50.7817Z" fill="#323D4B"/>
<path d="M174.801 12.4744C174.739 12.4813 174.677 12.4813 174.615 12.4744C174.06 12.3543 173.546 12.0935 173.122 11.7173C172.698 11.3411 172.378 10.8621 172.192 10.3264C172.141 10.7977 171.955 11.2443 171.657 11.6127C171.358 11.981 170.959 12.2554 170.508 12.4028C170.467 12.4164 170.424 12.4215 170.381 12.4176C170.338 12.4138 170.296 12.4012 170.258 12.3805C170.22 12.3599 170.187 12.3317 170.16 12.2977C170.134 12.2637 170.114 12.2246 170.103 12.1828C170.093 12.141 170.09 12.0974 170.097 12.0548C170.104 12.0122 170.119 11.9714 170.143 11.9349C170.166 11.8985 170.196 11.8672 170.232 11.843C170.268 11.8188 170.308 11.8022 170.35 11.7942C171.949 11.3789 171.669 8.59358 171.662 8.56494C171.654 8.48164 171.678 8.39844 171.731 8.33296C171.783 8.26748 171.858 8.22484 171.941 8.21408C172.023 8.20752 172.105 8.23179 172.17 8.28212C172.235 8.33246 172.279 8.40524 172.293 8.48617C172.293 8.48617 172.737 11.4935 174.708 11.7871C174.773 11.8045 174.843 11.8029 174.907 11.7827C174.972 11.7624 175.03 11.7242 175.073 11.6725C175.79 10.8849 175.002 7.18301 174.357 5.04209C174.332 4.96233 174.34 4.87606 174.379 4.80222C174.418 4.72839 174.485 4.67302 174.565 4.64827C174.605 4.63622 174.647 4.63223 174.688 4.63653C174.73 4.64083 174.77 4.65334 174.807 4.67333C174.843 4.69331 174.876 4.72038 174.902 4.75295C174.928 4.78553 174.947 4.82296 174.959 4.86308C175.138 5.46454 176.679 10.7775 175.539 12.0878C175.454 12.2039 175.343 12.299 175.215 12.366C175.087 12.433 174.945 12.4701 174.801 12.4744V12.4744Z" fill="#323D4B"/>
<path d="M13.1802 110.133C12.1052 107.985 1.61283 89.9482 0.000272418 78.3916C0.000272418 78.3916 -0.186067 100.911 9.18825 112.503C18.5626 124.096 13.1802 110.133 13.1802 110.133Z" fill="#7B8794"/>
<path d="M123.235 19.2193L119.623 20.7731V21.5607L124.504 20.1287L123.235 19.2193Z" fill="#323D4B"/>
<path d="M119.623 21.8758C119.553 21.8764 119.485 21.8537 119.43 21.8114C119.391 21.7821 119.36 21.7442 119.339 21.7006C119.317 21.6571 119.307 21.6092 119.308 21.5608V20.7732C119.307 20.7114 119.324 20.6506 119.357 20.5984C119.39 20.5462 119.438 20.5049 119.494 20.4796L123.078 18.9258C123.128 18.9047 123.182 18.897 123.236 18.9032C123.29 18.9095 123.342 18.9296 123.386 18.9616L124.654 19.8781C124.701 19.9131 124.737 19.9604 124.759 20.0148C124.78 20.0692 124.786 20.1285 124.776 20.186C124.767 20.2448 124.741 20.2997 124.702 20.3441C124.663 20.3886 124.611 20.4207 124.554 20.4366L119.673 21.8687L119.623 21.8758ZM119.938 20.9808V21.1383L123.794 20.007L123.199 19.5774L119.938 20.9808Z" fill="#323D4B"/>
<path d="M122.053 22.2195C121.508 21.5464 120.619 20.3149 119.623 20.7874C119.351 20.915 119.119 21.1128 118.949 21.3603C118.614 21.8681 118.441 22.4652 118.451 23.0733C118.461 23.6813 118.655 24.2722 119.007 24.7685C119.544 25.6851 121.157 27.0169 122.088 25.7638" fill="white"/>
<path d="M121.135 26.5872H121.042C120.559 26.4908 120.102 26.2928 119.702 26.0064C119.301 25.72 118.967 25.3517 118.72 24.926C118.339 24.369 118.135 23.7102 118.135 23.0357C118.135 22.3612 118.339 21.7023 118.72 21.1454C118.923 20.8542 119.2 20.622 119.523 20.4723C120.698 19.9496 121.673 21.1382 122.21 21.8471L122.339 22.0118C122.394 22.0798 122.42 22.1663 122.412 22.2532C122.404 22.34 122.362 22.4203 122.296 22.4772C122.262 22.5047 122.223 22.5252 122.182 22.5375C122.14 22.5499 122.096 22.5539 122.053 22.5492C122.009 22.5445 121.967 22.5313 121.929 22.5104C121.891 22.4894 121.857 22.4611 121.83 22.4271L121.694 22.2552C121.063 21.4604 120.44 20.7802 119.788 21.0666C119.569 21.1752 119.381 21.3379 119.243 21.5392C118.949 21.9969 118.799 22.5325 118.813 23.0764C118.827 23.6204 119.004 24.1475 119.322 24.5895C119.511 24.9247 119.768 25.2169 120.077 25.4475C120.385 25.678 120.738 25.8418 121.114 25.9284C121.255 25.929 121.395 25.8946 121.52 25.8284C121.645 25.7622 121.751 25.6662 121.83 25.5489C121.884 25.4812 121.962 25.4372 122.048 25.4265C122.134 25.4158 122.22 25.4392 122.289 25.4917C122.323 25.5176 122.352 25.5502 122.374 25.5875C122.395 25.6248 122.409 25.666 122.414 25.7087C122.42 25.7514 122.417 25.7948 122.405 25.8362C122.393 25.8776 122.373 25.9163 122.346 25.9499C122.21 26.1447 122.028 26.304 121.818 26.4149C121.607 26.5257 121.373 26.5848 121.135 26.5872V26.5872Z" fill="#323D4B"/>
<path d="M125.596 20.6686C126.8 20.5406 127.697 19.6877 127.598 18.7636C127.5 17.8395 126.444 17.1941 125.239 17.3221C124.035 17.4501 123.138 18.3029 123.237 19.227C123.335 20.1511 124.391 20.7965 125.596 20.6686Z" fill="white"/>
<path d="M125.299 21.0095C124.756 21.0569 124.214 20.9049 123.775 20.582C123.335 20.2592 123.029 19.7875 122.912 19.2552C122.791 18.1526 123.823 17.1072 125.206 16.9854C125.83 16.9133 126.461 17.0438 127.005 17.3578C127.254 17.4964 127.467 17.6919 127.626 17.9283C127.786 18.1647 127.887 18.4353 127.922 18.7182C128.044 19.8209 127.012 20.8663 125.629 20.988C125.519 21.0023 125.409 21.0095 125.299 21.0095ZM125.543 17.6227H125.27C124.253 17.7301 123.486 18.4246 123.565 19.1693C123.644 19.914 124.532 20.4295 125.564 20.3221C126.596 20.2147 127.356 19.5202 127.277 18.7755C127.248 18.5926 127.177 18.4189 127.07 18.2675C126.963 18.1161 126.823 17.9911 126.661 17.902C126.32 17.709 125.934 17.6124 125.543 17.6227V17.6227Z" fill="#323D4B"/>
<path d="M130.084 20.4536C131.289 20.3257 132.185 19.4728 132.087 18.5487C131.988 17.6246 130.932 16.9792 129.728 17.1072C128.524 17.2351 127.627 18.088 127.725 19.0121C127.824 19.9362 128.88 20.5816 130.084 20.4536Z" fill="white"/>
<path d="M129.8 20.7946C129.257 20.842 128.715 20.69 128.275 20.3672C127.836 20.0443 127.53 19.5726 127.413 19.0404C127.299 17.9377 128.331 16.8923 129.707 16.7706C131.083 16.6488 132.315 17.4007 132.43 18.5033C132.545 19.606 131.52 20.6514 130.137 20.766L129.8 20.7946ZM130.051 17.4078H129.778C128.753 17.5152 127.987 18.2098 128.065 18.9544C128.144 19.6991 129.047 20.2147 130.065 20.1072C131.083 19.9998 131.857 19.3053 131.778 18.5606C131.676 18.1909 131.443 17.8705 131.123 17.6587C130.803 17.4468 130.417 17.3577 130.036 17.4078H130.051Z" fill="#323D4B"/>
<path d="M40.0129 96.7219C41.8376 96.7219 43.3169 95.2441 43.3169 93.4211C43.3169 91.598 41.8376 90.1202 40.0129 90.1202C38.1882 90.1202 36.709 91.598 36.709 93.4211C36.709 95.2441 38.1882 96.7219 40.0129 96.7219Z" fill="white"/>
<path d="M40.013 97.0799C39.2869 97.0813 38.5768 96.8675 37.9724 96.4655C37.368 96.0635 36.8966 95.4915 36.6177 94.8217C36.3389 94.152 36.2652 93.4146 36.406 92.703C36.5468 91.9914 36.8957 91.3375 37.4086 90.8241C37.9215 90.3106 38.5753 89.9608 39.2873 89.8187C39.9993 89.6767 40.7375 89.7489 41.4084 90.0262C42.0793 90.3034 42.6528 90.7733 43.0564 91.3763C43.4599 91.9794 43.6753 92.6884 43.6753 93.4138C43.6753 94.3849 43.2897 95.3163 42.6031 96.0036C41.9164 96.6909 40.9849 97.078 40.013 97.0799ZM40.013 90.4709C39.4284 90.4695 38.8565 90.6415 38.3698 90.9651C37.8832 91.2887 37.5036 91.7494 37.2792 92.2887C37.0548 92.8281 36.9958 93.4218 37.1095 93.9947C37.2232 94.5677 37.5045 95.094 37.9179 95.507C38.3313 95.92 38.8581 96.2011 39.4315 96.3147C40.005 96.4283 40.5993 96.3692 41.1391 96.1451C41.679 95.9209 42.14 95.5417 42.4639 95.0554C42.7879 94.5692 42.96 93.9979 42.9586 93.4138C42.9567 92.6339 42.6457 91.8865 42.0938 91.335C41.5418 90.7835 40.7936 90.4728 40.013 90.4709V90.4709Z" fill="#7B8794"/>
<path d="M164.524 54.455C165.439 54.455 166.18 53.7145 166.18 52.801C166.18 51.8875 165.439 51.147 164.524 51.147C163.61 51.147 162.869 51.8875 162.869 52.801C162.869 53.7145 163.61 54.455 164.524 54.455Z" fill="white"/>
<path d="M164.524 54.813C164.125 54.8144 163.735 54.6976 163.403 54.4774C163.071 54.2572 162.812 53.9435 162.658 53.5759C162.505 53.2084 162.464 52.8036 162.541 52.4129C162.618 52.0221 162.809 51.6629 163.09 51.3808C163.371 51.0987 163.73 50.9064 164.121 50.8282C164.512 50.7499 164.917 50.7894 165.286 50.9414C165.654 51.0935 165.969 51.3514 166.191 51.6824C166.412 52.0135 166.531 52.4027 166.531 52.801C166.531 53.3334 166.319 53.8441 165.943 54.2212C165.567 54.5983 165.057 54.8111 164.524 54.813V54.813ZM164.524 51.505C164.267 51.5036 164.016 51.5784 163.801 51.7199C163.587 51.8615 163.42 52.0634 163.32 52.3C163.221 52.5367 163.194 52.7975 163.244 53.0494C163.293 53.3013 163.416 53.5329 163.597 53.7148C163.778 53.8968 164.009 54.021 164.261 54.0715C164.513 54.1221 164.774 54.0969 165.011 53.999C165.249 53.9011 165.452 53.735 165.595 53.5217C165.738 53.3085 165.814 53.0576 165.814 52.801C165.814 52.4585 165.678 52.1299 165.437 51.8871C165.195 51.6443 164.867 51.5069 164.524 51.505V51.505Z" fill="#7B8794"/>
<path d="M187.953 48.9631C189.777 48.9631 191.257 47.4853 191.257 45.6623C191.257 43.8392 189.777 42.3614 187.953 42.3614C186.128 42.3614 184.649 43.8392 184.649 45.6623C184.649 47.4853 186.128 48.9631 187.953 48.9631Z" fill="#7B8794"/>
<path d="M193.428 168.274C203.707 168.274 212.04 159.949 212.04 149.679C212.04 139.409 203.707 131.084 193.428 131.084C183.149 131.084 174.816 139.409 174.816 149.679C174.816 159.949 183.149 168.274 193.428 168.274Z" fill="white"/>
<path d="M193.435 168.633C189.9 168.632 186.435 167.645 183.432 165.783C180.428 163.92 178.005 161.257 176.436 158.092C174.867 154.927 174.214 151.387 174.551 147.871C174.889 144.355 176.203 141.003 178.345 138.194C180.487 135.384 183.372 133.229 186.676 131.97C189.979 130.712 193.568 130.4 197.039 131.071C200.51 131.742 203.724 133.368 206.319 135.767C208.914 138.165 210.786 141.241 211.725 144.646V144.646C212.499 147.459 212.613 150.413 212.058 153.278C211.502 156.143 210.293 158.841 208.523 161.162C206.753 163.483 204.471 165.365 201.854 166.661C199.237 167.956 196.356 168.631 193.435 168.633V168.633ZM193.435 131.435C189.614 131.434 185.889 132.63 182.784 134.856C179.68 137.081 177.352 140.224 176.129 143.84C174.907 147.457 174.85 151.366 175.968 155.016C177.086 158.667 179.321 161.875 182.36 164.189C185.399 166.503 189.088 167.807 192.908 167.916C196.727 168.025 200.485 166.935 203.651 164.798C206.818 162.662 209.233 159.587 210.558 156.006C211.883 152.425 212.051 148.52 211.037 144.839V144.839C209.972 140.989 207.673 137.594 204.493 135.173C201.313 132.752 197.426 131.439 193.428 131.435H193.435Z" fill="#7B8794"/>
<path d="M171.017 159.854C167.692 159.854 164.681 159.374 164.223 157.706C163.485 154.964 170.444 151.383 174.679 149.479C174.767 149.441 174.866 149.439 174.954 149.474C175.043 149.509 175.114 149.578 175.152 149.665C175.19 149.752 175.192 149.851 175.157 149.94C175.122 150.028 175.053 150.1 174.966 150.138C167.025 153.668 164.567 156.26 164.932 157.513C165.298 158.766 168.724 159.747 177.345 158.716C189.235 157.115 200.856 153.926 211.897 149.235C219.831 145.72 222.289 143.121 221.931 141.86C221.572 140.6 218.147 139.633 209.518 140.665C209.423 140.676 209.327 140.649 209.252 140.59C209.176 140.531 209.128 140.444 209.116 140.349C209.105 140.255 209.132 140.159 209.191 140.084C209.25 140.009 209.337 139.96 209.432 139.949C214.033 139.397 221.859 138.896 222.619 141.667C223.378 144.438 216.405 148.011 212.177 149.88C201.067 154.618 189.367 157.836 177.396 159.446C175.279 159.704 173.149 159.841 171.017 159.854V159.854Z" fill="#7B8794"/>
<path d="M155.601 144.789C155.506 144.789 155.415 144.751 155.348 144.684C155.28 144.617 155.243 144.526 155.243 144.431V140.213C155.243 140.118 155.28 140.027 155.348 139.96C155.415 139.893 155.506 139.855 155.601 139.855C155.696 139.855 155.787 139.893 155.854 139.96C155.921 140.027 155.959 140.118 155.959 140.213V144.431C155.959 144.526 155.921 144.617 155.854 144.684C155.787 144.751 155.696 144.789 155.601 144.789Z" fill="#7B8794"/>
<path d="M157.751 142.677H153.53C153.435 142.677 153.343 142.639 153.276 142.572C153.209 142.505 153.171 142.414 153.171 142.319C153.173 142.224 153.211 142.134 153.278 142.067C153.345 142.001 153.435 141.962 153.53 141.96H157.751C157.846 141.96 157.937 141.998 158.004 142.065C158.072 142.133 158.109 142.224 158.109 142.319C158.109 142.414 158.072 142.505 158.004 142.572C157.937 142.639 157.846 142.677 157.751 142.677Z" fill="#7B8794"/>
<path d="M204.451 59.3741C204.356 59.3741 204.265 59.3363 204.197 59.2692C204.13 59.2021 204.093 59.111 204.093 59.016V54.7987C204.093 54.7037 204.13 54.6126 204.197 54.5455C204.265 54.4784 204.356 54.4406 204.451 54.4406C204.546 54.4406 204.637 54.4784 204.704 54.5455C204.771 54.6126 204.809 54.7037 204.809 54.7987V59.016C204.809 59.111 204.771 59.2021 204.704 59.2692C204.637 59.3363 204.546 59.3741 204.451 59.3741Z" fill="#7B8794"/>
<path d="M206.565 57.2697H202.344C202.249 57.2697 202.157 57.2319 202.09 57.1647C202.023 57.0975 201.985 57.0063 201.985 56.9113C201.985 56.8163 202.023 56.7251 202.09 56.6579C202.157 56.5907 202.249 56.5529 202.344 56.5529H206.565C206.66 56.5529 206.751 56.5907 206.818 56.6579C206.885 56.7251 206.923 56.8163 206.923 56.9113C206.921 57.0058 206.883 57.0959 206.816 57.1627C206.749 57.2295 206.659 57.2678 206.565 57.2697Z" fill="#7B8794"/>
<path d="M26.4602 151.82C26.3652 151.82 26.274 151.782 26.2068 151.715C26.1396 151.648 26.1019 151.557 26.1019 151.462V147.245C26.1019 147.15 26.1396 147.059 26.2068 146.992C26.274 146.924 26.3652 146.887 26.4602 146.887C26.5553 146.887 26.6464 146.924 26.7136 146.992C26.7808 147.059 26.8186 147.15 26.8186 147.245V151.462C26.8186 151.557 26.7808 151.648 26.7136 151.715C26.6464 151.782 26.5553 151.82 26.4602 151.82Z" fill="#7B8794"/>
<path d="M28.5674 149.716H24.3461C24.2516 149.714 24.1615 149.676 24.0947 149.609C24.0279 149.542 23.9896 149.452 23.9877 149.357C23.9877 149.262 24.0255 149.171 24.0927 149.104C24.1599 149.037 24.251 148.999 24.3461 148.999H28.5674C28.6624 148.999 28.7536 149.037 28.8208 149.104C28.888 149.171 28.9257 149.262 28.9257 149.357C28.9257 149.452 28.888 149.544 28.8208 149.611C28.7536 149.678 28.6624 149.716 28.5674 149.716Z" fill="#7B8794"/>
<path d="M69.0105 61.4864C68.9155 61.4864 68.8243 61.4487 68.7571 61.3815C68.6899 61.3144 68.6522 61.2233 68.6522 61.1284V56.911C68.6522 56.816 68.6899 56.7249 68.7571 56.6578C68.8243 56.5907 68.9155 56.5529 69.0105 56.5529C69.1055 56.5529 69.1967 56.5907 69.2639 56.6578C69.3311 56.7249 69.3688 56.816 69.3688 56.911V61.1642C69.3599 61.2528 69.3183 61.3349 69.252 61.3945C69.1858 61.4541 69.0996 61.4868 69.0105 61.4864Z" fill="#7B8794"/>
<path d="M71.1173 59.3747H66.896C66.801 59.3747 66.7098 59.3369 66.6426 59.2697C66.5754 59.2025 66.5377 59.1113 66.5377 59.0163C66.5377 58.9213 66.5754 58.8301 66.6426 58.7629C66.7098 58.6957 66.801 58.658 66.896 58.658H71.1173C71.2124 58.658 71.3035 58.6957 71.3707 58.7629C71.4379 58.8301 71.4757 58.9213 71.4757 59.0163C71.4757 59.1113 71.4379 59.2025 71.3707 59.2697C71.3035 59.3369 71.2124 59.3747 71.1173 59.3747Z" fill="#7B8794"/>
</svg>
