<?xml version="1.0" encoding="iso-8859-1"?>
<!-- Generator: Adobe Illustrator 26.4.1, SVG Export Plug-In . SVG Version: 6.00 Build 0)  -->
<svg version="1.1" id="katman_2_00000129169058260501222080000005523337387748505492_"
	 xmlns="http://www.w3.org/2000/svg" xmlns:xlink="http://www.w3.org/1999/xlink" x="0px" y="0px" viewBox="0 0 145.01 120.34"
	 style="enable-background:new 0 0 145.01 120.34;" xml:space="preserve">
<g id="TEMEL_KAVRAMLAR_SEMBOL">
	<g style="opacity:0.65;">
		<g>
			<path style="fill:#715EDA;" d="M133.85,54.92l5.08-2.95c0.21-0.12,0.33-0.37,0.34-0.74l-5.08,2.95
				C134.19,54.54,134.06,54.8,133.85,54.92z"/>
			<path style="fill:#715EDA;" d="M128.74,34.35l-5.08,2.95c0.21-0.12,0.5-0.1,0.82,0.08l5.08-2.95
				C129.24,34.25,128.95,34.23,128.74,34.35L128.74,34.35z"/>
			<polygon style="fill:#6056BF;" points="134.19,54.19 139.26,51.24 139.28,45.98 134.2,48.93 			"/>
			<polygon style="fill:#6056BF;" points="129.05,40.02 134.13,37.07 129.56,34.43 124.48,37.38 			"/>
			<path style="fill:#715EDA;" d="M139.59,51.65l5.08-2.95c0.21-0.12,0.33-0.37,0.34-0.74l-5.08,2.95
				C139.93,51.27,139.8,51.53,139.59,51.65z"/>
			<path style="fill:#6056BF;" d="M134.48,31.08l-5.08,2.95c0.21-0.12,0.5-0.1,0.82,0.08l5.08-2.95
				C134.98,30.98,134.69,30.96,134.48,31.08z"/>
			<polygon style="fill:#6056BF;" points="139.93,50.91 145,47.96 145.01,44.67 139.93,47.62 			"/>
			<polygon style="fill:#6056BF;" points="138.79,45.64 143.86,42.69 139.3,40.05 134.22,43 			"/>
			<polygon style="fill:#715EDA;" points="134.22,43 139.3,40.05 139.31,34.8 134.24,37.75 			"/>
			<polygon style="fill:#715EDA;" points="133.09,35.76 138.17,32.81 135.3,31.16 130.22,34.11 			"/>
			<path style="fill:#715EDA;" d="M139.93,47.62l5.08-2.95c0-0.73-0.51-1.62-1.15-1.98l-5.08,2.95
				C139.41,46.01,139.93,46.9,139.93,47.62z"/>
			<path style="fill:#8473F1;" d="M130.22,34.11c-0.63-0.37-1.15-0.07-1.15,0.66v5.25l-4.59-2.64c-0.63-0.37-1.15-0.07-1.15,0.66
				v3.29c-0.01,0.73,0.5,1.62,1.14,1.98l4.57,2.64v5.25c-0.02,0.73,0.5,1.62,1.13,1.98l2.87,1.66c0.63,0.37,1.15,0.07,1.15-0.66
				v-5.25l4.58,2.64c0.63,0.37,1.15,0.07,1.15-0.66v-3.29c0.01-0.73-0.5-1.62-1.14-1.98L134.21,43v-5.25
				c0.02-0.73-0.5-1.62-1.13-1.98l-2.87-1.66H130.22z"/>
			<path style="fill:#6056BF;" d="M134.24,37.75l5.08-2.95c0-0.73-0.51-1.62-1.15-1.98l-5.08,2.95
				C133.72,36.14,134.24,37.03,134.24,37.75z"/>
		</g>
	</g>
	<g style="opacity:0.65;">
		<g>
			<g>
				<path style="fill:#D04D66;" d="M12.92,48.19l7.73,4.49c-0.6-0.35-1.44-0.3-2.37,0.23l-7.73-4.49
					C11.47,47.89,12.31,47.84,12.92,48.19z"/>
				<path style="fill:#ED6482;" d="M15.94,60.78l-7.73-4.49c-0.6-0.35-0.97-1.08-0.97-2.13c0-2.11,1.48-4.67,3.31-5.73l7.73,4.49
					c-1.83,1.06-3.32,3.63-3.31,5.73C14.97,59.7,15.34,60.44,15.94,60.78z"/>
				<path style="fill:#FF8CA1;" d="M18.28,52.91c1.84-1.06,3.33-0.21,3.34,1.9c0,2.11-1.48,4.68-3.31,5.74s-3.33,0.21-3.33-1.9
					s1.48-4.67,3.31-5.73L18.28,52.91z"/>
			</g>
			<g>
				<path style="fill:#ED6482;" d="M20.55,32.57l7.73,4.49c-0.32-0.18-0.75-0.16-1.23,0.12l-7.73-4.49
					C19.8,32.41,20.24,32.39,20.55,32.57z"/>
				<path style="fill:#ED6482;" d="M8.24,55.2l-7.72-4.49c-0.31-0.18-0.51-0.57-0.51-1.12l7.73,4.49c0,0.55,0.2,0.93,0.51,1.12H8.24
					z"/>
				<polygon style="fill:#D04D66;" points="7.74,54.09 0.01,49.6 0,45.85 7.73,50.34 				"/>
				<polygon style="fill:#D04D66;" points="9.46,47.34 1.73,42.85 19.32,32.69 27.05,37.18 				"/>
				<path style="fill:#ED6482;" d="M7.73,50.34L0,45.85c0-1.11,0.77-2.45,1.73-3l7.73,4.49C8.5,47.89,7.72,49.24,7.73,50.34z"/>
				<path style="fill:#FF8CA1;" d="M27.05,37.18c0.96-0.55,1.74-0.11,1.74,1v3.75c0.01,1.11-0.76,2.45-1.72,3L9.48,55.08
					c-0.96,0.55-1.74,0.11-1.74-0.99v-3.75c-0.01-1.11,0.76-2.45,1.72-3l17.59-10.15V37.18z"/>
			</g>
			<g>
				<path style="fill:#D04D66;" d="M12.86,27l7.73,4.49c-0.6-0.35-1.44-0.3-2.37,0.23l-7.73-4.49C11.41,26.7,12.25,26.65,12.86,27z"
					/>
				<path style="fill:#ED6482;" d="M15.88,39.59L8.15,35.1c-0.6-0.35-0.97-1.08-0.97-2.13c0-2.11,1.48-4.68,3.31-5.74l7.73,4.49
					c-1.83,1.06-3.32,3.63-3.31,5.74C14.91,38.51,15.28,39.24,15.88,39.59z"/>
				<path style="fill:#FF8CA1;" d="M18.22,31.72c1.84-1.06,3.33-0.21,3.34,1.9c0,2.11-1.48,4.67-3.31,5.74
					c-1.83,1.06-3.33,0.21-3.33-1.9s1.48-4.68,3.31-5.74H18.22z"/>
			</g>
		</g>
	</g>
	<g style="opacity:0.65;">
		<g>
			<polygon style="fill:#61D8E8;" points="89.39,16.28 82.28,12.15 86.82,14.74 93.93,18.87 			"/>
			<polygon style="fill:#61D8E8;" points="91.04,4.24 83.93,0.11 86.78,1.73 93.89,5.86 			"/>
			<path style="fill:#61D8E8;" d="M89.9,4.35l-7.1-4.13c0.41-0.24,0.82-0.29,1.14-0.12l7.11,4.13c-0.31-0.18-0.73-0.12-1.14,0.12
				H89.9z"/>
			<path style="fill:#1C5C68;" d="M74.66,32.62l-7.11-4.13c-0.63-0.36-0.64-1.53,0-2.62L74.66,30
				C74.03,31.09,74.03,32.26,74.66,32.62z"/>
			<polygon style="fill:#198391;" points="74.65,30 67.54,25.87 72.05,18.06 79.16,22.19 			"/>
			<polygon style="fill:#198391;" points="84.26,13.36 77.15,9.23 81.66,1.42 88.77,5.55 			"/>
			<path style="fill:#35B0BE;" d="M88.77,5.55l-7.11-4.13c0.31-0.54,0.73-0.96,1.14-1.2l7.11,4.13C89.5,4.59,89.09,5.01,88.77,5.55z
				"/>
			<polygon style="fill:#61D8E8;" points="79.72,10.77 72.61,6.64 77.15,9.23 84.26,13.36 			"/>
			<path style="fill:#1C5C68;" d="M74.62,19.6l-7.11-4.13c-0.63-0.36-0.64-1.53,0-2.62l7.11,4.13
				C73.99,18.07,73.99,19.24,74.62,19.6z"/>
			<polygon style="fill:#198391;" points="74.61,16.99 67.51,12.86 70.33,7.96 77.44,12.09 			"/>
			<path style="fill:#146772;" d="M89.9,4.35c0.41-0.24,0.82-0.29,1.14-0.12l2.85,1.62c0.63,0.36,0.63,1.53,0,2.62l-4.51,7.81
				l4.54,2.59c0.63,0.36,0.63,1.53,0,2.62l-2.83,4.9c-0.31,0.54-0.72,0.96-1.14,1.2c-0.41,0.24-0.82,0.3-1.14,0.12l-4.54-2.59
				l-4.51,7.81c-0.31,0.54-0.72,0.96-1.14,1.2c-0.41,0.24-0.82,0.3-1.14,0.12l-2.85-1.63c-0.63-0.36-0.64-1.53,0-2.62l4.51-7.81
				L74.6,19.6c-0.63-0.36-0.64-1.53,0-2.62l2.83-4.9c0.31-0.54,0.72-0.96,1.14-1.2c0.41-0.24,0.82-0.3,1.14-0.12l4.54,2.59
				l4.51-7.81c0.31-0.54,0.73-0.96,1.14-1.2V4.35z"/>
			<path style="fill:#1C5C68;" d="M77.44,12.09l-7.11-4.13c0.31-0.54,0.72-0.96,1.14-1.2c0.41-0.24,0.82-0.3,1.14-0.12l7.11,4.13
				c-0.31-0.18-0.73-0.12-1.14,0.12C78.17,11.13,77.76,11.55,77.44,12.09z"/>
		</g>
	</g>
	<g style="opacity:0.65;">
		<g>
			<g>
				<path style="fill:#CEA702;" d="M53.32,27.21l3.75,2.18c-0.17-0.1-0.39-0.08-0.65,0.06l-3.75-2.18
					C52.92,27.12,53.15,27.11,53.32,27.21z"/>
				<path style="fill:#CEA702;" d="M45.5,39.22l-3.75-2.18c-0.16-0.1-0.27-0.3-0.27-0.59l3.75,2.18
					C45.23,38.92,45.33,39.12,45.5,39.22z"/>
				<polygon style="fill:#B7881F;" points="45.23,38.63 41.48,36.45 41.47,34.79 45.22,36.97 				"/>
				<polygon style="fill:#B7881F;" points="46.13,35.39 42.38,33.21 52.67,27.27 56.42,29.45 				"/>
				<path style="fill:#CEA702;" d="M45.22,36.97l-3.75-2.18c0-0.58,0.4-1.28,0.91-1.57l3.75,2.18
					C45.63,35.69,45.22,36.39,45.22,36.97z"/>
				<path style="fill:#FCD500;" d="M56.42,29.45c0.5-0.29,0.91-0.06,0.91,0.52v1.67c0,0.58-0.4,1.28-0.9,1.57l-10.29,5.94
					c-0.5,0.29-0.91,0.06-0.91-0.52v-1.67c0-0.58,0.4-1.28,0.9-1.57C46.13,35.39,56.42,29.45,56.42,29.45z"/>
			</g>
			<g>
				<path style="fill:#CEA702;" d="M53.3,21.06l3.75,2.18c-0.17-0.1-0.39-0.08-0.65,0.06l-3.75-2.18
					C52.9,20.97,53.13,20.96,53.3,21.06z"/>
				<path style="fill:#CEA702;" d="M45.48,33.07l-3.75-2.18c-0.16-0.1-0.26-0.3-0.27-0.58l3.75,2.18
					C45.21,32.78,45.31,32.98,45.48,33.07z"/>
				<polygon style="fill:#B7881F;" points="45.21,32.49 41.46,30.31 41.46,28.64 45.21,30.82 				"/>
				<polygon style="fill:#B7881F;" points="46.11,29.25 42.36,27.07 52.65,21.12 56.41,23.3 				"/>
				<path style="fill:#CEA702;" d="M45.21,30.82l-3.75-2.18c0-0.58,0.4-1.28,0.91-1.57l3.75,2.18
					C45.62,29.54,45.21,30.24,45.21,30.82z"/>
				<path style="fill:#FCD500;" d="M56.41,23.3c0.5-0.29,0.91-0.06,0.91,0.52v1.67c0,0.58-0.4,1.28-0.9,1.57L46.13,33
					c-0.5,0.29-0.91,0.06-0.91-0.52v-1.67c0-0.58,0.4-1.28,0.9-1.57L56.41,23.3z"/>
			</g>
		</g>
	</g>
	<g style="opacity:0.65;">
		<g>
			<g>
				<path style="fill:#CEA702;" d="M103.8,30.8l2.69-1.57c0.12-0.07,0.28-0.06,0.47,0.05l-2.69,1.57
					C104.09,30.75,103.92,30.74,103.8,30.8z"/>
				<path style="fill:#CEA702;" d="M114.8,36.29l-2.69,1.57c0.12-0.07,0.19-0.21,0.19-0.42l2.69-1.57
					C114.99,36.08,114.92,36.22,114.8,36.29z"/>
				<polygon style="fill:#B7881F;" points="112.3,36.24 115,34.67 114.99,35.87 112.3,37.44 				"/>
				<polygon style="fill:#B7881F;" points="104.26,30.84 106.95,29.28 114.34,33.54 111.65,35.11 				"/>
				<path style="fill:#CEA702;" d="M111.65,35.11l2.69-1.57c0.36,0.21,0.65,0.71,0.65,1.13l-2.69,1.57
					C112.3,35.83,112.01,35.32,111.65,35.11z"/>
				<path style="fill:#FCD500;" d="M111.65,35.11c0.36,0.21,0.65,0.71,0.65,1.13v1.2c0,0.41-0.3,0.58-0.66,0.37l-7.39-4.27
					c-0.36-0.21-0.65-0.71-0.65-1.13v-1.2c0-0.41,0.3-0.58,0.66-0.37C104.26,30.84,111.65,35.11,111.65,35.11z"/>
			</g>
			<g>
				<path style="fill:#CEA702;" d="M103.81,26.38l2.69-1.57c0.12-0.07,0.28-0.06,0.47,0.05l-2.69,1.57
					C104.1,26.33,103.93,26.32,103.81,26.38z"/>
				<path style="fill:#CEA702;" d="M114.81,31.88l-2.69,1.57c0.12-0.07,0.19-0.21,0.19-0.42l2.69-1.57
					C115,31.67,114.93,31.81,114.81,31.88z"/>
				<polygon style="fill:#B7881F;" points="112.32,31.82 115.01,30.26 115.01,31.46 112.31,33.02 				"/>
				<polygon style="fill:#B7881F;" points="104.27,26.43 106.97,24.86 114.36,29.13 111.66,30.7 				"/>
				<path style="fill:#CEA702;" d="M111.66,30.7l2.69-1.57c0.36,0.21,0.65,0.71,0.65,1.13l-2.69,1.57
					C112.31,31.42,112.02,30.91,111.66,30.7z"/>
				<path style="fill:#FCD500;" d="M111.66,30.7c0.36,0.21,0.65,0.71,0.65,1.13v1.2c0,0.41-0.3,0.58-0.66,0.37l-7.39-4.27
					c-0.36-0.21-0.65-0.71-0.65-1.13v-1.2c0-0.41,0.3-0.58,0.66-0.37C104.27,26.43,111.66,30.7,111.66,30.7z"/>
			</g>
		</g>
	</g>
	<g style="opacity:0.78;">
		<path style="fill:#D3D3D3;" d="M140.74,72.92l-26.18-15.11L88.38,42.7c-1.69-0.98-4.42-0.98-6.11,0L55.51,58.25L8.02,85.84
			c-1.68,0.98-1.67,2.56,0.02,3.53l37.77,21.81l14.58,8.42c1.69,0.98,4.42,0.98,6.1,0L113.98,92l26.76-15.55
			c1.69-0.98,1.68-2.56-0.01-3.54L140.74,72.92z"/>
		<g>
			<g>
				<g>
					<g>
						<path style="fill:#715EDA;" d="M136.98,64.92l-0.02,6.84c0,0.47-0.31,0.95-0.93,1.31l0.02-6.84
							C136.67,65.87,136.98,65.4,136.98,64.92z"/>
						<path style="fill:#715EDA;" d="M14.24,85.07l0.02-6.84c0,0.48,0.32,0.96,0.95,1.33l-0.02,6.84
							C14.56,86.03,14.24,85.55,14.24,85.07z"/>
						<polygon style="fill:#715EDA;" points="136.05,66.22 136.03,73.06 66.57,113.43 66.58,106.59 						"/>
						<polygon style="fill:#715EDA;" points="62.04,106.59 62.02,113.43 15.19,86.39 15.21,79.56 						"/>
						<path style="fill:#715EDA;" d="M66.58,106.59l-0.02,6.84c-1.25,0.73-3.29,0.73-4.55,0l0.02-6.84
							C63.29,107.32,65.32,107.32,66.58,106.59z"/>
						<path style="fill:#8473F1;" d="M136.03,63.59c1.26,0.73,1.27,1.91,0.01,2.63l-69.46,40.37c-1.25,0.73-3.29,0.73-4.55,0
							L15.21,79.56c-1.26-0.73-1.27-1.91-0.01-2.63l69.46-40.37c1.25-0.73,3.29-0.73,4.55,0l46.83,27.04L136.03,63.59z"/>
					</g>
					<g>
						<polygon style="fill:#EDEDED;" points="73.4,47.24 83.93,41.12 127.56,66.32 117.04,72.43 						"/>
						<g>
							<defs>
								<polygon id="SVGID_1_" points="73.4,47.24 83.93,41.12 127.56,66.32 117.04,72.43 								"/>
							</defs>
							<clipPath id="SVGID_00000136373700351427739030000013920550304322426541_">
								<use xlink:href="#SVGID_1_"  style="overflow:visible;"/>
							</clipPath>
							<g style="clip-path:url(#SVGID_00000136373700351427739030000013920550304322426541_);">
								<polyline style="fill:#EDEDED;" points="127.56,66.32 83.93,41.12 73.4,47.24 117.04,72.43 127.56,66.32 								"/>
							</g>
						</g>
					</g>
				</g>
				<g>
					<g>
						<polygon style="fill:#B7881F;" points="78.7,54.89 78.7,56.91 71.28,61.21 71.29,59.2 						"/>
						<polygon style="fill:#B7881F;" points="71.29,59.2 71.28,61.21 62.15,55.94 62.16,53.93 						"/>
						<polygon style="fill:#FCD500;" points="78.7,54.89 71.29,59.2 62.16,53.93 69.57,49.62 						"/>
					</g>
					<g>
						<polygon style="fill:#B7881F;" points="89.67,61.23 89.66,63.24 82.25,67.55 82.25,65.54 						"/>
						<polygon style="fill:#B7881F;" points="82.25,65.54 82.25,67.55 73.11,62.27 73.12,60.26 						"/>
						<polygon style="fill:#FCD500;" points="89.67,61.23 82.25,65.54 73.12,60.26 80.53,55.95 						"/>
					</g>
					<g>
						<polygon style="fill:#B7881F;" points="100.63,67.56 100.62,69.57 93.21,73.87 93.22,71.86 						"/>
						<polygon style="fill:#B7881F;" points="93.22,71.86 93.21,73.87 84.08,68.6 84.09,66.59 						"/>
						<polygon style="fill:#FCD500;" points="100.63,67.56 93.22,71.86 84.09,66.59 91.5,62.28 						"/>
					</g>
					<g>
						<polygon style="fill:#D04D66;" points="111.59,73.88 111.59,75.89 104.17,80.2 104.18,78.19 						"/>
						<polygon style="fill:#D04D66;" points="104.18,78.19 104.17,80.2 95.04,74.93 95.05,72.92 						"/>
						<polygon style="fill:#FF8CA1;" points="111.59,73.88 104.18,78.19 95.05,72.92 102.46,68.61 						"/>
					</g>
					<g>
						<polygon style="fill:#03323B;" points="69.04,60.51 69.03,62.52 61.62,66.83 61.62,64.82 						"/>
						<polygon style="fill:#03323B;" points="61.62,64.82 61.62,66.83 52.49,61.56 52.49,59.55 						"/>
						<polygon style="fill:#1C5C68;" points="69.04,60.51 61.62,64.82 52.49,59.55 59.91,55.24 						"/>
					</g>
					<g>
						<polygon style="fill:#03323B;" points="80,66.84 80,68.85 72.58,73.16 72.59,71.15 						"/>
						<polygon style="fill:#03323B;" points="72.59,71.15 72.58,73.16 63.45,67.89 63.45,65.88 						"/>
						<polygon style="fill:#1C5C68;" points="80,66.84 72.59,71.15 63.45,65.88 70.87,61.57 						"/>
					</g>
					<g>
						<polygon style="fill:#03323B;" points="90.97,73.17 90.96,75.18 83.54,79.49 83.55,77.48 						"/>
						<polygon style="fill:#03323B;" points="83.55,77.48 83.54,79.49 74.41,74.22 74.42,72.21 						"/>
						<polygon style="fill:#1C5C68;" points="90.97,73.17 83.55,77.48 74.42,72.21 81.84,67.9 						"/>
					</g>
					<g>
						<polygon style="fill:#D04D66;" points="101.93,79.5 101.92,81.51 94.51,85.82 94.51,83.81 						"/>
						<polygon style="fill:#D04D66;" points="94.51,83.81 94.51,85.82 85.38,80.55 85.38,78.54 						"/>
						<polygon style="fill:#FF8CA1;" points="101.93,79.5 94.51,83.81 85.38,78.54 92.8,74.23 						"/>
					</g>
					<g>
						<polygon style="fill:#03323B;" points="59.37,66.13 59.37,68.14 51.95,72.45 51.96,70.44 						"/>
						<polygon style="fill:#03323B;" points="51.96,70.44 51.95,72.45 42.82,67.18 42.83,65.17 						"/>
						<polygon style="fill:#1C5C68;" points="59.37,66.13 51.96,70.44 42.83,65.17 50.24,60.86 						"/>
					</g>
					<g>
						<polygon style="fill:#03323B;" points="70.34,72.46 70.33,74.47 62.92,78.78 62.92,76.77 						"/>
						<polygon style="fill:#03323B;" points="62.92,76.77 62.92,78.78 53.78,73.51 53.79,71.5 						"/>
						<polygon style="fill:#1C5C68;" points="70.34,72.46 62.92,76.77 53.79,71.5 61.2,67.19 						"/>
					</g>
					<g>
						<polygon style="fill:#03323B;" points="81.3,78.79 81.29,80.8 73.88,85.11 73.89,83.1 						"/>
						<polygon style="fill:#03323B;" points="73.89,83.1 73.88,85.11 64.75,79.84 64.76,77.83 						"/>
						<polygon style="fill:#1C5C68;" points="81.3,78.79 73.89,83.1 64.76,77.83 72.17,73.52 						"/>
					</g>
					<g>
						<polygon style="fill:#D04D66;" points="92.26,85.12 92.26,87.13 84.84,91.44 84.85,89.43 						"/>
						<polygon style="fill:#D04D66;" points="84.85,89.43 84.84,91.44 75.71,86.17 75.72,84.16 						"/>
						<polygon style="fill:#FF8CA1;" points="92.26,85.12 84.85,89.43 75.72,84.16 83.13,79.85 						"/>
					</g>
					<g>
						<polygon style="fill:#03323B;" points="49.71,71.74 49.7,73.75 42.29,78.06 42.29,76.05 						"/>
						<polygon style="fill:#03323B;" points="42.29,76.05 42.29,78.06 33.16,72.79 33.16,70.78 						"/>
						<polygon style="fill:#1C5C68;" points="49.71,71.74 42.29,76.05 33.16,70.78 40.58,66.47 						"/>
					</g>
					<g>
						<polygon style="fill:#03323B;" points="60.67,78.08 60.67,80.09 53.25,84.4 53.26,82.38 						"/>
						<polygon style="fill:#03323B;" points="53.26,82.38 53.25,84.4 44.12,79.12 44.12,77.11 						"/>
						<polygon style="fill:#1C5C68;" points="60.67,78.08 53.26,82.38 44.12,77.11 51.54,72.8 						"/>
					</g>
					<g>
						<polygon style="fill:#03323B;" points="71.64,84.4 71.63,86.42 64.21,90.72 64.22,88.71 						"/>
						<polygon style="fill:#03323B;" points="64.22,88.71 64.21,90.72 55.08,85.45 55.09,83.44 						"/>
						<polygon style="fill:#1C5C68;" points="71.64,84.4 64.22,88.71 55.09,83.44 62.51,79.13 						"/>
					</g>
					<g>
						<polygon style="fill:#D04D66;" points="40.21,77.46 40.2,79.47 32.79,83.78 32.79,81.77 						"/>
						<polygon style="fill:#D04D66;" points="32.79,81.77 32.79,83.78 23.66,78.51 23.66,76.5 						"/>
						<polygon style="fill:#FF8CA1;" points="40.21,77.46 32.79,81.77 23.66,76.5 31.08,72.19 						"/>
					</g>
					<g>
						<polygon style="fill:#D04D66;" points="51.17,83.79 51.17,85.8 43.75,90.11 43.76,88.1 						"/>
						<polygon style="fill:#D04D66;" points="43.76,88.1 43.75,90.11 34.62,84.84 34.63,82.83 						"/>
						<polygon style="fill:#FF8CA1;" points="51.17,83.79 43.76,88.1 34.63,82.83 42.04,78.52 						"/>
					</g>
					<g>
						<polygon style="fill:#D04D66;" points="62.14,90.12 62.13,92.13 54.72,96.44 54.72,94.43 						"/>
						<polygon style="fill:#D04D66;" points="54.72,94.43 54.72,96.44 45.59,91.17 45.59,89.16 						"/>
						<polygon style="fill:#FF8CA1;" points="62.14,90.12 54.72,94.43 45.59,89.16 53.01,84.85 						"/>
					</g>
					<g>
						<polygon style="fill:#D04D66;" points="82.6,90.73 82.59,92.74 65.51,102.67 65.52,100.66 						"/>
						<polygon style="fill:#D04D66;" points="65.52,100.66 65.51,102.67 56.38,97.4 56.39,95.39 						"/>
						<polygon style="fill:#FF8CA1;" points="82.6,90.73 65.52,100.66 56.39,95.39 73.47,85.46 						"/>
					</g>
				</g>
				<g>
					<g>
						<defs>
							<polygon id="SVGID_00000134968758706032957370000000283255445077589906_" points="26.57,76.36 69.55,51.38 106.96,72.99 
								63.99,97.96 							"/>
						</defs>
						<clipPath id="SVGID_00000077310661891846239890000017555340170735236523_">
							<use xlink:href="#SVGID_00000134968758706032957370000000283255445077589906_"  style="overflow:visible;"/>
						</clipPath>
						<g style="clip-path:url(#SVGID_00000077310661891846239890000017555340170735236523_);">
							<g>
								<path style="fill:#FFFFFF;" d="M30.29,78.05c-0.74-0.43-0.62-1.08,0.5-1.73s2.24-0.72,2.98-0.29s0.62,1.08-0.49,1.73
									S31.02,78.48,30.29,78.05 M34.17,75.8c-0.98-0.57-2.48-0.51-3.82,0.27s-1.44,1.65-0.45,2.22s2.49,0.51,3.83-0.27
									S35.15,76.37,34.17,75.8"/>
								<path style="fill:#FFFFFF;" d="M42.88,83.19c-0.17-0.1-0.46-0.1-0.64,0s-0.19,0.28-0.02,0.38s0.47,0.1,0.66,0
									S43.06,83.3,42.88,83.19"/>
								<path style="fill:#FFFFFF;" d="M54.45,90.78l-2.63-1.52l-0.36,0.21l2.63,1.52L54.45,90.78 M55.83,89.98l-2.63-1.52
									l-0.35,0.2l2.63,1.52L55.83,89.98"/>
								<polyline style="fill:#FFFFFF;" points="70.73,92.67 70.35,92.45 69.25,93.09 68.13,92.44 67.77,92.65 68.9,93.3 
									67.81,93.93 68.18,94.15 69.27,93.51 70.4,94.16 70.75,93.96 69.63,93.31 70.73,92.67 								"/>
								<polyline style="fill:#FFFFFF;" points="43.12,70 41.69,69.17 41.3,69.4 42.3,69.97 38.49,72.19 38.92,72.44 43.12,70 
																	"/>
								<path style="fill:#FFFFFF;" d="M54.27,76.4c-0.64-0.37-1.39-0.55-2.1-0.52l0.04,0.33c0.6-0.02,1.13,0.11,1.63,0.39
									c0.64,0.37,0.69,0.74,0.2,1.03c-0.29,0.17-0.66,0.28-1.61,0.28l-3.46-0.02l-0.3,0.18l2.97,1.71l0.38-0.22l-2.33-1.35h2.84
									c1.12,0.02,1.61-0.11,2.02-0.35c0.7-0.41,0.59-0.97-0.27-1.46"/>
								<path style="fill:#FFFFFF;" d="M64.63,71.54l-2.32-1.34l-2.32,1.1l0.9,0.52c1.08,0.62,1.08,1.01,0.54,1.33
									c-0.51,0.29-1.24,0.28-1.95-0.14c-0.55-0.32-0.82-0.71-0.81-1.04l-0.55,0.08c0,0.38,0.37,0.84,0.97,1.19
									c1.03,0.6,2.1,0.56,2.81,0.15c0.75-0.43,0.76-1-0.52-1.74l-0.54-0.31l1.49-0.69l1.93,1.12l0.39-0.22"/>
								<path style="fill:#FFFFFF;" d="M69.62,67.43c-0.75-0.43-0.86-0.87-0.34-1.18s1.28-0.23,2.02,0.2s0.87,0.88,0.36,1.18
									S70.36,67.87,69.62,67.43 M71.65,66.25c-0.66-0.38-0.76-0.77-0.29-1.04s1.16-0.2,1.8,0.17s0.77,0.77,0.29,1.05
									s-1.14,0.21-1.8-0.17 M73.53,65.17c-0.89-0.52-1.91-0.61-2.59-0.21c-0.44,0.25-0.52,0.58-0.26,0.92
									c-0.69-0.2-1.34-0.16-1.84,0.13c-0.75,0.43-0.59,1.05,0.42,1.64s2.1,0.68,2.85,0.25c0.49-0.29,0.56-0.67,0.2-1.07
									c0.61,0.15,1.17,0.11,1.6-0.15C74.6,66.28,74.42,65.69,73.53,65.17"/>
								<path style="fill:#FFFFFF;" d="M84.05,59.76c-1.28-0.74-3.13-0.76-4.36-0.04s-1.19,1.78,0.08,2.52
									c0.62,0.36,1.38,0.56,2.17,0.54v-0.33c-0.7,0-1.28-0.15-1.76-0.43c-1.02-0.59-1.05-1.46-0.05-2.04s2.52-0.57,3.53,0.02
									c0.49,0.28,0.75,0.61,0.75,1.01h0.57c0.03-0.45-0.32-0.89-0.94-1.25"/>
								<path style="fill:#FFFFFF;" d="M66.44,83.46l-2.72-1.57l-0.39,0.22l2.16,1.25l-2.63,0.17l-0.32,0.18l0.31,0.18
									c0.79,0.45,0.81,0.85,0.31,1.14c-0.53,0.31-1.23,0.27-1.94-0.13c-0.55-0.32-0.84-0.72-0.82-1.04l-0.55,0.08
									c0,0.38,0.37,0.84,0.98,1.19c1.02,0.59,2.07,0.57,2.78,0.16s0.69-0.92-0.16-1.47l2.68-0.18L66.44,83.46"/>
								<path style="fill:#FFFFFF;" d="M71.03,79.73c-0.73-0.42-0.68-0.9-0.22-1.17c0.53-0.31,1.36-0.28,2.01,0.09
									s0.71,0.82,0.16,1.14s-1.33,0.29-1.95-0.07 M75.15,77.57c-1.15-0.66-2.68-0.69-4.1,0.14c-1.33,0.77-1.49,1.57-0.36,2.22
									c0.82,0.48,1.94,0.54,2.73,0.08s0.67-1.07-0.16-1.56c-0.59-0.34-1.35-0.48-2.02-0.33c0.12-0.08,0.23-0.15,0.33-0.21
									c1.14-0.66,2.31-0.67,3.22-0.14c0.31,0.18,0.55,0.38,0.62,0.59l0.52-0.1c-0.1-0.25-0.39-0.49-0.77-0.71"/>
								<path style="fill:#FFFFFF;" d="M82.52,72.88c-0.65-0.38-0.7-0.82-0.15-1.14s1.33-0.28,1.93,0.07
									c0.73,0.42,0.68,0.9,0.22,1.16c-0.53,0.31-1.36,0.28-2.01-0.09 M84.65,71.59c-0.82-0.48-1.95-0.55-2.74-0.09
									s-0.67,1.07,0.17,1.56c0.59,0.34,1.34,0.47,2.01,0.32c-0.11,0.08-0.23,0.15-0.32,0.21c-1.14,0.66-2.31,0.66-3.23,0.14
									c-0.31-0.18-0.54-0.38-0.62-0.59l-0.52,0.1c0.1,0.25,0.4,0.49,0.77,0.71c1.15,0.66,2.68,0.69,4.1-0.14
									c1.33-0.77,1.49-1.57,0.37-2.22"/>
								<polyline style="fill:#FFFFFF;" points="96.59,78.93 96.12,78.65 93.93,78.82 94.21,77.55 93.73,77.27 93.39,78.86 
									90.51,79.07 91,79.35 93.33,79.17 93.02,80.52 93.51,80.8 93.86,79.13 96.59,78.93 								"/>
								<polyline style="fill:#FFFFFF;" points="85.12,85.14 83.54,84.22 83.17,84.44 84.75,85.35 85.12,85.14 								"/>
								<path style="fill:#FFFFFF;" d="M91.48,68.68c-0.4-0.23-0.33-0.56,0.22-0.88s1.13-0.36,1.53-0.13s0.32,0.57-0.22,0.88
									s-1.12,0.36-1.52,0.13 M93.5,67.51c-0.56-0.32-1.41-0.29-2.1,0.11s-0.74,0.89-0.18,1.21s1.41,0.28,2.09-0.11
									S94.07,67.84,93.5,67.51 M95.78,66.56l-0.36-0.21l-7.09,0.78l0.36,0.21L95.78,66.56 M90.88,66.03
									c-0.4-0.23-0.32-0.57,0.22-0.88s1.12-0.36,1.52-0.13s0.33,0.56-0.22,0.88s-1.14,0.36-1.53,0.13 M92.88,64.86
									c-0.57-0.33-1.41-0.29-2.09,0.11s-0.75,0.89-0.18,1.22s1.4,0.29,2.09-0.11s0.75-0.88,0.18-1.21"/>
								<polyline style="fill:#FFFFFF;" points="53.99,65.4 53.5,65.12 48.48,65.44 48.16,65.63 50.55,67 49.45,67.65 49.88,67.9 
									50.98,67.25 51.83,67.74 52.22,67.52 51.37,67.03 52.34,66.47 51.92,66.22 50.95,66.79 49.11,65.72 53.99,65.4 								"/>
								<polyline style="fill:#FFFFFF;" points="64.22,59.83 61.12,58.04 59.95,58.72 60.38,58.97 61.17,58.51 63.34,59.77 
									57.78,60.98 58.26,61.25 63.92,60.01 64.22,59.83 								"/>
								<path style="fill:#FFFFFF;" d="M67.59,53.53l2.53-0.56l-0.96,1.47L67.59,53.53 M70.65,52.86l-0.34-0.2l-4.75,1.03l0.36,0.21
									l1.26-0.28l1.83,1.05l-0.47,0.73l0.36,0.21l1.75-2.76"/>
								<path style="fill:#FFFFFF;" d="M74.1,54.82c-0.98-0.57-2.42-0.58-3.37-0.03s-0.92,1.39,0.06,1.95
									c0.49,0.28,1.08,0.43,1.69,0.42v-0.25c-0.55,0-0.99-0.12-1.36-0.33c-0.79-0.46-0.81-1.14-0.04-1.58s1.94-0.44,2.74,0.01
									c0.37,0.21,0.58,0.47,0.58,0.78h0.44c0.02-0.35-0.25-0.69-0.72-0.97"/>
								<path style="fill:#FFFFFF;" d="M102.59,73.93c-0.16-0.09-0.41-0.1-0.57,0s-0.17,0.25-0.01,0.34s0.41,0.09,0.59,0
									s0.16-0.24,0-0.33 M104.95,74.1l-2.62-1.52l-0.36,0.21l2.62,1.52L104.95,74.1 M104.9,72.61c-0.16-0.09-0.41-0.1-0.58,0
									c-0.16,0.09-0.16,0.24,0,0.33s0.41,0.09,0.57,0c0.17-0.1,0.17-0.24,0-0.34"/>
							</g>
						</g>
					</g>
				</g>
			</g>
			<g>
				<g>
					<defs>
						<polygon id="SVGID_00000148624543624307752820000002299600935571967410_" points="93.06,54.29 96.18,52.48 121.74,67.24 
							118.62,69.05 						"/>
					</defs>
					<clipPath id="SVGID_00000090257805950716429060000011232545831087072943_">
						<use xlink:href="#SVGID_00000148624543624307752820000002299600935571967410_"  style="overflow:visible;"/>
					</clipPath>
					<g style="clip-path:url(#SVGID_00000090257805950716429060000011232545831087072943_);">
						<g>
							<polyline style="fill:#6C32BF;" points="97.14,53.09 96.79,52.89 95.78,52.71 95.54,52.94 96.35,53.08 96.37,53.09 
								93.73,54.62 94.12,54.85 97.14,53.09 							"/>
							<path style="fill:#6C32BF;" d="M99.24,54.24c-0.35-0.2-0.78-0.3-1.17-0.32l-0.15,0.24c0.25,0.01,0.62,0.07,0.9,0.22
								c0.45,0.26,0.31,0.51,0.01,0.69c-0.46,0.27-1.19,0.29-2.71,0.27h-0.63l-0.25,0.14l1.94,1.12l0.34-0.2l-1.37-0.79l0,0h0.46
								c1.25,0.01,2.11-0.01,2.67-0.34c0.43-0.25,0.6-0.67-0.06-1.05"/>
							<path style="fill:#6C32BF;" d="M98.88,57.29c-0.38-0.22-0.18-0.62,0.61-1.07s1.52-0.58,1.89-0.37
								c0.42,0.24,0.13,0.64-0.62,1.08s-1.46,0.61-1.88,0.37 M101.71,55.69c-0.61-0.35-1.61-0.28-2.62,0.3
								c-1,0.59-1.15,1.14-0.55,1.48c0.68,0.39,1.63,0.28,2.65-0.31C102.15,56.6,102.35,56.06,101.71,55.69"/>
							<path style="fill:#6C32BF;" d="M101.9,58.55c-0.15-0.08-0.36-0.08-0.51,0s-0.16,0.2,0,0.29s0.35,0.08,0.5,0
								s0.16-0.21,0.02-0.29 M103.81,58.84l-2.41-1.39l-0.28,0.16l2.41,1.39L103.81,58.84 M103.54,57.6c-0.15-0.08-0.36-0.08-0.51,0
								s-0.16,0.2,0,0.29s0.35,0.08,0.5,0s0.16-0.21,0.02-0.29"/>
							<polyline style="fill:#6C32BF;" points="107.13,58.86 106.78,58.66 105.76,58.48 105.54,58.71 106.35,58.85 106.35,58.85 
								103.71,60.39 104.11,60.61 107.13,58.86 							"/>
							<path style="fill:#6C32BF;" d="M106.48,61.67c-0.38-0.22-0.18-0.62,0.61-1.07s1.52-0.58,1.88-0.38
								c0.43,0.25,0.13,0.64-0.62,1.08s-1.45,0.62-1.88,0.37 M109.3,60.06c-0.62-0.36-1.61-0.28-2.62,0.3
								c-1,0.59-1.15,1.14-0.55,1.48c0.67,0.39,1.63,0.28,2.65-0.31C109.74,60.97,109.94,60.43,109.3,60.06"/>
							<polyline style="fill:#6C32BF;" points="111.43,61.97 111.13,61.8 110.04,62.44 108.98,61.82 108.7,61.99 109.76,62.6 
								108.66,63.24 108.96,63.41 110.06,62.77 111.11,63.38 111.39,63.22 110.34,62.61 111.43,61.97 							"/>
							<path style="fill:#6C32BF;" d="M111.65,64.68c-0.39-0.22-0.35-0.52-0.03-0.69c0.29-0.17,0.71-0.19,1.17-0.04
								c0.29,0.3,0.37,0.55,0,0.77c-0.31,0.18-0.78,0.18-1.15-0.04 M113.19,63.85c-0.26-0.26-0.33-0.48-0.02-0.66
								c0.26-0.15,0.67-0.17,1.01,0.03c0.37,0.21,0.26,0.44,0.02,0.58c-0.28,0.16-0.66,0.15-1.01,0.06 M114.49,63.07
								c-0.53-0.31-1.26-0.35-1.74-0.08c-0.26,0.15-0.37,0.39-0.19,0.67h-0.01c-0.53-0.11-1.03-0.09-1.41,0.13
								c-0.44,0.25-0.44,0.7,0.2,1.07c0.57,0.33,1.39,0.39,1.92,0.08c0.36-0.21,0.39-0.5,0.17-0.81h0.01
								c0.55,0.1,0.95,0.02,1.2-0.13c0.38-0.22,0.45-0.6-0.15-0.94"/>
							<polyline style="fill:#6C32BF;" points="115.3,65.45 114.15,64.78 113.85,64.95 115.01,65.62 115.3,65.45 							"/>
							<path style="fill:#6C32BF;" d="M118.25,65.22c-0.35-0.2-0.78-0.3-1.17-0.32l-0.15,0.24c0.25,0.01,0.62,0.07,0.9,0.22
								c0.45,0.26,0.32,0.52,0.02,0.69c-0.46,0.26-1.2,0.28-2.72,0.26h-0.63l-0.25,0.14l1.94,1.12l0.34-0.2l-1.37-0.79l0,0h0.46
								c1.25,0.01,2.11-0.01,2.67-0.34c0.43-0.25,0.6-0.67-0.06-1.05"/>
							<path style="fill:#6C32BF;" d="M117.9,68.27c-0.37-0.21-0.18-0.62,0.61-1.07s1.52-0.58,1.89-0.37
								c0.43,0.25,0.13,0.64-0.62,1.08s-1.46,0.61-1.88,0.37 M120.73,66.67c-0.61-0.35-1.61-0.28-2.62,0.3
								c-1,0.59-1.15,1.14-0.55,1.48c0.68,0.39,1.63,0.28,2.65-0.31C121.17,67.58,121.37,67.04,120.73,66.67"/>
						</g>
					</g>
				</g>
			</g>
		</g>
	</g>
</g>
</svg>
