<?xml version="1.0" encoding="iso-8859-1"?>
<!-- Generator: Adobe Illustrator 26.4.1, SVG Export Plug-In . SVG Version: 6.00 Build 0)  -->
<svg version="1.1" id="katman_2_00000060025894663770048420000008548190845272039869_"
	 xmlns="http://www.w3.org/2000/svg" xmlns:xlink="http://www.w3.org/1999/xlink" x="0px" y="0px" viewBox="0 0 117.6 112.03"
	 style="enable-background:new 0 0 117.6 112.03;" xml:space="preserve">
<g id="TEMEL_KAVRAMLAR_YILDIZ">
	<g>
		<path style="fill:#FFCC01;" d="M60.49,1.05L77.2,34.9c0.27,0.56,0.81,0.94,1.42,1.03l37.36,5.43c1.55,0.22,2.17,2.13,1.05,3.22
			L90,70.93c-0.44,0.43-0.65,1.06-0.54,1.67l6.38,37.21c0.26,1.54-1.35,2.72-2.74,1.99L59.68,94.23c-0.55-0.29-1.21-0.29-1.76,0
			L24.5,111.8c-1.38,0.73-3-0.45-2.74-1.99l6.38-37.21c0.1-0.61-0.1-1.24-0.54-1.67L0.57,44.59c-1.12-1.09-0.5-2.99,1.05-3.22
			l37.36-5.43c0.61-0.09,1.15-0.48,1.42-1.03L57.11,1.05C57.8-0.35,59.8-0.35,60.49,1.05z"/>
		<path style="fill:#FFDB53;" d="M58.8,8.87L43.91,37.71c-0.78,1.51-2.28,2.52-3.98,2.68L7.6,43.34l34.15,1.6
			c2.17,0.1,4.15-1.21,4.91-3.25L58.8,8.87z"/>
		<path style="fill:#FCBD11;" d="M22.5,105.53l-0.73,4.28c-0.26,1.54,1.35,2.72,2.74,1.99l33.42-17.57c0.55-0.29,1.21-0.29,1.76,0
			l33.42,17.57c1.38,0.73,3-0.45,2.74-1.99L89.47,72.6c-0.1-0.61,0.1-1.24,0.54-1.67l27.03-26.35c1.12-1.09,0.5-2.99-1.05-3.22
			l-12.51-1.82c-20.24,36.32-51.23,55.45-80.96,65.99H22.5z"/>
	</g>
</g>
</svg>
