<?xml version="1.0" standalone="no"?>
<!DOCTYPE svg PUBLIC "-//W3C//DTD SVG 20010904//EN"
 "http://www.w3.org/TR/2001/REC-SVG-20010904/DTD/svg10.dtd">
<svg version="1.0" xmlns="http://www.w3.org/2000/svg"
 width="512.000000pt" height="512.000000pt" viewBox="0 0 512.000000 512.000000"
 preserveAspectRatio="xMidYMid meet">

<g transform="translate(0.000000,512.000000) scale(0.100000,-0.100000)"
fill="#000000" stroke="none">
<path d="M270 3894 c-74 -20 -151 -74 -194 -137 -69 -102 -66 -26 -66 -1497 0
-1470 -3 -1395 65 -1496 38 -55 95 -100 165 -130 43 -18 84 -19 958 -22 l912
-3 0 -153 0 -154 -174 -4 c-158 -3 -177 -5 -202 -24 -50 -37 -68 -70 -68 -124
0 -54 18 -87 68 -124 27 -21 37 -21 817 -24 777 -2 789 -2 829 18 45 23 80 80
80 130 0 50 -35 107 -80 130 -35 18 -59 20 -205 20 l-165 0 0 155 0 155 918 2
917 3 56 26 c79 37 133 90 171 167 l33 67 0 1385 0 1385 -33 67 c-38 77 -92
130 -171 167 l-56 26 -317 3 -318 3 0 -150 0 -151 284 0 c245 0 287 -2 300
-16 14 -14 16 -123 16 -1050 l0 -1034 -2250 0 -2250 0 0 1034 c0 927 2 1036
16 1050 13 14 55 16 300 16 l284 0 0 150 0 150 -292 -1 c-224 0 -306 -4 -348
-15z"/>
</g>
</svg>
