<?xml version="1.0" encoding="UTF-8"?><svg id="katman_2" xmlns="http://www.w3.org/2000/svg" viewBox="0 0 109.06 103.15"><g id="_üst_arka"><g id="KUPA"><g><path d="M54.53,0h33.02c1.77,.91,2.39,2.34,2.13,4.18-.05,.33,.02,.68-.04,1-.13,.73,.21,.89,.93,.89,4.81-.03,9.63,.04,14.44-.04,1.93-.03,3.28,.55,4.05,2.25v11.72c-.07,.11-.18,.21-.2,.33-1.04,8.1-4.84,14.83-11.3,20.17-5.62,4.65-12.19,7.25-19.65,7.77-.64,.04-.93,.36-1.26,.76-3.19,3.95-6.96,7.26-11.79,9.36-.51,.22-.62,.52-.59,1.02,.06,1.28,.22,2.54,.45,3.8,1.51,8.52,5.19,16.07,11.27,22.54,.28,.3,.58,.59,.64,1.02-.53,.01-1.06,.03-1.59,.03-6.83,.01-13.66,.02-20.5,.03,0-.05,0-.1-.03-.15v-22.09c0-9.48,0-18.96,.02-28.44,.26,.1,.54,.17,.79,.3,1.26,.62,2.51,1.25,3.77,1.87,1.28,.63,2.61,.82,3.83-.02,1.2-.82,1.58-1.97,1.24-3.39-.33-1.37-.43-2.79-.74-4.17-.14-.63,.08-1,.52-1.4,1.13-1.03,2.21-2.09,3.33-3.13,.9-.85,1.31-1.83,.94-3.02-.39-1.26-1.33-1.95-2.67-2.17-1.54-.24-3.07-.49-4.62-.69-.74-.1-1.19-.39-1.5-1.06-.53-1.14-1.21-2.22-1.73-3.36-.62-1.34-1.64-2.06-3.17-2.16,0-4.58,0-9.17,0-13.75h.02Zm26.94,41.63c.36-.04,.5-.04,.63-.07,8.78-2.33,15.02-7.45,18.62-15.41,1.95-4.31,2.06-8.88,1.97-13.47-.01-.66-.45-.55-.86-.56h-10.11c-2.46,0-2.44,0-2.67,2.35-.62,6.47-1.93,12.82-4.07,19-.95,2.74-2.11,5.4-3.51,8.16Z" fill="#fcbd11"/><path d="M54.56,36.2c0,9.5,0,19-.02,28.5v22.13h-22.03c.09-.42,.4-.7,.68-1.01,6.88-7.6,10.83-16.36,11.66-26.38,.04-.54-.13-.77-.62-.99-4.58-2.01-8.25-5.08-11.3-8.85-.66-.82-1.3-1.4-2.5-1.34-.8,.04-1.61-.19-2.42-.31C14.92,46.02,3.73,36.08,.86,23.85c-.31-1.33-.57-2.68-.86-4.02V8.29c.85-1.77,2.32-2.29,4.3-2.25,4.61,.09,9.23,.03,13.84,.03,1.36,0,1.4,0,1.28-1.28-.2-2.04,0-3.87,2.31-4.79H54.53c0,4.59,0,9.18,0,13.77h0c-1.42,.02-2.41,.63-3.02,1.85-.62,1.25-1.34,2.45-1.93,3.71-.31,.67-.8,.97-1.52,1.07-1.5,.2-3,.46-4.51,.62-1.4,.15-2.27,.89-2.71,2.09-.43,1.17-.07,2.18,.83,3.04,1.18,1.12,2.35,2.25,3.54,3.35,.36,.33,.5,.65,.4,1.15-.32,1.55-.54,3.11-.83,4.67-.27,1.48,.53,2.92,2.01,3.39,1.13,.36,2.23,.17,3.27-.4,1.44-.79,2.91-1.53,4.47-2.1h.02Zm-27.13,5.51c.1-.41-.06-.61-.17-.81-2.24-4.38-3.83-8.98-5.03-13.7-1.19-4.69-1.92-9.45-2.36-14.25-.06-.66-.28-.84-.95-.83-3.9,.03-7.8,.03-11.7,0-.66,0-.86,.2-.84,.81,.04,1.18,0,2.36,.02,3.54,.21,10.4,5.25,18.02,14.74,23.04,1.95,1.03,4.03,1.77,6.29,2.21h0Z" fill="#ffcc01"/><path d="M76.9,97.06c.99,0,1.98,0,2.97,.01,1.73,0,3.01,.9,3.36,2.36,.35,1.44-.42,2.82-1.96,3.51-.12,.05-.23,.14-.35,.2h-26.42v-6.08h22.4Z" fill="#ef9f00"/><path d="M54.53,97.08v6.07H28.12c-.14-.28-.47-.26-.7-.39-1.22-.69-1.88-2.02-1.58-3.25,.33-1.37,1.53-2.36,3.01-2.42,1.1-.04,2.19-.02,3.29-.02,7.46,0,14.93,0,22.39,0Z" fill="#e8ad05"/><path d="M54.53,97.05c-7.46,0-14.93,0-22.39,0,0-2.91,.02-5.82,.02-8.73,0-.51-.02-1.03,.33-1.47h22.03s.03,.1,.03,.14c0,3.36-.02,6.71-.02,10.08h0Z" fill="#f2bb20"/><path d="M54.52,97.05c0-3.4,.02-6.81,.02-10.22,6.83,0,13.67-.02,20.5-.03,.53,0,1.06-.02,1.59-.03,.31,.37,.26,.79,.26,1.21,0,3.02,.02,6.03,.03,9.05h-22.4Z" fill="#f7aa00"/><path d="M54.55,13.77c1.53,.1,2.56,.82,3.17,2.16,.52,1.14,1.21,2.22,1.73,3.36,.31,.67,.77,.97,1.5,1.06,1.54,.2,3.08,.45,4.62,.69,1.34,.21,2.28,.91,2.67,2.17,.37,1.19-.04,2.18-.94,3.02-1.11,1.04-2.2,2.11-3.33,3.13-.44,.4-.66,.77-.52,1.41,.3,1.38,.41,2.8,.74,4.17,.34,1.42-.04,2.57-1.24,3.39-1.22,.84-2.55,.64-3.83,.02-1.26-.62-2.51-1.25-3.77-1.87-.25-.12-.52-.2-.79-.3h0V13.76h0Z" fill="#ffcc01"/><path d="M54.55,13.77v22.42c-1.56,.57-3.03,1.31-4.47,2.1-1.04,.57-2.14,.76-3.27,.4-1.48-.47-2.28-1.91-2.01-3.38,.28-1.55,.51-3.11,.83-4.66,.1-.5-.03-.82-.4-1.15-1.19-1.1-2.36-2.23-3.54-3.35-.9-.86-1.26-1.87-.83-3.04,.44-1.2,1.31-1.94,2.71-2.09,1.51-.16,3-.42,4.51-.62,.72-.1,1.2-.4,1.52-1.07,.59-1.26,1.3-2.47,1.93-3.71,.61-1.22,1.61-1.83,3.02-1.85Z" fill="#ffdb53"/></g></g></g></svg>