<?xml version="1.0" encoding="utf-8"?>
<!-- Generator: Adobe Illustrator 27.0.0, SVG Export Plug-In . SVG Version: 6.00 Build 0)  -->
<svg version="1.1" id="katman_2_00000176749530430005039650000007128046665962664598_"
	 xmlns="http://www.w3.org/2000/svg" xmlns:xlink="http://www.w3.org/1999/xlink" x="0px" y="0px" viewBox="0 0 109.1 103.2"
	 style="enable-background:new 0 0 109.1 103.2;" xml:space="preserve">
<g id="_üst_arka">
	<g id="KUPA">
		<g>
			<path fill="#FCBD11" d="M54.5,0h33c1.8,0.9,2.4,2.3,2.1,4.2c-0.1,0.3,0,0.7,0,1c-0.1,0.7,0.2,0.9,0.9,0.9c4.8,0,9.6,0,14.4,0
				c1.9,0,3.3,0.6,4.1,2.2V20c-0.1,0.1-0.2,0.2-0.2,0.3c-1,8.1-4.8,14.8-11.3,20.2c-5.6,4.7-12.2,7.2-19.7,7.8
				c-0.6,0-0.9,0.4-1.3,0.8c-3.2,4-7,7.3-11.8,9.4c-0.5,0.2-0.6,0.5-0.6,1c0.1,1.3,0.2,2.5,0.4,3.8c1.5,8.5,5.2,16.1,11.3,22.5
				c0.3,0.3,0.6,0.6,0.6,1c-0.5,0-1.1,0-1.6,0c-6.8,0-13.7,0-20.5,0c0-0.1,0-0.1,0-0.2c0-7.4,0-14.7,0-22.1c0-9.5,0-19,0-28.4
				c0.3,0.1,0.5,0.2,0.8,0.3c1.3,0.6,2.5,1.2,3.8,1.9c1.3,0.6,2.6,0.8,3.8,0c1.2-0.8,1.6-2,1.2-3.4c-0.3-1.4-0.4-2.8-0.7-4.2
				c-0.1-0.6,0.1-1,0.5-1.4c1.1-1,2.2-2.1,3.3-3.1c0.9-0.9,1.3-1.8,0.9-3c-0.4-1.3-1.3-2-2.7-2.2c-1.5-0.2-3.1-0.5-4.6-0.7
				c-0.7-0.1-1.2-0.4-1.5-1.1c-0.5-1.1-1.2-2.2-1.7-3.4c-0.6-1.3-1.6-2.1-3.2-2.2C54.5,9.2,54.5,4.6,54.5,0L54.5,0z M81.5,41.7
				c0.4,0,0.5,0,0.6-0.1c8.8-2.3,15-7.5,18.6-15.4c1.9-4.3,2.1-8.9,2-13.5c0-0.7-0.4-0.6-0.9-0.6c-3.4,0-6.7,0-10.1,0
				c-2.5,0-2.4,0-2.7,2.4c-0.6,6.5-1.9,12.8-4.1,19C84,36.2,82.9,38.9,81.5,41.7z"/>
			<path fill="#FFCC01" d="M54.6,36.2c0,9.5,0,19,0,28.5c0,7.4,0,14.8,0,22.1c-7.3,0-14.7,0-22,0c0.1-0.4,0.4-0.7,0.7-1
				c6.9-7.6,10.8-16.4,11.7-26.4c0-0.5-0.1-0.8-0.6-1c-4.6-2-8.2-5.1-11.3-8.9c-0.7-0.8-1.3-1.4-2.5-1.3c-0.8,0-1.6-0.2-2.4-0.3
				C14.9,46,3.7,36.1,0.9,23.9c-0.3-1.3-0.6-2.7-0.9-4C0,16,0,12.1,0,8.3C0.9,6.5,2.3,6,4.3,6.1c4.6,0.1,9.2,0,13.8,0
				c1.4,0,1.4,0,1.3-1.3c-0.2-2,0-3.9,2.3-4.8h32.8c0,4.6,0,9.2,0,13.8l0,0c-1.4,0-2.4,0.6-3,1.9c-0.6,1.2-1.3,2.5-1.9,3.7
				c-0.3,0.7-0.8,1-1.5,1.1c-1.5,0.2-3,0.5-4.5,0.6c-1.4,0.1-2.3,0.9-2.7,2.1c-0.4,1.2-0.1,2.2,0.8,3c1.2,1.1,2.3,2.2,3.5,3.4
				c0.4,0.3,0.5,0.6,0.4,1.1c-0.3,1.5-0.5,3.1-0.8,4.7c-0.3,1.5,0.5,2.9,2,3.4c1.1,0.4,2.2,0.2,3.3-0.4C51.5,37.5,53,36.8,54.6,36.2
				L54.6,36.2L54.6,36.2z M27.4,41.7c0.1-0.4-0.1-0.6-0.2-0.8c-2.2-4.4-3.8-9-5-13.7c-1.2-4.7-1.9-9.5-2.4-14.2
				c-0.1-0.7-0.3-0.8-1-0.8c-3.9,0-7.8,0-11.7,0c-0.7,0-0.9,0.2-0.8,0.8c0,1.2,0,2.4,0,3.5c0.2,10.4,5.2,18,14.7,23
				C23.1,40.6,25.2,41.3,27.4,41.7L27.4,41.7z"/>
			<path fill="#EF9F00" d="M76.9,97.1c1,0,2,0,3,0c1.7,0,3,0.9,3.4,2.4c0.3,1.4-0.4,2.8-2,3.5c-0.1,0.1-0.2,0.1-0.3,0.2H54.5
				c0-2,0-4.1,0-6.1l0,0C62,97.1,69.4,97.1,76.9,97.1z"/>
			<path fill="#E8AD05" d="M54.5,97.1c0,2,0,4.1,0,6.1H28.1c-0.1-0.3-0.5-0.3-0.7-0.4c-1.2-0.7-1.9-2-1.6-3.2c0.3-1.4,1.5-2.4,3-2.4
				c1.1,0,2.2,0,3.3,0C39.6,97.1,47.1,97.1,54.5,97.1z"/>
			<path fill="#F2BB20" d="M54.5,97.4c-7.5,0-14.9,0-22.4,0c0-3,0-6,0-9.1c0-0.5,0-1.1,0.3-1.5c7.3,0,14.7,0,22,0c0,0.1,0,0.1,0,0.2
				C54.6,90.5,54.5,94,54.5,97.4L54.5,97.4L54.5,97.4z"/>
			<path fill="#F7AA00" d="M54.5,97.4c0-3.5,0-7.1,0-10.6c6.8,0,13.7,0,20.5,0c0.5,0,1.1,0,1.6,0c0.3,0.4,0.3,0.8,0.3,1.3
				c0,3.1,0,6.3,0,9.4C69.4,97.4,62,97.4,54.5,97.4L54.5,97.4z"/>
			<path fill="#FFCC01" d="M54.5,13.8c1.5,0.1,2.6,0.8,3.2,2.2c0.5,1.1,1.2,2.2,1.7,3.4c0.3,0.7,0.8,1,1.5,1.1c1.5,0.2,3.1,0.5,4.6,0.7
				c1.3,0.2,2.3,0.9,2.7,2.2c0.4,1.2,0,2.2-0.9,3c-1.1,1-2.2,2.1-3.3,3.1c-0.4,0.4-0.7,0.8-0.5,1.4c0.3,1.4,0.4,2.8,0.7,4.2
				c0.3,1.4,0,2.6-1.2,3.4c-1.2,0.8-2.5,0.6-3.8,0c-1.3-0.6-2.5-1.2-3.8-1.9c-0.2-0.1-0.5-0.2-0.8-0.3l0,0
				C54.6,28.7,54.6,21.2,54.5,13.8L54.5,13.8L54.5,13.8z"/>
			<path fill="#FFDB53" d="M54.5,13.8c0,7.5,0,14.9,0,22.4c-1.6,0.6-3,1.3-4.5,2.1c-1,0.6-2.1,0.8-3.3,0.4c-1.5-0.5-2.3-1.9-2-3.4
				c0.3-1.5,0.5-3.1,0.8-4.7c0.1-0.5,0-0.8-0.4-1.1c-1.2-1.1-2.4-2.2-3.5-3.4c-0.9-0.9-1.3-1.9-0.8-3c0.4-1.2,1.3-1.9,2.7-2.1
				c1.5-0.2,3-0.4,4.5-0.6c0.7-0.1,1.2-0.4,1.5-1.1c0.6-1.3,1.3-2.5,1.9-3.7C52.1,14.4,53.1,13.8,54.5,13.8z"/>
		</g>
	</g>
</g>
</svg>
