<?xml version="1.0" encoding="utf-8"?>
<!-- Generator: Adobe Illustrator 27.0.0, SVG Export Plug-In . SVG Version: 6.00 Build 0)  -->
<svg version="1.1" id="katman_2_00000095319561657676018410000005640914083956563623_"
	 xmlns="http://www.w3.org/2000/svg" xmlns:xlink="http://www.w3.org/1999/xlink" x="0px" y="0px" viewBox="0 0 115.9 97.1"
	 style="enable-background:new 0 0 115.9 97.1;" xml:space="preserve">
<g id="_üst_arka">
	<g id="katman_43">
		<g>
			<path fill="#6562F6" d="M115.8,44.4c-0.2,0-0.4-0.2-0.5-0.3c-5-3.8-9.9-7.7-14.9-11.5c-0.6-0.5-0.8-1-0.8-1.7c0-6.4,0-12.7,0-19
				c0-0.8-0.2-1.1-1-1c-5,0-10,0-15,0c-0.9,0-1.1,0.3-1,1.1c0.1,2.2,0,4.5,0,6.8c-0.4,0-0.6-0.2-0.8-0.3c-2.3-1.8-4.7-3.6-7-5.4
				C69.2,8.7,63.7,4.4,58.1,0.2c-0.1,0-0.2,0-0.3-0.1l0,0c0,0.3,0.1,0.5,0.1,0.8c0,8.1,0,16.2,0,24.3v0C63.6,29.6,69.3,34,75,38.4
				c6.4,4.9,12.9,9.8,19.3,14.8c1.2,0.9,2.5,1.7,3.5,2.8c1.7,1.2,3.4,2.4,4.9,3.8c0.8,0.7,1.2,0.5,1.8-0.3c2.1-2.8,4.2-5.5,6.3-8.3
				c1.7-2.1,3.2-4.4,5-6.3v-0.3C115.9,44.6,115.8,44.5,115.8,44.4L115.8,44.4z"/>
			<path fill="#FFCC01" d="M57.8,66.9c-2.3,0-4.5,0.1-6.8,0c-0.9,0-1.1,0.3-1.1,1.2c0,9.3,0,18.5,0,27.8c0,1.1-0.3,1.3-1.3,1.3
				c-9.9,0-19.7,0-29.6,0c-0.9,0-1.2-0.2-1.2-1.2c0-13.3,0-26.6,0-39.9c0.2-0.2,0.3-0.4,0.5-0.6c6.9-5.3,13.7-10.6,20.6-15.8
				c6.3-4.8,12.5-9.6,18.8-14.4l0,0C57.8,39.1,57.8,53,57.8,66.9L57.8,66.9z"/>
			<path fill="#FCBD11" d="M57.8,66.9c0-13.9,0-27.8,0-41.7C63.6,29.6,69.3,34,75,38.4c6.4,4.9,12.9,9.8,19.3,14.8
				c1.2,0.9,2.5,1.7,3.5,2.8c0,13.3,0,26.5,0,39.8c0,1.1-0.3,1.3-1.3,1.3c-9.5,0-18.9,0-28.4,0c-0.9,0-1.2-0.2-1.2-1.2
				c0-9.3,0-18.5,0-27.8c0-0.9-0.2-1.3-1.2-1.3C63.1,67,60.5,66.9,57.8,66.9L57.8,66.9z"/>
			<path fill="#9292F7" d="M57.8,25.2C51.5,30,45.3,34.8,39,39.6c-6.9,5.3-13.7,10.6-20.6,15.8c-0.2,0.2-0.4,0.4-0.5,0.6
				c-1.8,1.1-3.4,2.5-5.1,3.8c-0.7,0.5-1,0.6-1.6-0.2C7.6,54.9,4,50.2,0.4,45.5c-0.5-0.7-0.6-1,0.1-1.5C19.4,29.5,38.2,15,57.1,0.5
				c0.2-0.2,0.4-0.3,0.7-0.4c0,0.3,0.1,0.5,0.1,0.8C57.8,9,57.8,17.1,57.8,25.2L57.8,25.2z"/>
			<path fill="#FE7D3C" d="M58.1,0.2c-0.1,0-0.2,0-0.3-0.1C57.9-0.1,58,0,58.1,0.2z"/>
		</g>
	</g>
</g>
</svg>
