<?xml version="1.0" encoding="UTF-8"?><svg id="katman_2" xmlns="http://www.w3.org/2000/svg" viewBox="0 0 115.94 97.15"><g id="_üst_arka"><g id="katman_43"><g><path d="M115.79,44.44c-.21-.04-.36-.22-.52-.34-4.97-3.82-9.93-7.65-14.92-11.45-.61-.47-.81-.95-.81-1.7,.03-6.35,0-12.7,.03-19.05,0-.76-.16-1.05-.99-1.04-4.99,.04-9.98,.04-14.97,0-.9,0-1.05,.3-1.04,1.11,.05,2.25,.02,4.5,.02,6.75-.41,.04-.57-.19-.77-.34-2.34-1.79-4.67-3.59-7.01-5.39-5.57-4.27-11.15-8.54-16.72-12.81-.11-.02-.21-.04-.32-.06h-.02c.03,.27,.07,.53,.07,.8,0,8.09,0,16.18,0,24.27v.02c5.75,4.4,11.49,8.8,17.23,13.21,6.43,4.93,12.87,9.84,19.27,14.81,1.18,.92,2.5,1.69,3.5,2.84,1.66,1.24,3.36,2.43,4.95,3.75,.83,.69,1.23,.53,1.82-.27,2.07-2.78,4.18-5.54,6.33-8.26,1.67-2.12,3.16-4.39,5.03-6.35v-.33c-.05-.04-.11-.09-.16-.13v-.04Z" fill="#6562f6"/><path d="M57.86,66.89c-2.27,.01-4.54,.07-6.8,.01-.92-.02-1.12,.28-1.12,1.15,.03,9.26,0,18.53,.04,27.79,0,1.06-.3,1.3-1.32,1.3-9.87-.04-19.74-.04-29.6,0-.94,0-1.19-.24-1.19-1.18,.03-13.31,.02-26.62,.03-39.92,.17-.19,.32-.42,.53-.58,6.86-5.29,13.72-10.57,20.59-15.84,6.27-4.82,12.55-9.62,18.82-14.43v.02c0,13.9,.02,27.8,.03,41.7v-.02Z" fill="#ffcc01"/><path d="M57.86,66.89c0-13.9,0-27.8-.02-41.7,5.74,4.4,11.48,8.8,17.21,13.21,6.43,4.93,12.87,9.84,19.27,14.81,1.18,.92,2.5,1.69,3.5,2.84,0,13.28-.02,26.55,.02,39.83,0,1.07-.32,1.27-1.31,1.27-9.46-.04-18.91-.04-28.37,0-.93,0-1.2-.22-1.19-1.18,.04-9.27,0-18.53,.04-27.8,0-.94-.15-1.3-1.21-1.27-2.64,.08-5.29,0-7.94,0h0Z" fill="#fcbd11"/><path d="M57.83,25.18c-6.27,4.81-12.55,9.62-18.82,14.43-6.87,5.27-13.73,10.56-20.59,15.84-.2,.16-.35,.38-.53,.58-1.82,1.09-3.4,2.49-5.07,3.78-.66,.51-1.02,.59-1.59-.16-3.58-4.73-7.2-9.44-10.85-14.12-.51-.65-.55-.98,.15-1.51C19.4,29.53,38.25,15.03,57.1,.54c.21-.16,.44-.28,.66-.42,.03,.26,.07,.52,.07,.79,0,8.09,0,16.18,0,24.27h0Z" fill="#9292f7"/><path d="M58.1,.17c-.11-.02-.21-.04-.32-.06,.15-.19,.24-.11,.32,.06Z" fill="#fe7d3c"/></g></g></g></svg>