<?xml version="1.0" encoding="utf-8"?>
<!-- Generator: Adobe Illustrator 27.0.0, SVG Export Plug-In . SVG Version: 6.00 Build 0)  -->
<svg version="1.1" id="katman_2_00000170248236286353461810000015485762548068056497_"
	 xmlns="http://www.w3.org/2000/svg" xmlns:xlink="http://www.w3.org/1999/xlink" x="0px" y="0px" viewBox="0 0 65.1 91.1"
	 style="enable-background:new 0 0 65.1 91.1;" xml:space="preserve">
<g id="_üst_arka">
	<g id="katman_45">
		<g>
			<g>
				<path fill="#9292F7" d="M13.8,11c6.1,0,12.2,0,18.4,0c0.4,0,0.9,0,1.3-0.1c0-3.6,0-7.2,0.1-10.9H10.3c-5,0.8-9.1,5.1-10,9.9
					C0.1,10.8,0,11.7,0,12.5v64.5c0.6-3.8,2.3-7,5.5-9.2c2.1-1.4,4.3-2.3,6.8-2.3c6.4,0,12.9,0,19.3,0c0.6,0,1.1-0.1,1.7-0.1
					c0-2.7,0-5.4,0-8.2c0-10.2,0-20.3,0-30.5c-5.2,0-10.4,0-15.6-0.1c-1.5,0-2.9,0-4.4,0c-0.6,0-1-0.1-1-0.9c0-4.7,0-9.4,0-14
					C12.5,10.8,13.2,11,13.8,11L13.8,11z"/>
				<rect fill="#9292F7" width="33.5" height="66"/>
				<rect x="33.5" fill="#6562F6" width="31.4" height="65.4"/>
				<path fill="#6562F6" d="M13,85.2c-3.8,0-6.9-3.3-6.8-7.1c0-2.8,1.6-5.2,3.9-6.3c0.4-0.2,0.8-0.4,1.3-0.6c0.4-0.1,0.9-0.2,1.4-0.2v0
					h20.7c0,0,0-0.1,0-0.1v-5.7c0,0,0,0,0,0H12.2c-2.5,0-4.7,0.9-6.7,2.3C2.3,69.8,0.7,73,0,76.7v2.1c0.3,4.3,2.3,7.8,5.9,10.4
					c0.3,0.2,0.7,0.4,1.1,0.6c1.7,0.6,3.3,1.3,5.2,1.3c7.1,0,14.2,0,21.3,0c0-1.9,0-3.9,0-5.8l0-0.1C26.7,85.2,19.8,85.3,13,85.2z"
					/>
				<path fill="#4D4DF7" d="M64.9,71v-5.8c-0.6,0-1.2,0-1.8,0c-9.9,0-19.7,0-29.6,0V71H64.9L64.9,71z"/>
				<path fill="#4D4DF7" d="M65,85.2c-10.5,0-21,0-31.4,0.1v5.8c9.3,0,18.6,0,27.8,0.1c2.9,0,3.7-0.3,3.7-1C64.9,88.5,65,86.9,65,85.2
					L65,85.2z"/>
				<path fill="#FFCC01" d="M12.9,11c-0.2,0.1-0.4,0.3-0.4,0.8c0,4.7,0,9.5,0,14.2c0,0.8,0.4,0.9,1,0.9c1.5,0,2.9,0,4.4,0
					c5.2,0,10.4,0,15.5,0.1l0-0.1c0-5.3,0-10.6,0-15.9L12.9,11L12.9,11z"/>
				<rect x="12.5" y="11" fill="#FFCC01" width="21" height="16"/>
				<rect x="33.5" y="11" fill="#FCBD11" width="24" height="16"/>
				<path fill="#FDFEFE" d="M33.6,71.1c-6.8,0-13.6-0.1-20.4,0c-4,0-7,3.2-7.1,7c0,3.8,3.1,7.1,7.1,7.1c6.8,0.1,13.6,0,20.3,0V71.1
					L33.6,71.1z"/>
				<rect x="10.5" fill="#9292F7" width="23" height="11"/>
			</g>
			<polygon fill="#E7EBF3" points="64.9,79.4 64.9,71 33.5,71 33.5,85.2 65,85.2 65,79.4 			"/>
		</g>
	</g>
</g>
</svg>
