<?xml version="1.0" encoding="UTF-8"?><svg id="katman_2" xmlns="http://www.w3.org/2000/svg" viewBox="0 0 65.06 91.14"><g id="_üst_arka"><g id="katman_45"><g><g><path d="M13.77,10.99h18.36c.44,0,.88-.04,1.32-.06,.02-3.62,.05-7.23,.07-10.85H10.3C5.33,.91,1.24,5.22,.29,9.97c-.17,.84-.24,1.7-.29,2.56V77.05c.65-3.78,2.29-6.98,5.5-9.21,2.05-1.43,4.31-2.3,6.84-2.31,6.44-.01,12.89,0,19.33-.02,.58,0,1.15-.05,1.73-.08,.02-2.72,.05-5.44,.05-8.16V26.77c-5.19-.03-10.37-.05-15.56-.08-1.46,0-2.93-.02-4.39,0-.63,.01-.99-.09-.98-.85,.02-4.67,.03-9.35,0-14.02,0-1.05,.66-.84,1.25-.84h0Z" fill="#9292f7"/><rect width="33.53" height="66" fill="#9292f7"/><rect x="33.53" width="31.39" height="65.37" fill="#6562f6"/><path d="M12.98,85.21c-3.83-.04-6.86-3.32-6.82-7.12,.03-2.76,1.6-5.16,3.92-6.29,.38-.25,.82-.44,1.31-.57,.43-.13,.9-.2,1.42-.21v-.03h20.71v-5.72h0s-21.3-.01-21.3-.01c-2.48,.04-4.7,.89-6.71,2.29C2.3,69.78,.66,72.96,.01,76.72v2.05c.28,4.33,2.33,7.76,5.95,10.4,.35,.25,.73,.45,1.14,.6,1.68,.6,3.33,1.33,5.16,1.33,7.09,0,14.18,0,21.27-.01,0-1.93,0-3.86-.02-5.79l.02-.1c-6.85,.01-13.7,.09-20.55,.01Z" fill="#6562f6"/><path d="M64.91,70.99v-5.75c-.6,0-1.19,.01-1.79,.01-9.87,.01-19.74,.02-29.61,.03v5.71h31.4Z" fill="#4d4df7"/><path d="M64.99,85.21c-10.48,.02-20.96,.03-31.44,.05v5.81c9.28,.02,18.56,.01,27.83,.07,2.93,.02,3.73-.31,3.68-1.02-.12-1.63-.06-3.27-.07-4.9h0Z" fill="#4d4df7"/><path d="M12.9,11.02c-.24,.08-.4,.29-.4,.82,.03,4.74,.03,9.48,0,14.23,0,.77,.35,.88,.98,.87,1.46-.03,2.92-.02,4.38,0,5.18,.02,10.36,.05,15.54,.08l.02-.1V11.03H12.9Z" fill="#ffcc01"/><rect x="12.53" y="11" width="21" height="16" fill="#ffcc01"/><rect x="33.53" y="11" width="24" height="16" fill="#fcbd11"/><path d="M33.56,71.11c-6.79,0-13.57-.06-20.36,0-3.96,.04-7.02,3.18-7.06,6.97-.04,3.8,3.1,7.08,7.08,7.12,6.78,.07,13.56,0,20.34,0v-14.1h0Z" fill="#fdfefe"/><rect x="10.53" width="23" height="11" fill="#9292f7"/></g><polygon points="64.91 79.4 64.91 71 33.5 71 33.5 85.21 65.01 85.21 65.01 79.4 64.91 79.4" fill="#e7ebf3"/></g></g></g></svg>