<?xml version="1.0" encoding="utf-8"?>
<!-- Generator: Adobe Illustrator 27.0.0, SVG Export Plug-In . SVG Version: 6.00 Build 0)  -->
<svg version="1.1" id="katman_2_00000181078008718778413650000004513339138595002559_"
	 xmlns="http://www.w3.org/2000/svg" xmlns:xlink="http://www.w3.org/1999/xlink" x="0px" y="0px" viewBox="0 0 65.2 80"
	 style="enable-background:new 0 0 65.2 80;" xml:space="preserve">
<g id="_üst_arka">
	<g id="PROFİL">
		<g>
			<path fill="#6562F6" d="M44,36.6c4.1,1.7,7.8,3.9,11,7c5.5,5.3,8.8,11.8,9.9,19.4c0.2,1.4,0.2,2.9,0.4,4.3c0,0.1-0.1,0.1-0.1,0.2
				c-7.1,6.5-15.4,10.5-24.9,12c-1.3,0.2-2.6,0.2-3.8,0.6h-3.8c0-13.3,0-26.6,0-39.9c2.1-0.1,4.2-0.4,6.2-1
				C40.7,38.5,42.3,37.5,44,36.6L44,36.6z"/>
			<path fill="#9292F7" d="M32.6,40.1c0,13.3,0,26.6,0,39.9h-3.8c-0.1-0.2-0.2-0.2-0.4-0.2c-2.1-0.2-4.2-0.5-6.3-1
				C13.7,76.9,6.3,73.1,0,67.3c0.1-5.7,1.3-11,4.1-16c3.9-6.9,9.6-11.8,17.1-14.7c0.3,0.2,0.7,0.3,1,0.5C25.4,39,28.8,40,32.6,40.1
				L32.6,40.1L32.6,40.1z"/>
			<path fill="#FCBD11" d="M44,36.6c-1.7,0.9-3.3,1.9-5.2,2.5c-2,0.7-4.1,1-6.2,1V40c0-13.3,0-26.6,0-40V0c4.6,0.1,8.8,1.5,12.4,4.4
				c4.1,3.3,6.7,7.6,7.3,12.9c1,7.8-1.8,14.1-8.1,19C44.2,36.4,44.1,36.5,44,36.6L44,36.6z"/>
			<path fill="#FFCC01" d="M32.6,0.1c0,13.3,0,26.6,0,40c-3.7,0-7.2-1-10.4-2.9c-0.3-0.2-0.7-0.4-1-0.5c-1.7-1.5-3.4-2.9-4.8-4.8
				C7.6,19.7,14.9,2.4,29.6,0.3C30.6,0.1,31.6,0,32.6,0.1z"/>
		</g>
	</g>
</g>
</svg>
