<?xml version="1.0" encoding="UTF-8"?><svg id="katman_2" xmlns="http://www.w3.org/2000/svg" viewBox="0 0 66.13 81.52"><g id="_üst_arka"><g id="PROFİL"><g><path d="M44.66,38.1c4.12,1.67,7.9,3.88,11.11,6.95,5.58,5.34,8.97,11.77,10,19.4,.19,1.44,.23,2.88,.36,4.32-.04,.05-.07,.11-.11,.15-7.22,6.47-15.64,10.47-25.26,12.04-1.3,.21-2.63,.17-3.9,.56h-3.83c0-13.29,0-26.57,0-39.86,2.16-.06,4.27-.39,6.33-1.04,1.88-.59,3.56-1.59,5.27-2.52h.02Z" fill="#6562f6"/><path d="M33.05,41.66c0,13.29,0,26.57-.02,39.86h-3.83c-.09-.16-.25-.17-.41-.18-2.16-.16-4.29-.49-6.4-.97-8.49-1.9-15.97-5.71-22.39-11.54,.05-5.68,1.36-11.04,4.2-15.99,3.98-6.94,9.78-11.84,17.32-14.7,.33,.18,.68,.34,1,.53,3.24,1.92,6.74,2.92,10.52,2.9v.08h0Z" fill="#9292f7"/></g><path d="M33,42c-11.6,0-21-9.4-21-21S21.41,0,33,0" fill="#ffcc01"/><path d="M33,0c11.6,0,21,9.4,21,21s-9.4,21-21,21" fill="#fcbd11"/></g></g></svg>