<?xml version="1.0" encoding="utf-8"?>
<!-- Generator: Adobe Illustrator 27.0.0, SVG Export Plug-In . SVG Version: 6.00 Build 0)  -->
<svg version="1.1" id="katman_2_00000085233653012684110560000000889292443511951295_"
	 xmlns="http://www.w3.org/2000/svg" xmlns:xlink="http://www.w3.org/1999/xlink" x="0px" y="0px" viewBox="0 0 98.9 118"
	 style="enable-background:new 0 0 98.9 118;" xml:space="preserve">
<g id="_üst_arka">
	<g id="katman_47">
		<g>
			<g>
				<path fill="#FCBD11" d="M49.4,99c4.9,0,9.4-1.5,13.5-4.3c0.2-0.1,0.4-0.3,0.7-0.4c0,7.2,0,14.3,0,21.4c0,1.7-1.5,2.7-2.8,2.1
					c-0.2-0.1-0.4-0.2-0.5-0.3c-3.6-2.8-7.2-5.6-10.8-8.3C49.4,105.8,49.4,102.4,49.4,99L49.4,99L49.4,99z"/>
				<path fill="#FFCC01" d="M49.4,99c0,3.4,0,6.7,0,10.1c-3.5,2.7-7.1,5.4-10.6,8.2c-0.6,0.5-1.2,0.8-2,0.7c-1-0.2-1.6-1.2-1.6-2.5
					c0-3.6,0-7.2,0-10.9c0-3.4,0-6.9,0-10.3c1.9,1.3,3.8,2.4,5.9,3.2c1.9,0.8,3.9,1.2,6,1.4C47.8,98.9,48.6,99,49.4,99L49.4,99z"/>
			</g>
			<path fill="#6562F6" d="M49.4,0c-0.2,0-0.4,0-0.6,0v99c0.2,0,0.4,0,0.6,0c27.3,0,49.5-22.2,49.5-49.5S76.8,0,49.4,0z"/>
		</g>
	</g>
	<g id="katman_53">
		<path fill="#9292F7" d="M48.9,0C21.9,0.3,0,22.4,0,49.5S21.9,98.7,48.9,99V0z"/>
	</g>
	<g id="katman_51">
		<path fill="#FCBD11" d="M48.9,23.4c1.7-0.1,2.6,0.7,3.3,2c1.7,3.2,3.5,6.3,5,9.5c0.8,1.8,2.1,2.3,4,2.5c4,0.4,8.1,1,12.1,1.7
			c2.6,0.4,3.5,3.5,1.6,5.2c-3.1,3-6.3,5.8-9.6,8.6c-0.7,0.6-1,1.1-0.8,2.1c0.9,4,1.6,8,2.3,11.9c0.2,1.4-0.3,2.5-1.5,3.3
			c-1.1,0.8-2.2,0.8-3.4,0.3c-3.4-1.6-6.8-3.3-10.2-5c-0.9-0.5-1.8-1-2.8-1.3l0,0C48.9,50.8,48.9,37.1,48.9,23.4L48.9,23.4
			L48.9,23.4z"/>
		<path fill="#FFCC01" d="M48.9,23.4c0,13.7,0,27.4,0,41c-1.7,0.6-3.3,1.5-4.9,2.3c-2.7,1.3-5.5,2.6-8.2,3.9c-1.2,0.6-2.4,0.5-3.4-0.3
			c-1.1-0.9-1.6-2-1.3-3.4c0.8-4.1,1.6-8.2,2.3-12.3c0.1-0.6-0.2-0.9-0.6-1.3c-3.1-2.8-6.2-5.7-9.4-8.5c-1.1-1-1.7-2.1-1.3-3.5
			c0.5-1.5,1.8-2.2,3.4-2.4c4.4-0.6,8.8-1.2,13.2-1.7c0.8-0.1,1-0.6,1.2-1.1c1.9-3.6,3.8-7.1,5.7-10.7
			C46.2,24.1,47.2,23.4,48.9,23.4L48.9,23.4z"/>
	</g>
</g>
</svg>
