<?xml version="1.0" encoding="UTF-8"?><svg id="katman_2" xmlns="http://www.w3.org/2000/svg" viewBox="0 0 294 45.44"><g id="SIRALAMA_ARKA_PLAN"><path d="M4.5,36.44H43c.39,0,10.62-.9,11-1,4.01-1.06,28.36-6.77,43-15C113,11.44,135,1.44,143,.44c6.95-.87,15-1,28,5,11.83,5.46,32.2,16.36,34.73,17.84,.18,.11,.37,.2,.56,.28l16.47,6.78c.16,.06,.32,.12,.48,.17l13.49,3.85c.18,.05,.36,.09,.54,.12l12.15,1.9c.23,.04,.46,.05,.7,.05h39.38c2.49,0,4.5,2.01,4.5,4.5h0c0,2.49-2.01,4.5-4.5,4.5H4.5c-2.49,0-4.5-2.01-4.5-4.5H0c0-2.49,2.01-4.5,4.5-4.5h0Z" fill="#edecfa"/></g></svg>