<?xml version="1.0" encoding="UTF-8"?>
<svg id="katman_2" data-name="katman 2" xmlns="http://www.w3.org/2000/svg" viewBox="0 0 116.89 99.34">
  <g id="katman_55" data-name="katman 55">
    <g>
      <g>
        <path d="m57.95,92.92c-5.57-6.33-11.15-12.64-16.69-18.98-11.27-12.88-22.53-25.78-33.79-38.68-.51-.58-1.13-1.09-1.42-1.84,11.54,0,23.08-.01,34.62-.02.09.01.17.02.26.01h.01c.04.27.05.53.12.78,1.54,5.31,3.09,10.61,4.63,15.91,3.43,11.76,6.87,23.51,10.27,35.28.72,2.5,1.67,4.94,1.99,7.54Z" fill="#fdb501" stroke-width="0"/>
        <path d="m62.19,88.67c-8.61-9.79-17.22-19.58-25.8-29.39-4.12-4.71-8.23-9.42-12.35-14.13s-9.43-9.47-12.83-14.77l-5.18,9.03c6.09,0,12.18,0,18.27-.01,2.89,0,5.77,0,8.66,0,1.28,0,2.56,0,3.85,0,.96,0,1.92,0,2.89,0,1.9.09,1.31-.18-1.79-.8l-2.76-3.59c.74,4.71,2.65,9.45,3.98,14.03,1.52,5.22,3.04,10.43,4.56,15.65,2.85,9.78,6.77,19.79,8.46,29.82,1.28,7.6,12.85,4.38,11.57-3.19-1.48-8.78-4.89-17.56-7.38-26.11s-5.14-17.62-7.71-26.43c-.97-3.34-1.36-8.6-4.68-10.55-2.56-1.5-6.28-.84-9.07-.84-9.62,0-19.24.01-28.85.02-4.41,0-7.67,5.15-5.18,9.03,3.29,5.15,8.09,9.62,12.1,14.22,4.55,5.21,9.09,10.42,13.64,15.62,9.01,10.31,18.05,20.6,27.1,30.88,5.11,5.81,13.57-2.71,8.49-8.49Z" fill="#fff" stroke-width="0"/>
      </g>
      <g>
        <path d="m110.54,33.41c-2.11,2.93-4.64,5.51-7.01,8.23-14.62,16.77-29.27,33.52-43.92,50.28-.31.35-.65.67-.98,1.01.04-.36.04-.73.14-1.08,1.73-6.01,3.46-12.02,5.21-18.03,2.46-8.46,4.94-16.91,7.39-25.37,1.45-5,2.85-10.02,4.27-15.04h.01c.09,0,.18,0,.26-.02,11.54,0,23.08.01,34.62.02Z" fill="#fdb501" stroke-width="0"/>
        <path d="m105.36,30.38c-7.72,10.22-17.01,19.56-25.44,29.2-8.46,9.68-16.57,19.89-25.53,29.1l10.24,4.24c.58-4.55,2.8-9.48,4.08-13.9,1.4-4.83,2.81-9.65,4.22-14.48,2.87-9.83,5.7-19.68,8.49-29.54l-2.76,3.59-2.75.8c.96,0,1.92,0,2.89,0,1.28,0,2.56,0,3.85,0,3.21,0,6.41,0,9.62,0,6.09,0,12.18,0,18.27,0,7.72,0,7.73-12,0-12-9.62,0-19.24-.01-28.85-.02-2.81,0-6.48-.64-9.07.84-3.67,2.09-4.11,8.38-5.15,12.05-2.51,8.85-5.11,17.68-7.69,26.51s-6.03,17.36-7.14,26.14c-.68,5.34,6.9,7.67,10.24,4.24,9.42-9.67,17.94-20.41,26.82-30.58,8.69-9.95,18.05-19.61,26.02-30.15,4.66-6.16-5.76-12.15-10.36-6.06Z" fill="#fff" stroke-width="0"/>
      </g>
      <g>
        <path d="m75.64,33.41c-1.42,5.01-2.82,10.03-4.27,15.04-2.45,8.46-4.93,16.91-7.39,25.37-1.75,6.01-3.48,12.02-5.21,18.03-.1.34-.09.72-.14,1.08-.24.56-.46.56-.68,0-.32-2.6-1.27-5.04-1.99-7.54-3.4-11.77-6.84-23.52-10.27-35.28-1.55-5.3-3.09-10.61-4.63-15.91-.07-.25-.08-.51-.12-.77,11.57,0,23.13,0,34.7,0Z" fill="#fdd23b" stroke-width="0"/>
        <path d="m69.85,31.82c-2.96,10.46-5.97,20.91-9.02,31.35-2.82,9.67-6.93,19.78-8.2,29.76l1.76-4.24-.35.42h8.49c1.66,2.11-.08-3.02-.33-3.83-.8-2.66-1.56-5.33-2.33-7.99-1.53-5.26-3.06-10.52-4.59-15.78-1.44-4.92-2.87-9.84-4.31-14.76s-3.45-9.92-4.24-14.92l-5.79,7.6c11.57,0,23.13,0,34.7,0,7.72,0,7.73-12,0-12-11.57,0-23.13,0-34.7,0-4.25,0-6.38,3.81-5.79,7.6.79,5,2.82,10.05,4.24,14.92,1.7,5.85,3.41,11.7,5.12,17.55,1.62,5.57,3.25,11.14,4.86,16.71,1.24,4.29,1.92,9.9,4.67,13.4,1.88,2.4,6.59,2.28,8.49,0,2.76-3.32,3.43-9.03,4.62-13.16,1.57-5.42,3.14-10.84,4.72-16.26,3.22-11.04,6.42-22.09,9.55-33.16,2.11-7.44-9.47-10.62-11.57-3.19Z" fill="#fff" stroke-width="0"/>
      </g>
      <g>
        <path d="m110.54,33.41c-11.54,0-23.08-.01-34.62-.02,4.68-7.43,9.38-14.84,14.01-22.3,1.04-1.67,2.4-3.17,3.03-5.09.68,0,.81.62,1.07,1.03,5.39,8.46,10.76,16.93,16.13,25.4.19.3.49.57.39.98Z" fill="#fde079" stroke-width="0"/>
        <path d="m110.54,27.41c-11.54,0-23.08-.01-34.62-.02l5.18,9.03c3.01-4.77,6.02-9.54,9.03-14.32,2.66-4.24,6.04-8.48,8.01-13.07l-8.21,2.15c-1.5-.79-1.14-1.39-.08.46.78,1.35,1.69,2.65,2.52,3.97,1.51,2.38,3.03,4.76,4.54,7.14,1.34,2.12,2.69,4.23,4.03,6.35.84,1.32,1.68,2.65,2.52,3.97.31.49,1.47,3.04,1.29,1.93,1.19,7.61,12.76,4.38,11.57-3.19-.41-2.59-2.64-5.02-4.01-7.18-1.85-2.91-3.69-5.82-5.54-8.73s-3.7-5.82-5.55-8.73c-1.51-2.37-2.66-5-5.24-6.35s-6.88-.94-8.21,2.15c-1.97,4.57-5.36,8.84-8.01,13.07-3,4.78-6.02,9.55-9.03,14.32-2.45,3.89.75,9.03,5.18,9.03,11.54,0,23.08.01,34.62.02,7.72,0,7.73-12,0-12Z" fill="#fff" stroke-width="0"/>
      </g>
      <g>
        <path d="m40.67,33.39c-11.54,0-23.08.01-34.62.02.67-1.95,2-3.51,3.08-5.22,4.45-7.08,8.94-14.12,13.44-21.17.26-.4.38-1.03,1.06-1.03.15.39.24.81.46,1.15,3,4.72,6.03,9.42,9.02,14.14,2.54,4.02,5.04,8.06,7.56,12.09Z" fill="#fde079" stroke-width="0"/>
        <path d="m40.67,27.39c-11.54,0-23.08.01-34.62.02l5.18,9.03c2.05-4.69,5.48-9.05,8.23-13.37,1.38-2.17,2.76-4.34,4.14-6.51.86-1.36,1.73-2.71,2.59-4.06.35-.54.69-1.08,1.04-1.63.85-1.21.66-1.11-.57.31l-8.81-3.59c2.03,5.13,5.63,9.72,8.58,14.37s6.05,9.63,9.06,14.45c4.08,6.54,14.47.52,10.36-6.06-2.68-4.3-5.35-8.6-8.06-12.88s-6.59-8.58-8.37-13.08c-1.46-3.68-5.1-5.53-8.81-3.59-4.5,2.35-7.34,9.62-9.96,13.75-3.25,5.11-7.35,10.26-9.78,15.81-1.76,4.02.23,9.03,5.18,9.03,11.54,0,23.08-.01,34.62-.02,7.72,0,7.73-12,0-12Z" fill="#fff" stroke-width="0"/>
      </g>
      <g>
        <path d="m75.64,33.41c-11.57,0-23.13,0-34.7,0,0,0-.01,0-.01,0,.27-.51.51-1.03.82-1.51,4.48-7.02,9-14.02,13.42-21.07.99-1.57,2.28-2.98,2.83-4.82.2,0,.39,0,.59,0,.15.39.24.81.45,1.15,2.26,3.56,4.55,7.1,6.8,10.66,3.28,5.19,6.54,10.39,9.81,15.59h-.01Z" fill="#fde078" stroke-width="0"/>
        <path d="m75.64,27.41c-5.78,0-11.57,0-17.35,0-2.57,0-5.14,0-7.71,0-1.61,0-3.21,0-4.82,0-1.16,0-4.13-.76-1.8.81l2.15,8.21c5.3-9.82,13.43-18.51,17.67-28.84l-5.79,4.4h.59c-1.93-1.47-3.86-2.94-5.79-4.4,1.98,5.01,5.48,9.48,8.35,14.02,3.12,4.93,6.21,9.87,9.32,14.81l2.15-8.21h-.01c-6.35,4.33-.35,14.73,6.06,10.37h.01c2.61-1.79,3.98-5.32,2.15-8.22-2.78-4.42-5.55-8.84-8.34-13.26-2.52-3.99-6.4-8.34-8.12-12.72C63.39,1.91,61.43,0,58.58,0h-.59c-2.91,0-4.76,1.92-5.79,4.4-1.74,4.24-5.42,8.45-7.88,12.31-2.88,4.51-6.04,8.94-8.58,13.66-1.62,3-.61,6.34,2.15,8.21,1.89,1.28,4.73.83,6.9.83,3.53,0,7.07,0,10.6,0,6.75,0,13.49,0,20.24,0,7.72,0,7.73-12,0-12Z" fill="#fff" stroke-width="0"/>
      </g>
      <g>
        <path d="m57.99,6c-.55,1.83-1.85,3.24-2.83,4.82-4.42,7.06-8.94,14.05-13.42,21.07-.31.48-.55,1.01-.82,1.51-.09,0-.18,0-.26-.01-2.52-4.03-5.02-8.08-7.56-12.09-2.99-4.72-6.02-9.42-9.02-14.14-.22-.34-.31-.77-.46-1.15,11.46,0,22.91,0,34.37,0Z" fill="#fdd23c" stroke-width="0"/>
        <path d="m52.21,4.4c-1.74,4.24-5.42,8.45-7.88,12.31-2.88,4.51-6.04,8.94-8.58,13.66l5.18-2.97h-.26c1.73.98,3.45,1.97,5.18,2.96-2.68-4.3-5.35-8.6-8.06-12.88s-6.59-8.58-8.37-13.08l-5.79,7.6c11.46,0,22.91,0,34.37,0C65.71,12,65.73,0,57.99,0c-11.46,0-22.91,0-34.37,0-3.55,0-7.25,3.89-5.79,7.6,2.57,6.48,7.32,12.35,11.03,18.24,2.85,4.53,5.91,13.25,12.06,13.57,2.03.1,4.23-1.2,5.18-2.97,5.3-9.82,13.43-18.51,17.67-28.84,2.93-7.14-8.67-10.25-11.57-3.19Z" fill="#fff" stroke-width="0"/>
      </g>
      <g>
        <path d="m75.65,33.4c-3.27-5.2-6.53-10.4-9.81-15.59-2.25-3.56-4.54-7.1-6.8-10.66-.22-.34-.31-.76-.45-1.15,11.46,0,22.91,0,34.37,0-.63,1.92-1.99,3.42-3.03,5.09-4.63,7.46-9.34,14.87-14.01,22.3-.09.01-.17.02-.26.01Z" fill="#fdd23c" stroke-width="0"/>
        <path d="m80.83,30.38c-2.78-4.42-5.55-8.84-8.34-13.26-2.52-3.99-6.4-8.34-8.12-12.72l-5.79,7.6c11.46,0,22.91,0,34.37,0l-5.18-9.03c-1.97,4.57-5.36,8.84-8.01,13.07-3,4.78-6.02,9.55-9.03,14.32l5.18-2.97h-.26c-7.68.42-7.73,12.42,0,12.01,6.01-.32,9.16-8.88,11.97-13.33,3.47-5.5,7.95-11.09,10.52-17.05C99.87,5,97.92,0,92.95,0c-11.46,0-22.91,0-34.37,0-3.56,0-7.25,3.89-5.79,7.6,1.98,5.01,5.48,9.48,8.35,14.02,3.12,4.93,6.21,9.87,9.32,14.81,4.1,6.52,14.49.51,10.36-6.06Z" fill="#fff" stroke-width="0"/>
      </g>
    </g>
    <g>
      <path d="m58.05,92.52c-5.57-6.33-11.15-12.64-16.69-18.98-11.27-12.88-22.53-25.78-33.79-38.68-.51-.58-1.13-1.09-1.42-1.84,11.54,0,23.08-.01,34.62-.02.09.01.17.02.26.01h.01c.04.27.05.53.12.78,1.54,5.31,3.09,10.61,4.63,15.91,3.43,11.76,6.87,23.51,10.27,35.28.72,2.5,1.67,4.94,1.99,7.54Z" fill="#fdb501" stroke-width="0"/>
      <path d="m110.63,33.02c-2.11,2.93-4.64,5.51-7.01,8.23-14.62,16.77-29.27,33.52-43.92,50.28-.31.35-.65.67-.98,1.01.04-.36.04-.73.14-1.08,1.73-6.01,3.46-12.02,5.21-18.03,2.46-8.46,4.94-16.91,7.39-25.37,1.45-5,2.85-10.02,4.27-15.04h.01c.09,0,.18,0,.26-.02,11.54,0,23.08.01,34.62.02Z" fill="#fdb501" stroke-width="0"/>
      <path d="m75.73,33.02c-1.42,5.01-2.82,10.03-4.27,15.04-2.45,8.46-4.93,16.91-7.39,25.37-1.75,6.01-3.48,12.02-5.21,18.03-.1.34-.09.72-.14,1.08-.24.56-.46.56-.68,0-.32-2.6-1.27-5.04-1.99-7.54-3.4-11.77-6.84-23.52-10.27-35.28-1.55-5.3-3.09-10.61-4.63-15.91-.07-.25-.08-.51-.12-.77,11.57,0,23.13,0,34.7,0Z" fill="#fdd23b" stroke-width="0"/>
      <path d="m110.63,33.02c-11.54,0-23.08-.01-34.62-.02,4.68-7.43,9.38-14.84,14.01-22.3,1.04-1.67,2.4-3.17,3.03-5.09.68,0,.81.62,1.07,1.03,5.39,8.46,10.76,16.93,16.13,25.4.19.3.49.57.39.98Z" fill="#fde079" stroke-width="0"/>
      <path d="m40.76,33c-11.54,0-23.08.01-34.62.02.67-1.95,2-3.51,3.08-5.22,4.45-7.08,8.94-14.12,13.44-21.17.26-.4.38-1.03,1.06-1.03.15.39.24.81.46,1.15,3,4.72,6.03,9.42,9.02,14.14,2.54,4.02,5.04,8.06,7.56,12.09Z" fill="#fde079" stroke-width="0"/>
      <path d="m75.73,33.02c-11.57,0-23.13,0-34.7,0,0,0-.01,0-.01,0,.27-.51.51-1.03.82-1.51,4.48-7.02,9-14.02,13.42-21.07.99-1.57,2.28-2.98,2.83-4.82.2,0,.39,0,.59,0,.15.39.24.81.45,1.15,2.26,3.56,4.55,7.1,6.8,10.66,3.28,5.19,6.54,10.39,9.81,15.59h-.01Z" fill="#fde078" stroke-width="0"/>
      <path d="m58.09,5.61c-.55,1.83-1.85,3.24-2.83,4.82-4.42,7.06-8.94,14.05-13.42,21.07-.31.48-.55,1.01-.82,1.51-.09,0-.18,0-.26-.01-2.52-4.03-5.02-8.08-7.56-12.09-2.99-4.72-6.02-9.42-9.02-14.14-.22-.34-.31-.77-.46-1.15,11.46,0,22.91,0,34.37,0Z" fill="#fdd23c" stroke-width="0"/>
      <path d="m75.75,33.01c-3.27-5.2-6.53-10.4-9.81-15.59-2.25-3.56-4.54-7.1-6.8-10.66-.22-.34-.31-.76-.45-1.15,11.46,0,22.91,0,34.37,0-.63,1.92-1.99,3.42-3.03,5.09-4.63,7.46-9.34,14.87-14.01,22.3-.09.01-.17.02-.26.01Z" fill="#fdd23c" stroke-width="0"/>
    </g>
  </g>
</svg>