<?xml version="1.0" encoding="UTF-8"?><svg id="katman_2" xmlns="http://www.w3.org/2000/svg" viewBox="0 0 122.84 99.03"><g id="_üst_arka"><g id="katman_46"><g><g><path d="M61.42,93.03c70.03-14.96,61.51-75.16,40.42-84.55-22.41-9.98-40.36,13.22-40.36,13.22,0,0-17.96-23.2-40.36-13.22C.01,17.88-8.5,78.07,61.53,93.03h-.11Z" fill="#ff699e"/><path d="M63.01,98.82c27.77-6.11,55.52-23.19,59.42-53.65C125.06,24.63,115.07,1.21,91.91,.04c-13.15-.66-26.69,7.22-34.68,17.42h8.49C51.5-.7,20.9-8.07,6.79,13.85-5.13,32.37-.33,57.45,13.2,73.61c11.66,13.94,29.39,21.39,46.74,25.21l1.6-11.79h-.11c-7.72,0-7.73,12,0,12h.11c6.62,0,8.34-10.3,1.6-11.79-22.42-4.94-46.4-17.31-50.58-42.12-1.21-7.19-.26-15.45,2.51-21.4,1.55-3.35,2.77-5.08,4.96-7.3,1.45-1.47,.9-1.05,2.78-2.08,2.49-1.37,5.42-2.11,8.24-2.3,10.19-.71,20.12,6.15,26.2,13.91,1.84,2.35,6.66,2.34,8.49,0,5.1-6.51,12.82-12.25,21.07-13.66,5.1-.88,10.87,.08,15.1,3.18-.93-.68,.57,.5,.84,.78,.53,.53,1.05,1.05,1.54,1.61,.78,.88,1.48,1.91,2.46,3.64,7.69,13.63,4.32,32.8-6.73,45.08-10.43,11.59-25.28,17.4-40.19,20.68-7.54,1.66-4.35,13.23,3.19,11.57h0Z" fill="#fff"/></g><g><g><path d="M71.37,83.26c-31.93,1.74-58.3-36-48.48-65.77,1.37-4.16,3.72-8.32,6.86-11.33-2.78,.29-5.67,1.01-8.64,2.34C.02,17.87-8.49,78.03,61.47,93.02c21.88-4.69,36.09-13.79,44.63-24.38-7.02,5.45-14.7,10.01-23.17,12.58-3.75,1.14-7.65,1.83-11.57,2.04h0Z" fill="#f03c80"/><path d="M71.37,77.26c-15.59,.6-29.23-8.83-37.2-21.82s-11.8-33.03-.19-45.05c4.54-4.7-.23-10.78-5.84-10.03C5.96,3.35-2.25,26.99,.73,46.75c4.27,28.32,30.18,45.14,56.18,51.38,10.09,2.42,22.88-3.68,31.84-8.25,8.2-4.18,15.73-9.88,21.6-17,3.94-4.78-1.42-13.89-7.27-9.42-9.35,7.14-19.75,12.94-31.71,13.8-7.66,.55-7.72,12.56,0,12,14.13-1.02,26.61-6.92,37.76-15.44-2.42-3.14-4.85-6.28-7.27-9.42-9.44,11.45-23.95,19.31-38.51,22.04-5.98,1.12-14.49-2.92-20-5.42s-10.89-5.62-15.48-9.6c-13.23-11.48-19.27-29.15-13.7-45.49,.87-2.54,2.99-6.4,4.48-8.08,3.2-3.61,6.62-5.09,12.67-5.91L25.5,1.9c-15.12,15.66-12.58,40.95-2.35,58.49,10.23,17.54,28.01,29.63,48.21,28.86,7.7-.29,7.74-12.3,0-12h.01Z" fill="#fff"/></g><g><path d="M61.53,93.03s-.04,0-.06-.01c-.02,0-.04,0-.06,.01h.12Z" fill="#f03c80"/><path d="M63.12,87.25c-.56-.13-.44-.23-1.65-.23s-1.09,.1-1.65,.23c-.78,.19-1.46,.54-2.04,1.07-.65,.42-1.17,.98-1.55,1.68l-.6,1.43c-.25,.8-.29,1.6-.11,2.39,0,.54,.14,1.05,.41,1.51,.24,.74,.66,1.39,1.24,1.93l1.21,.94c.94,.54,1.95,.82,3.03,.82h.11c.83,.03,1.6-.14,2.31-.52,.74-.24,1.39-.66,1.93-1.24,.59-.54,1-1.19,1.24-1.93,.38-.72,.55-1.49,.52-2.31l-.21-1.6c-.29-1.02-.8-1.9-1.54-2.65l-1.21-.94c-.94-.54-1.95-.82-3.03-.82h-.11l1.6,11.79s.04,0,.06-.01h-3.19s.04,0,.06,.01c.8,.25,1.6,.29,2.39,.11,.8-.04,1.54-.27,2.23-.71,.7-.38,1.26-.89,1.68-1.55,.53-.58,.89-1.26,1.07-2.04l.21-1.6c0-1.08-.28-2.09-.82-3.03l-.94-1.21c-.75-.74-1.63-1.26-2.65-1.54v.02Z" fill="#fff"/></g></g><g><path d="M80.78,7.69c-11.5,4.03-19.15,13.81-19.29,13.99,1.07,1.57,2.68,2.77,4.52,3.26-.71-.19,5.59-8.43,6.24-9.14,2.58-2.82,5.39-5.74,8.53-8.11Z" fill="#f03c80"/><path d="M79.18,1.91c-8.37,3.1-16.37,8.46-21.94,15.54-2.2,2.79-2.21,5.67,0,8.49,1.91,2.42,4.3,3.8,7.17,4.8,4.8,1.68,9.71-4.58,6.78-8.81l-.06-.08,.6,4.62c-.07,.37-.61,.85,.26-.26,.42-.53,.76-1.13,1.14-1.68,.77-1.11,2.05-2.83,2.55-3.48,2.17-2.79,6.11-6.59,9.33-9.11,2.57-2.01,2.07-6.37,0-8.49-2.49-2.55-5.95-1.98-8.49,0-4.52,3.53-8.33,7.69-11.75,12.26-2.36,3.15-6.82,8.12-3.96,12.26l6.78-8.81c-.89-.31-1.31-1-1.87-1.72v8.49c4.26-5.41,10.19-10.06,16.65-12.45,7.18-2.66,4.07-14.26-3.19-11.57Z" fill="#fff"/></g><g><path d="M103.83,16.78c-5.22-4.18-12.52-5.01-18.78-2.58-5.21,2.02-10.96,6.46-10.84,12.6,.12,6.02,6.01,8.71,9.07,13.12,1.75,2.53,2.54,5.8,3.28,8.74,.6,2.38,1.29,4.81,2.77,6.77,2.97,3.9,8.35,4.17,12.6,2.45,4.76-1.93,7.29-6.39,8.53-11.18,2.59-10,2.07-22.95-6.64-29.92h.01Z" fill="#ff85af"/><path d="M106.85,11.6c-11.62-8.48-32.4-4.99-37.66,9.64-2.35,6.53,.05,12.62,4.64,17.42,2.71,2.83,4.96,4.69,6.15,8.59,1.03,3.37,1.57,6.89,3.36,9.99,3.84,6.65,11.69,8.92,18.88,6.89,6.5-1.84,10.97-7.09,13.22-13.26,4.58-12.57,3.23-29.19-7.37-38.32-5.82-5.02-14.35,3.43-8.49,8.49,6.23,5.37,7.14,13.79,5.67,21.52-.66,3.5-1.69,7.76-5.11,9.57-4.76,2.52-6.72-.98-7.81-5.04s-2.32-8.3-5.1-11.77c-1.88-2.35-6.31-4.98-6.92-8.01-.76-3.74,4.19-6.48,7.05-7.54,4.8-1.78,9.39-.72,13.43,2.22,6.25,4.56,12.24-5.85,6.06-10.36v-.03Z" fill="#fff"/></g><g><path d="M57.58,28.95c.02-1.11-.17-2.24-.62-3.35-1.17-2.88-3.47-5.19-6.09-6.86-4.44-2.82-10.19-4.9-15.41-3.12-3.87,1.32-6.97,4.5-5.64,8.8,.99,3.19,3.78,4.93,6.55,6.43,3.01,1.62,4.75,3.46,7.39,5.56,5.98,4.75,13.67-.91,13.81-7.45h0Z" fill="#ff85af"/><path d="M63.58,28.95c-.87-10.99-11.17-18.7-21.72-19.81-9.5-1.01-21.04,5.97-17.82,16.87,1.41,4.8,5.23,7.58,9.31,10.01s7.11,6.37,11.72,7.64c9.72,2.67,17.67-5.62,18.51-14.71,.71-7.69-11.29-7.64-12,0-.29,3.13-2.73,3.4-4.83,2.18-1.67-.98-3.09-2.65-4.69-3.77s-3.5-1.86-5-3.07c-3.88-3.11,2.42-3.54,4.79-3.05,3.51,.73,9.4,3.57,9.72,7.71,.6,7.65,12.61,7.71,12,0h0Z" fill="#fff"/></g><g><path d="M97.87,64.83c-2.66-3.15-8.52,.11-10.64,2.36-.62,.66-1.18,1.41-1.43,2.28-.42,1.42,.14,2.93,1.47,3.61,3.36,1.72,7.89-.27,10.05-3.07,1.49-1.93,1.6-3.95,.56-5.18h-.01Z" fill="#ff85af"/><path d="M102.11,60.58c-8.23-8.35-27.66,3.09-21.3,14.26,7.07,12.39,30.32-1.09,22.24-13.05-1.81-2.68-5.28-3.86-8.21-2.15-2.66,1.56-3.98,5.51-2.15,8.21-.18-.27,.06-1.57-.02-1.6,.03,.01-1.43,1.15-1.7,1.27-.25,.11-.82,.14-.85,.19-.45,.66-.14-.49,.08,.11,.34,.23,.58,.55,.74,.96,.69,.6,.91,1.36,.65,2.27,.02,.04-.05,.36-.11,.37,.14,0,.59-.56,.7-.66-.49,.43-.24,.15,.14-.08,.35-.21,.69-.44,1.05-.63,.19-.11,.86-.42,.28-.18-.04,.02,1.56-.57,.97-.35-.38,.14,.58,.19,.1-.03-.34-.16-.78-.12-1.08-.42,5.43,5.51,13.92-2.98,8.49-8.49h-.02Z" fill="#fff"/></g></g></g><g id="CAN"><g><path d="M61.92,93.03c70.03-14.96,61.51-75.16,40.42-84.55-22.41-9.98-40.36,13.22-40.36,13.22,0,0-17.96-23.2-40.36-13.22C.51,17.88-8,78.07,62.03,93.03h-.11Z" fill="#ff699e"/><g><path d="M71.87,83.26c-31.93,1.74-58.3-36-48.48-65.77,1.37-4.16,3.72-8.32,6.86-11.33-2.78,.29-5.67,1.01-8.64,2.34C.52,17.87-7.99,78.03,61.97,93.02c21.88-4.69,36.09-13.79,44.63-24.38-7.02,5.45-14.7,10.01-23.17,12.58-3.75,1.14-7.65,1.83-11.57,2.04h0Z" fill="#f03c80"/><path d="M62.03,93.03s-.04,0-.06-.01c-.02,0-.04,0-.06,.01h.12Z" fill="#f03c80"/></g><path d="M81.28,7.69c-11.5,4.03-19.15,13.81-19.29,13.99,1.07,1.57,2.68,2.77,4.52,3.26-.71-.19,5.59-8.43,6.24-9.14,2.58-2.82,5.39-5.74,8.53-8.11Z" fill="#f03c80"/><path d="M104.33,16.78c-5.22-4.18-12.52-5.01-18.78-2.58-5.21,2.02-10.96,6.46-10.84,12.6,.12,6.02,6.01,8.71,9.07,13.12,1.75,2.53,2.54,5.8,3.28,8.74,.6,2.38,1.29,4.81,2.77,6.77,2.97,3.9,8.35,4.17,12.6,2.45,4.76-1.93,7.29-6.39,8.53-11.18,2.59-10,2.07-22.95-6.64-29.92h.01Z" fill="#ff85af"/><path d="M58.08,28.95c.02-1.11-.17-2.24-.62-3.35-1.17-2.88-3.47-5.19-6.09-6.86-4.44-2.82-10.19-4.9-15.41-3.12-3.87,1.32-6.97,4.5-5.64,8.8,.99,3.19,3.78,4.93,6.55,6.43,3.01,1.62,4.75,3.46,7.39,5.56,5.98,4.75,13.67-.91,13.81-7.45h0Z" fill="#ff85af"/><path d="M98.37,64.83c-2.66-3.15-8.52,.11-10.64,2.36-.62,.66-1.18,1.41-1.43,2.28-.42,1.42,.14,2.93,1.47,3.61,3.36,1.72,7.89-.27,10.05-3.07,1.49-1.93,1.6-3.95,.56-5.18h-.01Z" fill="#ff85af"/></g></g></g></svg>