<?xml version="1.0" encoding="UTF-8"?><svg id="katman_2" xmlns="http://www.w3.org/2000/svg" viewBox="0 0 108.31 89"><g id="_üst_arka"><g id="katman_46"><g><g><path d="M54.18,80c57.12-12.21,50.18-61.31,32.97-68.97-18.28-8.14-32.92,10.78-32.92,10.78,0,0-14.65-18.92-32.92-10.78C4.1,18.69-2.84,67.79,54.28,80h-.1Z" fill="#ff699e"/><path d="M56.58,88.67c23.72-5.26,47.49-20.11,51.25-45.98C110.66,23.21,101.22,1.19,79.21,.04c-11.76-.62-24.16,6.25-31.35,15.41h12.73C47.37-1.39,19.27-6.75,6.31,12.99-4.58,29.57-.47,52.12,11.68,66.73c10.01,12.05,25.24,18.63,40.21,21.95l2.39-17.68h-.09c-11.58,0-11.6,18,0,18h.09c9.93,0,12.51-15.44,2.39-17.68s-20.88-6.14-28.26-13.05c-5.74-5.38-8.53-10.39-10.05-18.03-.1-.51-.19-1.04-.26-1.56,.02,.12,.16,1.51,.09,.46-.05-.77-.12-1.53-.14-2.3-.06-1.75,.04-3.47,.19-5.21,.12-1.35-.28,1.56-.03,.25,.07-.35,.11-.7,.19-1.05,.16-.68,.29-1.37,.47-2.04,.2-.77,.45-1.53,.69-2.28,.27-.83,.97-2.26,.18-.61,.59-1.23,1.23-2.4,1.94-3.57,.6-.98,1.27-1.57,.16-.32,.44-.49,.91-.96,1.33-1.46,.81-.95,1.35-1.09,.02-.18,.43-.29,.84-.62,1.3-.86,1.05-.55,2.68-1.22,4.75-1.46,7.68-.87,14.3,4.64,18.62,10.14,2.77,3.52,9.98,3.51,12.73,0,3.88-4.95,8.56-8.91,14.93-10,3.87-.66,6.78,.36,9.52,2.03-.04-.02-1.07-1.19,.04,.14,.35,.42,.77,.83,1.16,1.22,1.02,1.03-.87-1.58,.2,.26,.36,.61,.78,1.19,1.13,1.81s.67,1.31,1.01,1.97c.2,.39-.43-1.43,.09,.27,.48,1.54,.95,3.04,1.31,4.61,.18,.8,.41,2.6,.2,.78,.08,.73,.15,1.46,.19,2.19,.1,1.78,.02,3.52-.07,5.29-.07,1.56,.29-.96-.13,1.1-.16,.78-.3,1.57-.49,2.35-.22,.92-.48,1.84-.77,2.75-.16,.5-.93,2.55-.72,2.06-.96,2.29-3.76,6.69-5.37,8.44-8,8.75-19.18,13.25-31.02,15.87-11.3,2.5-6.52,19.86,4.79,17.36v-.02Z" fill="#fff"/></g><g><g><path d="M62.3,72.02c-26.05,1.42-47.55-29.36-39.55-53.65,1.12-3.39,3.03-6.79,5.59-9.24-2.27,.24-4.62,.83-7.05,1.91C4.11,18.69-2.84,67.76,54.23,79.99c17.85-3.82,29.44-11.25,36.41-19.89-5.73,4.45-11.99,8.17-18.9,10.26-3.06,.93-6.24,1.49-9.43,1.67h0Z" fill="#f03c80"/><path d="M62.3,63.02c-11.39,.39-21.11-6.41-26.89-15.93-5.38-8.86-8.74-23.18-.69-31.6,6.72-7.03-.29-16.25-8.76-15.04C5.52,3.36-2.14,25.25,.74,43.46c3.88,24.47,26.3,39.32,48.86,44.7,9.31,2.22,20.72-2.98,28.98-7.21,6.96-3.56,13.42-8.46,18.42-14.49,2.86-3.45,3.66-8.1,.7-11.82-2.52-3.16-7.99-5.07-11.61-2.32-7.05,5.36-14.78,9.98-23.79,10.7-4.85,.38-9,3.86-9,9,0,4.57,4.13,9.39,9,9,12.3-.97,23.11-5.73,32.88-13.15l-10.91-14.14c-8.3,10.01-19.99,14.8-32.44,17.58h4.79c-10.23-2.27-20.87-6.16-28.23-13.05-5.62-5.26-8.4-10.33-9.96-17.63-.1-.45-.41-3.25-.21-1.11-.07-.77-.14-1.53-.17-2.3-.07-1.75,0-3.48,.14-5.22,.16-1.95-.37,1.59,.07-.47,.15-.69,.27-1.38,.43-2.07,.37-1.54,.85-3.04,1.44-4.51-.84,2.11,.96-1.62,1.38-2.36,.3-.52,.67-1,1.01-1.48-1.44,2-.33,.4,.06,.05,.46-.42,.97-.89,1.38-1.35,.02-.02-1.64,.61,.08-.03,2.23-.82,4.21-1.61,6.68-1.96-2.92-5.01-5.84-10.03-8.76-15.04-13.48,14.1-11.89,36.33-2.77,52.31,9.12,15.98,25.04,26.57,43.09,25.95,11.55-.4,11.6-18.4,0-18l.02-.02Z" fill="#fff"/></g><g><path d="M54.28,80s-.03,0-.05-.01c-.02,0-.03,0-.05,.01h.1Z" fill="#f03c80"/><path d="M56.67,71.32c-.82-.19,.08-.33-2.44-.33s-1.61,.14-2.44,.33c-1.17,.28-2.19,.82-3.06,1.61-.98,.63-1.75,1.48-2.32,2.53l-.91,2.15c-.38,1.2-.43,2.39-.16,3.59,0,.81,.21,1.57,.61,2.27,.36,1.12,.98,2.08,1.86,2.9l1.82,1.41c1.4,.81,2.92,1.22,4.54,1.23h.09c1.24,.05,2.39-.21,3.47-.78,1.12-.36,2.08-.98,2.9-1.86,.88-.82,1.5-1.78,1.86-2.9,.56-1.07,.82-2.23,.78-3.47l-.32-2.39c-.43-1.52-1.2-2.85-2.31-3.97l-1.82-1.41c-1.4-.81-2.92-1.22-4.54-1.23h-.09l2.39,17.68s.03,0,.05-.01h-4.79s.03,0,.05,.01c1.2,.38,2.39,.43,3.59,.16,1.2-.05,2.31-.41,3.35-1.07,1.05-.57,1.89-1.34,2.53-2.32,.8-.87,1.33-1.89,1.61-3.06l.32-2.39c0-1.62-.41-3.14-1.23-4.54l-1.41-1.82c-1.12-1.12-2.45-1.89-3.97-2.31h0Z" fill="#fff"/></g></g><g><path d="M69.98,10.39c-9.38,3.29-15.62,11.27-15.74,11.42,.87,1.28,2.19,2.26,3.69,2.66-.58-.16,4.56-6.88,5.09-7.46,2.1-2.3,4.39-4.68,6.96-6.62Z" fill="#f03c80"/><path d="M67.58,1.71c-7.47,2.77-14.72,7.4-19.71,13.73-3.3,4.18-3.32,8.51,0,12.73,1.99,2.53,4.68,3.93,7.66,4.97,7.2,2.52,14.56-6.86,10.16-13.22l-.05-.07,.91,6.94c-.05,.27-1.38,2.24-.2,.77,.34-.42,.62-.93,.93-1.37,.36-.51,.72-1.01,1.09-1.51,.17-.23,1.71-2.27,.67-.91-.93,1.22,0-.03,.23-.27,.51-.56,1.02-1.12,1.54-1.66,1.73-1.82,3.54-3.53,5.53-5.08,3.83-3,3.14-9.59,0-12.73-3.78-3.78-8.88-3-12.73,0s-7.21,6.81-10.23,10.83-6.65,9.21-3.23,14.15c3.39-4.41,6.78-8.81,10.16-13.22,.7,.25,1.25,.89,.28-.34v12.73c1.15-1.46,2.49-2.8,3.86-4.05,.55-.5,1.12-.99,1.69-1.47-1.4,1.18,1.29-.9,1.58-1.1,.77-.5,1.56-.98,2.36-1.42,.56-.3,1.12-.59,1.7-.86-.67,.25-.48,.18,.57-.21,4.56-1.69,7.65-6.09,6.29-11.07-1.2-4.38-6.49-7.98-11.07-6.29h0Z" fill="#fff"/></g><g><path d="M88.78,17.8c-4.26-3.41-10.21-4.08-15.32-2.1-4.25,1.65-8.94,5.27-8.84,10.27,.1,4.91,4.9,7.11,7.4,10.7,1.43,2.06,2.07,4.73,2.67,7.13,.49,1.94,1.05,3.93,2.26,5.52,2.42,3.18,6.81,3.41,10.28,2,3.88-1.57,5.94-5.21,6.96-9.12,2.11-8.16,1.69-18.72-5.42-24.4h.01Z" fill="#ff85af"/><path d="M93.32,10.03c-11.58-8.31-31.23-4.22-36.5,9.78-2.63,6.98-.31,13.59,4.66,18.81,1.52,1.59,2.95,2.57,3.75,4.63,1.31,3.37,1.66,6.79,3.56,10,3.8,6.39,11.35,8.9,18.43,7.45s12.3-6.86,14.82-13.54c4.41-11.68,2.88-27.16-6.89-35.71-8.69-7.6-21.47,5.08-12.73,12.73,3.87,3.38,4.41,8.21,3.65,13.13-.29,1.86-.65,4.36-2.14,5.66-.07,.06-.46,.28-.55,.3,.96-.15,.19-1.15-.19-2.57-1.01-3.8-2.35-7.33-4.83-10.41-1.02-1.27-2.12-2.38-3.27-3.53-.03-.03-2.41-2.82-1.58-1.3,.54,.99-1.19,1.12,.74,.03,.94-.53,1.75-1.22,2.8-1.54,2.85-.88,4.87-.03,7.19,1.64,3.95,2.83,10.02,.69,12.31-3.23,2.65-4.53,.73-9.47-3.23-12.31v-.02Z" fill="#fff"/></g><g><path d="M51.05,27.73c.02-.9-.14-1.83-.51-2.74-.96-2.35-2.83-4.23-4.97-5.59-3.62-2.3-8.31-4-12.57-2.55-3.15,1.08-5.68,3.67-4.6,7.17,.8,2.6,3.09,4.02,5.35,5.24,2.45,1.32,3.88,2.82,6.03,4.54,4.88,3.87,11.15-.74,11.27-6.08h0Z" fill="#ff85af"/><path d="M60.05,27.73c-.82-10.42-9.43-18.22-19.58-19.95s-23.61,5.06-20.99,17.37c1.07,5.04,4.33,8.58,8.6,11.26,3.75,2.36,7.15,5.98,11.46,7.24,10.79,3.16,19.47-5.9,20.51-15.92,.5-4.84-4.49-9-9-9-5.28,0-8.5,4.14-9,9,.08-.78,.05-1.36,.68-1.31,1.9,.13,2.02,.3,1.63-.45s-6.18-5.61-7.47-5.16c.15-.05-.92,5.41-1.5,4.73-.2-.24,2.35,.03,2.45,.06,1.18,.32,2.12,1.01,3.18,1.58,1.13,.61,1.12,1.88,1.02,.56,.38,4.85,3.86,9,9,9,4.57,0,9.38-4.13,9-9h0Z" fill="#fff"/></g><g><path d="M83.92,56.99c-2.17-2.57-6.95,.09-8.68,1.92-.51,.54-.96,1.15-1.17,1.86-.34,1.16,.11,2.39,1.2,2.95,2.74,1.4,6.44-.22,8.2-2.5,1.21-1.58,1.31-3.22,.46-4.23h0Z" fill="#ff85af"/><path d="M90.28,50.62c-4.76-4.83-11.99-4.42-17.49-1.12-5.94,3.57-10.32,11.02-6.33,17.73,3.99,6.71,12.47,7.18,18.84,3.95s10.84-12.16,6.39-18.74c-2.63-3.89-8.04-5.98-12.31-3.23-3.88,2.5-6.05,8.14-3.23,12.31-.71-1.05-.73-3.35-.46-4.47,.04-.17,.93-1.94,1.08-1.81,0,0-1.6,1.56-.3,.36,.95-.87,.04-.17-.26,.03-.92,.6,1.64-.63,.6-.31s1.87-.08,.78-.09c-.49,0-.36,.02,.4,.09,.45,0,.87,.11,1.24,.36,.99,.35,1.67,1.09,2.04,2.22,1.63,1.37,2.12,3.13,1.48,5.26-.11,.43-.63,1.99-1.15,2.11,.1-.02,.52-.45,.57-.54-.16,.25-1.78,1.16-.71,.58,.29-.16,.59-.33,.86-.52,1.04-.69-.42,.34-.75,.26-.06-.01,2.3-.42,.24-.21-1.7,.17,.74,.36-1.01-.03-1.19-.27-2.33-.55-3.24-1.47,3.31,3.36,9.46,3.57,12.73,0s3.53-9.15,0-12.73h0Z" fill="#fff"/></g></g></g><g id="CAN"><g><path d="M54.59,80c57.12-12.21,50.18-61.31,32.97-68.97-18.28-8.14-32.92,10.78-32.92,10.78,0,0-14.65-18.92-32.92-10.78C4.51,18.69-2.44,67.79,54.68,80h-.09Z" fill="#ff699e"/><g><path d="M62.71,72.02c-26.05,1.42-47.55-29.36-39.55-53.65,1.12-3.39,3.03-6.79,5.59-9.24-2.27,.24-4.62,.83-7.05,1.91C4.51,18.69-2.43,67.76,54.64,79.99c17.85-3.82,29.44-11.25,36.41-19.89-5.73,4.45-11.99,8.17-18.9,10.26-3.06,.93-6.24,1.49-9.43,1.67h-.01Z" fill="#f03c80"/><path d="M54.68,80s-.03,0-.05-.01c-.02,0-.03,0-.05,.01h.1Z" fill="#f03c80"/></g><path d="M70.38,10.39c-9.38,3.29-15.62,11.27-15.74,11.42,.87,1.28,2.19,2.26,3.69,2.66-.58-.16,4.56-6.88,5.09-7.46,2.1-2.3,4.39-4.68,6.96-6.62Z" fill="#f03c80"/><path d="M89.19,17.8c-4.26-3.41-10.21-4.08-15.32-2.1-4.25,1.65-8.94,5.27-8.84,10.27,.1,4.91,4.9,7.11,7.4,10.7,1.43,2.06,2.07,4.73,2.67,7.13,.49,1.94,1.05,3.93,2.26,5.52,2.42,3.18,6.81,3.41,10.28,2,3.88-1.57,5.94-5.21,6.96-9.12,2.11-8.16,1.69-18.72-5.42-24.4h.01Z" fill="#ff85af"/><path d="M51.46,27.73c.02-.9-.14-1.83-.51-2.74-.96-2.35-2.83-4.23-4.97-5.59-3.62-2.3-8.31-4-12.57-2.55-3.15,1.08-5.68,3.67-4.6,7.17,.8,2.6,3.09,4.02,5.35,5.24,2.45,1.32,3.88,2.82,6.03,4.54,4.88,3.87,11.15-.74,11.27-6.08h0Z" fill="#ff85af"/><path d="M84.33,56.99c-2.17-2.57-6.95,.09-8.68,1.92-.51,.54-.96,1.15-1.17,1.86-.34,1.16,.11,2.39,1.2,2.95,2.74,1.4,6.44-.22,8.2-2.5,1.21-1.58,1.31-3.22,.46-4.23h0Z" fill="#ff85af"/></g></g></g></svg>