<?xml version="1.0" encoding="UTF-8"?><svg id="katman_2" xmlns="http://www.w3.org/2000/svg" viewBox="0 0 236.28 236.28"><g id="SIRALAMA_ARKA_PLAN"><g><path d="M118.2,236.23c-38.74,0-77.49-.02-116.23,.05C.23,236.28,0,235.82,0,234.24c.03-77.4,.03-154.8,0-232.2C0,.45,.23,0,1.97,0,79.38,.06,156.79,.06,234.2,0c1.79,0,2.08,.48,2.08,2.15-.05,77.32-.05,154.65,0,231.97,0,1.68-.29,2.15-2.08,2.15-38.67-.06-77.34-.05-116-.05h0Zm-85.15-8.71c.77,1.58,2.26,1.59,3.56,1.27,7.43-1.79,14.95-3.17,22.29-5.3,6.14-1.36,12.26-2.81,18.43-4.05,2.64-.53,4.6-1.82,6.11-3.96,.79-.72,1.61-1.42,2.37-2.18,16.39-16.41,32.76-32.82,49.15-49.23,.59-.59,1.24-1.13,1.86-1.7,4.82,.16,9.64,.45,14.46,.44,11.04-.04,22.06-.47,32.76-3.61,8.14-2.39,15.33-6.24,19.77-13.92,4.96-8.6,3.39-16.69-4.41-22.82-4.51-3.54-9.68-5.82-15.08-7.63,1.06-1.19,2.12-2.38,3.18-3.57,3.32-3.26,6.7-6.48,9.95-9.81,3.58-3.65,7.4-7.06,10.71-10.98,5.23-5.17,10.5-10.3,15.69-15.51,5.01-5.03,6.37-12.57,3.68-19.13-2.1-5.11-6.43-8.27-10.14-11.99-2.85-3.11-5.7-6.2-9.06-8.78-5.62-4.3-15.51-4.55-20.57,.12-6.02,5.56-11.82,11.39-17.35,17.46-.21,.09-.47,.13-.61,.27-6.74,6.77-13.46,13.55-20.19,20.33-8.62,8.59-17.23,17.18-25.85,25.75-.64,.64-1.15,1.46-2.13,1.67-6.12-1.41-12.25-2.78-18.24-4.68-5.12-1.63-10.17-3.47-14.46-6.85-3.34-2.63-3.85-5.37-1.8-9.1,1.43-2.59,3.45-4.69,5.56-6.71,4.85-4.64,10.42-8.32,15.94-12.07,5.47-3.73,10.71-7.74,14.65-13.17,6.22-8.56,4.96-16.72-3.56-22.96-4.95-3.63-10.6-5.8-16.42-7.54-12.38-3.7-25.1-5.62-37.9-7.05-17.7-1.98-35.46-2.91-53.26-3.08-2.74-.03-4.29,1.4-4.26,3.72,.03,2.25,1.5,3.6,4.11,3.64,19.33,.31,38.63,1.28,57.82,3.7,11.41,1.44,22.74,3.33,33.71,6.93,4.3,1.41,8.51,3.09,12.16,5.87,4.78,3.65,5.31,7.14,1.91,12.07-1.81,2.61-4.09,4.77-6.5,6.81-4.88,4.13-10.43,7.3-15.53,11.11-5.36,4.02-10.52,8.25-14.19,13.98-2.4,3.75-3.71,7.76-2.35,12.24,1.28,4.22,4.26,7.08,7.86,9.28,8.7,5.33,18.48,7.64,28.27,9.88,.33,1.29-.82,1.72-1.46,2.37-12.42,12.49-24.86,24.95-37.31,37.41-1.94,1.95-3.93,3.85-5.9,5.77-6.07-.17-12.11,.26-18.13,1-9.01,1.1-17.85,2.94-25.92,7.35-9.73,5.31-16.18,13.19-17.6,24.39-1.72,13.55,4.77,23.81,14.11,32.67,1.68,1.59,3.68,1.36,5.13-.18,1.47-1.57,1.41-3.66-.26-5.31-1.86-1.84-3.71-3.68-5.26-5.79-4.15-5.62-7.2-11.71-6.6-18.92,.84-10.18,6.68-16.93,15.58-21.16,9.95-4.72,20.67-5.97,31.52-6.46-1.29,1.3-2.6,2.57-3.87,3.89-4.5,4.66-9.34,8.98-13.61,13.87-2.05,1.57-3.48,3.41-3.95,6.14-1.08,6.14-3.09,12.1-3.89,18.31-.13,.18-.33,.34-.38,.53-1.7,7.26-3.4,14.52-5.03,21.8-.25,1.09-.34,2.3,.75,3.15h-.02Z" fill="#fefefe"/><path d="M187.49,111.26c-1.06,1.19-2.12,2.38-3.18,3.57-2.05,1.79-4.14,3.54-5.64,5.86-.44,.3-.94,.53-1.3,.9-11.14,11.16-22.27,22.33-33.4,33.51-2.39,2.43-4.77,4.85-7.16,7.28-.62,.57-1.27,1.11-1.86,1.7-16.38,16.41-32.76,32.82-49.15,49.23-.76,.76-1.58,1.45-2.37,2.18-3.62,.09-4.46-.61-5.13-4.06-.71-3.68-1.57-7.34-2.2-11.03-.21-1.23-.72-1.48-1.8-1.46-2.76,.04-5.52,.03-8.29,0-1.06,0-2.18,.08-2.89-.99,.55-.63,1.08-1.29,1.67-1.89,33.94-34.01,67.88-68.01,101.82-102.01,.59-.59,1.24-1.14,1.86-1.7,6.34,6.31,12.67,12.62,19.01,18.93v-.02Z" fill="#b2b1fb"/><path d="M168.48,92.33c-.62,.57-1.27,1.11-1.86,1.7-33.94,34-67.89,68-101.82,102.01-.59,.59-1.11,1.26-1.67,1.89-.13-.03-.26-.05-.39-.08-.53-1.05-.68-2.16-.66-3.33,.04-2.45-.1-4.9,.05-7.34,.11-1.78-.57-2.37-2.26-2.64-3.53-.57-7.03-1.37-10.53-2.11-3.29-.69-3.82-1.39-3.77-4.84,4.27-4.89,9.11-9.21,13.61-13.87,1.27-1.32,2.58-2.59,3.87-3.89,2.54-2.47,5.18-4.85,7.44-7.59,1.97-1.92,3.95-3.83,5.9-5.77,12.45-12.46,24.89-24.92,37.31-37.41,.64-.65,1.79-1.08,1.46-2.37,2.96-1.14,4.74-3.55,6.47-6.02,.98-.21,1.49-1.04,2.13-1.67,8.62-8.58,17.24-17.17,25.85-25.75,6.29,6.23,12.58,12.45,18.86,18.68,.02,.14,.03,.27,.02,.41h-.01Z" fill="#9292f7"/><path d="M121.61,100.67c-1.73,2.47-3.51,4.89-6.47,6.02-9.79-2.24-19.57-4.55-28.27-9.88-3.59-2.2-6.58-5.06-7.86-9.28-1.36-4.48-.04-8.49,2.35-12.24,3.66-5.73,8.83-9.97,14.19-13.98,5.1-3.82,10.65-6.99,15.53-11.11,2.41-2.04,4.69-4.2,6.5-6.81,3.41-4.93,2.88-8.42-1.91-12.07-3.64-2.78-7.85-4.46-12.16-5.87-10.97-3.6-22.3-5.49-33.71-6.93-19.2-2.42-38.49-3.39-57.82-3.7-2.61-.04-4.09-1.4-4.11-3.64-.03-2.33,1.53-3.75,4.26-3.72,17.8,.17,35.56,1.09,53.26,3.08,12.81,1.44,25.52,3.35,37.9,7.05,5.82,1.74,11.46,3.91,16.42,7.54,8.52,6.24,9.78,14.4,3.56,22.96-3.95,5.43-9.18,9.45-14.65,13.17-5.52,3.76-11.09,7.44-15.94,12.07-2.11,2.02-4.13,4.12-5.56,6.71-2.05,3.73-1.54,6.47,1.8,9.1,4.29,3.38,9.33,5.22,14.46,6.85,5.99,1.9,12.12,3.27,18.24,4.68h0Z" fill="#386488"/><path d="M217.38,43.84c3.71,3.72,8.04,6.88,10.14,11.99,2.69,6.56,1.33,14.1-3.68,19.13-5.19,5.21-10.45,10.35-15.69,15.51-6.29-6.31-12.57-12.63-18.86-18.94,.13-.19,.22-.41,.38-.57,8.72-8.75,17.44-17.49,26.16-26.23,.44-.44,.88-.87,1.55-.89h0Z" fill="#d0cfcf"/><path d="M217.38,43.84c-.67,.03-1.11,.45-1.55,.89-8.72,8.74-17.44,17.48-26.16,26.23-.16,.16-.26,.38-.38,.57-.15,0-.3-.02-.44-.04-.67-.73-1.31-1.49-2-2.19-5.48-5.56-10.96-11.11-16.45-16.66,5.53-6.07,11.33-11.9,17.35-17.46,5.06-4.67,14.95-4.43,20.57-.12,3.36,2.57,6.22,5.67,9.06,8.78Z" fill="#ededed"/><path d="M188.84,71.49c.15,.02,.3,.03,.44,.04,6.29,6.31,12.57,12.63,18.86,18.94-3.31,3.92-7.13,7.33-10.71,10.98-3.26,3.33-6.63,6.54-9.95,9.81-6.34-6.31-12.67-12.62-19.01-18.93,0-.14,0-.27-.02-.41,4.13-3.53,7.77-7.57,11.61-11.4,2.97-2.96,6.12-5.76,8.78-9.03Z" fill="#eab101"/><path d="M70.47,152.24c-2.26,2.74-4.9,5.12-7.44,7.59-10.85,.49-21.57,1.73-31.52,6.46-8.9,4.23-14.74,10.98-15.58,21.16-.59,7.21,2.46,13.29,6.6,18.92,1.55,2.11,3.4,3.95,5.26,5.79,1.67,1.65,1.73,3.75,.26,5.31-1.44,1.54-3.45,1.77-5.13,.18-9.34-8.86-15.83-19.11-14.11-32.67,1.42-11.2,7.88-19.08,17.6-24.39,8.07-4.41,16.91-6.25,25.92-7.35,6.01-.74,12.06-1.16,18.13-1h.01Z" fill="#386488"/><path d="M136.81,162.37c2.39-2.43,4.77-4.85,7.16-7.28,.45,.08,.9,.24,1.35,.24,11.51,.2,23,.07,34.29-2.59,5.34-1.26,10.56-3.04,14.49-7.04,7.31-7.45,7.01-14.01-1.95-19.22-4.26-2.48-8.84-4.21-13.48-5.79,1.5-2.32,3.59-4.06,5.64-5.86,5.39,1.81,10.57,4.09,15.08,7.63,7.8,6.13,9.38,14.22,4.41,22.82-4.43,7.68-11.63,11.53-19.77,13.92-10.69,3.14-21.72,3.58-32.76,3.61-4.82,.02-9.64-.28-14.46-.44h0Z" fill="#386488"/><path d="M188.84,71.49c-2.65,3.28-5.81,6.07-8.78,9.03-3.84,3.83-7.48,7.87-11.61,11.4-6.29-6.23-12.58-12.45-18.86-18.68,6.73-6.78,13.45-13.56,20.19-20.33,.15-.15,.41-.19,.61-.27,5.48,5.55,10.97,11.1,16.45,16.66,.69,.7,1.33,1.46,2,2.19Z" fill="#fec928"/><path d="M62.73,197.85c.13,.03,.26,.06,.39,.08,.71,1.07,1.83,.98,2.89,.99,2.76,.02,5.52,.04,8.29,0,1.08-.02,1.59,.23,1.8,1.46,.63,3.69,1.49,7.35,2.2,11.03,.67,3.45,1.51,4.15,5.13,4.06-1.5,2.14-3.47,3.43-6.11,3.96-6.16,1.24-12.29,2.69-18.43,4.05-3.51-3.58-7.01-7.17-10.52-10.75,.99-1.07,1.96-2.15,2.96-3.2,3.76-3.94,7.85-7.54,11.4-11.69h0Z" fill="#fdb280"/><path d="M62.73,197.85c-3.55,4.14-7.64,7.75-11.4,11.69-1,1.05-1.97,2.13-2.96,3.2-.15-.02-.29-.04-.44-.06-3.41-3.55-6.82-7.09-10.23-10.64,.8-6.21,2.81-12.16,3.89-18.31,.48-2.73,1.9-4.57,3.95-6.14-.05,3.44,.48,4.14,3.77,4.83,3.5,.74,7,1.54,10.53,2.11,1.68,.27,2.37,.86,2.26,2.64-.15,2.44,0,4.89-.05,7.34-.02,1.17,.14,2.28,.66,3.33h.02Z" fill="#fdcbaa"/><path d="M47.94,212.67c.15,.02,.29,.04,.44,.06,3.51,3.58,7.01,7.17,10.52,10.75-7.34,2.14-14.87,3.51-22.29,5.3-1.3,.31-2.79,.31-3.56-1.27,5.24-4.66,10.12-9.7,14.89-14.84Z" fill="#2e5271"/><path d="M47.94,212.67c-4.77,5.14-9.65,10.17-14.89,14.84-1.09-.85-1-2.05-.75-3.15,1.64-7.28,3.34-14.54,5.03-21.8,.05-.2,.25-.36,.38-.53,3.41,3.55,6.82,7.09,10.23,10.64Z" fill="#376387"/><path d="M178.67,120.68c4.64,1.58,9.21,3.31,13.48,5.79,8.96,5.21,9.27,11.77,1.95,19.22-3.93,4-9.15,5.78-14.49,7.04-11.29,2.66-22.78,2.8-34.29,2.59-.45,0-.9-.16-1.35-.24,11.13-11.17,22.26-22.35,33.4-33.51,.37-.37,.86-.6,1.3-.9h0Z" fill="#fcfdfd"/></g></g></svg>