<svg xmlns="http://www.w3.org/2000/svg" viewBox="0 0 97.16 25.95"><defs><style>.cls-1{fill:#1d1d1b;}</style></defs><title>Asset 1</title><g id="Layer_2" data-name="Layer 2"><g id="Layer_1-2" data-name="Layer 1"><path class="cls-1" d="M1.6,17a4.84,4.84,0,0,1-.43.48,1.29,1.29,0,0,1-.23.19.34.34,0,0,1-.16,0c-.11,0-.17-.07-.19-.22H.21L0,18.5a1.18,1.18,0,0,0,.41.06,1.12,1.12,0,0,0,.45-.07,1.11,1.11,0,0,0,.35-.23,4.4,4.4,0,0,0,.45-.51c.19-.24.47-.62.85-1.15h.05a10.55,10.55,0,0,0,.21,1,1.8,1.8,0,0,0,.21.57.67.67,0,0,0,.27.26.82.82,0,0,0,.4.09,1.21,1.21,0,0,0,.72-.23,3.63,3.63,0,0,0,.68-.79l-.35-.23a2.51,2.51,0,0,1-.4.51.4.4,0,0,1-.28.11.32.32,0,0,1-.14,0,.35.35,0,0,1-.12-.1.68.68,0,0,1-.11-.21c0-.1-.07-.23-.12-.4s-.1-.37-.15-.62-.12-.55-.18-.89l.36-.46L4,14.76a4.75,4.75,0,0,1,.33-.38,1.73,1.73,0,0,1,.23-.21.42.42,0,0,1,.13-.07l.1,0c.11,0,.17.08.19.23h.38l.21-1a1.16,1.16,0,0,0-.41-.07,1.32,1.32,0,0,0-.45.07,1.31,1.31,0,0,0-.35.23,5.11,5.11,0,0,0-.45.5c-.17.22-.43.58-.78,1.06H3c0-.23-.07-.44-.11-.65s-.09-.39-.13-.53a1.75,1.75,0,0,0-.15-.33.67.67,0,0,0-.17-.2.59.59,0,0,0-.22-.12,1.19,1.19,0,0,0-.29,0,1.13,1.13,0,0,0-.74.26,3.51,3.51,0,0,0-.65.76l.35.23a3.9,3.9,0,0,1,.29-.4.7.7,0,0,1,.19-.17.38.38,0,0,1,.21,0,.31.31,0,0,1,.17,0,.35.35,0,0,1,.12.14,2.31,2.31,0,0,1,.15.44c.06.23.12.47.18.73s.11.53.17.82c-.35.43-.61.76-.8,1Zm14.88-2.45v-.72H9.87v.72Zm0,2.22V16.1H9.87v.71Z"/><path class="cls-1" d="M27.76,7.36V6.64h-6.6v.72Zm3.42,2.87a2.18,2.18,0,0,0,1.41-.51,3.13,3.13,0,0,0,1-1.35,4.45,4.45,0,0,0,.36-1.74,2.17,2.17,0,0,0-.32-1.26,1.08,1.08,0,0,0-.91-.44,1.56,1.56,0,0,0-.91.31,4.31,4.31,0,0,0-1,1l-.07,0,.94-3.76h-.31L30,2.52,30,2.8a1,1,0,0,1,.49.1.36.36,0,0,1,.14.32,4.18,4.18,0,0,1-.12.79l-1.39,6.13.34.09.49-.35a2.35,2.35,0,0,0,1.27.35Zm-.75-2.18a4.43,4.43,0,0,1,.33-1,4.12,4.12,0,0,1,.5-.78,2.73,2.73,0,0,1,.55-.54.93.93,0,0,1,.51-.16.56.56,0,0,1,.51.27,1.84,1.84,0,0,1,.16.84,4.43,4.43,0,0,1-.09.87,5.58,5.58,0,0,1-.24.85,4,4,0,0,1-.34.66,2.48,2.48,0,0,1-.39.44,1.61,1.61,0,0,1-.41.24,1.16,1.16,0,0,1-.42.07.81.81,0,0,1-.61-.19A.84.84,0,0,1,30.3,9a3.17,3.17,0,0,1,.09-.73l0-.22Z"/><path class="cls-1" d="M44.56,11.23v-.71H38v.71Zm0-4.51V6H41.63V2.92h-.75V6H38v.71h2.92V9.81h.75V6.72ZM48,5.82l.17.41.9-.41,2.22,4.78h.52L54.73.74h1V0H54.33L51.68,9.18,49.79,5,48,5.82Z"/><path class="cls-1" d="M57.63,10.23a2.19,2.19,0,0,0,1.42-.51,3.3,3.3,0,0,0,1-1.35,4.45,4.45,0,0,0,.36-1.74,2.1,2.1,0,0,0-.33-1.26,1.08,1.08,0,0,0-.91-.44,1.58,1.58,0,0,0-.91.31,4.51,4.51,0,0,0-1,1l-.06,0,.94-3.76h-.31l-1.36,0-.06.28a1.06,1.06,0,0,1,.49.1.36.36,0,0,1,.13.32,4.18,4.18,0,0,1-.12.79l-1.39,6.13.35.09.49-.35a2.34,2.34,0,0,0,1.26.35Zm-.74-2.18a4.43,4.43,0,0,1,.33-1,3.62,3.62,0,0,1,.49-.78,2.74,2.74,0,0,1,.56-.54.9.9,0,0,1,.51-.16.53.53,0,0,1,.5.27,1.71,1.71,0,0,1,.16.84,5.31,5.31,0,0,1-.08.87,4.65,4.65,0,0,1-.25.85,2.9,2.9,0,0,1-.34.66,1.88,1.88,0,0,1-.39.44,1.57,1.57,0,0,1-.4.24,1.2,1.2,0,0,1-.42.07.69.69,0,0,1-.8-.8,3.79,3.79,0,0,1,.08-.73l0-.22Z"/><path class="cls-1" d="M62.73,6.2A2.82,2.82,0,0,1,63,5.86c.1-.12.22-.25.35-.38l.39-.41.39-.38.34-.36a2.83,2.83,0,0,0,.25-.28,2.42,2.42,0,0,0,.22-.28l.14-.25a1.25,1.25,0,0,0,.07-.26,2.46,2.46,0,0,0,0-.28,1.4,1.4,0,0,0-.08-.47.89.89,0,0,0-.26-.38,1.33,1.33,0,0,0-.46-.24,2,2,0,0,0-.69-.1,3.7,3.7,0,0,0-.76.1,5.42,5.42,0,0,0-.92.3V3h.51a1.29,1.29,0,0,1,.39-.57,1,1,0,0,1,1-.13.68.68,0,0,1,.26.18.71.71,0,0,1,.16.28,1.15,1.15,0,0,1,.06.37,1.5,1.5,0,0,1,0,.37,1.25,1.25,0,0,1-.18.37,3.94,3.94,0,0,1-.36.46q-.23.25-.6.63c-.16.16-.31.31-.44.46s-.25.3-.35.44a4.29,4.29,0,0,0-.28.41,2.82,2.82,0,0,0-.22.42v.2h3.3c0-.18,0-.37,0-.56l0-.55h-.36a1.29,1.29,0,0,1-.12.26.33.33,0,0,1-.12.14.48.48,0,0,1-.18.06H62.73Z"/><path class="cls-1" d="M76.3,7.36V6.64H69.7v.72Zm6,2.78h2.18V9.88a2.69,2.69,0,0,1-.36-.13.49.49,0,0,1-.16-.16.61.61,0,0,1-.08-.26,3.42,3.42,0,0,1,0-.53V7.92h1.29l.06-1.1h-.4a1.07,1.07,0,0,1-.17.37.44.44,0,0,1-.22.16A1.22,1.22,0,0,1,84,7.4h-.12V2.78h-.76L79.93,7.52v.4h3V8.8a4.27,4.27,0,0,1,0,.59.61.61,0,0,1-.15.3,1.14,1.14,0,0,1-.45.19v.26ZM80.82,7.33,82.91,4h0c0,.21,0,.52,0,.94s0,.79,0,1.13V7.4H80.82V7.33Z"/><path class="cls-1" d="M89.56,5a2.69,2.69,0,0,0-.65-.08,2.28,2.28,0,0,0-1.41.49,3.45,3.45,0,0,0-1,1.34,4.53,4.53,0,0,0-.36,1.78,2.09,2.09,0,0,0,.33,1.25,1.07,1.07,0,0,0,.91.44,1.63,1.63,0,0,0,1-.35,4.79,4.79,0,0,0,1-1.1l.07,0a1.93,1.93,0,0,0-.12.63.83.83,0,0,0,.2.59.7.7,0,0,0,.53.22,1.36,1.36,0,0,0,.73-.22,4.83,4.83,0,0,0,.83-.73L91.26,9a4.43,4.43,0,0,1-.51.5.59.59,0,0,1-.35.13.25.25,0,0,1-.22-.1.59.59,0,0,1-.07-.31,3.69,3.69,0,0,1,.12-.79L91,5l-.34-.09-.5.36A2.25,2.25,0,0,0,89.56,5Zm.1,2.11a3.84,3.84,0,0,1-.51,1.3,3.94,3.94,0,0,1-.7.87,1,1,0,0,1-.69.31.55.55,0,0,1-.52-.28,1.78,1.78,0,0,1-.15-.83A4.63,4.63,0,0,1,87.34,7,3.05,3.05,0,0,1,88,5.79a1.41,1.41,0,0,1,1-.44.79.79,0,0,1,.6.19.93.93,0,0,1,.17.61c0,.12,0,.24,0,.34a3.48,3.48,0,0,1-.07.38l0,.24ZM96.3,6.3l.26-1.21a5,5,0,0,0-1.31-.16,2.61,2.61,0,0,0-1.18.26,2.74,2.74,0,0,0-1,.77,4,4,0,0,0-.63,1.21,4.36,4.36,0,0,0-.21,1.26,2,2,0,0,0,.4,1.34,1.47,1.47,0,0,0,1.18.46,2.32,2.32,0,0,0,1.1-.26,3.62,3.62,0,0,0,1-.81l-.33-.33a2.82,2.82,0,0,1-.75.58A1.75,1.75,0,0,1,94,9.6a.77.77,0,0,1-.64-.27,1.27,1.27,0,0,1-.21-.81A4.69,4.69,0,0,1,93.45,7a3.21,3.21,0,0,1,.7-1.22,1.35,1.35,0,0,1,1-.43.58.58,0,0,1,.35.09.49.49,0,0,1,.19.27,2.52,2.52,0,0,1,.06.59Z"/><rect class="cls-1" x="55.04" width="42.12" height="0.72"/><path class="cls-1" d="M54.26,25a11.71,11.71,0,0,1,1.5-1.88c.4-.43.69-.73.85-.92s.31-.36.45-.54a3.41,3.41,0,0,0,.32-.5,1.88,1.88,0,0,0,.18-.48,2.12,2.12,0,0,0,.06-.52,1.59,1.59,0,0,0-.51-1.27,2.27,2.27,0,0,0-1.51-.43,4.3,4.3,0,0,0-1,.13,5.92,5.92,0,0,0-1.22.45v1H54A1.35,1.35,0,0,1,55.37,19a1.17,1.17,0,0,1,.67.18,1,1,0,0,1,.39.48,1.76,1.76,0,0,1,.13.71,2.07,2.07,0,0,1-.06.5,3.24,3.24,0,0,1-.21.53,4.89,4.89,0,0,1-.45.67c-.18.24-.48.58-.9,1a12.36,12.36,0,0,0-1.11,1.39,6.52,6.52,0,0,0-.62,1.15v.26h4.41l.09-1.57h-.45l-.14.38a.49.49,0,0,1-.16.19.58.58,0,0,1-.25.11,2.46,2.46,0,0,1-.43,0Zm8.3-4.28a2.69,2.69,0,0,0-.65-.08,2.28,2.28,0,0,0-1.41.49,3.27,3.27,0,0,0-1,1.34,4.53,4.53,0,0,0-.36,1.78,2.16,2.16,0,0,0,.32,1.25,1.1,1.1,0,0,0,.92.44,1.58,1.58,0,0,0,1-.35,4.57,4.57,0,0,0,1-1.1l.07,0a1.93,1.93,0,0,0-.12.63.87.87,0,0,0,.19.59A.72.72,0,0,0,63,26a1.36,1.36,0,0,0,.73-.22,5.23,5.23,0,0,0,.83-.73l-.31-.3a4.43,4.43,0,0,1-.51.5.61.61,0,0,1-.35.13.25.25,0,0,1-.22-.1.59.59,0,0,1-.07-.31,3.69,3.69,0,0,1,.12-.79l.79-3.4-.34-.09-.5.36a2.25,2.25,0,0,0-.62-.28Zm.1,2.11a3.84,3.84,0,0,1-.51,1.3,4.25,4.25,0,0,1-.7.87,1,1,0,0,1-.7.31.53.53,0,0,1-.51-.28,1.78,1.78,0,0,1-.15-.83,4.63,4.63,0,0,1,.25-1.5A3.05,3.05,0,0,1,61,21.51a1.39,1.39,0,0,1,1-.44.76.76,0,0,1,.6.19.87.87,0,0,1,.18.61,1.83,1.83,0,0,1,0,.34,3.26,3.26,0,0,1-.06.38l-.05.24Z"/><rect class="cls-1" x="20.36" y="14.94" width="76.8" height="0.72"/></g></g></svg>