<?xml version="1.0" encoding="UTF-8"?><svg id="katman_2" xmlns="http://www.w3.org/2000/svg" viewBox="0 0 78.18 119.37"><g id="_üst_arka"><g id="katman_49"><g><g><path d="M29.75,113.27c-.97-.14-1.15-.79-.99-1.6,.91-4.74,1.84-9.47,2.76-14.2,1.73-8.93,3.44-17.85,5.17-26.78,.57-2.96,1.11-5.94,1.75-8.89,.18-.82,.06-1.09-.79-.99-2.9,.32-5.8,.62-8.71,.92-3.04,.32-6.08,.65-9.12,.97-3.56,.37-7.12,.72-10.68,1.12-1.43,.16-2.39-.1-2.93-1.04-.63-1.1-.24-2.06,.46-2.98,4.66-6.13,9.3-12.26,13.95-18.39,8.62-11.38,17.24-22.76,25.87-34.14,.27-.36,.56-.7,.84-1.05h1.05c.08,.13,.17,.27,.25,.4-1.42,1.76-2.47,3.77-3.67,5.67-3.34,5.28-6.65,10.58-9.96,15.88-4.8,7.68-9.59,15.37-14.39,23.06-.74,1.18-1.51,2.33-2.22,3.53-.59,.99-.23,1.61,.87,1.68,.84,.05,1.66-.15,2.48-.21,2.25-.16,4.5-.23,6.74-.45,3.41-.33,6.83-.56,10.24-.86,1.06-.09,2.15-.05,3.2-.28,3.09-.67,5.55,1.96,4.64,4.99-.95,3.16-1.95,6.3-2.94,9.45-1.72,5.46-3.44,10.93-5.17,16.39-2.79,8.8-5.59,17.6-8.38,26.41-.15,.46-.36,.91-.32,1.41v-.02Z" fill="#fec851"/><path d="M32.77,108.09l-.92-.55,2.97,5.18c-.25-3.76,1.41-8.19,2.13-11.89,.92-4.74,1.83-9.47,2.74-14.21,.86-4.46,1.72-8.93,2.58-13.39,.76-3.94,2.18-8.26,2.14-12.28-.03-2.48-1.83-5.27-4.4-5.79-4.91-.97-10.7,.51-15.64,1.04-2.71,.29-5.41,.57-8.12,.85-1.19,.12-2.37,.24-3.56,.37-.89,.09-1.78,.19-2.67,.29-1.88,0-1.32,.65,1.7,1.91l-.6,4.62c2.38-4.62,6.31-8.76,9.45-12.92,3.51-4.63,7.01-9.25,10.52-13.88,6.81-8.99,13.43-18.18,20.48-26.99l-4.24,1.76h1.05c-1.73-.99-3.45-1.98-5.18-2.97l.25,.4V3.59c-7.86,10.67-14.33,22.66-21.34,33.9-3.04,4.87-7.67,10.2-9.5,15.67s2.69,9.35,7.9,9.21c5.78-.16,11.59-.96,17.36-1.38,.47-.03,3.81,.12,4.06-.35-.62-2.95-1.1-3.5-1.44-1.66-.29,.95-.58,1.89-.87,2.84-.96,3.11-1.95,6.2-2.92,9.31-4.22,13.39-9.61,26.88-12.73,40.56-1.71,7.52,9.85,10.73,11.57,3.19,4.08-17.9,11.99-34.91,16.53-52.7,1.73-6.77-1.79-13.69-9.5-13.57-3.81,.06-7.72,.62-11.52,.95-2.99,.26-8.17,1.69-11.03,.86l3.59,2.76-.3-.57,.6,4.62c1.23-3.78,4.92-7.81,7.03-11.19,2.57-4.12,5.14-8.24,7.71-12.35,4.98-7.98,9.6-16.45,15.17-24.02,1.21-1.64,1.04-4.4,0-6.06-7.15-11.37-17.52,7.27-21.32,12.29-7.23,9.54-14.46,19.09-21.7,28.63-4.27,5.64-18.38,20-5.5,24.78,4.49,1.66,10.79-.2,15.43-.69,2.74-.29,5.47-.58,8.21-.87,2.25-.24,5.78-1.4,7.89-.98l-4.4-5.79c.06,4.73-1.92,10.19-2.81,14.83-1.05,5.42-2.09,10.84-3.14,16.26-.93,4.83-1.87,9.65-2.81,14.48s-1.75,9.06,3.06,11.93c6.64,3.97,12.69-6.4,6.06-10.36l-.02-.03Z" fill="#fff"/></g><g><path d="M29.75,113.27c-.04-.5,.18-.95,.32-1.41,2.79-8.8,5.59-17.6,8.38-26.41,1.73-5.46,3.45-10.92,5.17-16.39,.99-3.15,1.98-6.29,2.94-9.45,.91-3.02-1.55-5.66-4.64-4.99-1.06,.23-2.14,.19-3.2,.28-3.41,.3-6.83,.52-10.24,.86-2.24,.22-4.49,.29-6.74,.45-.83,.06-1.64,.26-2.48,.21-1.1-.07-1.45-.68-.87-1.68,.71-1.19,1.48-2.35,2.22-3.53,4.8-7.69,9.59-15.37,14.39-23.06,3.31-5.3,6.61-10.6,9.96-15.88,1.2-1.9,2.25-3.9,3.67-5.67,.5,.35,.39,.85,.3,1.33-2.11,11.02-4.21,22.05-6.34,33.07-.16,.83,0,1,.87,.87,4.92-.71,9.85-1.34,14.77-2,3.72-.5,7.44-.98,11.15-1.54,1.07-.16,1.95,0,2.6,.87,.67,.9,.5,1.81-.04,2.73-2.91,4.99-5.81,10-8.71,14.99-6.43,11.08-12.87,22.17-19.3,33.25-4.3,7.41-8.6,14.82-12.91,22.22-.28,.49-.57,.99-1.28,.86v.02Z" fill="#fedb64"/><path d="M35.53,114.86c4.08-17.9,11.99-34.91,16.53-52.7,1.73-6.77-1.79-13.69-9.5-13.57-3.81,.06-7.72,.62-11.52,.95-2.99,.26-8.17,1.69-11.03,.86l3.59,2.76-.3-.57,.6,4.62c1.23-3.78,4.92-7.81,7.03-11.19,2.57-4.12,5.14-8.24,7.71-12.35,4.98-7.98,9.6-16.45,15.17-24.02h-10.36c-1.35-2.25-.89-.25-1.24,1.57-.25,1.3-.5,2.59-.74,3.89-.62,3.24-1.24,6.48-1.86,9.73-1.01,5.28-3.28,11.61-2.97,16.98,.2,3.47,2.6,5.68,6,6,4.06,.38,8.78-1.02,12.83-1.55,2.16-.29,4.33-.58,6.49-.87,1.06-.14,6.67-.21,7.17-.98-1.58-4.25-2.85-5.25-3.81-2.99-.48,.83-.97,1.67-1.45,2.5-1.29,2.22-2.58,4.44-3.87,6.67-2.25,3.88-4.51,7.76-6.76,11.64-4.5,7.76-9.01,15.52-13.51,23.27s-8.87,17.02-14.35,24.54l3.59-2.76-.8,.2c-7.47,1.92-4.31,13.5,3.19,11.57,4.94-1.27,7-7.3,9.33-11.31,2.97-5.12,5.95-10.24,8.92-15.36,6.11-10.53,12.22-21.06,18.33-31.58,2.89-4.98,6.02-9.9,8.71-14.99,2.25-4.27,2.44-9.69-2.35-12.42-4.11-2.34-9.84-.33-14.2,.25-5.45,.73-11.99,2.69-17.46,2.17l6,6c-.18-3.11,1.21-6.85,1.8-9.9,.68-3.57,1.37-7.13,2.05-10.7,.97-5.08,4.22-12.82,1.33-17.62-2.5-4.16-7.74-3.55-10.36,0-7.86,10.67-14.33,22.66-21.34,33.9-3.04,4.87-7.67,10.2-9.5,15.67s2.69,9.35,7.9,9.21c5.78-.16,11.59-.96,17.36-1.38,.47-.03,3.81,.12,4.06-.35-.62-2.95-1.1-3.5-1.44-1.66-.29,.95-.58,1.89-.87,2.84-.96,3.11-1.95,6.2-2.92,9.31-4.22,13.39-9.61,26.88-12.73,40.56-1.71,7.52,9.85,10.73,11.57,3.19l-.02-.03Z" fill="#fff"/></g></g></g><g id="katman_48"><g><path d="M29.93,113.27c-.97-.14-1.15-.79-.99-1.6,.91-4.74,1.84-9.47,2.76-14.2,1.73-8.93,3.44-17.85,5.17-26.78,.57-2.96,1.11-5.94,1.75-8.89,.18-.82,.06-1.09-.79-.99-2.9,.32-5.8,.62-8.71,.92-3.04,.32-6.08,.65-9.12,.97-3.56,.37-7.12,.72-10.68,1.12-1.43,.16-2.39-.1-2.93-1.04-.63-1.1-.24-2.06,.46-2.98,4.66-6.13,9.3-12.26,13.95-18.39,8.62-11.38,17.24-22.76,25.87-34.14,.27-.36,.56-.7,.84-1.05h1.05c.08,.13,.17,.27,.25,.4-1.42,1.76-2.47,3.77-3.67,5.67-3.34,5.28-6.65,10.58-9.96,15.88-4.8,7.68-9.59,15.37-14.39,23.06-.74,1.18-1.51,2.33-2.22,3.53-.59,.99-.23,1.61,.87,1.68,.84,.05,1.66-.15,2.48-.21,2.25-.16,4.5-.23,6.74-.45,3.41-.33,6.83-.56,10.24-.86,1.06-.09,2.15-.05,3.2-.28,3.09-.67,5.55,1.96,4.64,4.99-.95,3.16-1.95,6.3-2.94,9.45-1.72,5.46-3.44,10.93-5.17,16.39-2.79,8.8-5.59,17.6-8.38,26.41-.15,.46-.36,.91-.32,1.41v-.02Z" fill="#ffcc01"/><path d="M29.93,113.27c-.04-.5,.18-.95,.32-1.41,2.79-8.8,5.59-17.6,8.38-26.41,1.73-5.46,3.45-10.92,5.17-16.39,.99-3.15,1.98-6.29,2.94-9.45,.91-3.02-1.55-5.66-4.64-4.99-1.06,.23-2.14,.19-3.2,.28-3.41,.3-6.83,.52-10.24,.86-2.24,.22-4.49,.29-6.74,.45-.83,.06-1.64,.26-2.48,.21-1.1-.07-1.45-.68-.87-1.68,.71-1.19,1.48-2.35,2.22-3.53,4.8-7.69,9.59-15.37,14.39-23.06,3.31-5.3,6.61-10.6,9.96-15.88,1.2-1.9,2.25-3.9,3.67-5.67,.5,.35,.39,.85,.3,1.33-2.11,11.02-4.21,22.05-6.34,33.07-.16,.83,0,1,.87,.87,4.92-.71,9.85-1.34,14.77-2,3.72-.5,7.44-.98,11.15-1.54,1.07-.16,1.95,0,2.6,.87,.67,.9,.5,1.81-.04,2.73-2.91,4.99-5.81,10-8.71,14.99-6.43,11.08-12.87,22.17-19.3,33.25-4.3,7.41-8.6,14.82-12.91,22.22-.28,.49-.57,.99-1.28,.86v.02Z" fill="#ffdb53"/></g></g></g></svg>