<svg id="Layer_2" data-name="Layer 2" xmlns="http://www.w3.org/2000/svg" viewBox="0 0 570.35 49.07"><title>soru2</title><polyline points="0 27.06 5.27 24.23 13.55 36.41 22.8 0 45.33 0 45.33 1.88 24.27 1.88 14.48 40.38 12.54 40.38 3.29 26.78 0.62 28.22"/><text transform="translate(25.14 37.41)" font-size="38.01" fill="#1d1d1b" font-family="TimesNewRoman">2</text><text transform="translate(70.87 37.41)" font-size="38.01" fill="#1d1d1b" font-family="TimesNewRoman">255</text><text transform="translate(169.45 37.41)" font-size="38.01" fill="#1d1d1b" font-family="TimesNewRoman">12</text><text transform="translate(240.71 37.41)" font-size="38.01" fill="#1d1d1b" font-family="TimesNewRoman">78</text><text transform="translate(335.73 37.41)" font-size="38.01" fill="#1d1d1b" font-family="TimesNewRoman">25</text><text transform="translate(417.68 37.41)" font-size="38.01" fill="#1d1d1b" font-family="TimesNewRoman">5</text><text transform="translate(52.46 37.41)" font-size="38.01" fill="#1d1d1b" font-family="TimesNewRoman" letter-spacing="6.48em">-(</text><text transform="translate(323.85 37.41)" font-size="38.01" fill="#1d1d1b" font-family="TimesNewRoman" letter-spacing="0.96em">-)</text><text transform="translate(128.47 37.41)" font-size="38.01" fill="#1d1d1b" font-family="TimesNewRoman"> </text><path d="M187.65,107.21h-8.82V109h8.82v8.81h1.78V109h8.81v-1.79h-8.81V98.4h-1.78Zm67.69,0h-8.82V109h8.82v8.81h1.78V109h8.81v-1.79h-8.81V98.4h-1.78Z" transform="translate(-32.45 -80.4)"/><path d="M326,107.21H317.2V109H326v8.81h1.78V109h8.81v-1.79H327.8V98.4H326Zm110.44-6.5a2.05,2.05,0,0,0-3.49,1.45,2.05,2.05,0,0,0,4.1,0,1.88,1.88,0,0,0-.61-1.45Zm-11.16,8.21h19.48v-1.79H425.3Zm11.2,3.61a1.86,1.86,0,0,0-1.44-.61,1.88,1.88,0,0,0-1.45.61A1.94,1.94,0,0,0,433,114a2,2,0,0,0,2.05,2,2.07,2.07,0,0,0,2.05-2,1.91,1.91,0,0,0-.61-1.44Z" transform="translate(-32.45 -80.4)"/></svg>