<?xml version="1.0" encoding="utf-8"?>
<!-- Generator: Adobe Illustrator 23.0.3, SVG Export Plug-In . SVG Version: 6.00 Build 0)  -->
<svg version="1.1" xmlns="http://www.w3.org/2000/svg" xmlns:xlink="http://www.w3.org/1999/xlink" x="0px" y="0px"
	 viewBox="0 0 500 200" style="enable-background:new 0 0 500 200;" xml:space="preserve">
<style type="text/css">
	.st0{display:none;}
	.st1{display:inline;}
	.st2{font-family:'TimesNewRomanPSMT';}
	.st3{font-size:36.2643px;}
	.st4{font-size:20.9653px;}
	.st5{letter-spacing:53;}
	.st6{letter-spacing:47;}
	.st7{font-family:'TimesNewRomanPS-ItalicMT';}
	.st8{letter-spacing:46;}
	.st9{font-family:'SymbolMT';}
	.st10{fill:#1D1D1B;}
	.st11{font-size:38.0072px;}
	.st12{letter-spacing:246;}
	.st13{letter-spacing:36;}
</style>
<g id="Layer_1" class="st0">
	<g class="st1">
		<polyline points="26.1,109.1 31.1,106.3 39,118.1 47.9,82.8 86.9,82.8 86.9,84.7 49.3,84.7 39.9,121.9 38.1,121.9 29.3,108.8 
			26.7,110.2 		"/>
		<polyline points="131.1,108.7 136.2,106 144.1,117.6 152.9,82.8 174.4,82.8 174.4,84.7 154.3,84.7 145,121.4 143.1,121.4 
			134.3,108.4 131.7,109.8 		"/>
		<polyline points="348.4,107.6 353.4,104.5 361.3,117.7 370.1,78.4 473.4,78.4 473.4,80.2 371.5,80.2 362.1,121.9 360.3,121.9 
			351.5,107.2 349,108.7 		"/>
		<text transform="matrix(1 0 0 1 50.1094 118.5479)" class="st2 st3">25</text>
		<text transform="matrix(1 0 0 1 155.125 118.5479)" class="st2 st3">2</text>
		<text transform="matrix(1 0 0 1 392.4473 102.3057)" class="st2 st4 st5">22</text>
		<text transform="matrix(1 0 0 1 89.7734 118.5479)" class="st2 st3"> +</text>
		<text transform="matrix(1 0 0 1 119.2383 118.5479)" class="st2 st3 st6">  </text>
		<text transform="matrix(1 0 0 1 186.2891 118.5479)" class="st2 st3">-</text>
		<text transform="matrix(1 0 0 1 197.6211 118.5479)" class="st2 st3"> 8 +12 + 2</text>
		<text transform="matrix(1 0 0 1 372.332 118.5479)" class="st7 st3 st8">ab</text>
		<text transform="matrix(1 0 0 1 412.6582 118.5479)" class="st9 st3">+</text>
	</g>
</g>
<g id="Layer_2">
	<g>
		<polyline points="32.5,107.5 37.7,104.6 46,116.8 55.3,80.4 77.8,80.4 77.8,82.3 56.7,82.3 46.9,120.8 45,120.8 35.7,107.2 
			33.1,108.6 		"/>
		<text transform="matrix(1 0 0 1 57.5938 117.8066)" class="st10 st2 st11">2</text>
		<text transform="matrix(1 0 0 1 103.3223 117.8066)" class="st10 st2 st11">255</text>
		<text transform="matrix(1 0 0 1 201.9043 117.8066)" class="st10 st2 st11">12</text>
		<text transform="matrix(1 0 0 1 273.166 117.8066)" class="st10 st2 st11">78</text>
		<text transform="matrix(1 0 0 1 368.1855 117.8066)" class="st10 st2 st11">25</text>
		<text transform="matrix(1 0 0 1 450.1387 117.8066)" class="st10 st2 st11">5</text>
		<text transform="matrix(1 0 0 1 84.9121 117.8066)" class="st10 st2 st11 st12">-(</text>
		<text transform="matrix(1 0 0 1 356.3086 117.8066)" class="st10 st2 st11 st13">-)</text>
		<text transform="matrix(1 0 0 1 160.9277 117.8066)" class="st10 st2 st11"> </text>
		<path d="M187.6,107.2h-8.8v1.8h8.8v8.8h1.8V109h8.8v-1.8h-8.8v-8.8h-1.8V107.2z M255.3,107.2h-8.8v1.8h8.8v8.8h1.8V109h8.8v-1.8
			h-8.8v-8.8h-1.8V107.2z"/>
		<path d="M326,107.2h-8.8v1.8h8.8v8.8h1.8V109h8.8v-1.8h-8.8v-8.8H326V107.2z M436.5,100.7c-0.4-0.4-0.9-0.6-1.4-0.6
			c-0.6,0-1.1,0.2-1.4,0.6c-0.4,0.4-0.6,0.9-0.6,1.4c0,0.6,0.2,1.1,0.6,1.4c0.4,0.4,0.9,0.6,1.4,0.6c0.6,0,1.1-0.2,1.4-0.6
			c0.4-0.4,0.6-0.9,0.6-1.4C437.1,101.6,436.9,101.1,436.5,100.7L436.5,100.7z M425.3,108.9h19.5v-1.8h-19.5V108.9z M436.5,112.5
			c-0.4-0.4-0.9-0.6-1.4-0.6s-1.1,0.2-1.4,0.6c-0.4,0.4-0.6,0.9-0.6,1.4c0,0.6,0.2,1.1,0.6,1.4c0.4,0.4,0.9,0.6,1.4,0.6
			s1.1-0.2,1.4-0.6c0.4-0.4,0.6-0.9,0.6-1.4C437.1,113.4,436.9,112.9,436.5,112.5L436.5,112.5z"/>
	</g>
</g>
</svg>
