<?xml version="1.0" encoding="UTF-8"?><svg id="katman_2" xmlns="http://www.w3.org/2000/svg" viewBox="0 0 135.47 129.81"><g id="_üst_arka"><g id="katman_47"><g opacity=".81"><g><path d="M69.39,9.92l16.71,33.85c.27,.56,.81,.94,1.42,1.03l37.36,5.43c1.55,.22,2.17,2.13,1.05,3.22l-27.03,26.35c-.44,.43-.65,1.06-.54,1.67l6.38,37.21c.26,1.54-1.35,2.72-2.74,1.99l-33.42-17.57c-.55-.29-1.21-.29-1.76,0l-33.42,17.57c-1.38,.73-3-.45-2.74-1.99l6.38-37.21c.1-.61-.1-1.24-.54-1.67L9.47,53.46c-1.12-1.09-.5-2.99,1.05-3.22l37.36-5.43c.61-.09,1.15-.48,1.42-1.03L66,9.92c.69-1.4,2.69-1.4,3.38,0h.01Z" fill="#ffcc01"/><path d="M61.61,14.47c3,6.09,6.01,12.17,9.01,18.26l5.79,11.72c1.32,2.67,2.36,5.18,4.81,7.09s5.17,2.14,8.17,2.57l12.94,1.88,13.75,2c1.46,.21,2.93,.49,4.4,.64,.9,.09,3.11,.87,.83-.17l-3.23-3.23,.55,.84-1.23-4.54,.05,1,1.23-4.54c1.08-1.91,.26-.28-.57,.52-1.06,1.03-2.12,2.07-3.18,3.1l-9.95,9.7-9.36,9.12c-2.33,2.27-4.97,4.45-5.88,7.75s.12,6.75,.66,9.94l2.21,12.88c.78,4.57,1.57,9.13,2.35,13.7,.25,1.46,.54,2.92,.75,4.38s-.33,2.69-.1,.66l2.64-6.36-.63,.78,3.97-2.31-.94,.36h4.79c2.04,.42,.48,.35-.69-.25-1.32-.67-2.62-1.38-3.93-2.07l-12.3-6.47c-3.86-2.03-7.71-4.06-11.57-6.08-2.88-1.51-5.87-3.45-9.24-3.45s-6.36,1.94-9.24,3.45l-11.57,6.08c-4.1,2.16-8.2,4.31-12.3,6.47-1.31,.69-2.61,1.4-3.93,2.07-1.17,.59-2.73,.66-.69,.25h4.79l-.94-.36,3.97,2.31-.63-.78,2.64,6.36c.23,2.03-.31,.81-.1-.66s.5-2.92,.75-4.38l2.35-13.7,2.21-12.88c.55-3.19,1.54-6.76,.66-9.94s-3.55-5.48-5.88-7.75l-9.36-9.12-9.95-9.7c-1.06-1.03-2.12-2.07-3.18-3.1-.83-.8-1.64-2.43-.57-.52l1.23,4.54,.05-1-1.23,4.54,.55-.84-3.23,3.23c-2.29,1.04-.08,.27,.83,.17,1.47-.15,2.94-.43,4.4-.64l13.75-2,12.94-1.88c3-.44,5.64-.6,8.17-2.57s3.49-4.42,4.81-7.09l5.79-11.72,6.15-12.46c.66-1.33,1.34-2.64,1.97-3.99,.43-.92,1.79-2.5,.21-.78l-3.97,2.31,.97-.26h-4.79l.97,.26-3.97-2.31,.72,.79c7.85,8.56,20.55-4.2,12.73-12.73-5.6-6.11-14.32-3.83-18.04,2.87-1.98,3.58-3.64,7.38-5.45,11.04l-6.98,14.15-2.64,5.35c-.44,.9-2.14,3.33-.29,1.14l3.97-2.31c-2.21,.9-4.89,.93-7.24,1.27l-14.73,2.14c-7.56,1.1-20.1,.43-23.58,8.85-3.83,9.26,7.68,16.97,13.38,22.53l10.8,10.53c1.25,1.22,2.48,2.45,3.75,3.65,.79,.75,1.9,2.58,.52,.36l-1.23-4.54c-.18-2.49,.26-.86,.04,.5-.27,1.72-.59,3.44-.88,5.16l-2.55,14.86c-1.34,7.81-5.98,20.71,1.37,26.5,7.35,5.79,18.72-2.7,25.63-6.33l13.35-7.02c1.54-.81,3.09-1.63,4.63-2.43,1.09-.57,2.97-.86,.52-.25h-4.79c-2.45-.61-.57-.32,.52,.25,1.55,.81,3.09,1.62,4.63,2.43l13.35,7.02c6.91,3.63,18.06,12.29,25.63,6.33,7.35-5.79,2.71-18.69,1.37-26.5-.85-4.95-1.7-9.91-2.55-14.86-.29-1.72-.62-3.43-.88-5.16-.21-1.37,.23-3,.04-.5l-1.23,4.54c-1.38,2.22-.27,.39,.52-.36,1.26-1.2,2.5-2.43,3.75-3.65l10.8-10.53c5.7-5.55,17.21-13.26,13.38-22.53-3.48-8.42-16.03-7.76-23.58-8.85-4.91-.71-9.82-1.43-14.73-2.14-2.35-.34-5.02-.37-7.24-1.27l3.97,2.31c1.68,1.99,.5,.58,.13-.28-.55-1.26-1.23-2.48-1.83-3.72-1.94-3.93-3.88-7.87-5.83-11.8-2.78-5.64-5.57-11.28-8.35-16.93-5.13-10.39-20.66-1.28-15.54,9.08h-.07Z" fill="#fff"/></g><g><path d="M67.69,17.74l-14.89,28.84c-.78,1.51-2.28,2.52-3.98,2.68l-32.33,2.95,34.15,1.6c2.17,.1,4.15-1.21,4.91-3.25l12.13-32.81h.01Z" fill="#ffdb53"/><path d="M59.92,13.2c-2.48,4.81-4.96,9.61-7.44,14.42l-5.2,10.08c-.4,.77-2.38,3.43-2.24,4.34-.41-2.64,6.03-1.68,2.46-1.66-1.17,0-2.37,.22-3.53,.32l-10.8,.99-16.66,1.52c-11.41,1.04-11.74,17.45,0,18,6.67,.31,13.35,.62,20.02,.94,7.18,.34,17.03,2.46,23.07-2.47,5.48-4.47,7.5-14.42,9.86-20.82s4.61-12.48,6.92-18.72c1.69-4.56-1.88-9.86-6.29-11.07-5.03-1.38-9.38,1.71-11.07,6.29-1.96,5.31-3.93,10.63-5.89,15.94l-4.14,11.21c-.49,1.33-1.17,2.71-1.51,4.09-.38,1.54-1.82,2.64,1.31-.13s2.13-1.35,.62-1.72c-1.14-.28-2.56-.12-3.72-.17l-11.61-.54-17.57-.82v18l18.63-1.7c6.03-.55,15.26,.03,20.57-3.31,5.6-3.52,8.29-11.7,11.18-17.3s5.72-11.08,8.58-16.62c5.31-10.28-10.22-19.39-15.54-9.08h-.01Z" fill="#fff"/></g><g><path d="M31.4,114.41l-.73,4.28c-.26,1.54,1.35,2.72,2.74,1.99l33.42-17.57c.55-.29,1.21-.29,1.76,0l33.42,17.57c1.38,.73,3-.45,2.74-1.99l-6.38-37.21c-.1-.61,.1-1.24,.54-1.67l27.03-26.35c1.12-1.09,.5-2.99-1.05-3.22l-12.51-1.82c-20.24,36.32-51.23,55.45-80.96,65.99h-.02Z" fill="#fcbd11"/><path d="M22.72,112.01c-.5,2.93-1.34,5.98-.77,8.93,1.23,6.38,7.56,10.22,13.85,8.41,3.61-1.04,7.15-3.53,10.43-5.26,5.36-2.82,10.72-5.64,16.08-8.45l6.33-3.33c.67-.35,1.33-.71,2-1.05,.9-.46,1.26-.14-.55,.31h-4.79c-2.45-.61-.57-.32,.52,.25,1.55,.81,3.09,1.62,4.63,2.43l13.35,7.02c6.91,3.63,18.06,12.29,25.63,6.33,7.35-5.79,2.71-18.69,1.37-26.5l-2.55-14.86c-.29-1.72-.62-3.43-.88-5.16-.21-1.37,.23-3,.04-.5l-1.23,4.54c-1.59,2.56,.89-.72,1.7-1.51l6.34-6.18,14.48-14.12c5.25-5.11,10.25-12.24,3.51-18.99-4.1-4.1-12.11-3.8-17.46-4.58-3.97-.58-8.04,.37-10.16,4.14-16.79,29.72-43.67,50.42-75.59,61.85-4.57,1.64-7.64,6.13-6.29,11.07,1.22,4.42,6.47,7.93,11.07,6.29,36.3-13.01,67.19-36.22,86.34-70.12l-10.16,4.14,6.26,.91,4.11,.6c.82,.12,3.21,.87,.97-.15l-3.23-3.23,.55,.84-1.23-4.54,.05,1,1.23-4.54c1.08-1.91,.26-.28-.57,.52-1.06,1.03-2.12,2.07-3.18,3.1l-9.95,9.7-9.36,9.12c-2.33,2.27-4.97,4.45-5.88,7.75s.12,6.75,.66,9.94c.74,4.29,1.47,8.59,2.21,12.88l2.35,13.7c.25,1.46,.54,2.92,.75,4.38s-.33,2.69-.1,.66l2.64-6.36-.63,.78,3.97-2.31-.94,.36h4.79c2.04,.42,.48,.35-.69-.25-1.32-.67-2.62-1.38-3.93-2.07-4.1-2.16-8.2-4.31-12.3-6.47l-11.57-6.08c-2.88-1.51-5.87-3.45-9.24-3.45s-6.36,1.94-9.24,3.45l-11.57,6.08-12.3,6.47c-1.31,.69-2.61,1.4-3.93,2.07-1.17,.59-2.73,.66-.69,.25h4.79l-.94-.36,3.97,2.31-.63-.78,2.64,6.36c.23,2-.23,.33-.08-.81,.1-.72,.24-1.43,.37-2.14,.82-4.79-1.27-9.69-6.29-11.07-4.33-1.19-10.24,1.47-11.07,6.29h0Z" fill="#fff"/></g></g></g><g id="katman_35"><g opacity=".81"><path d="M69.39,9.92l16.71,33.85c.27,.56,.81,.94,1.42,1.03l37.36,5.43c1.55,.22,2.17,2.13,1.05,3.22l-27.03,26.35c-.44,.43-.65,1.06-.54,1.67l6.38,37.21c.26,1.54-1.35,2.72-2.74,1.99l-33.42-17.57c-.55-.29-1.21-.29-1.76,0l-33.42,17.57c-1.38,.73-3-.45-2.74-1.99l6.38-37.21c.1-.61-.1-1.24-.54-1.67L9.47,53.46c-1.12-1.09-.5-2.99,1.05-3.22l37.36-5.43c.61-.09,1.15-.48,1.42-1.03L66,9.92c.69-1.4,2.69-1.4,3.38,0h.01Z" fill="#ffcc01"/><path d="M67.69,17.74l-14.89,28.84c-.78,1.51-2.28,2.52-3.98,2.68l-32.33,2.95,34.15,1.6c2.17,.1,4.15-1.21,4.91-3.25l12.13-32.81h.01Z" fill="#ffdb53"/><path d="M31.4,114.41l-.73,4.28c-.26,1.54,1.35,2.72,2.74,1.99l33.42-17.57c.55-.29,1.21-.29,1.76,0l33.42,17.57c1.38,.73,3-.45,2.74-1.99l-6.38-37.21c-.1-.61,.1-1.24,.54-1.67l27.03-26.35c1.12-1.09,.5-2.99-1.05-3.22l-12.51-1.82c-20.24,36.32-51.23,55.45-80.96,65.99h-.02Z" fill="#fcbd11"/></g></g></g></svg>