<?xml version="1.0" encoding="UTF-8"?><svg id="katman_2" xmlns="http://www.w3.org/2000/svg" viewBox="0 0 109.84 105.11"><g id="_üst_arka"><g id="katman_47"><g opacity=".81"><g><path d="M56.33,6.76l13.92,28.2c.23,.46,.67,.79,1.18,.86l31.12,4.52c1.29,.19,1.8,1.77,.87,2.68l-22.52,21.95c-.37,.36-.54,.88-.45,1.39l5.32,30.99c.22,1.28-1.13,2.26-2.28,1.66l-27.83-14.63c-.46-.24-1-.24-1.46,0l-27.83,14.63c-1.15,.61-2.5-.37-2.28-1.66l5.32-30.99c.09-.51-.08-1.03-.45-1.39L6.42,43.02c-.93-.91-.42-2.49,.87-2.68l31.12-4.52c.51-.07,.95-.4,1.18-.86L53.51,6.76c.58-1.17,2.24-1.17,2.82,0Z" fill="#ffcc01"/><path d="M51.15,9.79c4.21,8.53,8.42,17.06,12.63,25.6,1.66,3.36,3.47,5.67,7.39,6.41,5.17,.99,10.47,1.52,15.68,2.28l8.49,1.23c1.15,.17,4.18,1.21,5.26,.76,.52-.21-1.26-7.12-1.68-7.05-.35,.06-.98,.96-1.23,1.2l-5.32,5.18-12.71,12.39c-3.23,3.15-5.69,5.74-4.9,10.77,.86,5.46,1.87,10.89,2.8,16.34l1.64,9.56c.18,1.05,.34,2.11,.54,3.16,.32,1.68-.49,1.58,0-.72l2.76-3.59c2.39-1.74,5.49,1.6,2.61-.21-1.14-.72-2.43-1.28-3.62-1.9l-9.77-5.13c-4.68-2.46-11.29-7.68-16.81-7.68s-11.81,5.05-16.37,7.45l-10.2,5.36c-1.13,.59-2.33,1.12-3.42,1.8-.32,.2-.77,.31-1.06,.55-1.56,1.34-1.24-3.65,3.47-.23l2.76,3.59c.45,2.15-.39,2.55-.08,1.12,.19-.83,.29-1.69,.43-2.54l1.4-8.18c.94-5.49,1.88-10.98,2.83-16.47,.72-4.22,.75-7.71-2.47-11.03-3.67-3.79-7.57-7.38-11.34-11.06l-6.14-5.99c-.83-.81-2.68-3.45-3.81-3.71-.56-.13-2.05,6.87-1.68,7.05,.32,.16,1.35-.2,1.7-.25l7.35-1.07,17.57-2.55c3.91-.57,6.95-.96,9.2-4.78,2.78-4.72,4.91-9.96,7.34-14.86l4.29-8.69c.46-.93,1.09-1.89,1.42-2.87,.06-.19,.28-.44,.32-.66,.71-3.58,6.27,14.4-6.33,.66,5.23,5.7,13.7-2.8,8.49-8.49-3.62-3.95-9.54-3.07-12.31,1.36-1.24,1.98-2.12,4.3-3.16,6.4-3.24,6.57-7.6,13.31-9.99,20.24-.34,.99-1.64,2.2,.51,.45s.87-.71-.37-.7c-3.16,.03-6.54,.95-9.67,1.41-6.4,.93-13.36,1.21-19.63,2.85-4.85,1.27-7.54,6.65-4.93,11.14,1.13,1.95,3.08,3.48,4.68,5.03l16.47,16.06c.47,.45,1.45,1.85,2.08,2.03,.75,.21,1.21,3.64-.12-1.79s-.25-2.2-.63-1.62c-1.2,1.81-1.06,6.16-1.42,8.3-1.21,7.05-2.49,14.09-3.63,21.15-.72,4.49,.75,9.44,5.96,10.21,2.95,.44,5.35-1.03,7.82-2.33,6.77-3.56,13.54-7.12,20.3-10.67,1.11-.59,2.48-1.08,3.49-1.83,3.03-2.25-3.44,.98-3.31-.58-.03,.43,5.52,2.9,6,3.15,6.71,3.53,13.4,7.12,20.14,10.59,3.16,1.63,6.49,2.66,9.7,.32,3.38-2.46,3.31-6,2.69-9.7-1.23-7.34-2.52-14.68-3.78-22.02-.13-.76-.52-6.73-1.21-7.03,1.33,.58-3.02,5.2-.29,3.49,.98-.62,1.86-1.82,2.69-2.63l16.7-16.28c1.93-1.88,3.96-3.62,4.39-6.46,.65-4.35-2.34-7.68-6.39-8.6-6.81-1.55-14.04-2.04-20.95-3.04-2.28-.33-6.32-1.74-8.62-1.25-2.17,.47,1.89,.22,1.55,1.64,.11-.45-1.04-2.11-1.21-2.46-3.37-6.84-6.75-13.67-10.12-20.51l-2.51-5.08c-3.42-6.93-13.77-.85-10.36,6.06v-.05Z" fill="#fff"/></g><g><path d="M54.92,13.27l-12.4,24.02c-.65,1.26-1.9,2.1-3.31,2.23l-26.93,2.46,28.45,1.33c1.81,.08,3.46-1.01,4.09-2.71,0,0,10.1-27.33,10.1-27.33Z" fill="#ffdb53"/><path d="M49.74,10.25l-6.2,12.01-4.17,8.09c-.18,.34-2.24,3.58-2.03,3.92-.36-.58,3.16-.51,.77-.64-.94-.05-1.98,.18-2.92,.27l-8.95,.82-13.96,1.27c-7.61,.69-7.82,11.63,0,12,5.56,.26,11.13,.52,16.69,.78,5.56,.26,13.74,2.07,18.48-1.89,4.16-3.47,5.72-11.64,7.51-16.48,1.91-5.17,3.83-10.35,5.74-15.52,2.68-7.25-8.91-10.38-11.57-3.19-1.68,4.56-3.37,9.11-5.05,13.67l-3.34,9.04c-.39,1.05-.93,2.15-1.2,3.24-.07,.3-.74,3.09,.34,.52,.74-1.76,1.11-.37-.22-.88-.75-.28-2.04-.1-2.84-.13l-9.83-.46c-4.91-.23-9.81-.46-14.72-.69v12l14.94-1.36c4.99-.46,12.49,.06,16.93-2.65s6.6-9.55,8.85-13.9c2.37-4.59,4.74-9.17,7.1-13.76,3.54-6.85-6.81-12.93-10.36-6.06v-.02Z" fill="#fff"/></g><g><path d="M24.68,93.79l-.61,3.57c-.22,1.28,1.13,2.26,2.28,1.66l27.83-14.63c.46-.24,1-.24,1.46,0l27.83,14.63c1.15,.61,2.5-.37,2.28-1.66l-5.32-30.99c-.09-.51,.08-1.03,.45-1.39l22.52-21.95c.93-.91,.42-2.49-.87-2.68l-10.42-1.51c-16.86,30.25-42.67,46.18-67.44,54.96h.01Z" fill="#fcbd11"/><path d="M18.9,92.19c-.73,4.24-1.66,8.55,2.38,11.48,3.24,2.34,6.51,1.31,9.7-.32,6.12-3.11,12.15-6.39,18.23-9.58,2.21-1.16,4.73-2.18,6.8-3.58,2.92-1.96-1.15,2.62-3.36-.61,.3,.44,1.57,.83,2.03,1.07,6.19,3.25,12.37,6.5,18.56,9.76,5.11,2.69,13.16,8.37,17.47,1.12,2.59-4.35-.37-12.84-1.16-17.42l-1.94-11.3c-.39-2.27-.4-5.27-1.27-7.43s-2.44,4.12-.94,3.59c.6-.21,1.38-1.35,1.83-1.78l7.08-6.9c4.38-4.27,9.4-8.35,13.36-13.02s2-11.2-3.97-12.77c-3.18-.84-6.71-.98-9.98-1.45-2.65-.39-5.35,.25-6.78,2.76-14.23,25.11-36.89,42.52-63.85,52.21-7.21,2.59-4.1,14.19,3.19,11.57,29.91-10.74,55.21-29.81,71.03-57.72l-6.78,2.76c2.79,.4,7.58,2.1,10.31,1.5,.65-6.65,.06-9.06-1.77-7.22l-.14,.14c-.39,.19-.71,.75-1.04,1.02-1.19,.95-2.24,2.19-3.33,3.25-5.72,5.58-11.72,10.97-17.21,16.77-4.71,4.98-1.87,12.59-.84,18.62l2.24,13.08,.84,4.89c.37,2.17-.4,2.91,.16,.24l2.76-3.59c2.39-1.74,5.49,1.6,2.61-.21-1.14-.72-2.43-1.28-3.62-1.9l-9.77-5.13c-4.68-2.46-11.29-7.68-16.81-7.68s-11.81,5.05-16.37,7.45l-10.2,5.36c-1.13,.59-2.33,1.12-3.42,1.8-.32,.2-.77,.31-1.06,.55-1.56,1.34-1.24-3.65,3.47-.23l2.76,3.59c.41,1.97-.29,2.17,.07,.27,.11-.59,.2-1.19,.31-1.78,1.3-7.55-10.27-10.8-11.57-3.19v-.04Z" fill="#fff"/></g></g></g><g id="katman_35"><g opacity=".81"><path d="M56.33,6.76l13.92,28.2c.23,.46,.67,.79,1.18,.86l31.12,4.52c1.29,.19,1.8,1.77,.87,2.68l-22.52,21.95c-.37,.36-.54,.88-.45,1.39l5.32,30.99c.22,1.28-1.13,2.26-2.28,1.66l-27.83-14.63c-.46-.24-1-.24-1.46,0l-27.83,14.63c-1.15,.61-2.5-.37-2.28-1.66l5.32-30.99c.09-.51-.08-1.03-.45-1.39L6.42,43.02c-.93-.91-.42-2.49,.87-2.68l31.12-4.52c.51-.07,.95-.4,1.18-.86L53.51,6.76c.58-1.17,2.24-1.17,2.82,0Z" fill="#ffcc01"/><path d="M54.92,13.27l-12.4,24.02c-.65,1.26-1.9,2.1-3.31,2.23l-26.93,2.46,28.45,1.33c1.81,.08,3.46-1.01,4.09-2.71,0,0,10.1-27.33,10.1-27.33Z" fill="#ffdb53"/><path d="M24.68,93.79l-.61,3.57c-.22,1.28,1.13,2.26,2.28,1.66l27.83-14.63c.46-.24,1-.24,1.46,0l27.83,14.63c1.15,.61,2.5-.37,2.28-1.66l-5.32-30.99c-.09-.51,.08-1.03,.45-1.39l22.52-21.95c.93-.91,.42-2.49-.87-2.68l-10.42-1.51c-16.86,30.25-42.67,46.18-67.44,54.96h.01Z" fill="#fcbd11"/></g></g></g></svg>